<svg xmlns="http://www.w3.org/2000/svg" viewBox="0 0 448 512">
            <g transform="scale(1,-1) translate(0 -448)">
              <path d=" M436 288C442.627 288 448 293.373 448 300V340C448 346.627 442.627 352 436 352H416V400C416 426.51 394.51 448 368 448H48C21.49 448 0 426.51 0 400V-16C0 -42.51 21.49 -64 48 -64H368C394.51 -64 416 -42.51 416 -16V32H436C442.627 32 448 37.373 448 44V84C448 90.627 442.627 96 436 96H416V160H436C442.627 160 448 165.373 448 172V212C448 218.627 442.627 224 436 224H416V288H436zM208 320C252.183 320 288 284.183 288 240S252.183 160 208 160S128 195.817 128 240S163.817 320 208 320zM336 88C336 74.745 325.255 64 312 64H104C90.745 64 80 74.745 80 88V106.523C80 128.549 94.99 147.7480000000001 116.358 153.09L152.015 162.004C181.116 141.072 226.524 135.059 263.985 162.004L299.642 153.09C321.01 147.748 336 128.548 336 106.523V88z"/>
            </g></svg>