<svg xmlns="http://www.w3.org/2000/svg" viewBox="0 0 448 512">
            <g transform="scale(1,-1) translate(0 -448)">
              <path d=" M352 404V364C352 355.163 344.837 348 336 348H112C103.163 348 96 355.163 96 364V404C96 412.837 103.163 420 112 420H336C344.837 420 352 412.837 352 404zM16 220H432C440.837 220 448 227.163 448 236V276C448 284.837 440.837 292 432 292H16C7.163 292 0 284.837 0 276V236C0 227.163 7.163 220 16 220zM16 -36H432C440.837 -36 448 -28.837 448 -20V20C448 28.837 440.837 36 432 36H16C7.163 36 0 28.837 0 20V-20C0 -28.837 7.163 -36 16 -36zM336 164H112C103.163 164 96 156.837 96 148V108C96 99.163 103.163 92 112 92H336C344.837 92 352 99.163 352 108V148C352 156.837 344.837 164 336 164z"/>
            </g></svg>