<svg xmlns="http://www.w3.org/2000/svg" viewBox="0 0 448 512">
            <g transform="scale(1,-1) translate(0 -448)">
              <path d=" M288 404V364C288 355.163 280.837 348 272 348H16C7.163 348 0 355.163 0 364V404C0 412.837 7.163 420 16 420H272C280.837 420 288 412.837 288 404zM0 276V236C0 227.163 7.163 220 16 220H432C440.837 220 448 227.163 448 236V276C448 284.837 440.837 292 432 292H16C7.163 292 0 284.837 0 276zM16 -36H432C440.837 -36 448 -28.837 448 -20V20C448 28.837 440.837 36 432 36H16C7.163 36 0 28.837 0 20V-20C0 -28.837 7.163 -36 16 -36zM272 164H16C7.163 164 0 156.837 0 148V108C0 99.163 7.163 92 16 92H272C280.837 92 288 99.163 288 108V148C288 156.837 280.837 164 272 164z"/>
            </g></svg>