<svg xmlns="http://www.w3.org/2000/svg" viewBox="0 0 640 512">
            <g transform="scale(1,-1) translate(0 -448)">
              <path d=" M290.5470000000001 258.961C270.252 269.11 246.4000000000001 270.1600000000001 225.808 262.851C268.4140000000001 262.851 297.016 242.376 311.386 212.275C319.9620000000001 194.376 306.238 174.204 287.769 174.204C306.198 174.204 319.98 154.068 311.386 136.1330000000001C296.661 105.287 265.2630000000001 85.2790000000001 231.088 85.2790000000001C230.5310000000001 85.2790000000001 136.617 93.8940000000001 136.617 93.8940000000001L70.211 60.5470000000001C60.827 55.8540000000001 50.396 60.1680000000001 46.316 68.3280000000001L1.86 157.253C-2.307 165.868 0.749 176.15 8.806 180.874L66.878 213.943L108 288.139C114.39 345.384 142.731 397.906 187.743 434.865C199.134 444.313 216.084 442.646 225.253 431.252C234.699 419.858 233.033 403.185 221.641 393.736C209.138 383.177 198.023 371.227 189.132 358.166C210.804 372.895 235.811 382.898 263.318 386.233C278.043 388.178 291.381 377.897 293.048 363.168C294.993 348.44 284.712 335.101 269.986 333.434C253.87 331.4890000000001 238.866 325.931 225.808 318.15C251.922 323.863 284.52 321.288 313.887 307.035C327.223 300.366 332.78 284.526 326.111 271.187C319.722 258.127 303.607 252.57 290.547 258.961zM263.3180000000001 189.489C257.206 201.994 244.9800000000001 209.775 231.0870000000001 209.775A35.46 35.46 0 0 1 195.5220000000001 174.2050000000001C195.5220000000001 152.7770000000001 213.3300000000001 138.6350000000001 231.0870000000001 138.6350000000001C244.9800000000001 138.6350000000001 257.206 146.4160000000001 263.3180000000001 158.9210000000001C267.7640000000001 168.3700000000001 276.932 173.927 286.6570000000001 174.2050000000001C276.932 174.482 267.764 180.04 263.3180000000001 189.489zM638.1390000000001 226.7260000000001C642.3070000000001 218.111 639.2500000000001 207.829 631.1930000000001 203.105L573.1220000000001 170.036L532 95.84C525.61 38.595 497.269 -13.927 452.257 -50.886C441.325 -59.998 424.4580000000001 -59.03 414.747 -47.273C405.301 -35.879 406.9670000000001 -19.206 418.36 -9.757C430.863 0.802 441.9770000000001 12.752 450.868 25.813C429.196 11.084 404.189 1.081 376.682 -2.254C366.661 -4.76 349.13 3.389 346.952 20.811C345.007 35.539 355.288 48.878 370.014 50.545C386.13 52.491 401.134 58.048 414.192 65.829C388.0780000000001 60.1159999999999 355.48 62.691 326.113 76.944C312.777 83.6129999999999 307.2200000000001 99.453 313.889 112.792C320.278 125.853 336.394 131.411 349.454 125.019C369.749 114.87 393.601 113.8199999999999 414.193 121.129C371.587 121.129 342.985 141.604 328.615 171.705C320.039 189.604 333.7630000000001 209.776 352.2320000000001 209.776C333.8030000000001 209.776 320.021 229.912 328.615 247.847C342.648 277.243 372.654 298.734 410.581 298.701L503.384 290.086L569.79 323.433C579.198 328.137 589.6179999999999 323.787 593.684 315.652L638.139 226.726zM408.9120000000002 245.344C395.0190000000001 245.344 382.7930000000001 237.563 376.6810000000002 225.058C372.2350000000002 215.609 363.0670000000002 210.052 353.3420000000002 209.774C363.0670000000002 209.4960000000001 372.2350000000002 203.938 376.6810000000002 194.4900000000001C382.7930000000002 181.985 395.0190000000002 174.2040000000001 408.9120000000002 174.2040000000001A35.46 35.46 0 0 1 444.4770000000002 209.7740000000001C444.4770000000002 231.2030000000001 426.6690000000002 245.3440000000001 408.9120000000002 245.3440000000001z"/>
            </g></svg>