<svg xmlns="http://www.w3.org/2000/svg" viewBox="0 0 576 512">
            <g transform="scale(1,-1) translate(0 -448)">
              <path d=" M12.971 96H45.365C67.172 -6.735 181.944 -64 288 -64C394.229 -64 508.853 -6.62 530.635 96H563.029C573.72 96 579.074 108.926 571.514 116.485L504.485 183.514C499.799 188.2 492.201 188.2 487.514 183.514L420.485 116.485C412.925 108.925 418.279 96 428.9700000000001 96H464.116C443.826 41.683 379.153 9.412 319.999 1.985V192H371.999C378.6260000000001 192 383.999 197.373 383.999 204V244C383.999 250.627 378.6260000000001 256 371.999 256H319.999V261.4700000000001C357.2800000000001 274.648 383.9940000000001 310.195 383.999 351.988C384.005 404.228 341.605 447.262 289.37 447.99C235.723 448.739 192 405.475 192 352C192 310.202 218.716 274.65 256 261.4700000000001V256H204C197.373 256 192 250.627 192 244V204C192 197.373 197.373 192 204 192H256V1.985C197.064 9.384 132.18 41.664 111.883 96H147.029C157.72 96 163.074 108.926 155.514 116.485L88.485 183.514C83.799 188.2 76.201 188.2 71.514 183.514L4.485 116.485C-3.074 108.926 2.28 96 12.971 96zM288 384C305.645 384 320 369.645 320 352S305.645 320 288 320S256 334.355 256 352S270.355 384 288 384z"/>
            </g></svg>