<svg xmlns="http://www.w3.org/2000/svg" viewBox="0 0 448 512">
            <g transform="scale(1,-1) translate(0 -448)">
              <path d=" M223.7 209L359.7 345C369.1 354.4 384.3 354.4 393.6 345L416.2 322.4C425.6 313 425.6 297.8 416.2 288.5L319.9 192L416.3 95.6C425.7 86.2000000000001 425.7 71 416.3 61.7000000000001L393.7 39C384.3 29.6 369.1 29.6 359.8 39L223.8 175C214.3 184.4 214.3 199.6 223.7 209zM31.7 175L167.7 39C177.1 29.6 192.3 29.6 201.6 39L224.2 61.6C233.6 71 233.6 86.2000000000001 224.2 95.5L127.9 192L224.3 288.4C233.7 297.8 233.7 313 224.3 322.3L201.7 345C192.3 354.4 177.1 354.4 167.8 345L31.8 209C22.3 199.6 22.3 184.4 31.7 175z"/>
            </g></svg>