<svg xmlns="http://www.w3.org/2000/svg" viewBox="0 0 448 512">
            <g transform="scale(1,-1) translate(0 -448)">
              <path d=" M224.3 175L88.3 39C78.9 29.6 63.7 29.6 54.4 39L31.8 61.6C22.4 71 22.4 86.2000000000001 31.8 95.5L128.2 191.9L31.8 288.3C22.4 297.7 22.4 312.9 31.8 322.2L54.3 345C63.7 354.4 78.9 354.4 88.2 345L224.2 209C233.7 199.6 233.7 184.4 224.3 175zM416.3 209L280.3 345C270.9000000000001 354.4 255.7 354.4 246.4 345L223.8 322.4C214.4 313 214.4 297.8 223.8 288.5L320.2000000000001 192.1L223.8000000000001 95.7C214.4 86.3 214.4 71.1 223.8000000000001 61.8L246.4000000000001 39.2C255.8000000000001 29.8 271.0000000000001 29.8 280.3 39.2L416.3 175.2C425.7 184.4 425.7 199.6 416.3 209z"/>
            </g></svg>