<svg xmlns="http://www.w3.org/2000/svg" viewBox="0 0 320 512">
            <g transform="scale(1,-1) translate(0 -448)">
              <path d=" M177 192.3L313 56.3C322.4 46.9 322.4 31.7 313 22.4L290.4 -0.2C281 -9.6 265.8 -9.6 256.5 -0.2L160 96.1L63.6 -0.3C54.2 -9.6999999999999 39 -9.6999999999999 29.7 -0.3L7 22.3C-2.4 31.7 -2.4 46.9 7 56.2L143 192.2C152.4 201.7 167.6 201.7 177 192.3zM143 384.3L7 248.3C-2.4 238.9 -2.4 223.7 7 214.4L29.6 191.8C39 182.4 54.2 182.4 63.5 191.8L159.9 288.2000000000001L256.3 191.8C265.7 182.4 280.9000000000001 182.4 290.2 191.8L312.8 214.4C322.2 223.8 322.2 239 312.8 248.3L176.8 384.3C167.6 393.7 152.4 393.7 143 384.3z"/>
            </g></svg>