<svg xmlns="http://www.w3.org/2000/svg" viewBox="0 0 320 512">
            <g transform="scale(1,-1) translate(0 -448)">
              <path d=" M143 191.7L7 327.7C-2.4 337.1 -2.4 352.3 7 361.6L29.6 384.2C39 393.6 54.2 393.6 63.5 384.2L159.9 287.8L256.3 384.2C265.7 393.6 280.9000000000001 393.6 290.2 384.2L313 361.7C322.4 352.3 322.4 337.1 313 327.8L177 191.8C167.6 182.3 152.4 182.3 143 191.7zM177 -0.3L313 135.7C322.4 145.1 322.4 160.3 313 169.6L290.4 192.2C281 201.6 265.8 201.6 256.5 192.2L160 95.9L63.6 192.3C54.2 201.7 39 201.7 29.7 192.3L7 169.7C-2.4 160.3 -2.4 145.1 7 135.8L143 -0.2C152.4 -9.7 167.6 -9.7 177 -0.3z"/>
            </g></svg>