<svg xmlns="http://www.w3.org/2000/svg" viewBox="0 0 512 512">
            <g transform="scale(1,-1) translate(0 -448)">
              <path d=" M488 320H24C10.745 320 0 330.745 0 344V392C0 405.255 10.745 416 24 416H488C501.255 416 512 405.255 512 392V344C512 330.745 501.255 320 488 320zM480 -8V264C480 277.255 469.255 288 456 288H56C42.745 288 32 277.255 32 264V-8C32 -21.255 42.745 -32 56 -32H456C469.255 -32 480 -21.255 480 -8zM308 192H204C197.373 192 192 197.373 192 204V212C192 218.627 197.373 224 204 224H308C314.627 224 320 218.627 320 212V204C320 197.373 314.627 192 308 192z"/>
            </g></svg>