<svg xmlns="http://www.w3.org/2000/svg" viewBox="0 0 512 512">
            <g transform="scale(1,-1) translate(0 -448)">
              <path d=" M352.201 22.225L273.005 -56.971C263.632 -66.344 248.437 -66.344 239.064 -56.971L159.868 22.225C144.749 37.3440000000001 155.457 63.196 176.839 63.1950000000001H228.001L228 164H127.196V112.838C127.196 91.456 101.345 80.7480000000001 86.225 95.867L7.029 175.063C-2.344 184.436 -2.344 199.632 7.029 209.004L86.225 288.2C101.344 303.319 127.196 292.611 127.196 271.229V220H228V320.804H176.77C155.388 320.804 144.68 346.655 159.799 361.775L238.995 440.971C248.368 450.344 263.563 450.344 272.9360000000001 440.971L352.1320000000001 361.775C367.2510000000001 346.656 356.5430000000001 320.804 335.1610000000001 320.804H283.9990000000001V220H384.8030000000001V271.1620000000001C384.8030000000001 292.544 410.6540000000001 303.252 425.7730000000002 288.1330000000001L504.9690000000002 208.937C514.3420000000002 199.564 514.3420000000002 184.368 504.9690000000002 174.996L425.773 95.8C410.654 80.681 384.802 91.389 384.803 112.771V164H284V63.196H335.23C356.612 63.196 367.3200000000001 37.345 352.201 22.225z"/>
            </g></svg>