<svg xmlns="http://www.w3.org/2000/svg" viewBox="0 0 512 512">
            <g transform="scale(1,-1) translate(0 -448)">
              <path d=" M256 440C393 440 504 329 504 192S393 -56 256 -56S8 55 8 192S119 440 256 440zM227.1 296.4L302.6 224H120C106.7 224 96 213.3 96 200V184C96 170.7 106.7 160 120 160H302.6L227.1 87.6C217.4 78.3 217.2 62.8 226.7 53.3L237.7 42.4C247.1 33.0000000000001 262.3 33.0000000000001 271.6 42.4L404.3 175C413.7 184.4 413.7 199.6 404.3 208.9L271.6 341.7C262.2000000000001 351.1 247.0000000000001 351.1 237.7 341.7L226.7 330.8C217.2 321.2 217.4 305.7 227.1 296.4z"/>
            </g></svg>