<svg xmlns="http://www.w3.org/2000/svg" viewBox="0 0 448 512">
            <g transform="scale(1,-1) translate(0 -448)">
              <path d=" M34.9 158.5L12.7 180.7C3.3 190.1 3.3 205.3 12.7 214.6L207 409C216.4 418.4 231.6 418.4 240.9 409L435.2000000000001 214.7C444.6 205.3 444.6 190.1 435.2000000000001 180.8L413 158.6C403.5 149.1 388 149.3 378.7 159L264 279.4V-8C264 -21.3 253.3 -32 240 -32H208C194.7 -32 184 -21.3 184 -8V279.4L69.2 158.9C59.9 149.1 44.4 148.9 34.9 158.5z"/>
            </g></svg>