<svg xmlns="http://www.w3.org/2000/svg" viewBox="0 0 512 512">
            <g transform="scale(1,-1) translate(0 -448)">
              <path d=" M216 188C216 172.536 203.464 160 188 160S160 172.536 160 188C160 232.112 195.888 268 240 268S320 232.112 320 188C320 172.536 307.464 160 292 160S264 172.536 264 188C264 201.234 253.233 212 240 212S216 201.234 216 188zM240 364C142.953 364 64 285.0470000000001 64 188C64 172.536 76.536 160 92 160S120 172.536 120 188C120 254.168 173.832 308 240 308S360 254.168 360 188C360 112.836 288.991 117.689 288.003 44.378L288 44C288 15.327 264.673 -8 236 -8C220.536 -8 208 -20.536 208 -36S220.536 -64 236 -64C295.475 -64 343.876 -15.672 344 43.774C344.5950000000001 78.202 416 92.014 416 188C416 285.0470000000001 337.0470000000001 364 240 364zM160 128C142.327 128 128 113.673 128 96S142.327 64 160 64S192 78.327 192 96S177.673 128 160 128zM32 0C14.327 0 0 -14.327 0 -32S14.327 -64 32 -64S64 -49.673 64 -32S49.673 0 32 0zM512 187.993C512 189.511 511.988 191.018 511.955 192.524C510.076 307.475 436.157 409.53 327.9940000000001 446.489C313.3610000000001 451.487 297.4450000000001 443.68 292.444 429.0470000000001C287.444 414.414 295.254 398.498 309.886 393.497C395.7920000000001 364.1430000000001 454.496 282.984 455.963 191.544L455.966 191.356C455.992 190.238 455.999 189.12 455.999 187.993C455.999 172.529 468.535 159.993 483.999 159.993S512 172.529 512 187.993zM152.971 8.971L72.971 88.971L39.03 55.03L119.03 -24.97L152.971 8.971z"/>
            </g></svg>