<svg xmlns="http://www.w3.org/2000/svg" viewBox="0 0 512 512">
            <g transform="scale(1,-1) translate(0 -448)">
              <path d=" M478.21 113.907L336 192L478.21 270.093C490.0050000000001 276.5700000000001 494.171 291.4770000000001 487.442 303.13L467.962 336.8710000000001C461.234 348.524 446.242 352.37 434.735 345.394L296 261.2820000000001L299.475 423.486C299.763 436.939 288.937 448 275.48 448H236.52C223.064 448 212.237 436.939 212.526 423.486L216 261.2820000000001L77.265 345.3930000000001C65.759 352.3690000000001 50.766 348.523 44.038 336.87L24.558 303.129C17.83 291.476 21.996 276.569 33.791 270.092L176 192L33.79 113.907C21.995 107.43 17.829 92.523 24.558 80.87L44.038 47.129C50.766 35.476 65.759 31.63 77.265 38.606L216 122.718L212.525 -39.486C212.237 -52.939 223.064 -64 236.52 -64H275.481C288.937 -64 299.764 -52.939 299.476 -39.486L296 122.718L434.735 38.607C446.241 31.631 461.234 35.477 467.962 47.1300000000001L487.442 80.871C494.17 92.5240000000001 490.005 107.4300000000001 478.21 113.9070000000001z"/>
            </g></svg>