<svg xmlns="http://www.w3.org/2000/svg" viewBox="0 0 512 512">
            <g transform="scale(1,-1) translate(0 -448)">
              <path d=" M256 440C118.941 440 8 329.081 8 192C8 54.941 118.919 -56 256 -56C304.154 -56 351.342 -41.86 391.408 -15.777C403.413 -7.962 406.033 8.511 396.9600000000001 19.595L386.783 32.028C379.112 41.399 365.6040000000001 43.695 355.4100000000001 37.157C325.92 18.243 291.314 8 256 8C154.542 8 72 90.542 72 192S154.542 376 256 376C356.139 376 440 318.381 440 216C440 177.214 418.907 136.258 381.83 132.307C364.481 132.761 364.92 145.164 368.354 162.331L391.787 283.4410000000001C394.653 298.25 383.308 312 368.225 312H323.2440000000001A13.518 13.518 0 0 1 309.812 300.007L309.802 299.915C295.105 317.8160000000001 269.3540000000001 321.69 249.831 321.69C175.251 321.69 112 259.456 112 170.23C112 104.927 148.785 64.36 208 64.36C234.9840000000001 64.36 265.3690000000001 79.997 282.9910000000001 102.693C292.5130000000001 68.589 323.6040000000001 68.59 353.701 68.59C462.609 68.59 504 140.202 504 216C504 352.347 394.023 440 256 440zM234.32 135.57C212.071 135.57 198.25 151.193 198.25 176.341C198.25 221.334 229.029 249.07 256.88 249.07C279.1720000000001 249.07 292.481 233.829 292.481 208.3C292.481 163.239 258.606 135.57 234.32 135.57z"/>
            </g></svg>