<svg xmlns="http://www.w3.org/2000/svg" viewBox="0 0 640 512">
            <g transform="scale(1,-1) translate(0 -448)">
              <path d=" M352 0H520C533.255 0 544 -10.745 544 -24V-40C544 -53.255 533.255 -64 520 -64H120C106.745 -64 96 -53.255 96 -40V-24C96 -10.745 106.745 0 120 0H288V294.676C264.469 304.9600000000001 246.836 326.222 241.603 352H120C106.745 352 96 362.745 96 376V392C96 405.255 106.745 416 120 416H255.999C270.594 435.43 293.828 448 320 448S369.406 435.43 384.001 416H520C533.255 416 544 405.255 544 392V376C544 362.745 533.255 352 520 352H398.397C393.164 326.222 375.531 304.9600000000001 352 294.676V0zM639.981 112C639.982 128.182 641.323 120.726 554.933 293.506C537.286 328.8 486.747 328.8640000000001 469.068 293.506C381.94 119.25 384.019 127.669 384.019 112H384C384 67.817 441.308 32 512 32S640 67.817 640 112H639.981zM512 272L584 128H440L512 272zM255.981 112C255.982 128.182 257.323 120.726 170.933 293.506C153.286 328.8 102.747 328.8640000000001 85.068 293.506C-2.06 119.25 0.019 127.669 0.019 112H0C0 67.817 57.308 32 128 32S256 67.817 256 112H255.981zM128 272L200 128H56L128 272z"/>
            </g></svg>