<svg xmlns="http://www.w3.org/2000/svg" viewBox="0 0 448 512">
            <g transform="scale(1,-1) translate(0 -448)">
              <path d=" M16 316H432C440.837 316 448 323.163 448 332V372C448 380.837 440.837 388 432 388H16C7.163 388 0 380.837 0 372V332C0 323.163 7.163 316 16 316zM16 156H432C440.837 156 448 163.163 448 172V212C448 220.837 440.837 228 432 228H16C7.163 228 0 220.837 0 212V172C0 163.163 7.163 156 16 156zM16 -4H432C440.837 -4 448 3.163 448 12V52C448 60.837 440.837 68 432 68H16C7.163 68 0 60.837 0 52V12C0 3.163 7.163 -4 16 -4z"/>
            </g></svg>