<svg xmlns="http://www.w3.org/2000/svg" viewBox="0 0 496 512">
            <g transform="scale(1,-1) translate(0 -448)">
              <path d=" M368.5 84.1L397.3 98C408.4000000000001 75.1 423.3 54.8 441.4000000000001 37.1C475.4 79.6 495.9 133.4 495.9 192C495.9 250.5000000000001 475.5000000000001 304.2000000000001 441.7000000000001 346.6C423.9000000000001 329.3 409.1 309.5 398.1 287.1L369.4000000000001 301.2000000000001C382.2000000000001 327.2000000000001 399.4000000000001 350.2000000000001 420.2000000000001 370.2000000000001C375.6 413.3 315 440 248 440C181.1 440 120.5 413.4 75.9 370.3C96.6 350.4 113.8 327.4 126.6 301.5L97.9 287.4C86.9 309.7000000000001 72.2 329.5 54.4 346.8C20.4 304.3 0 250.6 0 192C0 133.4 20.4 79.7 54.4 37.3C72.6 55 87.6 75.3 98.7 98.3L127.5 84.4C114.6 57.7000000000001 97.2 34.1 76 13.7C120.5 -29.4 181.1 -55.9999999999999 248 -55.9999999999999C314.8 -55.9999999999999 375.3 -29.4999999999999 419.9 13.5000000000001C398.8 33.9 381.4 57.4 368.5 84.1zM140.2 116.1L109.7 125.9C124.6 172.3 122.4 219.7000000000001 109.1 259.9000000000001L139.5 269.9000000000001C154.5 224.3000000000001 157.5 170 140.2 116.1zM356.5 269.5L386.9 259.5C373.7 219.4 371.4 172 386.3 125.5L355.8 115.7C338.5 169.7 341.5 224 356.5 269.5z"/>
            </g></svg>