<svg xmlns="http://www.w3.org/2000/svg" viewBox="0 0 496 512">
            <g transform="scale(1,-1) translate(0 -448)">
              <path d=" M212.3 437.7C168.5 431.4 126.1 413.6 90.1 383.9L167.5 306.5C195.3 342.3 210.8 387.7 212.3 437.7zM248 226L405.9 383.9C363.5 418.9 312.3 437.4 260.4 440C259.2 376.1 238.9 317.7000000000001 201.7 272.3L248 226zM56.1 349.9C26.4 313.9 8.6 271.5 2.3 227.7C52.3 229.2 97.8 244.7 133.5 272.5L56.1 349.9zM328.3 145.7000000000001C373.6 182.8000000000001 432 203.1000000000001 496 204.4C493.4 256.3000000000001 474.9 307.5 439.9 349.9000000000001L282 192L328.3 145.7zM248 158L90.1 0.1C132.5 -34.8 183.7 -53.4 235.6 -56C236.9 8 257.2 66.4 294.3 111.7L248 158zM439.9 34.1C469.6 70.1 487.4 112.5 493.7 156.3C443.6 154.7 398.2 139.2 362.5 111.5L439.9 34.1zM167.7 238.3C122.3 201.1 63.9 180.7 0 179.6C2.6 127.7000000000001 21.1 76.5 56.1 34.1L214 192L167.7 238.3zM283.7 -53.7C327.5 -47.4 369.9 -29.6 405.9 0.1L328.5 77.5C300.8 41.8 285.3 -3.7 283.7 -53.7z"/>
            </g></svg>