<svg xmlns="http://www.w3.org/2000/svg" viewBox="0 0 512 512">
            <g transform="scale(1,-1) translate(0 -448)">
              <path d=" M488 192H80V336C80 353.645 94.355 368 112 368C123.351 368 133.332 362.055 139.015 353.12C122.523 327.913 124.328 293.544 145.853 270.0850000000001C141.677 265.372 141.832 258.169 146.344 253.657L157.658 242.343C162.344 237.657 169.942 237.657 174.629 242.343L269.659 337.372C274.345 342.058 274.345 349.656 269.659 354.343L258.345 365.6570000000001C253.833 370.169 246.63 370.323 241.917 366.148C223.968 382.617 199.623 387.577 177.739 381.5130000000001C163.281 402.333 139.212 416 112 416C67.888 416 32 380.112 32 336V192H24C10.745 192 0 181.255 0 168V152C0 138.745 10.745 128 24 128H32V96C32 67.57 44.362 42.031 64 24.453V-8C64 -21.255 74.745 -32 88 -32H104C117.255 -32 128 -21.255 128 -8V0H384V-8C384 -21.255 394.745 -32 408 -32H424C437.255 -32 448 -21.255 448 -8V24.453C467.638 42.031 480 67.57 480 96V128H488C501.255 128 512 138.745 512 152V168C512 181.255 501.255 192 488 192z"/>
            </g></svg>