<svg xmlns="http://www.w3.org/2000/svg" viewBox="0 0 512 512">
            <g transform="scale(1,-1) translate(0 -448)">
              <path d=" M192 344H96V392C96 405.255 106.745 416 120 416H168C181.255 416 192 405.255 192 392V344zM416 392C416 405.255 405.255 416 392 416H344C330.745 416 320 405.255 320 392V344H416V392zM0 -8C0 -21.255 10.745 -32 24 -32H144C157.255 -32 168 -21.255 168 -8V8H0V-8zM88 320C74.745 320 64 309.255 64 296C64 192 0 176 0 32H168V136C168 149.255 178.745 160 192 160V320H88zM344 -8C344 -21.255 354.745 -32 368 -32H488C501.255 -32 512 -21.255 512 -8V8H344V-8zM216 320V160H296V320H216zM344 32H512C512 176 448 192 448 296C448 309.255 437.255 320 424 320H320V160C333.255 160 344 149.255 344 136V32z"/>
            </g></svg>