<svg xmlns="http://www.w3.org/2000/svg" viewBox="0 0 448 512">
            <g transform="scale(1,-1) translate(0 -448)">
              <path d=" M448 64C419.98 64 416.74 96 373.5 96C330.07 96 326.675 64 298.75 64C271.055 64 267.296 96 224 96C181.158 96 176.782 64 149.5 64C121.352 64 118.298 96 74.75 96C31.203 96 28.097 64 0 64V144C0 170.5 21.5 192 48 192H64V336H128V192H192V336H256V192H320V336H384V192H400C426.5 192 448 170.5 448 144V64zM448 -64H0V32C43.356 32 46.767 64 74.75 64C102.701 64 106.003 32 149.5 32C192.343 32 196.717 64 224 64C252.148 64 255.201 32 298.75 32C342.107 32 345.517 64 373.5 64C400.988 64 404.752 32 448 32V-64zM96 352C78.25 352 64 366.25 64 384C64 415 96 407 96 448C108 448 128 418.5 128 392S113.75 352 96 352zM224 352C206.25 352 192 366.25 192 384C192 415 224 407 224 448C236 448 256 418.5 256 392S241.75 352 224 352zM352 352C334.25 352 320 366.25 320 384C320 415 352 407 352 448C364 448 384 418.5 384 392S369.75 352 352 352z"/>
            </g></svg>