<svg xmlns="http://www.w3.org/2000/svg" viewBox="0 0 384 512">
            <g transform="scale(1,-1) translate(0 -448)">
              <path d=" M304.793 204.109C338.432 222.646 358.45 258.269 358.45 299.802C358.45 348.038 332.2 387.428 289.824 403.981C265.138 413.99 240.849 416 209.661 416H24C15.163 416 8 408.837 8 400V366.951C8 358.114 15.163 350.951 24 350.951H57.113V32.4210000000001H24C15.163 32.4210000000001 8 25.258 8 16.4210000000001V-16C8 -24.837 15.163 -32 24 -32H219.69C243.893 -32 264.524 -30.711 286.556 -24.416C337.52 -9.193 376 37.353 376 97.986C376 150.154 349.427 189.67 304.793 204.109zM142.217 347.1910000000001H209.661C225.955 347.1910000000001 237.197 345.1720000000001 247.186 340.474C263.014 331.995 272.092 313.972 272.092 291.028C272.092 255.999 251.772 234.2380000000001 219.063 234.2380000000001H142.217V347.1910000000001zM254.859 41.716C244.719 37.66 232.182 36.809 223.45 36.809H142.217V166.057H226.584C266.229 166.057 289.641 140.677 289.641 103C289.642 74.575 275.981 50.517 254.8590000000001 41.716z"/>
            </g></svg>