<svg xmlns="http://www.w3.org/2000/svg" viewBox="0 0 512 512">
            <g transform="scale(1,-1) translate(0 -448)">
              <path d=" M440.5 359.5L388.5 307.5L415 281C424.4 271.6 424.4 256.4 415 247.1L397.6 229.7C409.4000000000001 203.6 416 174.6 416 144.1C416 29.2 322.9 -63.9 208 -63.9S0 29.1 0 144S93.1 352 208 352C238.5 352 267.5 345.4 293.6 333.6L311 351C320.4 360.4 335.6 360.4 344.9 351L371.4 324.5L423.4 376.5L440.5 359.5zM500 388H476C469.4 388 464 382.6 464 376S469.4 364 476 364H500C506.6 364 512 369.4 512 376S506.6 388 500 388zM440 448C433.4 448 428 442.6 428 436V412C428 405.4 433.4 400 440 400S452 405.4 452 412V436C452 442.6 446.6 448 440 448zM473.9 393L490.9 410C495.6 414.7 495.6 422.3 490.9 427C486.2 431.7 478.6 431.7 473.9 427L456.9 410C452.2 405.3 452.2 397.7 456.9 393C461.7 388.3 469.3 388.3 473.9 393zM406.1 393C410.8 388.3 418.4 388.3 423.1 393C427.8 397.7 427.8 405.3 423.1 410L406.1 427C401.4 431.7 393.8 431.7 389.1 427C384.4 422.3 384.4 414.7 389.1 410L406.1 393zM473.9 359C469.2 363.7 461.6 363.7 456.9 359C452.2 354.3 452.2 346.7 456.9 342L473.9 325C478.6 320.3 486.2 320.3 490.9 325C495.6 329.7 495.6 337.3 490.9 342L473.9 359zM112 176C112 211.3 140.7 240 176 240C184.8 240 192 247.2 192 256S184.8 272 176 272C123.1 272 80 228.9 80 176C80 167.2 87.2 160 96 160S112 167.2 112 176z"/>
            </g></svg>