<svg xmlns="http://www.w3.org/2000/svg" viewBox="0 0 448 512">
            <g transform="scale(1,-1) translate(0 -448)">
              <path d=" M448 88V424C448 437.3 437.3 448 424 448H96C43 448 0 405 0 352V32C0 -21 43 -64 96 -64H424C437.3 -64 448 -53.3 448 -40V-24C448 -16.5 444.5 -9.7 439.1 -5.3C434.9000000000001 10.1 434.9000000000001 54 439.1 69.4C444.5 73.7 448 80.5 448 88zM128 314C128 317.3 130.7 320 134 320H346C349.3 320 352 317.3 352 314V294C352 290.7 349.3 288 346 288H134C130.7 288 128 290.7 128 294V314zM128 250C128 253.3 130.7 256 134 256H346C349.3 256 352 253.3 352 250V230C352 226.7 349.3 224 346 224H134C130.7 224 128 226.7 128 230V250zM381.4 0H96C78.3 0 64 14.3 64 32C64 49.6 78.4 64 96 64H381.4C379.5 46.9 379.5 17.1 381.4 0z"/>
            </g></svg>