<svg xmlns="http://www.w3.org/2000/svg" viewBox="0 0 496 512">
            <g transform="scale(1,-1) translate(0 -448)">
              <path d=" M248 440C111 440 0 329 0 192S111 -56 248 -56S496 55 496 192S385 440 248 440zM120 256C102.3 256 88 270.3 88 288S102.3 320 120 320S152 305.7 152 288S137.7 256 120 256zM184 352C184 369.7 198.3 384 216 384S248 369.7 248 352S233.7 320 216 320S184 334.3 184 352zM232 208C214.3 208 200 222.3 200 240S214.3 272 232 272S264 257.7 264 240S249.7 208 232 208z"/>
            </g></svg>