<svg xmlns="http://www.w3.org/2000/svg" viewBox="0 0 512 512">
            <g transform="scale(1,-1) translate(0 -448)">
              <path d=" M320 160H512V16C512 -10.51 490.51 -32 464 -32H48C21.49 -32 0 -10.51 0 16V160H192V140C192 133.373 197.373 128 204 128H308C314.627 128 320 133.373 320 140V160zM512 272V192H0V272C0 298.51 21.49 320 48 320H128V368C128 394.51 149.49 416 176 416H336C362.51 416 384 394.51 384 368V320H464C490.51 320 512 298.51 512 272zM320 352H192V320H320V352z"/>
            </g></svg>