<svg xmlns="http://www.w3.org/2000/svg" viewBox="0 0 448 512">
            <g transform="scale(1,-1) translate(0 -448)">
              <path d=" M436 -32H416V424C416 437.255 405.255 448 392 448H56C42.745 448 32 437.255 32 424V-32H12C5.373 -32 0 -37.373 0 -44V-64H448V-44C448 -37.373 442.627 -32 436 -32zM128 372C128 378.627 133.373 384 140 384H180C186.627 384 192 378.627 192 372V332C192 325.373 186.627 320 180 320H140C133.373 320 128 325.373 128 332V372zM128 276C128 282.627 133.373 288 140 288H180C186.627 288 192 282.627 192 276V236C192 229.373 186.627 224 180 224H140C133.373 224 128 229.373 128 236V276zM180 128H140C133.373 128 128 133.373 128 140V180C128 186.627 133.373 192 140 192H180C186.627 192 192 186.627 192 180V140C192 133.373 186.627 128 180 128zM256 -32H192V52C192 58.627 197.373 64 204 64H244C250.627 64 256 58.627 256 52V-32zM320 140C320 133.373 314.627 128 308 128H268C261.373 128 256 133.373 256 140V180C256 186.627 261.373 192 268 192H308C314.627 192 320 186.627 320 180V140zM320 236C320 229.373 314.627 224 308 224H268C261.373 224 256 229.373 256 236V276C256 282.627 261.373 288 268 288H308C314.627 288 320 282.627 320 276V236zM320 332C320 325.373 314.627 320 308 320H268C261.373 320 256 325.373 256 332V372C256 378.627 261.373 384 268 384H308C314.627 384 320 378.627 320 372V332z"/>
            </g></svg>