<svg xmlns="http://www.w3.org/2000/svg" viewBox="0 0 448 512">
            <g transform="scale(1,-1) translate(0 -448)">
              <path d=" M0 -16V400C0 426.51 21.49 448 48 448H400C426.51 448 448 426.51 448 400V-16C448 -42.51 426.51 -64 400 -64H48C21.49 -64 0 -42.51 0 -16zM384 268V372C384 378.627 378.627 384 372 384H76C69.373 384 64 378.627 64 372V268C64 261.373 69.373 256 76 256H372C378.627 256 384 261.373 384 268zM128 140V180C128 186.627 122.627 192 116 192H76C69.373 192 64 186.627 64 180V140C64 133.373 69.373 128 76 128H116C122.627 128 128 133.373 128 140zM384 12V180C384 186.627 378.627 192 372 192H332C325.373 192 320 186.627 320 180V12C320 5.373 325.373 0 332 0H372C378.627 0 384 5.373 384 12zM128 12V52C128 58.627 122.627 64 116 64H76C69.373 64 64 58.627 64 52V12C64 5.373 69.373 0 76 0H116C122.627 0 128 5.373 128 12zM256 140V180C256 186.627 250.627 192 244 192H204C197.373 192 192 186.627 192 180V140C192 133.373 197.373 128 204 128H244C250.627 128 256 133.373 256 140zM256 12V52C256 58.627 250.627 64 244 64H204C197.373 64 192 58.627 192 52V12C192 5.373 197.373 0 204 0H244C250.627 0 256 5.373 256 12z"/>
            </g></svg>