<svg xmlns="http://www.w3.org/2000/svg" viewBox="0 0 448 512">
            <g transform="scale(1,-1) translate(0 -448)">
              <path d=" M12 256H436C442.6 256 448 250.6 448 244V-16C448 -42.5 426.5 -64 400 -64H48C21.5 -64 0 -42.5 0 -16V244C0 250.6 5.4 256 12 256zM448 300V336C448 362.5 426.5 384 400 384H352V436C352 442.6 346.6 448 340 448H300C293.4 448 288 442.6 288 436V384H160V436C160 442.6 154.6 448 148 448H108C101.4 448 96 442.6 96 436V384H48C21.5 384 0 362.5 0 336V300C0 293.4 5.4 288 12 288H436C442.6 288 448 293.4 448 300z"/>
            </g></svg>