<svg xmlns="http://www.w3.org/2000/svg" viewBox="0 0 448 512">
            <g transform="scale(1,-1) translate(0 -448)">
              <path d=" M436 288H12C5.4 288 0 293.4 0 300V336C0 362.5 21.5 384 48 384H96V436C96 442.6 101.4 448 108 448H148C154.6 448 160 442.6 160 436V384H288V436C288 442.6 293.4 448 300 448H340C346.6 448 352 442.6 352 436V384H400C426.5 384 448 362.5 448 336V300C448 293.4 442.6 288 436 288zM12 256H436C442.6 256 448 250.6 448 244V-16C448 -42.5 426.5 -64 400 -64H48C21.5 -64 0 -42.5 0 -16V244C0 250.6 5.4 256 12 256zM316 64C322.6 64 328 69.4 328 76V116C328 122.6 322.6 128 316 128H132C125.4 128 120 122.6 120 116V76C120 69.4 125.4 64 132 64H316z"/>
            </g></svg>