<svg xmlns="http://www.w3.org/2000/svg" viewBox="0 0 448 512">
            <g transform="scale(1,-1) translate(0 -448)">
              <path d=" M436 288H12C5.373 288 0 293.373 0 300V336C0 362.51 21.49 384 48 384H96V436C96 442.627 101.373 448 108 448H148C154.627 448 160 442.627 160 436V384H288V436C288 442.627 293.373 448 300 448H340C346.627 448 352 442.627 352 436V384H400C426.51 384 448 362.51 448 336V300C448 293.373 442.627 288 436 288zM12 256H436C442.627 256 448 250.627 448 244V-16C448 -42.51 426.51 -64 400 -64H48C21.49 -64 0 -42.51 0 -16V244C0 250.627 5.373 256 12 256zM345.296 160.053L317.127 188.451C312.4600000000001 193.156 304.862 193.187 300.1570000000001 188.519L194.12 83.335L148.14 129.687C143.473 134.392 135.874 134.423 131.169 129.755L102.772 101.5849999999999C98.067 96.918 98.036 89.3199999999999 102.704 84.6149999999999L185.305 1.3459999999999C189.972 -3.3590000000001 197.57 -3.3900000000001 202.275 1.2779999999999L345.228 143.0829999999999C349.933 147.7499999999999 349.964 155.3479999999999 345.296 160.0529999999999z"/>
            </g></svg>