<svg xmlns="http://www.w3.org/2000/svg" viewBox="0 0 512 512">
            <g transform="scale(1,-1) translate(0 -448)">
              <path d=" M499.991 280H445.176L437.322 300.944C428.13 325.457 411.897 346.295 390.38 361.207S343.651 384 317.472 384H194.528C168.348 384 143.137 376.118 121.62 361.207C100.102 346.295 83.87 325.457 74.678 300.944L66.824 280H12.009C3.818 280 -1.965 271.976 0.625 264.2050000000001L8.625 240.205A12 12 0 0 1 20.009 232H48.824L48.772 231.86C29.222 220.907 16 200.003 16 176V128C16 111.775 22.049 96.971 32 85.691V24C32 10.745 42.745 0 56 0H104C117.255 0 128 10.745 128 24V64H384V24C384 10.745 394.745 0 408 0H456C469.255 0 480 10.745 480 24V85.691C489.951 96.972 496 111.776 496 128V176C496 200.003 482.778 220.907 463.228 231.86L463.176 232H491.991A12 12 0 0 1 503.375 240.205L511.375 264.2050000000001C513.965 271.976 508.182 280 499.991 280zM134.603 278.472C143.918 303.3110000000001 168 320 194.528 320H317.472C344 320 368.082 303.3110000000001 377.397 278.472L391.824 240H120.176L134.603 278.472zM88 120C70.327 120 56 134.327 56 152C56 169.673 70.327 184 88 184S136 153.673 136 136S105.673 120 88 120zM424 120C406.327 120 376 118.327 376 136C376 153.673 406.327 184 424 184S456 169.673 456 152C456 134.327 441.673 120 424 120z"/>
            </g></svg>