<svg xmlns="http://www.w3.org/2000/svg" viewBox="0 0 512 512">
            <g transform="scale(1,-1) translate(0 -448)">
              <path d=" M458.622 192.08L504.607 237.085C518.315 250.062 511.923 273.124 493.943 277.424L431.2930000000001 293.414L448.9540000000001 355.4290000000001C453.9450000000001 373.2670000000001 437.1250000000001 390.092 419.2930000000001 385.1L357.2990000000001 367.433L341.3150000000001 430.1040000000001C337.085 447.803 313.765 454.276 300.99 440.772L256 394.43L211.011 440.771C198.381 454.122 174.964 448.005 170.686 430.103L154.702 367.432L92.707 385.099C74.87 390.093 58.056 373.262 63.046 355.428L80.707 293.413L18.057 277.423C0.069 273.122 -6.31 250.056 7.392 237.085L53.377 192.08L7.392 147.076C-6.316 134.0990000000001 0.076 111.037 18.056 106.737L80.706 90.747L63.045 28.732C58.054 10.894 74.874 -5.931 92.706 -0.939L154.7 16.7280000000001L170.684 -45.9429999999999C175.123 -64.5179999999999 198.38 -69.9609999999999 211.009 -56.6109999999999L256 -10.61L300.989 -56.611C313.489 -70.0989999999999 336.976 -64.097 341.314 -45.943L357.298 16.728L419.2919999999999 -0.939C437.128 -5.933 453.9429999999999 10.898 448.9529999999999 28.732L431.2919999999999 90.747L493.9419999999999 106.737C511.9289999999999 111.0390000000001 518.3079999999999 134.1040000000001 504.6059999999999 147.076L458.6219999999999 192.08z"/>
            </g></svg>