<svg xmlns="http://www.w3.org/2000/svg" viewBox="0 0 576 512">
            <g transform="scale(1,-1) translate(0 -448)">
              <path d=" M288 435.7V208H515.7C522.6 208 528 213.8 527.7 220.7C521.3000000000001 343.1 423.2000000000001 441.3 300.7000000000001 447.7C293.8000000000001 448 288.0000000000001 442.6 288.0000000000001 435.7zM552.7 160C559.6 160 565 154.2 564.7 147.3C561.9000000000001 94.1 541.5 41.7 503.5000000000001 -0.5C498.9 -5.6 490.9 -5.9 486.0000000000001 -1L325 160H552.7zM401 15C405.8 10.2 405.7 2.2 400.6 -2.3C358 -40.7 301.6 -64 239.8 -64C107.6 -63.9 -0.2 44.2 0 176.5C0.2 304.6 100.8 409.1 227.3 415.7C234.2 416.1 240 410.6 240 403.7V176L401 15z"/>
            </g></svg>