<svg xmlns="http://www.w3.org/2000/svg" viewBox="0 0 448 512">
            <g transform="scale(1,-1) translate(0 -448)">
              <path d=" M400 -32H48C21.49 -32 0 -10.51 0 16V368C0 394.51 21.49 416 48 416H400C426.51 416 448 394.51 448 368V16C448 -10.51 426.51 -32 400 -32zM195.314 66.059L379.314 250.059C385.562 256.307 385.562 266.438 379.314 272.686L356.687 295.313C350.439 301.561 340.308 301.562 334.059 295.313L184 145.255L113.941 215.314C107.693 221.562 97.562 221.562 91.313 215.314L68.686 192.687C62.438 186.439 62.438 176.308 68.686 170.06L172.686 66.06C178.935 59.81 189.065 59.81 195.314 66.059z"/>
            </g></svg>