<svg xmlns="http://www.w3.org/2000/svg" viewBox="0 0 512 512">
            <g transform="scale(1,-1) translate(0 -448)">
              <path d=" M504 192C504 55.033 392.967 -56 256 -56S8 55.033 8 192S119.033 440 256 440S504 328.967 504 192zM227.314 60.686L411.314 244.686C417.562 250.934 417.562 261.065 411.314 267.313L388.687 289.94C382.439 296.189 372.308 296.189 366.059 289.94L216 139.882L145.941 209.941C139.693 216.189 129.562 216.189 123.313 209.941L100.686 187.314C94.438 181.066 94.438 170.935 100.686 164.687L204.686 60.687C210.935 54.438 221.065 54.438 227.314 60.686z"/>
            </g></svg>