<svg xmlns="http://www.w3.org/2000/svg" viewBox="0 0 512 512">
            <g transform="scale(1,-1) translate(0 -448)">
              <path d=" M256 192V128H192V192H256zM256 448H192V384H256V448zM256 192H320V256H256V192zM384 448H320V384H384V448zM384 -64H448V0H384V-64zM512 0V64H448V0H512zM128 -64H192V0H128V-64zM128 448H64V384H128V448zM512 256V320H448V256H512zM512 128V192H448V128H512zM0 -64H64V0H0V-64zM0 384V320H64V384H0zM0 256V192H64V256H0zM0 128V64H64V128H0zM256 -64H320V0H256V-64zM192 64V0H256V64H192zM256 256V320H192V256H256zM64 64V0H128V64H64zM128 192H64V128H128V192zM384 64H448V128H384V64zM512 448H448V384H512V448zM384 192H448V256H384V192zM384 384V320H448V384H384zM320 64V0H384V64H320zM128 128V64H192V128H128zM256 128V64H320V128H256zM192 256H128V192H192V256zM128 320H64V256H128V320zM320 128H384V192H320V128zM192 320V384H128V320H192zM320 320V384H256V320H320zM320 256H384V320H320V256z"/>
            </g></svg>