<svg xmlns="http://www.w3.org/2000/svg" viewBox="0 0 320 512">
            <g transform="scale(1,-1) translate(0 -448)">
              <path d=" M123.158 370.1190000000001C107.369 375.4700000000001 96 390.403 96 408C96 430.091 113.909 448 136 448H183.796C205.887 448 223.796 430.091 223.796 408C223.796 390.459 212.501 375.5660000000001 196.791 370.171C220.784 353.514 245.368 323.332 265.4940000000001 288.121L144.929 167.557A6 6 0 0 1 144.929 159.072L159.071 144.93A6 6 0 0 1 167.556 144.93L280.9 258.274C298.658 219.977 310.271 178.831 310.271 144.001C310.271 90.215 287.374 68.213 251.825 57.968V0H68.174V57.97C32.631 68.216 9.739 90.219 9.739 144C9.739 222.029 68.02 331.766 123.158 370.1190000000001zM320 -52V-28C320 -21.373 314.627 -16 308 -16H12C5.373 -16 0 -21.373 0 -28V-52C0 -58.627 5.373 -64 12 -64H308C314.627 -64 320 -58.627 320 -52z"/>
            </g></svg>