<svg xmlns="http://www.w3.org/2000/svg" viewBox="0 0 512 512">
            <g transform="scale(1,-1) translate(0 -448)">
              <path d=" M199.821 230.367A6 6 0 0 0 205.821 224.367L205.82 203.601A6 6 0 0 0 199.82 197.601H174.015C174.015 165.886 171.862 101.4 191.413 44.372H64.597C84.54 102.548 82.02 168.755 82.02 197.601H56.183A6 6 0 0 0 50.183 203.601L50.185 224.367A6 6 0 0 0 56.185 230.367H199.821zM41.554 332.9120000000001L76.134 237.841H179.868L214.44 332.913C217.286 340.7390000000001 211.49 349.014 203.162 349.014H152V379.2340000000001H173.57A6 6 0 0 1 179.57 385.2340000000001V407.617A6 6 0 0 1 173.57 413.617H145.203V442A6 6 0 0 1 139.203 448H116.82A6 6 0 0 1 110.82 442V413.617H82.421A6 6 0 0 1 76.421 407.617V385.2340000000001A6 6 0 0 1 82.421 379.2340000000001H104V349.015H52.831C44.503 349.014 38.707 340.7390000000001 41.554 332.9120000000001zM222.678 2.83V30.897A6 6 0 0 1 216.678 36.897H39.322A6 6 0 0 1 33.322 30.897V2.83L11.174 -11.334A6 6 0 0 1 8.407 -16.389V-58A6 6 0 0 1 14.407 -64H241.594A6 6 0 0 1 247.594 -58V-16.388A6 6 0 0 1 244.8270000000001 -11.333L222.678 2.83zM313.256 147.055L338.136 130.0919999999999C338.226 111.9679999999999 337.969 66.1879999999999 326.231 15.5699999999999H473.757C462.044 66.045 461.788 111.894 461.875 130.107L486.734 147.056A3.856 3.856 0 0 1 488.418 150.243V220.144A3.8569999999999998 3.8569999999999998 0 0 1 484.561 224.001H456.9059999999999A3.8569999999999998 3.8569999999999998 0 0 1 453.0489999999999 220.144V188.63H430.3119999999999V220.144A3.8569999999999998 3.8569999999999998 0 0 1 426.4539999999999 224.001H373.5359999999999A3.8569999999999998 3.8569999999999998 0 0 1 369.6789999999999 220.144V188.63H346.9419999999999V220.144A3.8569999999999998 3.8569999999999998 0 0 1 343.0849999999998 224.001H315.43A3.8569999999999998 3.8569999999999998 0 0 1 311.573 220.144V150.243A3.8549999999999995 3.8549999999999995 0 0 1 313.256 147.055zM384.841 95.149C384.841 103.521 391.628 110.307 400 110.307S415.158 103.52 415.158 95.149V64.831H384.841V95.149zM504.62 -22.059L490.956 -11.42V4.132A3.8569999999999998 3.8569999999999998 0 0 1 487.099 7.989H312.915A3.8569999999999998 3.8569999999999998 0 0 1 309.058 4.132V-11.42L295.381 -22.059A3.8569999999999998 3.8569999999999998 0 0 1 293.893 -25.103V-60.142A3.8569999999999998 3.8569999999999998 0 0 1 297.75 -63.999H502.25A3.8569999999999998 3.8569999999999998 0 0 1 506.107 -60.142V-25.102A3.859 3.859 0 0 1 504.62 -22.059z"/>
            </g></svg>