<svg xmlns="http://www.w3.org/2000/svg" viewBox="0 0 384 512">
            <g transform="scale(1,-1) translate(0 -448)">
              <path d=" M352 224V0H32V46.557C32 76.859 49.12 104.56 76.223 118.111L133.466 146.733A48 48 0 0 1 160 189.666V240L137.873 228.937A23.996 23.996 0 0 1 125.323 213.292L113.488 165.954A12 12 0 0 0 106.303 157.723L76.702 145.8830000000001A11.998 11.998 0 0 0 67.372 146.059L7.126 172.833A12 12 0 0 0 0 183.799V342.059C0 348.424 2.529 354.529 7.03 359.03L16 368L1.789 396.4220000000001A16.937 16.937 0 0 0 0 404C0 410.627 5.373 416 12 416H160C266.039 416 352 330.039 352 224zM372 -16H12C5.373 -16 0 -21.373 0 -28V-52C0 -58.627 5.373 -64 12 -64H372C378.627 -64 384 -58.627 384 -52V-28C384 -21.373 378.627 -16 372 -16zM52 320C40.954 320 32 311.046 32 300S40.954 280 52 280S72 288.954 72 300S63.046 320 52 320z"/>
            </g></svg>