<svg xmlns="http://www.w3.org/2000/svg" viewBox="0 0 384 512">
            <g transform="scale(1,-1) translate(0 -448)">
              <path d=" M81.241 232.973C80.957 189.08 77.411 99.924 48 0H335.9820000000001C306.5820000000001 99.604 303.0460000000001 188.912 302.761 232.975L348.1790000000001 275.287A11.998 11.998 0 0 1 351.999 284.067V404C351.999 410.627 346.6260000000001 416 339.999 416H299.999C293.372 416 287.999 410.627 287.999 404V360H239.999V404C239.999 410.627 234.6260000000001 416 227.999 416H155.999C149.372 416 143.999 410.627 143.999 404V360H96V404C96 410.627 90.627 416 84 416H44C37.373 416 32 410.627 32 404V284.068C32 280.738 33.384 277.558 35.82 275.288L81.241 232.973zM160 192C160 209.673 174.327 224 192 224C209.673 224 224 209.673 224 192V127.996H160V192zM384 -28V-52C384 -58.627 378.627 -64 372 -64H12C5.373 -64 0 -58.627 0 -52V-28C0 -21.373 5.373 -16 12 -16H372C378.627 -16 384 -21.373 384 -28z"/>
            </g></svg>