<svg xmlns="http://www.w3.org/2000/svg" viewBox="0 0 512 512">
            <g transform="scale(1,-1) translate(0 -448)">
              <path d=" M8 192C8 329 119 440 256 440S504 329 504 192S393 -56 256 -56S8 55 8 192zM239 305.9L103.5 170.4C94.1 161 94.1 145.8 103.5 136.5L120.5 119.5C129.9 110.1 145.1 110.1 154.4 119.5L256 221.1L357.6 119.5C367 110.1 382.2000000000001 110.1 391.5 119.5L408.5 136.5C417.9 145.9 417.9 161.1 408.5 170.4L273 305.9C263.6 315.3 248.4 315.3 239 305.9z"/>
            </g></svg>