<svg xmlns="http://www.w3.org/2000/svg" viewBox="0 0 512 512">
            <g transform="scale(1,-1) translate(0 -448)">
              <path d=" M504 192C504 55 393 -56 256 -56S8 55 8 192S119 440 256 440S504 329 504 192zM273 78.1L408.5 213.6C417.9 223 417.9 238.2 408.5 247.5000000000001L391.5 264.5C382.1 273.9000000000001 366.9 273.9000000000001 357.6 264.5L256 162.9L154.4 264.5C145 273.9 129.8 273.9 120.5 264.5L103.5 247.5C94.1 238.1 94.1 222.9 103.5 213.6L239 78.1C248.4 68.7000000000001 263.6 68.7000000000001 273 78.1z"/>
            </g></svg>