<svg xmlns="http://www.w3.org/2000/svg" viewBox="0 0 384 512">
            <g transform="scale(1,-1) translate(0 -448)">
              <path d=" M120 376C120 415.765 152.235 448 192 448S264 415.765 264 376C264 336.236 231.765 304 192 304S120 336.236 120 376zM374.627 374.627C362.1310000000001 387.124 341.8690000000001 387.124 329.373 374.627L242.745 288H141.254L54.627 374.627C42.131 387.124 21.869 387.124 9.373 374.627C-3.124 362.13 -3.124 341.8690000000001 9.373 329.372L104 234.746V-32C104 -49.673 118.327 -64 136 -64H152C169.673 -64 184 -49.673 184 -32V80H200V-32C200 -49.673 214.327 -64 232 -64H248C265.673 -64 280 -49.673 280 -32V234.746L374.627 329.373C387.124 341.87 387.124 362.13 374.627 374.627z"/>
            </g></svg>