<svg xmlns="http://www.w3.org/2000/svg" viewBox="0 0 512 512">
            <g transform="scale(1,-1) translate(0 -448)">
              <path d=" M288 408.944V392.2850000000001C288 381.481 295.281 372.126 305.686 369.219C383.204 347.5660000000001 440 276.482 440 192C440 90.311 357.705 8 256 8C154.311 8 72 90.295 72 192C72 276.4700000000001 128.786 347.564 206.312 369.219C216.719 372.126 224 381.483 224 392.288V408.936C224 424.645 209.166 436.089 193.954 432.17C86.603 404.5180000000001 7.394 306.794 8.003 190.668C8.723 53.616 119.48 -56.288 256.534 -55.999C393.255 -55.711 504 55.212 504 192C504 307.633 424.86 404.779 317.789 432.236C302.678 436.111 288 424.544 288 408.944z"/>
            </g></svg>