<svg xmlns="http://www.w3.org/2000/svg" viewBox="0 0 384 512">
            <g transform="scale(1,-1) translate(0 -448)">
              <path d=" M336 384H256C256 419.3 227.3 448 192 448S128 419.3 128 384H48C21.5 384 0 362.5 0 336V-16C0 -42.5 21.5 -64 48 -64H336C362.5 -64 384 -42.5 384 -16V336C384 362.5 362.5 384 336 384zM192 408C205.3 408 216 397.3 216 384S205.3 360 192 360S168 370.7 168 384S178.7 408 192 408zM313.2 176.2L170.2 34.4C165.5 29.7 157.9 29.8 153.2 34.5L70.6 117.8C65.9 122.5 66 130.1 70.7 134.8L99.1 163C103.8 167.7 111.4 167.6 116.1 162.9L162.1 116.5L268.1 221.7C272.8 226.4 280.4000000000001 226.3 285.1 221.6L313.3 193.2C318 188.4 317.9000000000001 180.9 313.2 176.2z"/>
            </g></svg>