<svg xmlns="http://www.w3.org/2000/svg" viewBox="0 0 384 512">
            <g transform="scale(1,-1) translate(0 -448)">
              <path d=" M336 384H256C256 419.3 227.3 448 192 448S128 419.3 128 384H48C21.5 384 0 362.5 0 336V-16C0 -42.5 21.5 -64 48 -64H336C362.5 -64 384 -42.5 384 -16V336C384 362.5 362.5 384 336 384zM96 24C82.7 24 72 34.7 72 48S82.7 72 96 72S120 61.3 120 48S109.3 24 96 24zM96 120C82.7 120 72 130.7 72 144S82.7 168 96 168S120 157.3 120 144S109.3 120 96 120zM96 216C82.7 216 72 226.7 72 240S82.7 264 96 264S120 253.3 120 240S109.3 216 96 216zM192 408C205.3 408 216 397.3 216 384S205.3 360 192 360S168 370.7 168 384S178.7 408 192 408zM320 40C320 35.6 316.4 32 312 32H168C163.6 32 160 35.6 160 40V56C160 60.4 163.6 64 168 64H312C316.4 64 320 60.4 320 56V40zM320 136C320 131.6 316.4 128 312 128H168C163.6 128 160 131.6 160 136V152C160 156.4 163.6 160 168 160H312C316.4 160 320 156.4 320 152V136zM320 232C320 227.6 316.4 224 312 224H168C163.6 224 160 227.6 160 232V248C160 252.4 163.6 256 168 256H312C316.4 256 320 252.4 320 248V232z"/>
            </g></svg>