<svg width="17" height="17" viewBox="0 0 17 17" fill="none" xmlns="http://www.w3.org/2000/svg">
<path fill-rule="evenodd" clip-rule="evenodd" d="M3.19816 3.19234C3.4116 2.97755 3.75766 2.97755 3.97109 3.19234L13.8089 13.0923C14.0223 13.3071 14.0223 13.6554 13.8089 13.8702C13.5954 14.0849 13.2494 14.0849 13.0359 13.8702L3.19816 3.97016C2.98473 3.75537 2.98473 3.40713 3.19816 3.19234Z" fill="black"/>
<path fill-rule="evenodd" clip-rule="evenodd" d="M13.7395 3.19234C13.5261 2.97755 13.1801 2.97755 12.9666 3.19234L3.12883 13.0923C2.91539 13.3071 2.91539 13.6554 3.12883 13.8702C3.34227 14.0849 3.68832 14.0849 3.90176 13.8702L13.7395 3.97016C13.953 3.75537 13.953 3.40713 13.7395 3.19234Z" fill="black"/>
</svg>
