<svg xmlns="http://www.w3.org/2000/svg" viewBox="0 0 512 512">
            <g transform="scale(1,-1) translate(0 -448)">
              <path d=" M464 384H48C21.5 384 0 362.5 0 336V48C0 21.5 21.5 0 48 0H464C490.5 0 512 21.5 512 48V336C512 362.5 490.5 384 464 384zM218.1 160.3C220.9 162.8 225.2 162.4 227.3 159.4L246.8 131.7000000000001C248.5 129.3000000000001 248.3 126.1 246.3 124.0000000000001C192.7 67.2000000000001 73.5 91.9 73.5 191.9000000000001C73.5 289.2000000000001 195.2 311.4000000000001 246 262.0000000000001C248.1 260.0000000000001 248.5 258.8000000000001 247 256.3000000000001L229.5 225.8000000000001C227.6 222.7000000000001 223.3 221.8000000000001 220.4 224.1000000000001C179.6 256.1000000000002 125.8 239.0000000000001 125.8 192.9000000000001C125.9 144.9000000000001 176.9 122.4000000000001 218.1 160.3000000000001zM408.5 160.3C411.3 162.8 415.6 162.4 417.7 159.4L437.2 131.7000000000001C438.9 129.3000000000001 438.7 126.1 436.7 124.0000000000001C383.2 67.1000000000001 264 91.9 264 191.9000000000001C264 289.2000000000001 385.7 311.4000000000001 436.5 262.0000000000001C438.6 260.0000000000001 439 258.8000000000001 437.5 256.3000000000001L420 225.8C418.1 222.7 413.8 221.8 410.9 224.1C370.1 256.1 316.3 239.0000000000001 316.3 192.9C316.3 144.9 367.3 122.4 408.5 160.3z"/>
            </g></svg>