<svg xmlns="http://www.w3.org/2000/svg" viewBox="0 0 640 512">
            <g transform="scale(1,-1) translate(0 -448)">
              <path d=" M640 96C640 25.308 582.692 -32 512 -32H144C64.471 -32 0 32.471 0 112C0 174.773 40.171 228.155 96.204 247.867A163.68 163.68 0 0 0 96 256C96 344.366 167.634 416 256 416C315.288 416 367.0420000000001 383.752 394.684 335.841C409.935 346.046 428.271 352 448 352C501.019 352 544 309.019 544 256C544 243.816 541.725 232.164 537.585 221.44C596.017 209.586 640 157.93 640 96zM393.373 160H328V272C328 280.837 320.836 288 312 288H264C255.164 288 248 280.837 248 272V160H182.627C168.373 160 161.234 142.766 171.313 132.686L276.6860000000001 27.313C282.9340000000001 21.065 293.0650000000001 21.065 299.3130000000001 27.313L404.6860000000001 132.686C414.766 142.766 407.627 160 393.3730000000001 160z"/>
            </g></svg>