<svg xmlns="http://www.w3.org/2000/svg" viewBox="0 0 640 512">
            <g transform="scale(1,-1) translate(0 -448)">
              <path d=" M640 96C640 25.308 582.692 -32 512 -32H144C64.471 -32 0 32.471 0 112C0 174.773 40.171 228.155 96.204 247.867A163.68 163.68 0 0 0 96 256C96 344.366 167.634 416 256 416C315.288 416 367.0420000000001 383.752 394.684 335.841C409.935 346.046 428.271 352 448 352C501.019 352 544 309.019 544 256C544 243.816 541.725 232.164 537.585 221.44C596.017 209.586 640 157.93 640 96zM404.6860000000001 187.314L299.314 292.6860000000001C293.0660000000001 298.934 282.935 298.934 276.687 292.6860000000001L171.314 187.314C161.234 177.234 168.373 160 182.627 160H248V48C248 39.163 255.164 32 264 32H312C320.836 32 328 39.163 328 48V160H393.373C407.627 160 414.766 177.234 404.686 187.314z"/>
            </g></svg>