<svg xmlns="http://www.w3.org/2000/svg" viewBox="0 0 384 512">
            <g transform="scale(1,-1) translate(0 -448)">
              <path d=" M384 304C384 348.2 348.2 384 304 384S224 348.2 224 304C224 267.6 248.3 236.9 281.5 227.2C280.9 211.1 277.3 198.7 270.5 190.3C255.1 171.1 221.2 167.9 185.3 164.6C157.1 162 127.9 159.2000000000001 104 147.7000000000001V291.7000000000001C136.5 301.9000000000001 160 332.2000000000001 160 368.0000000000001C160 412.2000000000001 124.2 448.0000000000001 80 448.0000000000001S0 412.2 0 368C0 332.2 23.5 301.9 56 291.7V92.4C23.5 82.1 0 51.8 0 16C0 -28.2 35.8 -64 80 -64S160 -28.2 160 16C160 50 138.8 79.1 108.8 90.6C111.9 95.8 116.6 100.4 123.7 104C139.9 112.2 164.1 114.4 189.8 116.8C232 120.7 279.8 125.2 308 160.2C322 177.6 329.1 200 329.6 228.1C361.2000000000001 238.9 384 268.8 384 304zM80 384C88.8 384 96 376.8 96 368S88.8 352 80 352S64 359.2 64 368S71.2 384 80 384zM80 0C71.2 0 64 7.2 64 16S71.2 32 80 32S96 24.8 96 16S88.8 0 80 0zM304 320C312.8 320 320 312.8 320 304S312.8 288 304 288S288 295.2 288 304S295.2 320 304 320z"/>
            </g></svg>