<svg xmlns="http://www.w3.org/2000/svg" viewBox="0 0 640 512">
            <g transform="scale(1,-1) translate(0 -448)">
              <path d=" M192 64H384C437 64 480 107 480 160H512C582.6 160 640 217.4 640 288S582.6 416 512 416H120C106.7 416 96 405.3 96 392V160C96 107 139 64 192 64zM512 352C547.3 352 576 323.3 576 288S547.3 224 512 224H480V352H512zM559.7 -32H48.3C0.7 -32 -12.7 32 12.3 32H595.5999999999999C620.5999999999999 32 607.3999999999999 -32 559.6999999999999 -32z"/>
            </g></svg>