<svg xmlns="http://www.w3.org/2000/svg" viewBox="0 0 512 512">
            <g transform="scale(1,-1) translate(0 -448)">
              <path d=" M444.788 156.9L487.404 132.301C492.271 129.492 494.53 123.683 492.863 118.316C481.793 82.674 462.893 50.474 438.174 23.73A12.015999999999998 12.015999999999998 0 0 0 423.342 21.4759999999999L380.758 46.0709999999999A191.577 191.577 0 0 0 319.999 10.9409999999999V-38.2410000000001A12.01 12.01 0 0 0 310.622 -49.9590000000001C275.666 -57.8090000000001 238.123 -58.2150000000001 201.403 -49.9660000000001C195.913 -48.7330000000001 192 -43.8700000000001 192 -38.2430000000001V10.9409999999999A191.555 191.555 0 0 0 131.241 46.0709999999999L88.657 21.4759999999999A12.015999999999998 12.015999999999998 0 0 0 73.825 23.7299999999999C49.107 50.4739999999999 30.206 82.6739999999999 19.136 118.3159999999999C17.469 123.6819999999999 19.728 129.4909999999999 24.595 132.3009999999999L67.212 156.9A193.48000000000002 193.48000000000002 0 0 0 67.212 227.099L24.596 251.698C19.729 254.507 17.47 260.316 19.137 265.683C30.207 301.325 49.107 333.525 73.826 360.269A12.015999999999998 12.015999999999998 0 0 0 88.658 362.523L131.242 337.928A191.577 191.577 0 0 0 192.001 373.058V422.241A12.01 12.01 0 0 0 201.3780000000001 433.959C236.3340000000001 441.8090000000001 273.8770000000001 442.215 310.5970000000001 433.966C316.0870000000001 432.733 320.0000000000001 427.87 320.0000000000001 422.243V373.059A191.555 191.555 0 0 0 380.7590000000001 337.929L423.3430000000001 362.524A12.015999999999998 12.015999999999998 0 0 0 438.1750000000001 360.27C462.8930000000001 333.526 481.7940000000001 301.326 492.8640000000001 265.684C494.5310000000001 260.318 492.2720000000001 254.509 487.4050000000001 251.699L444.788 227.1A193.485 193.485 0 0 0 444.788 156.9zM336 192C336 236.112 300.112 272 256 272S176 236.112 176 192S211.888 112 256 112S336 147.888 336 192z"/>
            </g></svg>