<svg xmlns="http://www.w3.org/2000/svg" viewBox="0 0 576 512">
            <g transform="scale(1,-1) translate(0 -448)">
              <path d=" M224 89.143C186.401 89.143 150.973 95.906 119.857 107.843C88.482 83.294 49.988 68.335 9.093 64.047A8.632 8.632 0 0 0 8.203 63.9999999999999C4.467 63.9999999999999 1.092 66.4979999999999 0.186 70.0609999999999C-0.794 74.0219999999999 2.274 76.4599999999999 5.312 79.3659999999999C20.329 93.805 38.534 105.156 45.654 153.6629999999999C17.015 181.114 0 215.378 0 252.571C0 342.8400000000001 100.297 416 224 416S448 342.841 448 252.571C447.999 162.239 347.703 89.143 224 89.143zM571.067 -18.0310000000001C557.123 -4.9040000000001 540.218 5.415 533.607 49.5119999999999C602.415 114.0799999999999 585.778 206.447 495.933 256.577C495.964 255.243 495.999 253.91 495.999 252.571C495.999 130.078 366.416 36.1769999999999 211.747 41.3489999999999C249.868 10.3879999999999 305.736 -9.1430000000001 367.999 -9.1430000000001C402.913 -9.1430000000001 435.81 -2.9950000000001 464.703 7.8569999999999C493.837 -14.4600000000001 529.581 -28.0590000000001 567.5559999999999 -31.9570000000001C571.3419999999999 -32.3520000000001 574.919 -29.9840000000001 575.8259999999999 -26.4900000000001C576.7369999999999 -22.8890000000001 573.8879999999999 -20.6730000000001 571.0669999999999 -18.0310000000001z"/>
            </g></svg>