<svg xmlns="http://www.w3.org/2000/svg" viewBox="0 0 448 512">
            <g transform="scale(1,-1) translate(0 -448)">
              <path d=" M436 256H312C298.7 256 288 266.7 288 280V404C288 410.6 293.4 416 300 416H340C346.6 416 352 410.6 352 404V320H436C442.6 320 448 314.6 448 308V268C448 261.4 442.6 256 436 256zM160 280V404C160 410.6 154.6 416 148 416H108C101.4 416 96 410.6 96 404V320H12C5.4 320 0 314.6 0 308V268C0 261.4 5.4 256 12 256H136C149.3 256 160 266.7 160 280zM160 -20V104C160 117.3 149.3 128 136 128H12C5.4 128 0 122.6 0 116V76C0 69.4 5.4 64 12 64H96V-20C96 -26.6 101.4 -32 108 -32H148C154.6 -32 160 -26.6 160 -20zM352 -20V64H436C442.6 64 448 69.4 448 76V116C448 122.6 442.6 128 436 128H312C298.7 128 288 117.3 288 104V-20C288 -26.6 293.4 -32 300 -32H340C346.6 -32 352 -26.6 352 -20z"/>
            </g></svg>