<svg xmlns="http://www.w3.org/2000/svg" viewBox="0 0 512 512">
            <g transform="scale(1,-1) translate(0 -448)">
              <path d=" M256 440C119.033 440 8 328.967 8 192S119.033 -56 256 -56S504 55.033 504 192S392.967 440 256 440zM373.134 93.247C371.5420000000001 91.38 333.358 47.516 263.283 47.516C178.591 47.516 118.799 110.776 118.799 193.083C118.799 274.386 180.803 336.4840000000001 262.5610000000001 336.4840000000001C329.5180000000001 336.4840000000001 364.5260000000001 299.1690000000001 365.9830000000001 297.5800000000001A12 12 0 0 0 367.2210000000001 282.9570000000001L344.8410000000001 248.3020000000001C340.7920000000001 242.0350000000001 332.0670000000001 240.9510000000001 326.6070000000001 246.0070000000001C326.3740000000001 246.2210000000001 300.0780000000001 269.8870000000001 264.7270000000001 269.8870000000001C218.6110000000001 269.8870000000001 190.8110000000001 236.3120000000001 190.8110000000001 193.8050000000001C190.8110000000001 154.2030000000001 216.3250000000001 114.1130000000001 265.0880000000001 114.1130000000001C303.7850000000001 114.1130000000001 330.3680000000001 142.4510000000001 330.6320000000001 142.7380000000001C335.7640000000001 148.3030000000001 344.6910000000001 147.7710000000001 349.1400000000001 141.6850000000001L373.6870000000001 108.1130000000001A12.001000000000001 12.001000000000001 0 0 0 373.1340000000001 93.2470000000001z"/>
            </g></svg>