<svg xmlns="http://www.w3.org/2000/svg" viewBox="0 0 448 512">
            <g transform="scale(1,-1) translate(0 -448)">
              <path d=" M320 0V-40C320 -53.255 309.255 -64 296 -64H24C10.745 -64 0 -53.255 0 -40V328C0 341.255 10.745 352 24 352H96V56C96 25.121 121.121 0 152 0H320zM320 344V448H152C138.745 448 128 437.255 128 424V56C128 42.745 138.745 32 152 32H424C437.255 32 448 42.745 448 56V320H344C330.8 320 320 330.8 320 344zM440.971 375.029L375.029 440.971A24 24 0 0 1 358.0590000000001 448H352V352H448V358.059A24 24 0 0 1 440.971 375.029z"/>
            </g></svg>