<svg xmlns="http://www.w3.org/2000/svg" viewBox="0 0 576 512">
            <g transform="scale(1,-1) translate(0 -448)">
              <path d=" M0 16C0 -10.5 21.5 -32 48 -32H528C554.5 -32 576 -10.5 576 16V192H0V16zM192 84C192 90.6 197.4 96 204 96H340C346.6 96 352 90.6 352 84V44C352 37.4 346.6 32 340 32H204C197.4 32 192 37.4 192 44V84zM64 84C64 90.6 69.4 96 76 96H148C154.6 96 160 90.6 160 84V44C160 37.4 154.6 32 148 32H76C69.4 32 64 37.4 64 44V84zM576 368V320H0V368C0 394.5 21.5 416 48 416H528C554.5 416 576 394.5 576 368z"/>
            </g></svg>