<svg xmlns="http://www.w3.org/2000/svg" viewBox="0 0 512 512">
            <g transform="scale(1,-1) translate(0 -448)">
              <path d=" M500 224H469.636C455.724 317.675 381.675 391.724 288 405.636V436C288 442.627 282.627 448 276 448H236C229.373 448 224 442.627 224 436V405.636C130.325 391.724 56.276 317.675 42.364 224H12C5.373 224 0 218.627 0 212V172C0 165.373 5.373 160 12 160H42.364C56.276 66.325 130.325 -7.724 224 -21.636V-52C224 -58.627 229.373 -64 236 -64H276C282.627 -64 288 -58.627 288 -52V-21.636C381.675 -7.724 455.724 66.325 469.636 160H500C506.627 160 512 165.373 512 172V212C512 218.627 506.627 224 500 224zM288 43.366V84C288 90.627 282.627 96 276 96H236C229.373 96 224 90.627 224 84V43.366C165.826 55.768 119.783 101.757 107.366 160H148C154.627 160 160 165.373 160 172V212C160 218.627 154.627 224 148 224H107.366C119.768 282.174 165.757 328.217 224 340.634V300C224 293.373 229.373 288 236 288H276C282.627 288 288 293.373 288 300V340.634C346.174 328.232 392.217 282.243 404.634 224H364C357.373 224 352 218.627 352 212V172C352 165.373 357.373 160 364 160H404.634C392.2320000000001 101.826 346.243 55.783 288 43.366zM288 192C288 174.327 273.673 160 256 160S224 174.327 224 192C224 209.673 238.327 224 256 224S288 209.673 288 192z"/>
            </g></svg>