<svg xmlns="http://www.w3.org/2000/svg" viewBox="0 0 512 512">
            <g transform="scale(1,-1) translate(0 -448)">
              <path d=" M239.1 441.7L31.1 363.7C12.4 356.7 0 338.7 0 318.7V93.6C0 75.4 10.3 58.8 26.5 50.7L234.5 -53.3C248 -60.1 263.9 -60.1 277.4 -53.3L485.4 50.7C501.7 58.8000000000001 511.9 75.5000000000001 511.9 93.6V318.7C511.9 338.7 499.5 356.6 480.8 363.6L272.8 441.6C262 445.8 250 445.8 239.1 441.7zM256 379.6L448 307.6V306.5L256 228.5L64 306.5V307.6L256 379.6zM288 23.6V172.5L448 237.5V103.6L288 23.6z"/>
            </g></svg>