<svg xmlns="http://www.w3.org/2000/svg" viewBox="0 0 512 512">
            <g transform="scale(1,-1) translate(0 -448)">
              <path d=" M488.6 197.8L392 234V342.5C392 357.5 382.7 370.9 368.6 376.2L268.6 413.7C260.5 416.8 251.5000000000001 416.8 243.3 413.7L143.3 376.2C129.2 370.9 119.9 357.5 119.9 342.5V234L23.3 197.8C9.3 192.5 0 179.1 0 164.1V54C0 40.4 7.7 27.9 19.9 21.8L119.9 -28.2C130 -33.3 142 -33.3 152.1 -28.2L256 23.8L359.9 -28.2C370 -33.3 382 -33.3 392.1 -28.2L492.1 21.8C504.3 27.9 511.9999999999999 40.4 511.9999999999999 54V164.1C511.9999999999999 179.1 502.6999999999999 192.5 488.6 197.8zM358 233.2L273 201.3V269.5L358 306.5V233.2zM154 343.9L256 382.1L358 343.9V343.3L256 301.9L154 343.3V343.9zM238 52.8L153 10.3V89.4L238 128.2V52.8zM238 164.8L136 123.4L34 164.8V165.4L136 203.6L238 165.4V164.8zM478 52.8L393 10.3V89.4L478 128.2V52.8zM478 164.8L376 123.4L274 164.8V165.4L376 203.6L478 165.4V164.8z"/>
            </g></svg>