<svg xmlns="http://www.w3.org/2000/svg" viewBox="0 0 448 512">
            <g transform="scale(1,-1) translate(0 -448)">
              <path d=" M444.485 25.574C449.1740000000001 20.885 449.1690000000001 13.287 444.485 8.603C411.6810000000001 -24.201 358.4940000000001 -24.201 325.69 8.603L210.176 124.117L185.317 99.258C189.63 88.343 192 76.448 192 64C192 10.981 149.019 -32 96 -32S0 10.981 0 64S42.981 160 96 160C100.536 160 104.995 159.678 109.363 159.07L142.293 192L109.363 224.93C104.995 224.322 100.536 224 96 224C42.981 224 0 266.981 0 320S42.981 416 96 416S192 373.019 192 320C192 307.552 189.63 295.6570000000001 185.318 284.742L210.177 259.883L325.69 375.397C358.4940000000001 408.201 411.681 408.201 444.485 375.397C449.1690000000001 370.713 449.1740000000001 363.115 444.485 358.426L278.0590000000001 192L444.485 25.574zM96 352C78.355 352 64 337.645 64 320S78.355 288 96 288S128 302.355 128 320S113.645 352 96 352M96 96C78.355 96 64 81.645 64 64S78.355 32 96 32S128 46.355 128 64S113.645 96 96 96M208 204C201.373 204 196 198.627 196 192S201.373 180 208 180S220 185.373 220 192S214.627 204 208 204z"/>
            </g></svg>