<svg xmlns="http://www.w3.org/2000/svg" viewBox="0 0 448 512">
            <g transform="scale(1,-1) translate(0 -448)">
              <path d=" M448 374.857V329.1430000000001C448 288.857 347.667 256 224 256S0 288.857 0 329.1430000000001V374.857C0 415.1430000000001 100.333 448 224 448S448 415.1430000000001 448 374.857zM448 272V169.143C448 128.857 347.667 96 224 96S0 128.857 0 169.143V272C48.125 238.857 136.208 223.428 224 223.428S399.874 238.857 448 272zM448 112V9.143C448 -31.143 347.667 -64 224 -64S0 -31.143 0 9.143V112C48.125 78.857 136.208 63.428 224 63.428S399.874 78.857 448 112z"/>
            </g></svg>