<svg xmlns="http://www.w3.org/2000/svg" viewBox="0 0 512 512">
            <g transform="scale(1,-1) translate(0 -448)">
              <path d=" M216 188C216 172.536 203.464 160 188 160S160 172.536 160 188C160 232.112 195.888 268 240 268S320 232.112 320 188C320 172.536 307.464 160 292 160S264 172.536 264 188C264 201.234 253.233 212 240 212S216 201.234 216 188zM240 364C142.953 364 64 285.0470000000001 64 188C64 172.536 76.536 160 92 160S120 172.536 120 188C120 254.168 173.832 308 240 308S360 254.168 360 188C360 112.836 288.991 117.689 288.003 44.378L288 44C288 15.327 264.673 -8 236 -8C220.536 -8 208 -20.536 208 -36S220.536 -64 236 -64C295.475 -64 343.876 -15.672 344 43.774C344.5950000000001 78.202 416 92.014 416 188C416 285.0470000000001 337.0470000000001 364 240 364zM508.485 416.201L480.2 444.485C475.513 449.171 467.916 449.171 463.229 444.485L376.2 357.456C371.514 352.77 371.514 345.1720000000001 376.2 340.485L404.485 312.2C409.171 307.514 416.769 307.514 421.4550000000001 312.2L508.485 399.229C513.172 403.917 513.172 411.515 508.485 416.201zM168.97 133.255C164.284 137.941 156.686 137.941 152 133.255L3.515 -15.23C-1.171 -19.916 -1.171 -27.514 3.515 -32.201L31.8 -60.485C36.487 -65.171 44.084 -65.171 48.771 -60.485L197.256 88C201.942 92.686 201.942 100.284 197.256 104.971L168.97 133.255z"/>
            </g></svg>