<svg xmlns="http://www.w3.org/2000/svg" viewBox="0 0 512 512">
            <g transform="scale(1,-1) translate(0 -448)">
              <path d=" M216 448H296C309.3 448 320 437.3 320 424V256H407.7C425.5 256 434.4 234.5 421.8 221.9L269.7 69.7C262.2 62.2 249.9 62.2 242.4 69.7L90.1 221.9C77.5 234.5 86.4 256 104.2 256H192V424C192 437.3 202.7 448 216 448zM512 72V-40C512 -53.3 501.3 -64 488 -64H24C10.7 -64 0 -53.3 0 -40V72C0 85.3 10.7 96 24 96H170.7L219.7 47C239.8 26.9 272.2 26.9 292.3 47L341.3 96H488C501.3 96 512 85.3 512 72zM388 -16C388 -5 379 4 368 4S348 -5 348 -16S357 -36 368 -36S388 -27 388 -16zM452 -16C452 -5 443 4 432 4S412 -5 412 -16S421 -36 432 -36S452 -27 452 -16z"/>
            </g></svg>