<svg xmlns="http://www.w3.org/2000/svg" viewBox="0 0 576 512">
            <g transform="scale(1,-1) translate(0 -448)">
              <path d=" M402.6 364.8L492.8 274.6C496.6 270.8 496.6 264.6 492.8 260.8L274.4 42.4L181.6 32.1C169.2 30.7 158.7 41.2 160.1 53.6L170.4 146.4L388.8 364.8C392.6 368.6 398.8 368.6 402.6 364.8zM564.6 387.7L515.8000000000001 436.5C500.6000000000001 451.7 475.9000000000001 451.7 460.6000000000001 436.5L425.2000000000001 401.1C421.4000000000001 397.3 421.4000000000001 391.1 425.2000000000001 387.3L515.4000000000001 297.1C519.2 293.3 525.4000000000001 293.3 529.2 297.1L564.6 332.5C579.8000000000001 347.8 579.8000000000001 372.5 564.6 387.7zM384 101.8V0H64V320H293.8C297 320 300 321.3 302.3 323.5L342.3 363.5C349.9000000000001 371.1 344.5 384 333.8 384H48C21.5 384 0 362.5 0 336V-16C0 -42.5 21.5 -64 48 -64H400C426.5 -64 448 -42.5 448 -16V141.8C448 152.5 435.1 157.8 427.5 150.3L387.5 110.3C385.3 108 384 105 384 101.8z"/>
            </g></svg>