<svg xmlns="http://www.w3.org/2000/svg" viewBox="0 0 512 512">
            <g transform="scale(1,-1) translate(0 -448)">
              <path d=" M502.3 257.2C506.2 260.3 512 257.4 512 252.5V48C512 21.5 490.5 0 464 0H48C21.5 0 0 21.5 0 48V252.4C0 257.4 5.7 260.2000000000001 9.7 257.1C32.1 239.7 61.8 217.6 163.8 143.5C184.9 128.1 220.5 95.7 256 95.9C291.7 95.6 328 128.7 348.3 143.5C450.3 217.6 479.9 239.8 502.3 257.2zM256 128C279.2 127.6 312.6 157.2 329.4 169.4C462.1 265.7 472.2 274.1 502.8 298.1C508.6 302.6 511.9999999999999 309.6 511.9999999999999 317V336C511.9999999999999 362.5 490.4999999999999 384 463.9999999999999 384H48C21.5 384 0 362.5 0 336V317C0 309.6 3.4 302.7 9.2 298.1C39.8 274.2 49.9 265.7 182.6 169.4C199.4 157.2 232.8 127.6 256 128z"/>
            </g></svg>