<svg xmlns="http://www.w3.org/2000/svg" viewBox="0 0 512 512">
            <g transform="scale(1,-1) translate(0 -448)">
              <path d=" M512 -16C512 -42.51 490.51 -64 464 -64H48C21.49 -64 0 -42.51 0 -16V247.276A48 48 0 0 0 18.387 285.052C43.3 304.581 63.888 320.4170000000001 182.587 406.563C199.412 418.83 232.797 448.347 256 447.997C279.198 448.351 312.596 418.825 329.413 406.564C448.1 320.427 468.716 304.569 493.613 285.052A48 48 0 0 0 512 247.276V-16zM446.334 180.605C443.771 184.333 438.634 185.2000000000001 434.995 182.512C412.15 165.639 379.533 141.807 329.413 105.433C312.588 93.167 279.2030000000001 63.652 256 64.003C232.789 63.659 199.441 93.146 182.587 105.433C132.473 141.803 99.853 165.637 77.005 182.512C73.366 185.2 68.229 184.333 65.666 180.605L56.594 167.409A7.997999999999999 7.997999999999999 0 0 1 58.433 156.442C81.32 139.543 113.887 115.752 163.736 79.574C184.01 64.793 220.26 31.761 256 32.001C291.724 31.759 327.961 64.7720000000001 348.2630000000001 79.574C398.1130000000001 115.7530000000001 430.6810000000001 139.544 453.566 156.442A7.997999999999999 7.997999999999999 0 0 1 455.405 167.409L446.334 180.605z"/>
            </g></svg>