<svg xmlns="http://www.w3.org/2000/svg" viewBox="0 0 448 512">
            <g transform="scale(1,-1) translate(0 -448)">
              <path d=" M400 416H48C21.49 416 0 394.51 0 368V16C0 -10.51 21.49 -32 48 -32H400C426.51 -32 448 -10.51 448 16V368C448 394.51 426.51 416 400 416zM178.117 185.896C87.429 251.713 88.353 251.879 64 270.833V296C64 309.255 74.745 320 88 320H360C373.255 320 384 309.255 384 296V270.833C359.629 251.864 360.566 251.709 269.883 185.895C259.383 178.24 238.491 159.775 224 160.001C209.497 159.783 188.633 178.228 178.117 185.896zM384 230.225V88C384 74.745 373.255 64 360 64H88C74.745 64 64 74.745 64 88V230.225C77.958 219.431 97.329 204.989 159.303 160.011C173.465 149.67 197.278 127.866 223.997 128.001C250.884 127.867 275.034 150.042 288.717 160.026C350.675 204.991 370.042 219.432 384 230.225z"/>
            </g></svg>