<svg xmlns="http://www.w3.org/2000/svg" viewBox="0 0 512 512">
            <g transform="scale(1,-1) translate(0 -448)">
              <path d=" M497.941 174.059C516.6859999999999 192.804 516.6859999999999 223.196 497.941 241.9410000000001L337.941 401.9410000000001C319.196 420.6860000000001 288.805 420.687 270.058 401.9410000000001L14.058 145.941C-4.687 127.196 -4.687 96.804 14.058 78.059L110.058 -17.941A48.004000000000005 48.004000000000005 0 0 1 144 -32H500C506.627 -32 512 -26.627 512 -20V20C512 26.627 506.627 32 500 32H355.883L497.941 174.059zM195.314 236.6860000000001L332.687 99.3130000000001L265.373 32H150.628L70.628 112L195.314 236.686z"/>
            </g></svg>