<svg xmlns="http://www.w3.org/2000/svg" viewBox="0 0 512 512">
            <g transform="scale(1,-1) translate(0 -448)">
              <path d=" M504 192C504 55.003 392.957 -56 256 -56S8 55.003 8 192C8 328.9170000000001 119.043 440 256 440S504 328.9170000000001 504 192zM256 142C230.595 142 210 121.405 210 96S230.595 50 256 50S302 70.595 302 96S281.405 142 256 142zM212.327 307.346L219.745 171.346C220.092 164.982 225.354 160 231.727 160H280.273C286.646 160 291.908 164.982 292.255 171.346L299.673 307.346C300.048 314.2200000000001 294.575 320 287.6910000000001 320H224.308C217.424 320 211.952 314.2200000000001 212.327 307.346z"/>
            </g></svg>