<svg xmlns="http://www.w3.org/2000/svg" viewBox="0 0 448 512">
            <g transform="scale(1,-1) translate(0 -448)">
              <path d=" M448 368V16C448 -10.51 426.51 -32 400 -32H48C21.49 -32 0 -10.51 0 16V368C0 394.51 21.49 416 48 416H400C426.51 416 448 394.51 448 368zM360 352H248.029C226.716 352 215.949 326.139 231.058 311.029L263.042 279.0420000000001L67.515 83.515C62.829 78.829 62.829 71.231 67.515 66.544L98.544 35.515C103.231 30.829 110.829 30.829 115.515 35.515L311.041 231.041L343.029 199.05C358.058 184.023 384 194.575 384 216.021V328C384 341.255 373.255 352 360 352z"/>
            </g></svg>