<svg xmlns="http://www.w3.org/2000/svg" viewBox="0 0 576 512">
            <g transform="scale(1,-1) translate(0 -448)">
              <path d=" M576 424V296.016C576 274.555 550.04 264.0360000000001 535.029 279.045L499.322 314.754L255.799 71.231C246.426 61.858 231.231 61.858 221.858 71.231L199.231 93.858C189.858 103.231 189.858 118.427 199.231 127.799L442.756 371.324L407.053 407.029C391.9820000000001 422.1 402.656 448 424.024 448H552C565.255 448 576 437.255 576 424zM407.029 177.206L391.029 161.206A23.999000000000002 23.999000000000002 0 0 1 384 144.235V0H64V320H328A24.003 24.003 0 0 1 344.9700000000001 327.029L360.9700000000001 343.029C376.089 358.149 365.381 384 344 384H48C21.49 384 0 362.51 0 336V-16C0 -42.51 21.49 -64 48 -64H400C426.51 -64 448 -42.51 448 -16V160.236C448 181.618 422.148 192.326 407.029 177.206z"/>
            </g></svg>