<svg xmlns="http://www.w3.org/2000/svg" viewBox="0 0 576 512">
            <g transform="scale(1,-1) translate(0 -448)">
              <path d=" M286.693 56.016L319.272 9.474A333.958 333.958 0 0 0 288 8C168.19 8 63.031 71.949 6.646 167.631A47.999 47.999 0 0 0 6.646 216.37C30.669 257.136 63.559 292.145 102.67 318.907L159.747 237.368C154.736 223.18 152 207.913 152 192C152 117.264 212.135 56.718 286.693 56.016zM569.354 167.631C537.687 113.894 490.607 70.1710000000001 434.1790000000001 42.1560000000001L434.1900000000001 42.1410000000001L475.6600000000001 -17.0589999999999C483.2600000000001 -27.9189999999999 480.6200000000001 -42.8789999999999 469.7600000000001 -50.4789999999999L456.6500000000001 -59.6589999999999C445.7900000000001 -67.2589999999999 430.8300000000001 -64.6189999999999 423.2300000000001 -53.759L100.34 401.06C92.74 411.92 95.38 426.88 106.24 434.48L119.35 443.6600000000001C130.21 451.26 145.17 448.62 152.77 437.76L203.808 365.1430000000001C230.68 372.224 258.905 376 288 376C407.81 376 512.969 312.051 569.354 216.369A48.00200000000001 48.00200000000001 0 0 0 569.354 167.631zM424 192C424 267.174 363.162 328 288 328C270.061 328 252.944 324.527 237.271 318.228L256.57 291.17C282.439 299.341 311.614 297.3330000000001 336.9700000000001 283.76H336.9400000000001C313.2900000000001 283.76 294.1200000000001 264.5900000000001 294.1200000000001 240.9400000000001C294.1200000000001 217.314 313.2670000000001 198.12 336.9400000000001 198.12C360.5900000000001 198.12 379.7600000000001 217.29 379.7600000000001 240.9400000000001V240.9700000000001C398.2220000000001 206.48 396.0720000000001 163.0560000000001 371.5100000000001 130.0200000000001V130.0100000000001L390.8240000000001 102.9490000000001C411.496 126.8 424 157.926 424 192zM262.014 91.273L184.484 202.03C179.47 149.643 213.798 103.6760000000001 262.014 91.273z"/>
            </g></svg>