<svg xmlns="http://www.w3.org/2000/svg" viewBox="0 0 256 512">
            <g transform="scale(1,-1) translate(0 -448)">
              <path d=" M128 448C163.346 448 192 419.346 192 384S163.346 320 128 320C92.654 320 64 348.654 64 384S92.654 448 128 448M247.283 93.821L199.283 285.8210000000001A24 24 0 0 1 176 304H164.64C141.929 293.557 115.05 293.106 91.36 304H80A24 24 0 0 1 56.717 285.8210000000001L8.717 93.821C4.935 78.695 16.383 64 32 64H88V-40C88 -53.255 98.745 -64 112 -64H144C157.255 -64 168 -53.255 168 -40V64H224C239.591 64 251.071 78.671 247.283 93.821z"/>
            </g></svg>