<svg xmlns="http://www.w3.org/2000/svg" viewBox="0 0 384 512">
            <g transform="scale(1,-1) translate(0 -448)">
              <path d=" M224 312V448H24C10.7 448 0 437.3 0 424V-40C0 -53.3 10.7 -64 24 -64H360C373.3 -64 384 -53.3 384 -40V288H248C234.8 288 224 298.8 224 312zM281.1 192H305C312.7 192 318.4 184.9 316.7 177.3L278.7 9.3C277.5 3.8 272.6 0 267 0H229C223.5 0 218.7 3.8 217.4 9.1C191.6 112.6 196.6 90.3 191.8 119.6H191.3C190.2 105.3 188.9 102.2000000000001 165.7 9.1C164.4 3.8 159.6 0 154.1 0H117C111.4 0 106.5 3.9 105.3 9.4L67.5 177.4C65.8 184.9 71.5 192 79.2 192H103.7C109.4 192 114.4 188 115.5 182.3C131.1 104.3 135.6 72.8 136.5 60.1C138.1 70.3 143.8 92.8 165.9 182.8C167.2 188.2 172 191.9 177.6 191.9H206.7C212.3 191.9 217.1 188.1 218.4 182.7000000000001C242.4 82.3000000000001 247.2 58.7000000000001 248 53.3000000000001C247.8 64.5000000000001 245.4 71.1000000000001 269.6 182.5000000000001C270.6 188.1000000000001 275.5 192.0000000000001 281.1 192.0000000000001zM384 326.1V320H256V448H262.1C268.5 448 274.6 445.5 279.1 441L377 343C381.5 338.5 384 332.4 384 326.1z"/>
            </g></svg>