<svg xmlns="http://www.w3.org/2000/svg" viewBox="0 0 384 512">
            <g transform="scale(1,-1) translate(0 -448)">
              <path d=" M384 326.059V320H256V448H262.0590000000001C268.4240000000001 448 274.5290000000001 445.471 279.0300000000001 440.971L376.971 343.03A24.005 24.005 0 0 0 384 326.059zM224 312V448H24C10.745 448 0 437.255 0 424V-40C0 -53.255 10.745 -64 24 -64H360C373.255 -64 384 -53.255 384 -40V288H248C234.8 288 224 298.8 224 312zM320 167.984V56.0210000000001C320 34.5760000000001 294.057 24.0230000000001 279.029 39.0500000000001L224 94.059V56C224 42.745 213.255 32 200 32H88C74.745 32 64 42.745 64 56V168C64 181.255 74.745 192 88 192H200C213.255 192 224 181.255 224 168V129.941L279.029 184.954C294.04 199.964 320 189.445 320 167.984z"/>
            </g></svg>