<svg xmlns="http://www.w3.org/2000/svg" viewBox="0 0 512 512">
            <g transform="scale(1,-1) translate(0 -448)">
              <path d=" M488 384H480V364C480 357.4 474.6 352 468 352H428C421.4 352 416 357.4 416 364V384H96V364C96 357.4 90.6 352 84 352H44C37.4 352 32 357.4 32 364V384H24C10.7 384 0 373.3 0 360V24C0 10.7 10.7 0 24 0H32V20C32 26.6 37.4 32 44 32H84C90.6 32 96 26.6 96 20V0H416V20C416 26.6 421.4 32 428 32H468C474.6 32 480 26.6 480 20V0H488C501.3 0 512 10.7 512 24V360C512 373.3 501.3 384 488 384zM96 76C96 69.4 90.6 64 84 64H44C37.4 64 32 69.4 32 76V116C32 122.6 37.4 128 44 128H84C90.6 128 96 122.6 96 116V76zM96 172C96 165.4 90.6 160 84 160H44C37.4 160 32 165.4 32 172V212C32 218.6 37.4 224 44 224H84C90.6 224 96 218.6 96 212V172zM96 268C96 261.4 90.6 256 84 256H44C37.4 256 32 261.4 32 268V308C32 314.6 37.4 320 44 320H84C90.6 320 96 314.6 96 308V268zM368 60C368 53.4 362.6 48 356 48H156C149.4 48 144 53.4 144 60V156C144 162.6 149.4 168 156 168H356C362.6 168 368 162.6 368 156V60zM368 228C368 221.4 362.6 216 356 216H156C149.4 216 144 221.4 144 228V324C144 330.6 149.4 336 156 336H356C362.6 336 368 330.6 368 324V228zM480 76C480 69.4 474.6 64 468 64H428C421.4 64 416 69.4 416 76V116C416 122.6 421.4 128 428 128H468C474.6 128 480 122.6 480 116V76zM480 172C480 165.4 474.6 160 468 160H428C421.4 160 416 165.4 416 172V212C416 218.6 421.4 224 428 224H468C474.6 224 480 218.6 480 212V172zM480 268C480 261.4 474.6 256 468 256H428C421.4 256 416 261.4 416 268V308C416 314.6 421.4 320 428 320H468C474.6 320 480 314.6 480 308V268z"/>
            </g></svg>