<svg xmlns="http://www.w3.org/2000/svg" viewBox="0 0 448 512">
            <g transform="scale(1,-1) translate(0 -448)">
              <path d=" M434.027 421.671L266.027 393.671C254.693 391.782 256 380.2 256 376H197.668C208.353 411.892 181.446 448 144 448C104.565 448 77.632 408.324 91.772 371.7970000000001C39.733 358.746 16.391 317.584 1.723 280.913C-3.2 268.606 2.786 254.639 15.093 249.716C27.41 244.79 41.372 250.791 46.289 263.086C75.058 335.01 106.964 328 168 328V300.924C126.457 290.062 96 251.689 96 206.795V-40C96 -53.255 106.745 -64 120 -64H264C277.255 -64 288 -53.255 288 -40V208C288 252.731 257.404 290.312 216 300.9700000000001V328H256C256 325.026 254.297 312.284 266.027 310.329L434.027 282.329C441.342 281.11 448 286.75 448 294.166V409.834C448 417.25 441.342 422.89 434.027 421.671zM144 376C135.178 376 128 383.178 128 392S135.178 408 144 408S160 400.822 160 392S152.822 376 144 376z"/>
            </g></svg>