<svg xmlns="http://www.w3.org/2000/svg" viewBox="0 0 576 512">
            <g transform="scale(1,-1) translate(0 -448)">
              <path d=" M0 368V16C0 -10.5 21.5 -32 48 -32H96V416H48C21.5 416 0 394.5 0 368zM128 -32H448V416H128V-32zM192 216C192 220.4 195.6 224 200 224H256V280C256 284.4 259.6 288 264 288H312C316.4 288 320 284.4 320 280V224H376C380.4 224 384 220.4 384 216V168C384 163.6 380.4 160 376 160H320V104C320 99.6 316.4 96 312 96H264C259.6 96 256 99.6 256 104V160H200C195.6 160 192 163.6 192 168V216zM528 416H480V-32H528C554.5 -32 576 -10.5 576 16V368C576 394.5 554.5 416 528 416z"/>
            </g></svg>