<svg xmlns="http://www.w3.org/2000/svg" viewBox="0 0 512 512">
            <g transform="scale(1,-1) translate(0 -448)">
              <path d=" M466.515 381.072C487.731 390.926 512 375.449 512 352.056V108.956C512 98.43 506.839 88.549 498.157 82.598C462.32 58.034 423.822 41.74 375.652 41.74C308.279 41.74 264.022 76.523 210.435 76.523C159.582 76.523 124.311 66.465 96 54.401V-40C96 -53.255 85.255 -64 72 -64H56C42.745 -64 32 -53.255 32 -40V346.055C17.497 356.175 8 372.974 8 392C8 423.704 34.345 449.254 66.338 447.952C94.806 446.794 118.117 423.984 119.889 395.548C120.409 387.206 119.079 379.238 116.303 371.986C137.039 379.616 159.393 384 184.348 384C251.721 384 295.978 349.217 349.5650000000001 349.217C390.0610000000001 349.217 432.177 365.123 466.515 381.072zM96 313.37V242.88C125 253.55 147.18 260.71 169.6 263.79V335.36C146.1 333.19 129.16 325.57 96 313.37zM316.8 304.18C290.3830000000001 308.852 266.914 318.159 243.2 325.52V258.1C267.375 251.3940000000001 290.766 241.6560000000001 316.8 235.79V304.18zM169.6 263.79V193.75C202.396 196.728 223.51 194.385 243.2 189.95V258.1C217.953 265.135 196.619 267.523 169.6 263.79zM243.2 121.5600000000001C269.538 116.9080000000001 292.932 107.633 316.8 100.2200000000001V167.6300000000001C292.523 174.3760000000001 269.26 184.0800000000001 243.2 189.9500000000001V121.5600000000001zM96 105.9C119.62 114.29 143.79 119.74 169.6 122.46V193.75C143.49 191.4 122.24 185.71 96 176.39V105.9zM464 327.5C442.7 318.65 417.41 309.86 390.4 305.03V233.12C417.71 237.48 440.43 247.22 464 257.01V327.5zM464 117.54V188.03C441.81 173.83 415.2200000000001 165.42 390.4 162.01V90.43C415.47 92.81 438.89 101.47 464 117.54zM316.8 235.79V167.63C342.464 160.496 363.416 158.288 390.4 162.01V233.12C364.401 228.933 340.457 230.444 316.8 235.79z"/>
            </g></svg>