<svg xmlns="http://www.w3.org/2000/svg" viewBox="0 0 448 512">
            <g transform="scale(1,-1) translate(0 -448)">
              <path d=" M437.2 44.5L320 233V384H328C341.3 384 352 394.7 352 408V424C352 437.3 341.3 448 328 448H120C106.7 448 96 437.3 96 424V408C96 394.7 106.7 384 120 384H128V233L10.8 44.5C-18.5 -2.6 15.3 -64 70.9 -64H377.1C432.8 -64 466.5 -2.5 437.2000000000001 44.5zM137.9 128L186.1 205.6C189.8 210.8 191.9 217.2 191.9 224V384H255.9000000000001V224C255.9000000000001 217.1 258.1 210.8 261.7000000000001 205.6L309.9000000000001 128H137.9z"/>
            </g></svg>