<svg xmlns="http://www.w3.org/2000/svg" viewBox="0 0 448 512">
            <g transform="scale(1,-1) translate(0 -448)">
              <path d=" M152 32H127.987L154.573 112.782H292.8L319.386 32H296C287.163 32 280 24.837 280 16V-16C280 -24.837 287.163 -32 296 -32H432C440.837 -32 448 -24.837 448 -16V16C448 24.837 440.837 32 432 32H405.261L275.495 405.254A16 16 0 0 1 260.382 416H187.616A16 16 0 0 1 172.503 405.254L42.739 32H16C7.163 32 0 24.837 0 16V-16C0 -24.837 7.163 -32 16 -32H152C160.837 -32 168 -24.837 168 -16V16C168 24.837 160.837 32 152 32zM216.353 303.778C220.701 318.9940000000001 222.963 331.9340000000001 223.939 338.4220000000001C224.778 331.901 226.878 318.9460000000001 231.6660000000001 303.716L273.0010000000001 179.71H174.382L216.353 303.778z"/>
            </g></svg>