<svg xmlns="http://www.w3.org/2000/svg" viewBox="0 0 512 512">
            <g transform="scale(1,-1) translate(0 -448)">
              <path d=" M504 192C504 55.033 392.967 -56 256 -56S8 55.033 8 192S119.033 440 256 440S504 328.967 504 192zM108 256C108 218.503 138.503 188 176 188S244 218.503 244 256S213.497 324 176 324S108 293.497 108 256zM268.5 256C268.5 218.779 298.779 188.5 336 188.5S403.5 218.779 403.5 256S373.221 323.5 336 323.5S268.5 293.221 268.5 256zM336 304A47.789 47.789 0 0 1 313.397 298.353H313.412C324.328 298.353 333.177 289.504 333.177 278.588S324.328 258.8230000000001 313.412 258.8230000000001S293.647 267.6720000000001 293.647 278.588V278.603A47.789 47.789 0 0 1 288 256C288 229.49 309.49 208 336 208S384 229.49 384 256S362.51 304 336 304zM176 304A47.789 47.789 0 0 1 153.397 298.353H153.412C164.328 298.353 173.177 289.504 173.177 278.588S164.328 258.8230000000001 153.412 258.8230000000001S133.647 267.6720000000001 133.647 278.588V278.603A47.789 47.789 0 0 1 128 256C128 229.49 149.49 208 176 208S224 229.49 224 256S202.51 304 176 304zM368.551 91.34C309.423 182.795 202.705 182.934 143.487 91.34C131.985 73.55 158.87 56.192 170.36 73.966C216.986 146.084 295.222 145.821 341.678 73.966C353.006 56.442 380.226 73.282 368.551 91.34z"/>
            </g></svg>