<svg xmlns="http://www.w3.org/2000/svg" viewBox="0 0 512 512">
            <g transform="scale(1,-1) translate(0 -448)">
              <path d=" M504.971 248.638L482.344 271.265C472.971 280.6380000000001 457.775 280.6380000000001 448.403 271.265L442.7460000000001 265.608L329.608 378.745L335.265 384.402C344.638 393.775 344.638 408.971 335.265 418.343L312.638 440.971C303.265 450.344 288.069 450.344 278.697 440.971L154.246 316.52C144.873 307.1470000000001 144.873 291.951 154.246 282.579L176.873 259.952C186.246 250.579 201.442 250.579 210.814 259.952L216.471 265.6090000000001L256.069 226.011L175.029 144.971L169.372 150.628C156.875 163.125 136.614 163.125 124.117 150.628L9.373 35.882C-3.124 23.385 -3.124 3.124 9.373 -9.373L54.628 -54.628C67.125 -67.125 87.386 -67.125 99.883 -54.628L214.628 60.117C227.125 72.614 227.125 92.875 214.628 105.372L208.971 111.029L290.011 192.069L329.6090000000001 152.471L323.9520000000001 146.814C314.5790000000001 137.441 314.5790000000001 122.245 323.9520000000001 112.8730000000001L346.5790000000001 90.246C355.9520000000001 80.8730000000001 371.1480000000001 80.8730000000001 380.5200000000001 90.246L504.9710000000001 214.697C514.3430000000001 224.069 514.3430000000001 239.2650000000001 504.9710000000001 248.6380000000001z"/>
            </g></svg>