<svg xmlns="http://www.w3.org/2000/svg" viewBox="0 0 512 512">
            <g transform="scale(1,-1) translate(0 -448)">
              <path d=" M364.215 256H495.645C501.084 235.581 503.999 214.132 503.999 192S501.0839999999999 148.419 495.645 128H364.215C369.369 171.049 369.154 214.746 364.215 256zM185.214 96C195.892 42.32 218.387 -16.514 255.339 -55.992C255.56 -55.9929999999999 255.779 -55.9999999999999 256 -55.9999999999999S256.44 -55.992 256.661 -55.992C293.673 -16.449 316.128 42.422 326.786 96H185.214zM359.344 288H484.729C452.802 363.976 384.128 420.695 300.95 435.925C331.188 392.805 349.771 339.593 359.344 288zM331.994 256H180.006C174.667 214.086 174.661 169.963 180.006 128H331.995C337.334 169.915 337.3400000000001 214.037 331.9940000000001 256zM152.656 96H27.271C59.197 20.024 127.871 -36.695 211.049 -51.925C180.803 -8.789 162.226 44.425 152.656 96zM359.344 96C349.769 44.395 331.181 -8.814 300.95 -51.925C384.128 -36.695 452.802 20.024 484.728 96H359.344zM326.786 288C316.108 341.68 293.612 400.514 256.661 439.992C256.44 439.992 256.221 440 256 440S255.56 439.992 255.339 439.992C218.327 400.449 195.872 341.578 185.214 288H326.786zM16.355 256C10.915 235.581 8 214.132 8 192S10.915 148.419 16.355 128H147.785C142.846 169.254 142.631 212.951 147.785 256H16.355zM152.656 288C162.231 339.602 180.817 392.81 211.05 435.925C127.872 420.695 59.198 363.976 27.271 288H152.656z"/>
            </g></svg>