<svg xmlns="http://www.w3.org/2000/svg" viewBox="0 0 416 512">
            <g transform="scale(1,-1) translate(0 -448)">
              <path d=" M96 32H320C320 14.3 305.7 0 288 0H272C254.3 0 240 -14.3 240 -32V-52C240 -58.6 234.6 -64 228 -64H188C181.4 -64 176 -58.6 176 -52V-32C176 -14.3 161.7 0 144 0H128C110.3 0 96 14.3 96 32zM416 240C416 165.8 377 100.8 318.5 64H97.5C39 100.8 0 165.8 0 240C0 354.9 93.1 448 208 448S416 354.9 416 240zM235.9 196.1C254.2 196.1 269 210.9 269 229.2C269 243.6 259.7 255.5 246.9 260.1C256.5 233.3 231.3 208.8 205 218.2C209.6 205.4 221.5 196.1 235.9 196.1zM285 149.2C285 163.6 275.7 175.5 262.9 180.1C272.5 153.3 247.3 128.8 221 138.2C225.6 125.4 237.5 116.1 251.9 116.1C270.2 116.1 285 131 285 149.2zM349 213.2C349 227.6 339.7 239.5 326.9 244.1C336.5 217.3 311.3 192.8 285 202.2C289.6 189.4 301.5 180.1 315.9 180.1C334.2 180.1 349 195 349 213.2z"/>
            </g></svg>