<svg xmlns="http://www.w3.org/2000/svg" viewBox="0 0 640 512">
            <g transform="scale(1,-1) translate(0 -448)">
              <path d=" M622.884 248.995L347.067 163.895A96 96 0 0 0 292.933 163.895L92.398 225.768C83.834 214.33 81.38 202.718 80.48 187.433C89.778 181.835 96 171.645 96 160C96 148.048 89.443 137.634 79.735 132.139L95.932 9.043C96.562 4.257 92.832 0 88 0H40C35.172 0 31.438 4.253 32.068 9.044L48.265 132.14C38.557 137.634 32 148.048 32 160C32 172.034 38.646 182.511 48.465 187.976C49.412 205.927 52.439 221.207 60.617 235.573L17.115 248.995C-5.761 255.796 -5.651 288.236 17.115 295.005L292.932 380.105A96 96 0 0 0 347.0660000000001 380.105L622.883 295.005C645.76 288.204 645.6500000000001 255.764 622.884 248.995zM356.503 133.318L356.296 133.254L356.089 133.193A127.99799999999999 127.99799999999999 0 0 0 283.912 133.193L283.705 133.254L283.498 133.318L132.584 179.888L120 96C120 60.654 209.543 32 320 32S520 60.654 520 96L507.417 179.888L356.503 133.3180000000001z"/>
            </g></svg>