<svg xmlns="http://www.w3.org/2000/svg" viewBox="0 0 448 512">
            <g transform="scale(1,-1) translate(0 -448)">
              <path d=" M448 368V16C448 -10.51 426.51 -32 400 -32H48C21.49 -32 0 -10.51 0 16V368C0 394.51 21.49 416 48 416H400C426.51 416 448 394.51 448 368zM336 320H304C295.163 320 288 312.837 288 304V224H160V304C160 312.837 152.837 320 144 320H112C103.163 320 96 312.837 96 304V80C96 71.163 103.163 64 112 64H144C152.837 64 160 71.163 160 80V160H288V80C288 71.163 295.163 64 304 64H336C344.837 64 352 71.163 352 80V304C352 312.837 344.837 320 336 320z"/>
            </g></svg>