<svg xmlns="http://www.w3.org/2000/svg" viewBox="0 0 512 512">
            <g transform="scale(1,-1) translate(0 -448)">
              <path d=" M216 8C216 30.092 233.909 48 256 48V56H224C201.909 56 184 73.908 184 96S201.909 136 224 136H256V144H48C21.49 144 0 165.49 0 192S21.49 240 48 240H256V253.572L78.449 323.312C53.775 333.006 41.631 360.867 51.324 385.54C61.017 410.214 88.878 422.357 113.552 412.664L303.894 337.899L328.766 368.9890000000001C341.072 384.37 362.7440000000001 388.504 379.8470000000001 378.73L491.847 314.73A40.002 40.002 0 0 0 512 280V40C512 21.438 499.23 5.314 481.162 1.063L345.162 -30.937A39.982 39.982 0 0 0 336 -32H256C233.909 -32 216 -14.092 216 8z"/>
            </g></svg>