<svg xmlns="http://www.w3.org/2000/svg" viewBox="0 0 512 512">
            <g transform="scale(1,-1) translate(0 -448)">
              <path d=" M44.8 292.174H194.034C188.193 300.4220000000001 183.464 308.732 179.881 317.092C166.248 348.902 189.778 384.014 224 384C242.616 383.992 256.203 373.103 264 354.908C276.122 326.622 342.648 290.579 371.534 277.5850000000001C389.391 269.629 399.987 252.106 399.998 233.74L400 233.739V62.213C400 50.401 391.404 40.316 379.731 38.51C332.894 31.26 317.971 0.027 256 0.195C253.276 0.202 242.746 0 240 0C189.346 0 158.426 22.122 167.4 71.263C148.803 80.5600000000001 136.662 110.749 150.95 133.578C126.305 154.7550000000001 128.311 187.4740000000001 144.651 204.5220000000001H44.8C20.65 204.5220000000001 0 224.7230000000001 0 248.3480000000001C0 271.6310000000001 21.35 292.1740000000001 44.8 292.1740000000001zM440 272H488C501.255 272 512 261.255 512 248V56C512 42.745 501.255 32 488 32H440C426.745 32 416 42.745 416 56V248C416 261.255 426.745 272 440 272zM464 60C475.046 60 484 68.954 484 80S475.046 100 464 100S444 91.046 444 80S452.954 60 464 60z"/>
            </g></svg>