<svg xmlns="http://www.w3.org/2000/svg" viewBox="0 0 512 512">
            <g transform="scale(1,-1) translate(0 -448)">
              <path d=" M10.872 131.415C26.011 147.501 51.326 148.269 67.415 133.1280000000001L128 76.107V155.5120000000001L88.995 327.135C84.099 348.677 97.593 370.1090000000001 119.135 375.005C140.684 379.899 162.11 366.406 167.005 344.8640000000001L201.747 192H211.58L164.016 399.034C159.07 420.565 172.514 442.028 194.044 446.974C215.576 451.924 237.038 438.476 241.984 416.9460000000001L293.664 192H308.769L357.194 385.702C362.5510000000001 407.134 384.269 420.164 405.701 414.806C427.1330000000001 409.448 440.1640000000001 387.731 434.805 366.299L391.231 192H402.311L433.079 321.265C438.196 342.756 459.764 356.033 481.256 350.912C502.747 345.795 516.021 324.226 510.903 302.735L474.611 150.268A96.02400000000002 96.02400000000002 0 0 1 472 128.033V85.931A96.002 96.002 0 0 0 468.04 58.6440000000001L441.8660000000001 -29.6429999999999C435.825 -50.022 417.101 -64 395.846 -64H179.172A48.00200000000001 48.00200000000001 0 0 0 146.274 -50.954L12.585 74.872C-3.502 90.013 -4.268 115.328 10.872 131.415z"/>
            </g></svg>