<svg xmlns="http://www.w3.org/2000/svg" viewBox="0 0 512 512">
            <g transform="scale(1,-1) translate(0 -448)">
              <path d=" M512 319.2100000000001C512 345.5320000000001 491.139 367.554 464.82 367.993C437.935 368.442 416 346.783 416 320H408V351.21C408 377.532 387.139 399.554 360.82 399.993C333.935 400.442 312 378.783 312 352V320H304V367.21C304 393.532 283.139 415.554 256.82 415.993C229.935 416.442 208 394.783 208 368V320H200V351.21C200 377.532 179.139 399.554 152.82 399.993C125.935 400.442 104 378.783 104 352V216L96 223.111V271.2100000000001C96 297.5320000000001 75.139 319.554 48.82 319.993C21.935 320.442 0 298.783 0 272V205.555A95.998 95.998 0 0 1 32.221 133.804L143.889 34.543A47.999 47.999 0 0 0 160 -1.333V-8C160 -21.255 170.745 -32 184 -32H424C437.255 -32 448 -21.255 448 -8V-5.079A96.01 96.01 0 0 0 455.523 32.175L504.477 148.44A96.002 96.002 0 0 1 512 185.694V319.2100000000001z"/>
            </g></svg>