<svg xmlns="http://www.w3.org/2000/svg" viewBox="0 0 448 512">
            <g transform="scale(1,-1) translate(0 -448)">
              <path d=" M448 208V112C448 108.916 447.644 105.841 446.937 102.838L414.937 -33.162C410.686 -51.23 394.562 -64 376 -64H168A40.004 40.004 0 0 0 135.65 -47.527L7.653 128.473C-5.34 146.339 -1.39 171.356 16.475 184.349C34.342 197.343 59.359 193.392 72.352 175.526L104 132.008V408C104 430.091 121.908 448 144 448S184 430.091 184 408V208H192V248C192 270.091 209.908 288 232 288S272 270.091 272 248V208H280V232C280 254.091 297.908 272 320 272S360 254.091 360 232V208H368C368 230.091 385.908 248 408 248S448 230.091 448 208zM192 128H184V32H192V128zM280 128H272V32H280V128zM368 128H360V32H368V128z"/>
            </g></svg>