<svg xmlns="http://www.w3.org/2000/svg" viewBox="0 0 576 512">
            <g transform="scale(1,-1) translate(0 -448)">
              <path d=" M384 -32H576V84.222A95.998 95.998 0 0 1 561.167 135.485L398.127 393.632A48 48 0 0 1 357.544 416H24C10.745 416 0 405.255 0 392V376C0 345.072 25.072 320 56 320H285.981C298.825 320 307.537 306.933 302.596 295.077L281.186 243.692A32 32 0 0 0 251.648 224H128C92.654 224 64 195.346 64 160V152C64 138.745 74.745 128 88 128H235.406A47.995 47.995 0 0 0 261.098 120.545L372.846 49.734A24.001000000000005 24.001000000000005 0 0 0 384 29.461V-32z"/>
            </g></svg>