<svg xmlns="http://www.w3.org/2000/svg" viewBox="0 0 384 512">
            <g transform="scale(1,-1) translate(0 -448)">
              <path d=" M91.826 -19.2V130.034C83.578 124.193 75.268 119.464 66.908 115.881C35.098 102.248 -0.014 125.778 0 160C0.008 178.616 10.897 192.203 29.092 200C57.378 212.122 93.421 278.648 106.415 307.534C114.371 325.391 131.894 335.987 150.26 335.998L150.261 336H321.7870000000001C333.5990000000001 336 343.6840000000001 327.404 345.49 315.731C352.74 268.894 383.973 253.971 383.805 192C383.798 189.276 384 178.746 384 176C384 125.346 361.878 94.426 312.737 103.4C303.44 84.803 273.251 72.662 250.422 86.95C229.245 62.305 196.526 64.311 179.478 80.651V-19.2C179.478 -43.35 159.277 -64 135.652 -64C112.369 -64 91.826 -42.65 91.826 -19.2zM112 376V424C112 437.255 122.745 448 136 448H328C341.255 448 352 437.255 352 424V376C352 362.745 341.255 352 328 352H136C122.745 352 112 362.745 112 376zM324 400C324 411.046 315.046 420 304 420S284 411.046 284 400S292.954 380 304 380S324 388.954 324 400z"/>
            </g></svg>