<svg xmlns="http://www.w3.org/2000/svg" viewBox="0 0 448 512">
            <g transform="scale(1,-1) translate(0 -448)">
              <path d=" M408.781 319.993C386.356 320.4220000000001 368 301.64 368 279.2100000000001V192H360V368.21C360 390.64 341.644 409.4220000000001 319.219 408.993C297.488 408.577 280 390.831 280 369V192H272V407.21C272 429.64 253.644 448.4220000000001 231.219 447.993C209.488 447.577 192 429.831 192 408V192H184V367.21C184 389.64 165.644 408.4220000000001 143.219 407.993C121.488 407.577 104 389.831 104 368V132.0080000000001L72.352 175.5270000000001C59.359 193.393 34.343 197.3440000000001 16.475 184.35C-1.39 171.356 -5.34 146.34 7.653 128.473L133.254 -44.232A48 48 0 0 1 172.073 -64H369.663C391.937 -64 411.2850000000001 -48.676 416.387 -26.994L442.895 85.6659999999999A192.011 192.011 0 0 1 447.999 129.641V280C448 301.831 430.512 319.577 408.781 319.993z"/>
            </g></svg>