<svg xmlns="http://www.w3.org/2000/svg" viewBox="0 0 448 512">
            <g transform="scale(1,-1) translate(0 -448)">
              <path d=" M440.667 265.891L447.81 305.891C449.123 313.246 443.468 320 435.997 320H361.187L375.81 401.891C377.123 409.246 371.468 416 363.997 416H323.365A12 12 0 0 1 311.552 406.109L296.175 320H197.54L212.163 401.891C213.477 409.246 207.822 416 200.35 416H159.718A12 12 0 0 1 147.905 406.109L132.528 320H53.432A12 12 0 0 1 41.619 310.1090000000001L34.476 270.1090000000001C33.163 262.754 38.818 256 46.289 256H121.099L98.242 128H19.146A12 12 0 0 1 7.333 118.109L0.19 78.109C-1.123 70.754 4.532 64 12.003 64H86.813L72.19 -17.891C70.877 -25.246 76.532 -32 84.003 -32H124.635A12 12 0 0 1 136.448 -22.109L151.826 64H250.46L235.837 -17.891C234.523 -25.246 240.178 -32 247.65 -32H288.282A12 12 0 0 1 300.095 -22.109L315.472 64H394.568A12 12 0 0 1 406.381 73.891L413.524 113.891C414.837 121.2460000000001 409.182 128 401.711 128H326.901L349.7579999999999 256H428.854A12 12 0 0 1 440.6669999999999 265.891zM261.889 128H163.255L186.112 256H284.746L261.889 128z"/>
            </g></svg>