<svg xmlns="http://www.w3.org/2000/svg" viewBox="0 0 576 512">
            <g transform="scale(1,-1) translate(0 -448)">
              <path d=" M488 135.3V-8C488 -21.3 477.3 -32 464 -32H348C341.4 -32 336 -26.6 336 -20V92C336 98.6 330.6 104 324 104H252C245.4 104 240 98.6 240 92V-20C240 -26.6 234.6 -32 228 -32H112C98.7 -32 88 -21.3 88 -8V135.3C88 138.9 89.6 142.3 92.4 144.6L280.4 299.4000000000001C284.8 303 291.2 303 295.7 299.4000000000001L483.7 144.6C486.4 142.3 488 138.9 488 135.3zM571.6 196.2L488 265.1V403.6C488 410.2 482.6 415.6 476 415.6H420C413.4 415.6 408 410.2 408 403.6V331L318.5 404.7C300.8 419.3 275.2 419.3 257.5 404.7L4.4 196.2C-0.7 192 -1.4 184.4 2.8 179.3L28.3 148.3C32.5 143.2 40.1 142.5 45.2 146.7L280.4 340.4C284.8 344 291.2 344 295.7 340.4L530.9 146.7C536 142.5 543.6 143.2 547.8 148.3L573.3 179.3C577.5 184.5 576.6999999999999 192 571.5999999999999 196.2z"/>
            </g></svg>