<svg xmlns="http://www.w3.org/2000/svg" viewBox="0 0 448 512">
            <g transform="scale(1,-1) translate(0 -448)">
              <path d=" M448 -44V-64H0V-44C0 -37.373 5.373 -32 12 -32H32V328C32 341.255 42.745 352 56 352H144V424C144 437.255 154.745 448 168 448H280C293.255 448 304 437.255 304 424V352H392C405.255 352 416 341.255 416 328V-32H436C442.627 -32 448 -37.373 448 -44zM308 256H268C261.373 256 256 250.627 256 244V204C256 197.373 261.373 192 268 192H308C314.627 192 320 197.373 320 204V244C320 250.627 314.627 256 308 256zM140 192H180C186.627 192 192 197.373 192 204V244C192 250.627 186.627 256 180 256H140C133.373 256 128 250.627 128 244V204C128 197.373 133.373 192 140 192zM244 64H204C197.373 64 192 58.627 192 52V-32H256V52C256 58.627 250.627 64 244 64zM308 160H268C261.373 160 256 154.627 256 148V108C256 101.373 261.373 96 268 96H308C314.627 96 320 101.373 320 108V148C320 154.627 314.627 160 308 160zM192 148C192 154.627 186.627 160 180 160H140C133.373 160 128 154.627 128 148V108C128 101.373 133.373 96 140 96H180C186.627 96 192 101.373 192 108V148zM182 352H208V326A6 6 0 0 1 214 320H234A6 6 0 0 1 240 326V352H266A6 6 0 0 1 272 358V378A6 6 0 0 1 266 384H240V410A6 6 0 0 1 234 416H214A6 6 0 0 1 208 410V384H182A6 6 0 0 1 176 378V358A6 6 0 0 1 182 352z"/>
            </g></svg>