<svg xmlns="http://www.w3.org/2000/svg" viewBox="0 0 512 512">
            <g transform="scale(1,-1) translate(0 -448)">
              <path d=" M464 384H48C21.49 384 0 362.51 0 336V48C0 21.49 21.49 0 48 0H464C490.51 0 512 21.49 512 48V336C512 362.51 490.51 384 464 384zM256 98C256 88.059 247.941 80 238 80H82C72.059 80 64 88.059 64 98V111.892C64 128.411 75.243 142.811 91.269 146.817L118.011 153.503C139.837 137.804 173.893 133.294 201.989 153.503L228.732 146.817C244.757 142.811 256 128.411 256 111.892V98zM100 212C100 245.137 126.863 272 160 272S220 245.137 220 212S193.137 152 160 152S100 178.863 100 212zM448 108C448 101.373 442.627 96 436 96H300C293.373 96 288 101.373 288 108V116C288 122.627 293.373 128 300 128H436C442.627 128 448 122.627 448 116V108zM448 172C448 165.373 442.627 160 436 160H300C293.373 160 288 165.373 288 172V180C288 186.627 293.373 192 300 192H436C442.627 192 448 186.627 448 180V172zM448 236C448 229.373 442.627 224 436 224H300C293.373 224 288 229.373 288 236V244C288 250.627 293.373 256 300 256H436C442.627 256 448 250.627 448 244V236zM480 332C480 325.373 474.627 320 468 320H44C37.373 320 32 325.373 32 332V340C32 346.627 37.373 352 44 352H468C474.627 352 480 346.627 480 340V332z"/>
            </g></svg>