<svg xmlns="http://www.w3.org/2000/svg" viewBox="0 0 192 512">
            <g transform="scale(1,-1) translate(0 -448)">
              <path d=" M20 23.771H40V168.229H20C8.954 168.229 0 177.183 0 188.229V236C0 247.046 8.954 256 20 256H132C143.046 256 152 247.046 152 236V23.771H172C183.046 23.771 192 14.817 192 3.771V-44C192 -55.046 183.046 -64 172 -64H20C8.954 -64 0 -55.046 0 -44V3.771C0 14.817 8.954 23.771 20 23.771zM96 448C56.235 448 24 415.765 24 376S56.235 304 96 304S168 336.235 168 376S135.764 448 96 448z"/>
            </g></svg>