<svg xmlns="http://www.w3.org/2000/svg" viewBox="0 0 640 512">
            <g transform="scale(1,-1) translate(0 -448)">
              <path d=" M304 32H24C10.745 32 0 42.745 0 56V328C0 341.255 10.745 352 24 352H304V32zM183.324 104.622A12 12 0 0 1 194.839 96H217.702C225.922 96 231.709 104.078 229.064 111.861L171.61 280.915A12 12 0 0 1 160.248 289.054H127.759A12.001000000000001 12.001000000000001 0 0 1 116.397 280.915L58.942 111.861C56.297 104.078 62.084 96 70.304 96H93.109A12 12 0 0 1 104.644 104.693L113.762 136.5H173.973L183.324 104.622zM144.273 245.042S148.593 223.981 152.103 211.832L162.9030000000001 174.301H124.8330000000001L135.9030000000001 211.832C139.4130000000001 223.982 143.7330000000001 245.042 143.7330000000001 245.042H144.2730000000001zM616 32H336V352H616C629.255 352 640 341.255 640 328V56C640 42.745 629.255 32 616 32zM580 260H516V276C516 282.627 510.627 288 504 288H488C481.373 288 476 282.627 476 276V260H412C405.373 260 400 254.627 400 248V232C400 225.373 405.373 220 412 220H526.106C519.843 205.701 509.588 191.028 496.083 176.794C489.523 183.692 483.686 190.704 478.718 197.727C475.079 202.871 468.133 204.402 462.723 201.173L455.443 196.827L448.945 192.948C442.989 189.392 441.252 181.527 445.21 175.831C451.275 167.102 458.308 158.495 466.194 150.105C458.0719999999999 143.879 449.353 137.861 440.091 132.141C434.57 128.731 432.7099999999999 121.585 435.929 115.951L443.87 102.055C447.232 96.172 454.8049999999999 94.2289999999999 460.576 97.7789999999999C473.308 105.61 485.147 113.954 496.0189999999999 122.67C506.9359999999999 113.9089999999999 518.785 105.568 531.415 97.789C537.189 94.233 544.7679999999999 96.171 548.132 102.059L556.0759999999999 115.962C559.2889999999999 121.585 557.4459999999999 128.722 551.9409999999999 132.133A312.737 312.737 0 0 0 525.881 150.152C546.905 172.577 561.649 196.441 568.5939999999999 220.002H580C586.627 220.002 592 225.375 592 232.002V248.002C592 254.627 586.627 260 580 260z"/>
            </g></svg>