<svg xmlns="http://www.w3.org/2000/svg" viewBox="0 0 640 512">
            <g transform="scale(1,-1) translate(0 -448)">
              <path d=" M512 384V128H128V384H512M528 448H112C85.5 448 64 426.5 64 400V112C64 85.5 85.5 64 112 64H528C554.5 64 576 85.5 576 112V400C576 426.5 554.5 448 528 448zM628 32H389.5C386.5 32 384 29.9 383.6 26.9C381.2 11.7 368 0 352 0H288C272 0 258.8 11.7 256.4 26.9C255.9 29.8 253.4 32 250.5 32H12C5.4 32 0 26.6 0 20V-16C0 -42.5 21.5 -64 48 -64H592C618.5 -64 640 -42.5 640 -16V20C640 26.6 634.6 32 628 32z"/>
            </g></svg>