<svg xmlns="http://www.w3.org/2000/svg" viewBox="0 0 512 512">
            <g transform="scale(1,-1) translate(0 -448)">
              <path d=" M489.038 425.037C465.944 448.13 434.648 453.93 413.947 441.871C355.041 407.5590000000001 232.697 494.948 92.874 355.125S40.441 92.959 6.129 34.055C-5.93 13.353 -0.131 -17.944 22.962 -41.038C46.057 -64.133 77.354 -69.929 98.057 -57.87C156.958 -23.56 279.303 -110.9489999999999 419.125 28.873S471.56 291.04 505.871 349.944C517.93 370.646 512.132 401.943 489.038 425.0370000000001zM243.881 352.478C185.692 337.931 110.073 262.323 95.523 204.12C93.706 196.85 87.181 191.996 80.012 191.996C78.728 191.996 77.422 192.152 76.119 192.477C67.547 194.621 62.335 203.307 64.477 211.88C81.901 281.573 166.316 366.07 236.119 383.522C244.694 385.665 253.38 380.453 255.522 371.88S252.453 354.621 243.881 352.478z"/>
            </g></svg>