<svg xmlns="http://www.w3.org/2000/svg" viewBox="0 0 384 512">
            <g transform="scale(1,-1) translate(0 -448)">
              <path d=" M371.9940000000001 192H323.975C317.64 192 312 187.088 312 180.754C312 80 230.179 32 144 32V191.219L278.603 221.131A12 12 0 0 1 288 232.845V273.8210000000001C288 281.498 280.891 287.201 273.397 285.535L144 256.781V287.2200000000001L278.603 317.132A12 12 0 0 1 288 328.846V369.8210000000001C288 377.498 280.891 383.201 273.397 381.535L144 352.781V404C144 410.627 138.627 416 132 416H76C69.373 416 64 410.627 64 404V335.003L9.397 322.8690000000001A12 12 0 0 1 0 311.155V270.179C0 262.502 7.109 256.799 14.603 258.4650000000001L64 269.442V239.003L9.397 226.869A12 12 0 0 1 0 215.155V174.179C0 166.502 7.109 160.799 14.603 162.465L64 173.442V-20C64 -26.627 69.373 -32 76 -32H155.583C289.674 -32 378.838 45.834 383.991 179.592C384.252 186.374 378.78 192 371.994 192z"/>
            </g></svg>