<svg xmlns="http://www.w3.org/2000/svg" viewBox="0 0 512 512">
            <g transform="scale(1,-1) translate(0 -448)">
              <path d=" M3.263 308.473C3.263 315.9500000000001 7.18 320.045 14.836 320.045H29.967V359.9220000000001C29.967 365.085 30.501 370.425 30.501 370.425H30.145S28.366 367.755 27.297 366.687C22.846 362.414 16.793 362.236 11.631 367.755L6.113 373.986C0.771 379.327 1.129 385.202 6.647 390.365L28.367 410.303C32.815 414.398 36.732 416 42.785 416H54.89C62.546 416 66.639 412.084 66.639 404.428V320.044H82.127C89.782 320.044 93.699 315.95 93.699 308.472V299.5710000000001C93.699 292.094 89.782 287.999 82.127 287.999H14.836C7.18 287.999 3.263 292.094 3.263 299.5710000000001V308.473zM2.211 143.409C2.211 190.687 53.166 199.792 53.166 212.574C53.166 219.754 47.212 221.329 43.886 221.329C40.733 221.329 37.407 220.278 34.431 217.477C29.352 212.574 23.924 210.473 18.32 215.026L9.741 221.855C3.962 226.408 2.561 231.6600000000001 6.938 237.264C13.592 246.019 26.025 256 47.387 256C66.824 256 91.863 245.494 91.863 216.427C91.863 178.08 45.11 170.025 43.184 159.518H82.233C89.762 159.518 93.79 155.491 93.79 148.136V139.381C93.79 132.027 89.762 127.999 82.233 127.999H14.293C7.288 127.999 2.21 132.027 2.21 139.381V143.409zM5.654 -6.61L11.257 2.67C15.11 9.324 20.362 9.674 26.841 5.8219999999999C31.744 3.7209999999999 36.471 2.67 41.2 2.67C51.355 2.67 55.558 6.172 55.558 10.9C55.558 17.554 49.954 20.006 39.624 20.006H34.896C28.942 20.006 25.616 22.107 22.638 27.886L21.588 29.812C19.137 34.54 20.362 39.6179999999999 24.389 44.696L29.993 51.7C36.822 60.105 42.25 65.183 42.25 65.183V65.533S38.047 64.482 29.642 64.482H16.685C9.155 64.482 5.302 68.5100000000001 5.302 75.864V84.619C5.302 92.149 9.155 96.001 16.685 96.001H75.169C82.698 96.001 86.551 91.9740000000001 86.551 84.619V81.292C86.551 75.514 85.15 71.4860000000001 81.472 67.109L63.963 46.972C83.574 41.8940000000001 92.679 26.485 92.679 12.1270000000001C92.679 -9.2359999999999 78.321 -31.9989999999999 44.176 -31.9989999999999C27.54 -31.9989999999999 15.984 -27.2709999999999 8.28 -22.5439999999999C2.501 -18.3419999999999 1.976 -12.7389999999999 5.654 -6.6099999999999zM144 316H496C504.837 316 512 323.163 512 332V372C512 380.837 504.837 388 496 388H144C135.163 388 128 380.837 128 372V332C128 323.163 135.163 316 144 316zM144 156H496C504.837 156 512 163.163 512 172V212C512 220.837 504.837 228 496 228H144C135.163 228 128 220.837 128 212V172C128 163.163 135.163 156 144 156zM144 -4H496C504.837 -4 512 3.163 512 12V52C512 60.837 504.837 68 496 68H144C135.163 68 128 60.837 128 52V12C128 3.163 135.163 -4 144 -4z"/>
            </g></svg>