<svg xmlns="http://www.w3.org/2000/svg" viewBox="0 0 512 512">
            <g transform="scale(1,-1) translate(0 -448)">
              <path d=" M128 332V372C128 380.837 135.163 388 144 388H496C504.837 388 512 380.837 512 372V332C512 323.163 504.837 316 496 316H144C135.163 316 128 323.163 128 332zM144 156H496C504.837 156 512 163.163 512 172V212C512 220.837 504.837 228 496 228H144C135.163 228 128 220.837 128 212V172C128 163.163 135.163 156 144 156zM144 -4H496C504.837 -4 512 3.163 512 12V52C512 60.837 504.837 68 496 68H144C135.163 68 128 60.837 128 52V12C128 3.163 135.163 -4 144 -4zM16 304H80C88.837 304 96 311.163 96 320V384C96 392.837 88.837 400 80 400H16C7.163 400 0 392.837 0 384V320C0 311.163 7.163 304 16 304zM16 144H80C88.837 144 96 151.163 96 160V224C96 232.837 88.837 240 80 240H16C7.163 240 0 232.837 0 224V160C0 151.163 7.163 144 16 144zM16 -16H80C88.837 -16 96 -8.837 96 0V64C96 72.837 88.837 80 80 80H16C7.163 80 0 72.837 0 64V0C0 -8.837 7.163 -16 16 -16z"/>
            </g></svg>