<svg xmlns="http://www.w3.org/2000/svg" viewBox="0 0 512 512">
            <g transform="scale(1,-1) translate(0 -448)">
              <path d=" M96 352C96 325.49 74.51 304 48 304S0 325.49 0 352S21.49 400 48 400S96 378.51 96 352zM48 240C21.49 240 0 218.51 0 192S21.49 144 48 144S96 165.49 96 192S74.51 240 48 240zM48 80C21.49 80 0 58.51 0 32S21.49 -16 48 -16S96 5.49 96 32S74.51 80 48 80zM144 316H496C504.837 316 512 323.163 512 332V372C512 380.837 504.837 388 496 388H144C135.163 388 128 380.837 128 372V332C128 323.163 135.163 316 144 316zM144 156H496C504.837 156 512 163.163 512 172V212C512 220.837 504.837 228 496 228H144C135.163 228 128 220.837 128 212V172C128 163.163 135.163 156 144 156zM144 -4H496C504.837 -4 512 3.163 512 12V52C512 60.837 504.837 68 496 68H144C135.163 68 128 60.837 128 52V12C128 3.163 135.163 -4 144 -4z"/>
            </g></svg>