<svg xmlns="http://www.w3.org/2000/svg" viewBox="0 0 576 512">
            <g transform="scale(1,-1) translate(0 -448)">
              <path d=" M423.5 448C339.5 447.7 272 378.5 272 294.5V224H48C21.5 224 0 202.5 0 176V-16C0 -42.5 21.5 -64 48 -64H400C426.5 -64 448 -42.5 448 -16V176C448 202.5 426.5 224 400 224H352V295.1C352 334.7 383.7 367.6 423.3 368C463.3 368.4 496 335.9 496 296V216C496 202.7 506.7 192 520 192H552C565.3 192 576 202.7 576 216V296C576 380 507.5 448.3 423.5 448z"/>
            </g></svg>