<svg xmlns="http://www.w3.org/2000/svg" viewBox="0 0 576 512">
            <g transform="scale(1,-1) translate(0 -448)">
              <path d=" M569.344 216.369C512.96 312.051 407.81 376 288 376C259.532 376 231.898 372.381 205.549 365.591L152.778 437.76C145.177 448.618 130.214 451.26 119.355 443.6600000000001L106.241 434.482C95.381 426.881 92.739 411.916 100.341 401.056L143.472 342.661C89.449 316.27 40.228 273.317 6.682 216.419C6.672 216.402 6.659 216.386 6.648 216.369C-2.117 201.494 -2.316 182.841 6.648 167.63C45.148 102.298 106.39 51.768 179.507 26.281L55.316 203.698A272.194 272.194 0 0 0 83.61 239.61L203.01 69.03H203.02L243.65 10.99A330.055 330.055 0 0 1 322.59 9.8199999999999L132.61 281.2199999999999A277.628 277.628 0 0 0 171.387 302.7829999999999L423.223 -53.7610000000001C430.824 -64.619 445.7870000000001 -67.2600000000001 456.646 -59.6610000000001L469.76 -50.4830000000001C480.62 -42.8820000000001 483.262 -27.9160000000001 475.66 -17.0570000000001L432.54 41.3199999999999L432.533 41.329C489.694 69.307 537.3679999999999 113.369 569.343 167.63A47.937999999999995 47.937999999999995 0 0 1 569.3439999999999 216.369zM390.026 102.06L370.9600000000001 129.29C395.6420000000001 161.857 398.6710000000001 205.643 379.7600000000001 240.9700000000001V240.9400000000001C379.7600000000001 217.29 360.5900000000001 198.12 336.9400000000001 198.12C313.1120000000001 198.12 294.1200000000001 217.469 294.1200000000001 240.9400000000001C294.1200000000001 264.5900000000001 313.2900000000001 283.76 336.9400000000001 283.76H336.9700000000001C312.2200000000001 297.009 283.4480000000001 299.403 257.4600000000001 291.4400000000001L238.392 318.677C253.758 324.694 270.488 328 288 328C363.1620000000001 328 424 267.174 424 192C424 157.496 411.167 126.025 390.026 102.06z"/>
            </g></svg>