<svg xmlns="http://www.w3.org/2000/svg" viewBox="0 0 512 512">
            <g transform="scale(1,-1) translate(0 -448)">
              <path d=" M101.1 -57L7 37.1C-2.4 46.5 -2.4 61.7000000000001 7 71L377 441C386.4 450.4 401.6 450.4 410.9 441L505 346.9C514.4 337.5 514.4 322.3 505 313L135 -57C125.7 -66.2999999999999 110.5 -66.2999999999999 101.1 -57zM304 288.8L352.8 240L442.7000000000001 329.9L393.9000000000001 378.7L304 288.8zM138.9 408.7L127.2 384.9L101 381.1C96.3 380.4 94.4 374.6 97.8 371.3L116.8 352.8L112.3 326.7000000000001C111.5 322 116.4 318.4 120.6 320.6L144 333L167.4 320.7C171.6 318.5 176.5 322.1 175.7 326.8L171.2 352.9L190.2 371.4C193.6 374.7 191.7 380.5 187 381.2L160.8 385L149.1 408.8C147.1 412.9 141 412.9 138.9 408.7zM236.6 429.4L228.8 413.6L211.3 411C208.2 410.5 206.9 406.7 209.2 404.5L221.8 392.2L218.8 374.8C218.3 371.7000000000001 221.6 369.3 224.4 370.8L240 379L255.6 370.8C258.4 369.3 261.7 371.7 261.2 374.8L258.2 392.2L270.8 404.5C273.1 406.7 271.8 410.6 268.7 411L251.2 413.5L243.4 429.3C242 432.3 238 432.3 236.6 429.4zM44.6 429.4L36.8 413.6L19.3 411C16.2 410.5 14.9 406.7 17.2 404.5L29.8 392.2L26.8 374.8C26.3 371.7000000000001 29.6 369.3 32.4 370.8L48 379L63.6 370.8C66.4 369.3 69.7 371.7 69.2 374.8L66.2 392.2L78.8 404.5C81.1 406.7 79.8 410.6 76.7 411L59.2 413.5L51.4 429.3C50 432.3 46 432.3 44.6 429.4zM460.6 205.9L452.8 190.1L435.3 187.6C432.2 187.1 430.9000000000001 183.3 433.2 181.1L445.8 168.8L442.8 151.4C442.3 148.3 445.6 145.9 448.4000000000001 147.4L464.0000000000001 155.6L479.6000000000001 147.4C482.4000000000001 145.9 485.7000000000001 148.3 485.2000000000001 151.4L482.2000000000001 168.8L494.8000000000001 181.1C497.1000000000001 183.3 495.8000000000001 187.2000000000001 492.7000000000001 187.6L475.2000000000001 190.1L467.4000000000001 205.9C466.0000000000001 208.7000000000001 462.0000000000001 208.7000000000001 460.6000000000001 205.9z"/>
            </g></svg>