<svg xmlns="http://www.w3.org/2000/svg" viewBox="0 0 512 512">
            <g transform="scale(1,-1) translate(0 -448)">
              <path d=" M487.515 343.515L439.03 295.03A23.998000000000005 23.998000000000005 0 0 0 422.06 288.001H56C42.745 288.001 32 298.746 32 312.001V392C32 405.255 42.745 416 56 416H216V424C216 437.255 226.745 448 240 448H272C285.255 448 296 437.255 296 424V416H422.059A24 24 0 0 0 439.029 408.971L487.514 360.486C492.201 355.799 492.201 348.201 487.515 343.515zM216 80V-40C216 -53.255 226.745 -64 240 -64H272C285.255 -64 296 -53.255 296 -40V80H216zM456 224H296V272H216V224H89.941A24 24 0 0 1 72.971 216.971L24.486 168.486C19.8 163.8 19.8 156.202 24.486 151.515L72.971 103.03A23.998000000000005 23.998000000000005 0 0 1 89.941 96.001H456C469.255 96.001 480 106.746 480 120.001V200.001C480 213.255 469.255 224 456 224z"/>
            </g></svg>