<svg xmlns="http://www.w3.org/2000/svg" viewBox="0 0 480 512">
            <g transform="scale(1,-1) translate(0 -448)">
              <path d=" M476.2 200.5L420.3 256.4C412.7 264 399.8 258.6 399.8 247.9V224H376V244C376 250.6 370.6 256 364 256H324C317.4 256 312 250.6 312 244V224H284.4C278.6 249.6 265.7 273.9 245.8 293.8C189.6 350 98.4 350 42.2 293.8C-14 237.6 -14 146.4 42.2 90.2000000000001C98.4 34.0000000000001 189.6 34.0000000000001 245.8 90.2000000000001C265.7 110.1 278.6 134.4 284.4000000000001 160.0000000000001H312V140.0000000000001C312 133.4 317.4 128.0000000000001 324 128.0000000000001H364C370.6 128.0000000000001 376 133.4 376 140.0000000000001V160.0000000000001H399.9V136.1000000000001C399.9 125.4000000000001 412.8 120.1000000000001 420.4 127.6000000000001L476.3 183.5000000000001C480.9 188.2000000000001 480.9 195.8000000000001 476.1999999999999 200.5000000000001zM200.6 135.4C169.4 104.2 118.7 104.2 87.5 135.4C56.3 166.6 56.3 217.3 87.5 248.5C118.7 279.7 169.4 279.7 200.6 248.5C231.8 217.4 231.8 166.6 200.6 135.4z"/>
            </g></svg>