<svg xmlns="http://www.w3.org/2000/svg" viewBox="0 0 384 512">
            <g transform="scale(1,-1) translate(0 -448)">
              <path d=" M372 384H293C282.3 384 277 371.1 284.5 363.5L301.4 346.6L220.7 265.9C198.5 279.9 172.2 288 144 288C64.5 288 0 223.5 0 144S64.5 0 144 0S288 64.5 288 144C288 172.2 279.9 198.5 265.9 220.7L346.6 301.4L363.5 284.5C371.1 276.9 384 282.3 384 293V372C384 378.6 378.6 384 372 384zM144 64C99.9 64 64 99.9 64 144S99.9 224 144 224S224 188.1 224 144S188.1 64 144 64z"/>
            </g></svg>