<svg xmlns="http://www.w3.org/2000/svg" viewBox="0 0 512 512">
            <g transform="scale(1,-1) translate(0 -448)">
              <path d=" M96 -32H416V320H384V368C384 394.51 362.51 416 336 416H176C149.49 416 128 394.51 128 368V320H96V-32zM192 352H320V320H192V352zM512 272V16C512 -10.51 490.51 -32 464 -32H448V320H464C490.51 320 512 298.51 512 272zM64 -32H48C21.49 -32 0 -10.51 0 16V272C0 298.51 21.49 320 48 320H64V-32zM352 176V144C352 135.163 344.837 128 336 128H288V80C288 71.163 280.837 64 272 64H240C231.163 64 224 71.163 224 80V128H176C167.163 128 160 135.163 160 144V176C160 184.837 167.163 192 176 192H224V240C224 248.837 231.163 256 240 256H272C280.837 256 288 248.837 288 240V192H336C344.837 192 352 184.837 352 176z"/>
            </g></svg>