<svg xmlns="http://www.w3.org/2000/svg" viewBox="0 0 288 512">
            <g transform="scale(1,-1) translate(0 -448)">
              <path d=" M288 240C288 284.2 268.1 323.7 236.8 350.1C239.3 351.9 241.7 353.9 244 355.9C268.7 377.1 283.8 404.7 287.2 434.7C288.1 441.8 282.5 448 275.3 448H234.8C229 448 224.1 443.9 223 438.2C220.6 425.7 213.4 413.9 202.3 404.4C187 391.2 166.3 384 144 384S101 391.2 85.6 404.4C74.5 413.9 67.4 425.7 64.9 438.2C63.8 443.9 58.9 448 53.2 448H12.7C5.5 448 -0.1 441.8 0.8 434.7C4.2 404.6 19.2 377 44 355.8C46.3 353.8 48.7 351.9 51.2 350C19.9 323.7 0 284.2 0 240C0 171.5 47.9 114.1 112 99.6V48H76C69.4 48 64 42.6 64 36V-4C64 -10.6 69.4 -16 76 -16H112V-52C112 -58.6 117.4 -64 124 -64H164C170.6 -64 176 -58.6 176 -52V-16H212C218.6 -16 224 -10.6 224 -4V36C224 42.6 218.6 48 212 48H176V99.6C240.1 114.1 288 171.5 288 240.0000000000001zM64 240C64 284.1 99.9 320 144 320S224 284.1 224 240S188.1 160 144 160S64 195.9 64 240z"/>
            </g></svg>