<svg xmlns="http://www.w3.org/2000/svg" viewBox="0 0 384 512">
            <g transform="scale(1,-1) translate(0 -448)">
              <path d=" M96 192V352C96 405.019 138.981 448 192 448S288 405.019 288 352V192C288 138.981 245.019 96 192 96S96 138.981 96 192zM348 248H324C317.373 248 312 242.627 312 236V193.32C312 127.103 258.918 72.382 192.702 72.002C126.213 71.62 72 125.598 72 192V236C72 242.627 66.627 248 60 248H36C29.373 248 24 242.627 24 236V192C24 107.512 86.693 37.403 168 25.722V-20H100C93.373 -20 88 -25.373 88 -32V-52C88 -58.627 93.373 -64 100 -64H284C290.627 -64 296 -58.627 296 -52V-32C296 -25.373 290.627 -20 284 -20H216V25.722C297.307 37.403 360 107.512 360 192V236C360 242.627 354.627 248 348 248z"/>
            </g></svg>