<svg xmlns="http://www.w3.org/2000/svg" viewBox="0 0 512 512">
            <g transform="scale(1,-1) translate(0 -448)">
              <path d=" M421.45 162.805L376 208.254V236C376 242.627 381.373 248 388 248H412C418.627 248 424 242.627 424 236V192C424 182.043 423.1190000000001 172.29 421.45 162.805zM352 352C352 405.019 309.019 448 256 448C223.426 448 194.646 431.773 177.29 406.9650000000001L352 232.254V352zM504.971 -11.716L52.284 440.971C42.911 450.344 27.715 450.344 18.343 440.971L7.029 429.657C-2.343 420.284 -2.343 405.089 7.029 395.716L160 242.746V193.169C160 140.0800000000001 203.436 95.717 256.524 96.002C271.15 96.08 284.995 99.442 297.378 105.368L315.124 87.622C297.595 77.651 277.33 71.956 255.752 72C189.355 72.136 136 126.947 136 193.344V236C136 242.627 130.627 248 124 248H100C93.373 248 88 242.627 88 236V192C88 107.512 150.693 37.403 232 25.722V-20H164C157.373 -20 152 -25.373 152 -32V-52C152 -58.627 157.373 -64 164 -64H348C354.627 -64 360 -58.627 360 -52V-32C360 -25.373 354.627 -20 348 -20H280V25.722C305.625 29.404 329.396 38.894 349.942 52.805L459.717 -56.97C469.09 -66.3430000000001 484.286 -66.3430000000001 493.658 -56.97L504.971 -45.657C514.343 -36.284 514.343 -21.0890000000001 504.971 -11.716z"/>
            </g></svg>