<svg xmlns="http://www.w3.org/2000/svg" viewBox="0 0 640 512">
            <g transform="scale(1,-1) translate(0 -448)">
              <path d=" M640 328V56C640 42.745 629.255 32 616 32H24C10.745 32 0 42.745 0 56V328C0 341.255 10.745 352 24 352H616C629.255 352 640 341.255 640 328zM96 64C96 99.346 67.346 128 32 128V64H96zM96 320H32V256C67.346 256 96 284.654 96 320zM400 192C400 245.021 364.184 288 320 288S240 245.021 240 192C240 138.988 275.814 96 320 96C364.1670000000001 96 400 138.969 400 192zM608 128C572.654 128 544 99.346 544 64H608V128zM608 320H544C544 284.654 572.654 256 608 256V320zM277.563 148.473C277.563 155.95 281.48 160.045 289.136 160.045H304.267V199.923C304.267 205.086 304.801 210.426 304.801 210.426H304.445S302.666 207.756 301.5969999999999 206.688C297.1459999999999 202.415 291.0929999999999 202.237 285.931 207.756L280.413 213.987C275.071 219.328 275.429 225.203 280.947 230.366L302.6669999999999 250.305C307.116 254.4 311.0329999999999 256.002 317.087 256.002H329.192C336.848 256.002 340.941 252.086 340.941 244.43V160.046H356.429C364.084 160.046 368.001 155.952 368.001 148.474V139.573C368.001 132.096 364.084 128.001 356.429 128.001H289.136C281.48 128.001 277.563 132.096 277.563 139.573V148.473z"/>
            </g></svg>