<svg xmlns="http://www.w3.org/2000/svg" viewBox="0 0 512 512">
            <g transform="scale(1,-1) translate(0 -448)">
              <path d=" M480 320V352H500C506.627 352 512 357.373 512 364V404C512 410.627 506.627 416 500 416H460C453.373 416 448 410.627 448 404V384H64V404C64 410.627 58.627 416 52 416H12C5.373 416 0 410.627 0 404V364C0 357.373 5.373 352 12 352H32V32H12C5.373 32 0 26.627 0 20V-20C0 -26.627 5.373 -32 12 -32H52C58.627 -32 64 -26.627 64 -20V0H448V-20C448 -26.627 453.373 -32 460 -32H500C506.627 -32 512 -26.627 512 -20V20C512 26.627 506.627 32 500 32H480V320zM96 172V308C96 314.627 101.373 320 108 320H276C282.627 320 288 314.627 288 308V172C288 165.373 282.627 160 276 160H108C101.373 160 96 165.373 96 172zM416 76C416 69.373 410.627 64 404 64H236C229.373 64 224 69.373 224 76V128H296C309.255 128 320 138.745 320 152V224H404C410.627 224 416 218.627 416 212V76z"/>
            </g></svg>