<svg xmlns="http://www.w3.org/2000/svg" viewBox="0 0 448 512">
            <g transform="scale(1,-1) translate(0 -448)">
              <path d=" M0 364V404C0 412.837 7.163 420 16 420H432C440.837 420 448 412.837 448 404V364C448 355.163 440.837 348 432 348H16C7.163 348 0 355.163 0 364zM208 220H432C440.837 220 448 227.163 448 236V276C448 284.837 440.837 292 432 292H208C199.163 292 192 284.837 192 276V236C192 227.163 199.163 220 208 220zM16 -36H432C440.837 -36 448 -28.837 448 -20V20C448 28.837 440.837 36 432 36H16C7.163 36 0 28.837 0 20V-20C0 -28.837 7.163 -36 16 -36zM208 92H432C440.837 92 448 99.163 448 108V148C448 156.837 440.837 164 432 164H208C199.163 164 192 156.837 192 148V108C192 99.163 199.163 92 208 92zM4.687 180.687L100.687 84.703C110.734 74.652 128 81.776 128 96.016V287.992C128 302.3210000000001 110.675 309.296 100.687 299.305L4.687 203.313C-1.562 197.065 -1.562 186.935 4.687 180.687z"/>
            </g></svg>