<svg xmlns="http://www.w3.org/2000/svg" viewBox="0 0 512 512">
            <g transform="scale(1,-1) translate(0 -448)">
              <path d=" M269.9 83.4C271.3 77 272 70.4 272 63.7C272 -17.5 217.8 -64 137.2 -64C41.5 -64 0 12.9 0 100.4C10.4 93.3 46.9 63.9 58.7 63.9C65.7 63.9 71.7 67.9 74.2 74.5C97.8 136.7 140.7 151 187.1 151.9C202.7 118.1 233.2 92.3 269.9000000000001 83.4zM460.6 448C446.2000000000001 448 432.7000000000001 441.6 422.4000000000001 432.3C228.2 258 208 253.9 208 202.6C208 153.8 248.5 112 298.2 112C357.2 112 391.4 155.4 498.8 356.8C505.8 370.5 511.9999999999999 385.3 511.9999999999999 400.7C512 428.3 487.3 448 460.6 448z"/>
            </g></svg>