<svg xmlns="http://www.w3.org/2000/svg" viewBox="0 0 448 512">
            <g transform="scale(1,-1) translate(0 -448)">
              <path d=" M43.246 -18.142C-15.184 42.147 -14.095 139.369 44.632 199.439L254.392 414C298.708 459.332 370.743 459.336 415.063 414C458.953 369.106 459.006 296.671 415.063 251.724L232.214 64.872C202.359 34.335 153.581 34.761 124.232 65.87C95.957 95.84 96.864 143.343 125.684 172.823L269.427 319.658C275.6090000000001 325.972 285.7390000000001 326.08 292.053 319.899L314.914 297.52C321.229 291.338 321.336 281.208 315.155 274.894L171.427 128.073C166.495 123.028 166.191 114.645 170.779 109.781C175.151 105.1469999999999 182.024 105.0699999999999 186.467 109.6159999999999L369.316 296.467C388.929 316.529 388.929 349.1919999999999 369.305 369.265C350.116 388.892 319.348 388.902 300.151 369.265L90.39 154.705C55.627 119.145 55.091 61.585 89.199 26.392C123.209 -8.701 178.184 -8.745 212.257 26.106L384.317 202.105C390.4940000000001 208.424 400.624 208.538 406.943 202.361L429.82 179.997C436.139 173.82 436.254 163.69 430.076 157.3710000000001L258.016 -18.627C198.44 -79.5649999999999 102.073 -78.843 43.246 -18.1419999999999z"/>
            </g></svg>