<svg xmlns="http://www.w3.org/2000/svg" viewBox="0 0 448 512">
            <g transform="scale(1,-1) translate(0 -448)">
              <path d=" M128 264C128 294.879 153.122 320 184 320H320V392C320 405.255 309.255 416 296 416H215.39C204.306 435.11 183.637 448 160 448S115.694 435.11 104.61 416H24C10.745 416 0 405.255 0 392V56C0 42.745 10.745 32 24 32H128V264zM160 408C173.255 408 184 397.255 184 384S173.255 360 160 360S136 370.745 136 384S146.745 408 160 408zM344 160H448V-40C448 -53.255 437.255 -64 424 -64H184C170.745 -64 160 -53.255 160 -40V264C160 277.255 170.745 288 184 288H320V184C320 170.8 330.8 160 344 160zM448 198.059V192H352V288H358.0590000000001A24 24 0 0 0 375.029 280.971L440.9700000000001 215.03A24.002000000000002 24.002000000000002 0 0 0 448 198.059z"/>
            </g></svg>