<svg xmlns="http://www.w3.org/2000/svg" viewBox="0 0 448 512">
            <g transform="scale(1,-1) translate(0 -448)">
              <path d=" M112 224C173.9 224 224 274.1 224 336S173.9 448 112 448S0 397.9 0 336S50.1 224 112 224zM112 384C138.5 384 160 362.5 160 336S138.5 288 112 288S64 309.5 64 336S85.5 384 112 384zM336 160C274.1 160 224 109.9 224 48S274.1 -64 336 -64S448 -13.9 448 48S397.9 160 336 160zM336 0C309.5 0 288 21.5 288 48S309.5 96 336 96S384 74.5 384 48S362.5 0 336 0zM392.3 447.8L423.9000000000001 447.9C443.3 448 454.8 426.1 443.6 410.1L77.4 -53.6A23.95 23.95 0 0 0 57.8 -63.8L24.4 -63.9C4.9 -63.9 -6.5 -42.0000000000001 4.7 -26.1L372.7 437.6C377.2 444 384.5 447.8 392.3 447.8z"/>
            </g></svg>