<svg xmlns="http://www.w3.org/2000/svg" viewBox="0 0 448 512">
            <g transform="scale(1,-1) translate(0 -448)">
              <path d=" M400 416H48C21.49 416 0 394.51 0 368V16C0 -10.51 21.49 -32 48 -32H400C426.51 -32 448 -10.51 448 16V368C448 394.51 426.51 416 400 416zM94 32C86.967 32 80.943 36.873 79.384 43.627L64.386 108.627A15 15 0 0 0 73.093 125.787L143.091 155.7860000000001A15 15 0 0 0 160.609 151.4970000000001L191.606 113.6120000000001C240.55 136.5750000000001 279.903 176.4700000000001 302.387 224.3920000000001L264.501 255.3890000000001A15.000999999999998 15.000999999999998 0 0 0 260.212 272.9070000000001L290.212 342.9050000000001A15 15 0 0 0 307.372 351.6120000000001L372.372 336.6140000000001A14.997000000000002 14.997000000000002 0 0 0 384 322C384 161.708 254.055 32 94 32z"/>
            </g></svg>