<svg xmlns="http://www.w3.org/2000/svg" viewBox="0 0 384 512">
            <g transform="scale(1,-1) translate(0 -448)">
              <path d=" M97.333 -58.966C-32.541 70.908 -32.348 281.286 97.333 410.967C103.031 416.665 111.86 417.599 118.596 413.389L183.413 372.876A17.187 17.187 0 0 0 190.262 351.918L157.854 270.897A17.188 17.188 0 0 0 140.185 260.178L84.375 265.7580000000001C63.324 207.497 63.763 143.287 84.375 86.2430000000001L140.186 91.8240000000001A17.188 17.188 0 0 0 157.855 81.1050000000001L190.263 0.0830000000001A17.188 17.188 0 0 0 183.414 -20.8749999999999L118.597 -61.3879999999999A17.19 17.19 0 0 0 97.333 -58.9659999999998zM247.126 352.527C258.9580000000001 332.48 258.9580000000001 307.519 247.126 287.472C243.176 280.779 234.018 279.513 228.408 284.891L222.433 290.617C218.522 294.365 217.64 300.239 220.172 305.027A32.063 32.063 0 0 1 220.172 334.972C217.6390000000001 339.76 218.522 345.634 222.433 349.382L228.408 355.108C234.0180000000001 360.486 243.176 359.22 247.126 352.527zM338.913 443.714C399.053 372.11 399.005 267.832 338.913 196.286C334.439 190.959 326.3830000000001 190.54 321.361 195.353L315.563 200.91C311.003 205.281 310.586 212.439 314.633 217.289C364.32 276.827 364.279 363.222 314.633 422.711C310.586 427.561 311.002 434.719 315.563 439.09L321.361 444.647C326.383 449.46 334.439 449.041 338.913 443.714zM292.9410000000001 398.773C328.9910000000001 352.451 329.0490000000001 287.624 292.9410000000001 241.227C288.5510000000001 235.586 280.2440000000001 234.976 275.0850000000001 239.923L269.2670000000001 245.502C264.8670000000001 249.721 264.2690000000001 256.597 267.9820000000001 261.433C294.5180000000001 295.997 294.516 344.005 267.9820000000001 378.567C264.269 383.403 264.867 390.278 269.2670000000001 394.4980000000001L275.0850000000001 400.077C280.2440000000001 405.024 288.5510000000001 404.414 292.9410000000001 398.773z"/>
            </g></svg>