<svg xmlns="http://www.w3.org/2000/svg" viewBox="0 0 576 512">
            <g transform="scale(1,-1) translate(0 -448)">
              <path d=" M112 416C50.1 416 0 365.9 0 304V80C0 18.1 50.1 -32 112 -32S224 18.1 224 80V304C224 365.9 173.9 416 112 416zM160 192H64V304C64 330.5 85.5 352 112 352S160 330.5 160 304V192zM299.7 221.7C296.2 225.2 290.3 224.8 287.4 220.9C242.1 158.4 247 70.8 303.3 14.5C359.6 -41.8 447.2 -46.7 509.6999999999999 -1.4C513.6999999999999 1.5 513.9999999999999 7.4 510.4999999999999 10.9L299.7 221.7zM529.5 240.7C473.2 297 385.6 301.9 323.1 256.6C319.1 253.7 318.8 247.8 322.3 244.3L533.1 33.5C536.6 30 542.5 30.4 545.4 34.3C590.6999999999999 96.9 585.9 184.4 529.5 240.7z"/>
            </g></svg>