<svg xmlns="http://www.w3.org/2000/svg" viewBox="0 0 576 512">
            <g transform="scale(1,-1) translate(0 -448)">
              <path d=" M472 248H360.211L256.013 442.289A12 12 0 0 1 245.793 448H188.006C180.156 448 174.42 440.587 176.39 432.989L209.624 248H99.766L64.862 306.174A12 12 0 0 1 54.572 312H12.004C4.432 312 -1.248 305.072 0.237 297.647L21.366 191.999L0.237 86.354C-1.248 78.928 4.432 72 12.005 72.001L54.573 72.003C58.788 72.003 62.694 74.215 64.862 77.829L99.766 136H209.624L176.39 -48.989C174.42 -56.588 180.156 -64 188.006 -64H245.793A12 12 0 0 1 256.013 -58.289L360.212 136H472C529.438 136 576 161.072 576 192S529.438 248 472 248z"/>
            </g></svg>