<svg xmlns="http://www.w3.org/2000/svg" viewBox="0 0 384 512">
            <g transform="scale(1,-1) translate(0 -448)">
              <path d=" M256 304V416C256 433.673 270.327 448 288 448S320 433.673 320 416V304H256zM368 288H16C7.163 288 0 280.837 0 272V240C0 231.163 7.163 224 16 224H32V192C32 114.594 86.969 50.029 160 35.204V-64H224V35.204C297.031 50.029 352 114.594 352 192V224H368C376.837 224 384 231.163 384 240V272C384 280.837 376.837 288 368 288zM128 304V416C128 433.673 113.673 448 96 448S64 433.673 64 416V304H128z"/>
            </g></svg>