<svg xmlns="http://www.w3.org/2000/svg" viewBox="0 0 448 512">
            <g transform="scale(1,-1) translate(0 -448)">
              <path d=" M400 416H48C21.5 416 0 394.5 0 368V16C0 -10.5 21.5 -32 48 -32H400C426.5 -32 448 -10.5 448 16V368C448 394.5 426.5 416 400 416zM368 164C368 157.4 362.6 152 356 152H264V60C264 53.4 258.6 48 252 48H196C189.4 48 184 53.4 184 60V152H92C85.4 152 80 157.4 80 164V220C80 226.6 85.4 232 92 232H184V324C184 330.6 189.4 336 196 336H252C258.6 336 264 330.6 264 324V232H356C362.6 232 368 226.6 368 220V164z"/>
            </g></svg>