<svg xmlns="http://www.w3.org/2000/svg" viewBox="0 0 448 512">
            <g transform="scale(1,-1) translate(0 -448)">
              <path d=" M267.429 -40.563C262.286 -59.573 242.858 -64 224 -64C205.143 -64 185.714 -59.573 180.572 -40.563C172.927 -12.134 160 59.102 160 92.25C160 127.406 191.142 136 224 136S288 127.406 288 92.25C288 59.301 275.129 -11.929 267.429 -40.563zM156.867 159.446C138.174 177.754 126.909 203.619 128.083 232.045C130.137 281.769 170.478 322.0010000000001 220.207 323.9260000000001C274.862 326.0420000000001 320 282.193 320 228C320 201.173 308.936 176.884 291.134 159.448C288.459 156.828 288.733 152.462 291.762 150.261C301.074 143.496 308.222 134.918 312.996 124.898C314.737 121.244 319.493 120.238 322.445 123.007C351.271 150.05 368.998 188.79 367.956 231.572C366.101 307.778 304.361 369.78 228.163 371.9409999999999C146.869 374.247 80 308.785 80 228C80 186.639 97.532 149.3 125.55 123.011C128.503 120.24 133.261 121.241 135.003 124.898C139.777 134.919 146.926 143.496 156.238 150.261C159.267 152.461 159.542 156.827 156.867 159.446zM224 448C100.204 448 0 347.815 0 224C0 134.008 52.602 58.353 125.739 22.592C130.072 20.474 135.006 24.136 134.274 28.902C131.892 44.414 129.932 59.848 128.868 73.241C128.722 75.077 127.719 76.727 126.19 77.753C78.79 109.559 47.626 163.769 48.003 225.1C48.595 321.337 127.293 399.748 223.532 399.999C320.793 400.253 400 321.203 400 224C400 162.068 367.842 107.51 319.35 76.133C318.351 62.0960000000001 316.281 45.545 313.726 28.903C312.994 24.136 317.929 20.474 322.261 22.593C395.227 58.273 448 133.813 448 224C448 347.795 347.815 448 224 448zM224 288C188.654 288 160 259.346 160 224S188.654 160 224 160S288 188.654 288 224S259.346 288 224 288z"/>
            </g></svg>