<svg xmlns="http://www.w3.org/2000/svg" viewBox="0 0 320 512">
            <g transform="scale(1,-1) translate(0 -448)">
              <path d=" M308 96H262.505C255.878 96 250.505 90.627 250.505 84V33.152H128V160H212C218.627 160 224 165.373 224 172V212C224 218.627 218.627 224 212 224H128V287.556C128 319.822 152.562 344.642 189.792 344.642C213.45 344.642 235.67 333.137 247.444 325.793C252.5950000000001 322.58 259.332 323.742 263.132 328.478L291.625 363.991C295.858 369.267 294.904 376.996 289.506 381.072C273.124 393.44 236.576 416 187.931 416C106.026 416 48 363.258 48 290.039V224H20C13.373 224 8 218.627 8 212V172C8 165.373 13.373 160 20 160H48V32H12C5.373 32 0 26.627 0 20V-20C0 -26.627 5.373 -32 12 -32H308C314.627 -32 320 -26.627 320 -20V84C320 90.627 314.627 96 308 96z"/>
            </g></svg>