<svg xmlns="http://www.w3.org/2000/svg" viewBox="0 0 512 512">
            <g transform="scale(1,-1) translate(0 -448)">
              <path d=" M400 393.9C463 348.9 504 275.3 504 192C504 55.2 393.2 -55.7 256.5 -56C120 -56.3 8.2 55 8 191.6C7.9 274.9 48.9 348.7 111.8 393.8C123.5 402.1 139.8 398.6 146.8 386.1L162.6 358C168.5 347.5 165.7 334.2 156 327C114.5 296.2 88 247.4 88 192.1C87.9 99.8 162.5 24 256 24C347.6 24 424.6 98.2 424 193.1C423.7 244.9 399.3 294.9 355.9 327.1C346.2 334.3 343.5 347.6 349.4 358L365.2 386.1C372.2 398.5 388.4 402.2 400 393.9zM296 184V424C296 437.3 285.3 448 272 448H240C226.7 448 216 437.3 216 424V184C216 170.7 226.7 160 240 160H272C285.3 160 296 170.7 296 184z"/>
            </g></svg>