<svg xmlns="http://www.w3.org/2000/svg" viewBox="0 0 512 512">
            <g transform="scale(1,-1) translate(0 -448)">
              <path d=" M504 192C504 55.003 392.957 -56 256 -56S8 55.003 8 192C8 328.9170000000001 119.043 440 256 440S504 328.9170000000001 504 192zM262.655 358C208.158 358 173.4 335.043 146.106 294.242C142.57 288.956 143.753 281.827 148.821 277.984L183.52 251.674C188.725 247.727 196.141 248.666 200.185 253.796C218.049 276.454 230.298 289.593 257.488 289.593C277.9169999999999 289.593 303.1859999999999 276.445 303.1859999999999 256.635C303.1859999999999 241.659 290.8229999999999 233.968 270.652 222.659C247.128 209.472 216 193.059 216 152V148C216 141.373 221.373 136 228 136H284C290.627 136 296 141.373 296 148V149.333C296 177.795 379.1860000000001 178.98 379.1860000000001 256C379.1860000000001 314.0020000000001 319.021 358 262.6550000000001 358zM256 110C230.635 110 210 89.365 210 64C210 38.636 230.635 18 256 18S302 38.636 302 64C302 89.365 281.365 110 256 110z"/>
            </g></svg>