<svg xmlns="http://www.w3.org/2000/svg" viewBox="0 0 512 512">
            <g transform="scale(1,-1) translate(0 -448)">
              <path d=" M0 16V144C0 281.0180000000001 63.772 380.324 193.827 415.1720000000001C209.052 419.252 224 407.735 224 391.973V358.078C224 348.021 217.772 338.945 208.313 335.528C142.316 311.688 104 266.054 104 192H176C202.51 192 224 170.51 224 144V16C224 -10.51 202.51 -32 176 -32H48C21.49 -32 0 -10.51 0 16zM336 -32H464C490.51 -32 512 -10.51 512 16V144C512 170.51 490.51 192 464 192H392C392 266.054 430.3160000000001 311.688 496.313 335.528C505.772 338.945 512 348.021 512 358.078V391.973C512 407.735 497.052 419.252 481.827 415.1720000000001C351.772 380.324 288 281.0180000000001 288 144V16C288 -10.51 309.49 -32 336 -32z"/>
            </g></svg>