<svg xmlns="http://www.w3.org/2000/svg" viewBox="0 0 512.333 512">
            <g transform="scale(1,-1) translate(0 -448)">
              <path d=" M500.333 448H452.922C446.069 448 440.608 442.271 440.9360000000001 435.426L444.9020000000001 352.6670000000001C399.416 406.101 331.6720000000001 440 256.001 440C119.34 440 7.899 328.474 8 191.813C8.101 54.932 119.096 -56 256 -56C319.926 -56 378.202 -31.813 422.178 7.908C427.291 12.526 427.532 20.469 422.6600000000001 25.341L388.689 59.312C384.223 63.778 377.0490000000001 64.029 372.3090000000001 59.855C341.308 32.552 300.606 16 256 16C158.733 16 80 94.716 80 192C80 289.267 158.716 368 256 368C316.892 368 370.506 337.142 402.099 290.2L300.574 295.065C293.729 295.3930000000001 288 289.932 288 283.079V235.668C288 229.041 293.373 223.668 300 223.668H500.333C506.96 223.668 512.333 229.041 512.333 235.668V436C512.333 442.627 506.96 448 500.333 448z"/>
            </g></svg>