<svg xmlns="http://www.w3.org/2000/svg" viewBox="0 0 512 512">
            <g transform="scale(1,-1) translate(0 -448)">
              <path d=" M285.363 240.525C285.363 221.925 275.532 212.094 256.932 212.094H227.056V268.234H250.4340000000001C279.1020000000001 268.234 285.3630000000001 259.461 285.3630000000001 240.525zM504 192C504 55.033 392.967 -56 256 -56S8 55.033 8 192S119.033 440 256 440S504 328.967 504 192zM363.411 87.586C316.682 172.411 320.112 166.222 318.709 168.566C342.141 183.7380000000001 356.654 211.545 356.654 243.052C356.654 297.2960000000001 325.154 332.3040000000001 251.156 332.3040000000001H180.489C167.234 332.3040000000001 156.489 321.5590000000001 156.489 308.3040000000001V76C156.489 62.745 167.234 52 180.489 52H203.056C216.311 52 227.056 62.745 227.056 76V147.663H252.612L296.7410000000001 64.726A24.001000000000005 24.001000000000005 0 0 1 317.9290000000001 51.999H342.3930000000001C360.6540000000001 52 372.2220000000001 71.59 363.4110000000001 87.586z"/>
            </g></svg>