<svg xmlns="http://www.w3.org/2000/svg" viewBox="0 0 576 512">
            <g transform="scale(1,-1) translate(0 -448)">
              <path d=" M136.309 258.164L312.313 410.149C327.7200000000001 423.454 352 412.652 352 391.985V309.222C481.182 298.991 576 257.01 576 125.674C576 64.233 536.418 3.365 492.667 -28.458C479.014 -38.389 459.556 -25.925 464.59 -9.827C503.102 113.335 460.668 159.655 352 172.188V88.013C352 67.312 327.7 56.56 312.313 69.849L136.309 221.836C125.238 231.397 125.223 248.589 136.309 258.164zM8.309 221.836L184.313 69.85C199.7 56.561 224 67.313 224 88.014V103.832L115.394 197.617A55.96 55.96 0 0 0 96 240.002A55.95300000000001 55.95300000000001 0 0 0 115.393 282.382L224 376.168V391.985C224 412.652 199.72 423.454 184.313 410.149L8.309 258.164C-2.777 248.589 -2.762 231.397 8.309 221.836z"/>
            </g></svg>