<svg xmlns="http://www.w3.org/2000/svg" viewBox="0 0 640 512">
            <g transform="scale(1,-1) translate(0 -448)">
              <path d=" M629.657 104.402L528.971 3.716C519.598 -5.656 504.403 -5.656 495.03 3.716L394.343 104.402C384.9700000000001 113.775 384.9700000000001 128.971 394.343 138.343L405.166 149.166C414.728 158.728 430.299 158.5059999999999 439.585 148.6739999999999L480 105.882V288H292.451A24.005 24.005 0 0 0 275.48 295.029L259.48 311.029C244.361 326.149 255.069 352 276.451 352H520C533.255 352 544 341.255 544 328V105.882L584.4159999999999 148.674C593.7009999999999 158.505 609.2719999999999 158.728 618.8349999999999 149.166L629.6579999999999 138.343C639.0299999999999 128.971 639.0299999999999 113.774 629.6569999999999 104.402zM364.5190000000001 88.971A23.999000000000002 23.999000000000002 0 0 1 347.548 96H160V278.1190000000001L200.416 235.327C209.702 225.496 225.272 225.273 234.835 234.836L245.657 245.658C255.03 255.031 255.03 270.227 245.657 279.599L144.971 380.284C135.598 389.657 120.402 389.657 111.03 380.284L10.343 279.598C0.97 270.225 0.97 255.029 10.343 245.657L21.165 234.835C30.727 225.273 46.298 225.495 55.584 235.326L96 278.1190000000001V56C96 42.745 106.745 32 120 32H363.549C384.931 32 395.639 57.851 380.52 72.971L364.519 88.971z"/>
            </g></svg>