<svg xmlns="http://www.w3.org/2000/svg" viewBox="0 0 576 512">
            <g transform="scale(1,-1) translate(0 -448)">
              <path d=" M567.3 64.4L429.9 369.8C426 378.5 417.4 384 408 384H311.9L313.8 365.2C314.5 358.1 309 352 301.9 352H274C266.9 352 261.3 358.2 262.1 365.2L264 384H168C158.6 384 150 378.5 146.1 369.8L8.7 64.4C3.2 52.2 0 38.4 0 24C0 10.7 10.7 0 24 0H237.6C230.5 0 224.9 6.2 225.7 13.2L236.5 117.2C237.1 123.3 242.3 128 248.4 128H327.6C333.7000000000001 128 338.9000000000001 123.4 339.5 117.2L350.3 13.2C351 6.1 345.5 0 338.4000000000001 0H552C565.2 0 576 10.7 576 24C576 37.9 573 51.7 567.3 64.4zM254.7 293.2L258 325.2C258.6 331.3 263.8 336 269.9 336H306.1C312.2 336 317.4 331.4 318 325.2L321.3 293.2C322 286.1 316.5 280 309.4 280H266.6C259.5 280 253.9 286.2 254.7 293.2zM321.8 160H254.2C247.1 160 241.5000000000001 166.2 242.3 173.2L249.7 245.2C250.3 251.3 255.5000000000001 256 261.6 256H314.3C320.4000000000001 256 325.6 251.4 326.2 245.2L333.6 173.2C334.5 166.2 328.9 160 321.8 160z"/>
            </g></svg>