<svg xmlns="http://www.w3.org/2000/svg" viewBox="0 0 512 512">
            <g transform="scale(1,-1) translate(0 -448)">
              <path d=" M505.1 428.9C503.8 435 499 439.8 492.9 441.1C460.7 448 435.5 448 410.4 448C307.2 448 245.3 392.8 199.1 320H94.9C76.7 320 60.1 309.7 52 293.5L2.6 194.7C-5.4 178.7 6.2 160 24.1 160H119.2C113.3 147.2 107.3 134.5 101.2 122.3C98.1 116.1 99.3 108.7 104.2 103.8L167.8 40.2C172.7 35.3 180.1 34.1 186.3 37.2C198.5 43.3 211.2 49.2 224 55.1V-40C224 -57.8 242.8 -69.4 258.7 -61.5L357.4 -12.1C373.7 -4 383.9 12.7 383.9 30.8V135.2C456.5 181.5 511.9 243.6 511.9 346.3C512 371.5 512 396.7 505.1 428.9zM400 288C373.5 288 352 309.5 352 336S373.5 384 400 384S448 362.5 448 336S426.5 288 400 288z"/>
            </g></svg>