<svg xmlns="http://www.w3.org/2000/svg" viewBox="0 0 448 512">
            <g transform="scale(1,-1) translate(0 -448)">
              <path d=" M400 416H48C21.49 416 0 394.51 0 368V16C0 -10.51 21.49 -32 48 -32H400C426.51 -32 448 -10.51 448 16V368C448 394.51 426.51 416 400 416zM112 32C85.49 32 64 53.49 64 80S85.49 128 112 128S160 106.51 160 80S138.51 32 112 32zM269.533 32H235.198C229.187 32 224.147 36.636 223.756 42.634C218.542 122.684 154.513 186.554 74.633 191.757C68.636 192.147 64 197.188 64 203.198V237.533C64 244.068 69.468 249.31 75.994 248.9580000000001C186.54 242.9840000000001 274.9910000000001 154.422 280.9580000000001 43.994C281.31 37.468 276.0680000000001 32 269.533 32zM372.56 32H338.226C332.065 32 327.051 36.882 326.799 43.038C321.201 179.573 211.595 289.199 75.039 294.798C68.882 295.051 64 300.065 64 306.226V340.56C64 347.014 69.338 352.224 75.787 351.992C243.617 345.967 377.997 210.801 383.992 43.787C384.224 37.338 379.014 32.0000000000001 372.56 32.0000000000001z"/>
            </g></svg>