<svg xmlns="http://www.w3.org/2000/svg" viewBox="0 0 448 512">
            <g transform="scale(1,-1) translate(0 -448)">
              <path d=" M128.081 32.041C128.081 -3.328 99.409 -32 64.04 -32S0 -3.328 0 32.041S28.672 96.082 64.041 96.082S128.081 67.409 128.081 32.041zM303.741 -15.209C295.387 139.391 171.556 263.378 16.791 271.741C7.656 272.235 0 264.895 0 255.747V207.678C0 199.263 6.49 192.206 14.887 191.66C126.719 184.376 216.36 94.958 223.659 -17.112C224.206 -25.509 231.263 -31.999 239.677 -31.999H287.746C296.895 -32 304.235 -24.344 303.741 -15.209zM447.99 -15.497C439.596 218.323 251.465 407.555 16.503 415.99C7.473 416.314 0 409.019 0 399.984V351.916C0 343.291 6.835 336.271 15.453 335.9170000000001C206.632 328.078 360.08 174.601 367.918 -16.548C368.271 -25.166 375.291 -32.001 383.917 -32.001H431.985C441.019 -32 448.314 -24.527 447.99 -15.497z"/>
            </g></svg>