<svg xmlns="http://www.w3.org/2000/svg" viewBox="0 0 320 512">
            <g transform="scale(1,-1) translate(0 -448)">
              <path d=" M308 352C314.627 352 320 357.373 320 364V404C320 410.627 314.627 416 308 416H12C5.373 416 0 410.627 0 404V359.252C0 352.625 5.373 347.252 12 347.252H97.28C124.588 347.252 145.541 337.294 158.25 320H12C5.373 320 0 314.627 0 308V268C0 261.373 5.373 256 12 256H170.757C164.54 219.914 137.796 197.368 96 197.368H12C5.373 197.368 0 191.995 0 185.368V132.356C0 129.007 1.4 125.81 3.861 123.538L168.913 -28.818A12.001000000000001 12.001000000000001 0 0 1 177.052 -32H259.614C270.538 -32 275.78 -18.592 267.753 -11.182L116.871 128.094C193.37 130.434 248.015 181.489 255.189 256H308C314.627 256 320 261.373 320 268V308C320 314.627 314.627 320 308 320H249.31C245.824 331.541 241.03 342.246 235.058 352H308z"/>
            </g></svg>