<svg xmlns="http://www.w3.org/2000/svg" viewBox="0 0 448 512">
            <g transform="scale(1,-1) translate(0 -448)">
              <path d=" M433.941 318.059L350.059 401.9410000000001A48 48 0 0 1 316.118 416H48C21.49 416 0 394.51 0 368V16C0 -10.51 21.49 -32 48 -32H400C426.51 -32 448 -10.51 448 16V284.118A48 48 0 0 1 433.941 318.059zM224 32C188.654 32 160 60.654 160 96C160 131.346 188.654 160 224 160S288 131.346 288 96C288 60.654 259.346 32 224 32zM320 336.52V236C320 229.373 314.627 224 308 224H76C69.373 224 64 229.373 64 236V340C64 346.627 69.373 352 76 352H304.52C307.703 352 310.755 350.736 313.005 348.485L316.485 345.005A11.996 11.996 0 0 0 320 336.52z"/>
            </g></svg>