<svg xmlns="http://www.w3.org/2000/svg" viewBox="0 0 512 512">
            <g transform="scale(1,-1) translate(0 -448)">
              <path d=" M304 256V224C304 217.4 298.6 212 292 212H124C117.4 212 112 217.4 112 224V256C112 262.6 117.4 268 124 268H292C298.6 268 304 262.6 304 256zM505 -28.7L476.7 -57C467.3 -66.4 452.1 -66.4 442.8 -57L343 42.7C338.5 47.2 336 53.3 336 59.7V76C300.7 48.4 256.3 32 208 32C93.1 32 0 125.1 0 240S93.1 448 208 448S416 354.9 416 240C416 191.7 399.6 147.3 372 112H388.3C394.7 112 400.8 109.5 405.3 105L505 5.3C514.3 -4.1 514.3 -19.3 505 -28.7zM344 240C344 315.2 283.2 376 208 376S72 315.2 72 240S132.8 104 208 104S344 164.8 344 240z"/>
            </g></svg>