<svg xmlns="http://www.w3.org/2000/svg" viewBox="0 0 512 512">
            <g transform="scale(1,-1) translate(0 -448)">
              <path d=" M505 5.3L405.3 105C400.8 109.5 394.7 112 388.3 112H372C399.6 147.3 416 191.7 416 240C416 354.9 322.9 448 208 448S0 354.9 0 240S93.1 32 208 32C256.3 32 300.7 48.4 336 76V59.7C336 53.3 338.5 47.2 343 42.7L442.7 -57C452.1 -66.4 467.3 -66.4 476.6 -57L504.9 -28.7C514.3 -19.3 514.3 -4.1 505 5.3zM208 112C137.3 112 80 169.2 80 240C80 310.7 137.2 368 208 368C278.7 368 336 310.8 336 240C336 169.3 278.8 112 208 112z"/>
            </g></svg>