<svg xmlns="http://www.w3.org/2000/svg" viewBox="0 0 448 512">
            <g transform="scale(1,-1) translate(0 -448)">
              <path d=" M352 128C329.392 128 308.613 120.181 292.21 107.105L189.724 171.159A96.551 96.551 0 0 1 189.724 212.842L292.21 276.896C308.613 263.819 329.392 256 352 256C405.019 256 448 298.981 448 352S405.019 448 352 448S256 405.019 256 352C256 344.842 256.79 337.87 258.276 331.159L155.79 267.105C139.387 280.1810000000001 118.608 288 96 288C42.981 288 0 245.019 0 192S42.981 96 96 96C118.608 96 139.387 103.819 155.79 116.895L258.276 52.841A96.301 96.301 0 0 1 256 32C256 -21.019 298.981 -64 352 -64S448 -21.019 448 32S405.019 128 352 128z"/>
            </g></svg>