<svg xmlns="http://www.w3.org/2000/svg" viewBox="0 0 512 512">
            <g transform="scale(1,-1) translate(0 -448)">
              <path d=" M496 320C496 98.718 360.0660000000001 -24.645 274.461 -60.308A48 48 0 0 0 237.538 -60.308C130.495 -15.713 16 121.513 16 320A48 48 0 0 0 45.539 364.308L237.539 444.308A48 48 0 0 0 274.462 444.308L466.462 364.308A48 48 0 0 0 496 320zM256 1.687L256.066 1.653C349.801 48.342 428.563 157.961 431.883 309.382L256 382.6670000000001V1.687z"/>
            </g></svg>