<svg xmlns="http://www.w3.org/2000/svg" viewBox="0 0 640 512">
            <g transform="scale(1,-1) translate(0 -448)">
              <path d=" M624 96H608V204.1C608 216.8 602.9 229 593.9 238L494 337.9C485 346.9 472.8 352 460.1 352H416V400C416 426.5 394.5 448 368 448H112C85.5 448 64 426.5 64 400V352H8C3.6 352 0 348.4 0 344V328C0 323.6 3.6 320 8 320H280C284.4 320 288 316.4 288 312V296C288 291.6 284.4 288 280 288H40C35.6 288 32 284.4 32 280V264C32 259.6 35.6 256 40 256H248C252.4 256 256 252.4 256 248V232C256 227.6 252.4 224 248 224H8C3.6 224 0 220.4 0 216V200C0 195.6 3.6 192 8 192H216C220.4 192 224 188.4 224 184V168C224 163.6 220.4 160 216 160H64V32C64 -21 107 -64 160 -64S256 -21 256 32H384C384 -21 427 -64 480 -64S576 -21 576 32H624C632.8 32 640 39.2 640 48V80C640 88.8 632.8 96 624 96zM160 -16C133.5 -16 112 5.5 112 32S133.5 80 160 80S208 58.5 208 32S186.5 -16 160 -16zM480 -16C453.5 -16 432 5.5 432 32S453.5 80 480 80S528 58.5 528 32S506.5 -16 480 -16zM560 192H416V304H460.1L560 204.1V192z"/>
            </g></svg>