<svg xmlns="http://www.w3.org/2000/svg" viewBox="0 0 576 512">
            <g transform="scale(1,-1) translate(0 -448)">
              <path d=" M528.12 146.681L575.393 354.681C578.806 369.699 567.391 384 551.99 384H159.208L150.042 428.81C147.758 439.979 137.93 448 126.529 448H24C10.745 448 0 437.255 0 424V408C0 394.745 10.745 384 24 384H93.883L164.131 40.565C147.325 30.9 136 12.778 136 -8C136 -38.928 161.072 -64 192 -64S248 -38.928 248 -8C248 7.674 241.553 21.835 231.176 32H440.823C430.447 21.835 424 7.674 424 -8C424 -38.928 449.072 -64 480 -64S536 -38.928 536 -8C536 14.172 523.112 33.332 504.421 42.405L509.938 66.681C513.351 81.699 501.936 96 486.535 96H218.117L211.572 128H504.717C515.923 128 525.637 135.754 528.12 146.681z"/>
            </g></svg>