<svg xmlns="http://www.w3.org/2000/svg" viewBox="0 0 576 512">
            <g transform="scale(1,-1) translate(0 -448)">
              <path d=" M576 232V216C576 202.745 565.255 192 552 192H544L517.887 9.212C514.509 -14.435 494.257 -32 470.37 -32H105.63C81.743 -32 61.491 -14.435 58.112 9.212L32 192H24C10.745 192 0 202.745 0 216V232C0 245.255 10.745 256 24 256H91.341L198.121 402.8210000000001C208.516 417.113 228.528 420.274 242.822 409.879C257.115 399.484 260.275 379.471 249.88 365.178L170.477 256H405.523L326.12 365.179C315.725 379.471 318.886 399.485 333.1790000000001 409.88C347.4700000000001 420.275 367.485 417.115 377.8800000000001 402.822L484.659 256H552C565.255 256 576 245.255 576 232zM312 56V168C312 181.255 301.255 192 288 192S264 181.255 264 168V56C264 42.745 274.745 32 288 32S312 42.745 312 56zM424 56V168C424 181.255 413.255 192 400 192S376 181.255 376 168V56C376 42.745 386.745 32 400 32S424 42.745 424 56zM200 56V168C200 181.255 189.255 192 176 192S152 181.255 152 168V56C152 42.745 162.745 32 176 32S200 42.745 200 56z"/>
            </g></svg>