<svg xmlns="http://www.w3.org/2000/svg" viewBox="0 0 512 512">
            <g transform="scale(1,-1) translate(0 -448)">
              <path d=" M497 175L329 7C314 -8 288 2.5 288 24V120H152C138.7 120 128 130.7 128 144V240C128 253.3 138.7 264 152 264H288V360C288 381.4 313.9 392 329 377L497 209C506.3 199.6 506.3 184.4 497 175zM192 12V52C192 58.6 186.6 64 180 64H96C78.3 64 64 78.3 64 96V288C64 305.7 78.3 320 96 320H180C186.6 320 192 325.4 192 332V372C192 378.6 186.6 384 180 384H96C43 384 0 341 0 288V96C0 43 43 0 96 0H180C186.6 0 192 5.4 192 12z"/>
            </g></svg>