<svg xmlns="http://www.w3.org/2000/svg" viewBox="0 0 448 512">
            <g transform="scale(1,-1) translate(0 -448)">
              <path d=" M91.434 -35.987C91.127 -19.969 104.543 -6.858 120.564 -6.858H182.857V-1.144H56.993C40.972 -1.144 27.556 11.967 27.863 27.985C28.16 43.509 40.835 56 56.428 56H182.857V61.714H29.136C13.115 61.714 -0.301 74.825 0.006 90.843C0.303 106.365 12.979 118.856 28.572 118.856H182.858V124.57H57.707C41.686 124.57 28.27 137.681 28.577 153.699C28.874 169.221 41.55 181.712 57.143 181.712H225.709L194.624 204.318C181.862 213.599 179.041 231.467 188.322 244.23C197.603 256.991 215.472 259.812 228.234 250.532L351.5950000000001 160.817A34.287 34.287 0 0 0 365.7150000000001 133.089V-8.047C365.7150000000001 -23.957 354.769 -37.777 339.2820000000001 -41.421L258.8110000000001 -60.3550000000001A137.16 137.16 0 0 0 227.4000000000001 -64.0010000000001H120C104.407 -64.0000000000001 91.731 -51.5090000000001 91.434 -35.9870000000001zM164.683 189.714H201.106L189.919 197.8499999999999C171.34 211.3609999999999 169.606 238.737 186.749 254.386L173.745 271.0859999999999C163.902 283.7269999999999 145.315 286.257 132.865 276.1739999999999C120.8 266.4029999999999 118.732 248.7269999999999 128.312 236.4239999999999L164.683 189.714zM447.981 191.817L442.978 344.269C442.4600000000001 360.04 429.2560000000001 372.405 413.485 371.8879999999999C397.712 371.37 385.348 358.166 385.866 342.395L387.128 303.98L283.565 436.981C273.985 449.284 256.342 451.611 243.912 442.3090000000001C231.085 432.71 228.983 414.069 238.826 401.428L315.715 302.683L311.206 299.1720000000001L216.416 420.906C206.8359999999999 433.209 189.1929999999999 435.536 176.763 426.234C163.936 416.635 161.834 397.994 171.6769999999999 385.353L266.12 264.065L261.611 260.554L183.9359999999999 360.308C174.3559999999999 372.611 156.7129999999999 374.938 144.2829999999999 365.636C131.4559999999999 356.0370000000001 129.3539999999999 337.396 139.1969999999999 324.755L191.2499999999999 257.906C203.7469999999999 266.163 220.3049999999999 266.1910000000001 232.9399999999999 257.002L356.2999999999999 167.288C367.2039999999999 159.358 373.7149999999999 146.573 373.7149999999999 133.09V116.091L434.779 163.64A34.285 34.285 0 0 1 447.981 191.817z"/>
            </g></svg>