<svg xmlns="http://www.w3.org/2000/svg" viewBox="0 0 640 512">
            <g transform="scale(1,-1) translate(0 -448)">
              <path d=" M592.604 239.756C559.735 255.164 515.777 264 472 264H186.327C181.375 270.555 175.742 275.978 169.607 280H376C229.157 310.253 219.403 416 96.003 416H96V288H80V416C53.49 416 32 387.346 32 352V288C8.803 288 0 277.968 0 264V224C0 210.017 8.819 200 32 200V184C8.803 184 0 173.968 0 160V120C0 106.017 8.819 96 32 96V32C32 -3.346 53.49 -32 80 -32V96H96V-32H96.003C219.403 -32 229.157 73.747 376 104H169.606C175.741 108.022 181.374 113.445 186.326 120H472C515.777 120 559.735 128.836 592.604 144.244C622.282 158.155 640 176.008 640 192S622.282 225.845 592.604 239.756zM488 152A8 8 0 0 0 480 160V224A8 8 0 0 0 488 232C519.909 232 519.942 152 488 152z"/>
            </g></svg>