<svg xmlns="http://www.w3.org/2000/svg" viewBox="0 0 512 512">
            <g transform="scale(1,-1) translate(0 -448)">
              <path d=" M304 400C304 373.49 282.51 352 256 352S208 373.49 208 400S229.49 448 256 448S304 426.51 304 400zM256 32C229.49 32 208 10.51 208 -16S229.49 -64 256 -64S304 -42.51 304 -16S282.51 32 256 32zM464 240C437.49 240 416 218.51 416 192S437.49 144 464 144S512 165.49 512 192S490.51 240 464 240zM96 192C96 218.51 74.51 240 48 240S0 218.51 0 192S21.49 144 48 144S96 165.49 96 192zM108.922 92.922C82.412 92.922 60.922 71.432 60.922 44.922S82.412 -3.078 108.922 -3.078S156.922 18.412 156.922 44.922C156.922 71.431 135.431 92.922 108.922 92.922zM403.078 92.922C376.568 92.922 355.078 71.432 355.078 44.922S376.568 -3.078 403.078 -3.078S451.078 18.412 451.078 44.922C451.078 71.431 429.588 92.922 403.078 92.922zM108.922 387.078C82.412 387.078 60.922 365.588 60.922 339.078S82.412 291.078 108.922 291.078S156.922 312.568 156.922 339.078S135.431 387.078 108.922 387.078z"/>
            </g></svg>