<svg xmlns="http://www.w3.org/2000/svg" viewBox="0 0 512 512">
            <g transform="scale(1,-1) translate(0 -448)">
              <path d=" M192 384C192 419.346 220.654 448 256 448S320 419.346 320 384C320 348.654 291.346 320 256 320S192 348.654 192 384zM304 304H292.64C269.929 293.557 243.05 293.106 219.36 304H208C181.49 304 160 282.51 160 256V152C160 138.745 170.745 128 184 128H200V24C200 10.745 210.745 0 224 0H288C301.255 0 312 10.745 312 24V128H328C341.255 128 352 138.745 352 152V256C352 282.51 330.51 304 304 304zM389.642 114.848A72.50299999999999 72.50299999999999 0 0 0 360.632 87.839C391.133 82.749 480 62.146 480 32C480 -14.304 312.344 -32 256 -32C185.697 -32 32 -11.141 32 32C32 62.123 120.361 82.665 151.367 87.839A72.516 72.516 0 0 0 122.357 114.848C74.959 104.605 0 80.401 0 32C0 -45.111 178.658 -64 256 -64C333.249 -64 512 -45.135 512 32C512 80.403 437.033 104.606 389.642 114.848z"/>
            </g></svg>