<svg xmlns="http://www.w3.org/2000/svg" viewBox="0 0 512 512">
            <g transform="scale(1,-1) translate(0 -448)">
              <path d=" M496 160H16C7.163 160 0 167.163 0 176V208C0 216.837 7.163 224 16 224H496C504.837 224 512 216.837 512 208V176C512 167.163 504.837 160 496 160zM281.334 144C308.592 131.063 327.858 115.317 327.858 87.757C327.858 54.649 298.8810000000001 34.081 252.237 34.081C219.912 34.081 175.363 46.161 175.363 78.352V80C175.363 88.837 168.1990000000001 96 159.363 96H113.75C104.914 96 97.75 88.837 97.75 80V60.796C97.75 -6.049 175.467 -41.024 252.237 -41.024C340.815 -41.024 414.25 4.414 414.25 93.4C414.25 113.215 410.632 129.817 404.107 144H281.334zM250.382 240C217.96 253.505 193.546 268.9460000000001 193.546 299.683C193.546 333.603 224.447 347.089 258.508 347.089C301.155 347.089 323.47 330.496 323.47 314.104V312C323.47 303.163 330.634 296 339.47 296H385.083C393.919 296 401.083 303.163 401.083 312V342.318C401.083 394.756 329.358 422.193 258.508 422.193C173.305 422.193 107.782 381.221 107.782 296.5470000000001C107.782 273.837 112.447 255.371 120.559 240H250.382z"/>
            </g></svg>