<svg xmlns="http://www.w3.org/2000/svg" viewBox="0 0 512 512">
            <g transform="scale(1,-1) translate(0 -448)">
              <path d=" M395.198 32C398.659 42.526 413.994 53.28 431.463 64.425C448.088 75.03 466.9299999999999 87.051 481.804 103.287C499.2619999999999 122.341 507.748 143.4620000000001 507.748 167.8540000000001C507.748 228.4160000000001 457.046 256.0000000000001 409.938 256.0000000000001C367.447 256.0000000000001 333.56 233.9840000000001 315.506 205.5530000000001C310.852 198.2240000000001 312.914 188.5170000000001 320.129 183.6880000000001L350.457 163.3920000000001C357.4889999999999 158.686 366.9169999999999 160.3080000000001 372.087 167.006C380.1089999999999 177.4 390.9049999999999 185.2310000000001 403.7539999999999 185.2310000000001C423.1409999999999 185.2310000000001 430.0199999999999 172.3300000000001 430.0199999999999 161.2830000000001C430.0199999999999 125.1240000000001 310.5829999999999 104.2600000000001 310.5829999999999 1.2590000000001C310.5829999999999 -5.3949999999999 311.1439999999999 -11.7549999999999 311.998 -18.0719999999999C313.074 -26.0359999999999 319.832 -31.9999999999999 327.868 -31.9999999999999H496C504.837 -31.9999999999999 512 -24.8369999999999 512 -15.9999999999999V16.0000000000001C512 24.837 504.837 32.0000000000001 496 32.0000000000001H395.198zM272 192C280.837 192 288 184.837 288 176V144C288 135.163 280.837 128 272 128H209.601A16 16 0 0 0 196.06 135.478L150.359 208.093C148.062 211.445 145.937 215.062 144.164 218.302C142.514 215.058 140.517 211.365 138.29 207.72L93.578 135.573A15.999 15.999 0 0 0 79.978 128.001H16C7.163 128.001 0 135.1640000000001 0 144.001V176.001C0 184.838 7.163 192.001 16 192.001H42.325L98.877 274.7100000000001L46.111 352H16C7.163 352 0 359.163 0 368V400C0 408.837 7.163 416 16 416H84.806A16 16 0 0 0 98.451 408.356L138.333 343.23C140.405 339.707 142.386 336.059 144.06 332.86C145.837 336.104 147.98 339.814 150.297 343.397L190.629 408.432A15.999 15.999 0 0 0 204.226 416H272C280.837 416 288 408.837 288 400V368C288 359.163 280.837 352 272 352H244.021L191.331 276.329L249.974 192H272z"/>
            </g></svg>