<svg xmlns="http://www.w3.org/2000/svg" viewBox="0 0 448 512">
            <g transform="scale(1,-1) translate(0 -448)">
              <path d=" M448 352V96C448 44.185 386.376 0 317.978 0L380.9580000000001 -49.721C386.905 -54.417 383.562 -64 376 -64H72C64.422 -64 61.108 -54.406 67.043 -49.721L130.022 0C61.82 0 0 44.046 0 96V352C0 405.019 64 448 128 448H320C385 448 448 405.019 448 352zM200 216V328C200 341.255 189.255 352 176 352H72C58.745 352 48 341.255 48 328V216C48 202.745 58.745 192 72 192H176C189.255 192 200 202.745 200 216zM400 216V328C400 341.255 389.255 352 376 352H272C258.745 352 248 341.255 248 328V216C248 202.745 258.745 192 272 192H376C389.255 192 400 202.745 400 216zM352 160C325.49 160 304 138.51 304 112S325.49 64 352 64S400 85.49 400 112S378.51 160 352 160zM96 160C69.49 160 48 138.51 48 112S69.49 64 96 64S144 85.49 144 112S122.51 160 96 160z"/>
            </g></svg>