<svg xmlns="http://www.w3.org/2000/svg" viewBox="0 0 512.333 512">
            <g transform="scale(1,-1) translate(0 -448)">
              <path d=" M440.935 435.426L444.901 352.66C399.416 406.096 331.674 440 256 440C134.813 440 33.933 353.076 12.296 238.176C10.908 230.807 16.604 224 24.103 224H73.187C78.757 224 83.564 227.842 84.863 233.259C103.407 310.592 172.931 368 256 368C316.8930000000001 368 370.512 337.144 402.1040000000001 290.199L300.5740000000001 295.064C293.7290000000001 295.3920000000001 288.0000000000001 289.9310000000001 288.0000000000001 283.0780000000001V235.6670000000001C288.0000000000001 229.04 293.3730000000001 223.667 300.0000000000001 223.667H500.3330000000001C506.9600000000001 223.667 512.3330000000001 229.04 512.3330000000001 235.6670000000001V436C512.3330000000001 442.627 506.9600000000001 448 500.3330000000001 448H452.9220000000001C446.0690000000001 448 440.6070000000001 442.271 440.9350000000001 435.426zM256 16C195.105 16 141.483 46.858 109.891 93.805L211.759 88.934C218.604 88.607 224.332 94.068 224.332 100.92V148.332C224.332 154.959 218.959 160.332 212.332 160.332H12C5.373 160.332 0 154.959 0 148.332V-52C0 -58.627 5.373 -64 12 -64H59.385C66.248 -64 71.713 -58.255 71.37 -51.401L67.241 31.174C112.725 -22.166 180.405 -56 256 -56C377.187 -56 478.067 30.924 499.704 145.824C501.092 153.193 495.396 160 487.897 160H438.813C433.243 160 428.436 156.158 427.137 150.741C408.593 73.408 339.069 16 256 16z"/>
            </g></svg>