<svg xmlns="http://www.w3.org/2000/svg" viewBox="0 0 512 512">
            <g transform="scale(1,-1) translate(0 -448)">
              <path d=" M201.5 273.2L257.2 217.4C260.3 214.3 260.3 209.2 257.2 206.1L245.9 194.8C242.8 191.6999999999999 237.7 191.6999999999999 234.6 194.8L178.9 250.6L133.6 205.3L189.4 149.5C192.5 146.3999999999999 192.5 141.3 189.4 138.1999999999999L178.1 126.8999999999999C175 123.7999999999999 169.9 123.7999999999999 166.8 126.8999999999999L111 182.8L84.6 156.4C67.3 139.1 59 115.3 61.6 91L68.7 27.4L2.3 -39C-0.8 -42.1 -0.8 -47.2 2.3 -50.3L13.6 -61.6C16.7 -64.7 21.8 -64.7 24.9 -61.6L91.2 4.7L154.8 -2.4C178.7 -5.0000000000001 202.7 2.9999999999999 220.2 20.6L402.1 202.5L266.4000000000001 338.2L201.5 273.2zM509.7 366.5L430.5 445.7C427.4 448.8 422.3 448.8 419.2 445.7L407.9 434.4C404.8 431.3 404.8 426.2 407.9 423.1L436.2 394.8L390.9 349.5L334.3 406.1L317.3 423.1C314.2 426.2 309.1 426.2 306 423.1L272.1 389.2C269 386.1 269 381 272.1 377.9L289.1 360.9L424.8 225L441.8 208C444.9000000000001 204.9 450 204.9 453.1 208L487 242C490.1 245.1 490.1 250.2 487 253.3L413.5 326.8L458.8 372.1L487.1 343.8C490.2 340.7000000000001 495.3 340.7000000000001 498.4 343.8L509.7 355.1C512.8000000000001 358.3 512.8000000000001 363.3 509.7 366.5z"/>
            </g></svg>