<svg xmlns="http://www.w3.org/2000/svg" viewBox="0 0 448 512">
            <g transform="scale(1,-1) translate(0 -448)">
              <path d=" M400 448H48C21.5 448 0 426.5 0 400V-16C0 -42.5 21.5 -64 48 -64H400C426.5 -64 448 -42.5 448 -16V400C448 426.5 426.5 448 400 448zM224 -32C206.3 -32 192 -17.7 192 0S206.3 32 224 32S256 17.7 256 0S241.7 -32 224 -32zM400 76C400 69.4 394.6 64 388 64H60C53.4 64 48 69.4 48 76V388C48 394.6 53.4 400 60 400H388C394.6 400 400 394.6 400 388V76z"/>
            </g></svg>