<svg xmlns="http://www.w3.org/2000/svg" viewBox="0 0 576 512">
            <g transform="scale(1,-1) translate(0 -448)">
              <path d=" M75.694 -32A48.02 48.02 0 0 0 33.246 -6.429C12.023 33.7 0 79.444 0 128C0 287.058 128.942 416 288 416S576 287.058 576 128C576 79.444 563.977 33.7 542.754 -6.429A48.01800000000001 48.01800000000001 0 0 0 500.306 -32H75.694zM512 160C494.327 160 480 145.673 480 128C480 110.327 494.327 96 512 96S544 110.327 544 128C544 145.673 529.673 160 512 160zM288 320C305.673 320 320 334.327 320 352C320 369.673 305.673 384 288 384S256 369.673 256 352C256 334.327 270.327 320 288 320zM64 160C46.327 160 32 145.673 32 128C32 110.327 46.327 96 64 96S96 110.327 96 128C96 145.673 81.673 160 64 160zM129.608 318.392C111.935 318.392 97.608 304.065 97.608 286.392C97.608 268.719 111.935 254.392 129.608 254.392S161.608 268.719 161.608 286.392C161.608 304.065 147.281 318.392 129.608 318.392zM446.392 318.392C428.719 318.392 414.392 304.065 414.392 286.392C414.392 268.719 428.719 254.392 446.392 254.392S478.392 268.719 478.392 286.392C478.392 304.065 464.065 318.392 446.392 318.392zM359.314 286.858C346.687 290.898 333.181 283.938 329.141 271.314L283.218 127.803C250.108 125.355 224 97.736 224 64C224 28.654 252.654 0 288 0C323.346 0 352 28.654 352 64C352 83.773 343.029 101.447 328.939 113.187L374.858 256.685C378.897 269.31 371.938 282.818 359.314 286.858z"/>
            </g></svg>