<svg xmlns="http://www.w3.org/2000/svg" viewBox="0 0 640 512">
            <g transform="scale(1,-1) translate(0 -448)">
              <path d=" M497.941 222.059L286.0590000000001 433.941A48 48 0 0 1 252.118 448H48C21.49 448 0 426.51 0 400V195.882A48 48 0 0 1 14.059 161.941L225.941 -49.941C244.685 -68.6859999999999 275.077 -68.687 293.823 -49.941L497.941 154.177C516.6859999999999 172.922 516.6859999999999 203.314 497.941 222.059zM112 288C85.49 288 64 309.49 64 336S85.49 384 112 384S160 362.51 160 336S138.51 288 112 288zM625.941 154.177L421.823 -49.941C403.078 -68.6859999999999 372.686 -68.6859999999999 353.941 -49.941L353.581 -49.581L527.64 124.478C544.639 141.477 554 164.078 554 188.118S544.638 234.759 527.64 251.758L331.397 448H380.118A48 48 0 0 0 414.059 433.941L625.941 222.059C644.686 203.314 644.686 172.922 625.941 154.177z"/>
            </g></svg>