<svg xmlns="http://www.w3.org/2000/svg" viewBox="0 0 512 512">
            <g transform="scale(1,-1) translate(0 -448)">
              <path d=" M208 316H496C504.8 316 512 323.2 512 332V372C512 380.8 504.8 388 496 388H208C199.2 388 192 380.8 192 372V332C192 323.2 199.2 316 208 316zM208 156H496C504.8 156 512 163.2 512 172V212C512 220.8 504.8 228 496 228H208C199.2 228 192 220.8 192 212V172C192 163.2 199.2 156 208 156zM208 -4H496C504.8 -4 512 3.2 512 12V52C512 60.8 504.8 68 496 68H208C199.2 68 192 60.8 192 52V12C192 3.2 199.2 -4 208 -4zM64 80C37.5 80 15.4 58.5 15.4 32S37.5 -16 64 -16S112 5.5 112 32S90.5 80 64 80zM156.5 379L84.3 306.8L68.7 291.2000000000001C64 286.5 55.8 286.5 51.1 291.2000000000001L3.5 338.6C-1.2 343.3 -1.2 350.9 3.5 355.6L19.2 371.3C23.9 376 31.5 376 36.2 371.3L58.9 349.2L122.6 412.5C127.3 417.2 134.9 417.2 139.6 412.5L156.6 396C161.2 391.3 161.2 383.7 156.5 379zM156.5 219.4L84.3 147.2L68.6 131.5C63.9 126.8 55.7 126.8 51 131.5L3.5 179C-1.2 183.7 -1.2 191.3 3.5 196L19.2 211.7C23.9 216.4 31.5 216.4 36.2 211.7L58.9 189.6L122.6 253.3C127.3 258 134.9 258 139.6 253.3L156.6 236.3C161.2 231.7 161.2 224.1 156.5 219.4z"/>
            </g></svg>