<svg xmlns="http://www.w3.org/2000/svg" viewBox="0 0 512 512">
            <g transform="scale(1,-1) translate(0 -448)">
              <path d=" M461.951 204.135L440.1350000000001 291.403A79.885 79.885 0 0 1 362.522 352H352V392C352 405.255 341.255 416 328 416H184C170.745 416 160 405.255 160 392V352H149.478A79.885 79.885 0 0 1 71.866 291.403L50.05 204.135C25.515 195.177 8 171.634 8 144V96C8 75.793 17.374 57.786 32 46.057V-8C32 -21.255 42.745 -32 56 -32H104C117.255 -32 128 -21.255 128 -8V32H384V-8C384 -21.255 394.745 -32 408 -32H456C469.255 -32 480 -21.255 480 -8V46.057C494.626 57.786 504 75.794 504 96V144C504 171.634 486.485 195.177 461.951 204.135zM149.478 288H362.523A15.975 15.975 0 0 0 378.045 275.88L395.015 208H116.985L133.955 275.881A15.975999999999999 15.975999999999999 0 0 0 149.478 288zM132 112C132 92.118 115.882 76 96 76S60 92.118 60 112S76.118 148 96 148S132 131.882 132 112zM452 112C452 92.118 435.882 76 416 76S380 92.118 380 112S396.118 148 416 148S452 131.882 452 112z"/>
            </g></svg>