<svg xmlns="http://www.w3.org/2000/svg" viewBox="0 0 640 512">
            <g transform="scale(1,-1) translate(0 -448)">
              <path d=" M257.981 175.029L63.638 -19.314C54.265 -28.687 39.069 -28.687 29.697 -19.314L7.029 3.353C-2.328 12.71 -2.346 27.875 6.989 37.254L161.011 192L6.99 346.745C-2.345 356.124 -2.327 371.289 7.03 380.646L29.697 403.313C39.07 412.6860000000001 54.266 412.6860000000001 63.638 403.313L257.981 208.97C267.354 199.598 267.354 184.402 257.981 175.029zM640 -8V24C640 37.255 629.255 48 616 48H312C298.745 48 288 37.255 288 24V-8C288 -21.255 298.745 -32 312 -32H616C629.255 -32 640 -21.255 640 -8z"/>
            </g></svg>