<svg xmlns="http://www.w3.org/2000/svg" viewBox="0 0 448 512">
            <g transform="scale(1,-1) translate(0 -448)">
              <path d=" M16 416H432C440.837 416 448 408.837 448 400V304C448 295.163 440.837 288 432 288H396.504C387.6670000000001 288 380.504 295.163 380.504 304V352H261.743V224H296C304.837 224 312 216.837 312 208V176C312 167.163 304.837 160 296 160H152C143.163 160 136 167.163 136 176V208C136 216.837 143.163 224 152 224H186.257V352H67.496V304C67.496 295.163 60.333 288 51.496 288H16C7.163 288 0 295.163 0 304V400C0 408.837 7.163 416 16 416zM443.315 75.318L363.314 155.313C353.991 164.635 336 159.638 336 144V96H112V143.99C112 158.297 94.693 165.309 84.686 155.303L4.685 75.308C-1.56 69.063 -1.562 58.929 4.685 52.682L84.686 -27.313C94.009 -36.635 112 -31.638 112 -16V32H336V-15.99C336 -30.297 353.307 -37.309 363.314 -27.303L443.3150000000001 52.692C449.5600000000001 58.937 449.5630000000001 69.071 443.3150000000001 75.318z"/>
            </g></svg>