<svg xmlns="http://www.w3.org/2000/svg" viewBox="0 0 512 512">
            <g transform="scale(1,-1) translate(0 -448)">
              <path d=" M149.333 392V312C149.333 298.745 138.588 288 125.333 288H24C10.745 288 0 298.745 0 312V392C0 405.255 10.745 416 24 416H125.333C138.588 416 149.333 405.255 149.333 392zM330.6670000000001 152V232C330.6670000000001 245.255 319.9220000000001 256 306.6670000000001 256H205.333C192.078 256 181.333 245.255 181.333 232V152C181.333 138.745 192.078 128 205.333 128H306.666C319.9220000000001 128 330.667 138.745 330.667 152zM362.6670000000001 392V312C362.6670000000001 298.745 373.4120000000001 288 386.6670000000001 288H488C501.255 288 512 298.745 512 312V392C512 405.255 501.255 416 488 416H386.667C373.412 416 362.667 405.255 362.667 392zM330.6670000000001 312V392C330.6670000000001 405.255 319.9220000000001 416 306.6670000000001 416H205.333C192.078 416 181.333 405.255 181.333 392V312C181.333 298.745 192.078 288 205.333 288H306.666C319.9220000000001 288 330.667 298.745 330.667 312zM125.333 256H24C10.745 256 0 245.255 0 232V152C0 138.745 10.745 128 24 128H125.333C138.588 128 149.333 138.745 149.333 152V232C149.333 245.255 138.588 256 125.333 256zM0 72V-8C0 -21.255 10.745 -32 24 -32H125.333C138.588 -32 149.333 -21.255 149.333 -8V72C149.333 85.255 138.588 96 125.333 96H24C10.745 96 0 85.255 0 72zM386.667 128H488C501.255 128 512 138.745 512 152V232C512 245.255 501.255 256 488 256H386.667C373.412 256 362.667 245.255 362.667 232V152C362.667 138.745 373.412 128 386.667 128zM386.667 -32H488C501.255 -32 512 -21.255 512 -8V72C512 85.255 501.255 96 488 96H386.667C373.412 96 362.667 85.255 362.667 72V-8C362.667 -21.255 373.412 -32 386.667 -32zM181.333 72V-8C181.333 -21.255 192.078 -32 205.333 -32H306.666C319.921 -32 330.666 -21.255 330.666 -8V72C330.666 85.255 319.921 96 306.666 96H205.333C192.078 96 181.333 85.255 181.333 72z"/>
            </g></svg>