<svg xmlns="http://www.w3.org/2000/svg" viewBox="0 0 384 512">
            <g transform="scale(1,-1) translate(0 -448)">
              <path d=" M298.028 233.733L285.793 352H328C341.255 352 352 362.745 352 376V424C352 437.255 341.255 448 328 448H56C42.745 448 32 437.255 32 424V376C32 362.745 42.745 352 56 352H98.207L85.972 233.733C37.465 211.18 0 170.739 0 120C0 106.745 10.745 96 24 96H160V-8.007C160 -9.249 160.289 -10.474 160.845 -11.585L184.845 -59.585C187.786 -65.467 196.209 -65.4779999999999 199.156 -59.585L223.156 -11.585A8.008 8.008 0 0 1 224.001 -8.007V96H360.001C373.256 96 384.001 106.745 384.001 120C384 171.183 346.018 211.42 298.028 233.733z"/>
            </g></svg>