<svg xmlns="http://www.w3.org/2000/svg" viewBox="0 0 512 512">
            <g transform="scale(1,-1) translate(0 -448)">
              <path d=" M104 224H24C10.745 224 0 213.255 0 200V-40C0 -53.255 10.745 -64 24 -64H104C117.255 -64 128 -53.255 128 -40V200C128 213.255 117.255 224 104 224zM64 -24C50.745 -24 40 -13.255 40 0S50.745 24 64 24S88 13.255 88 0S77.255 -24 64 -24zM384 366.548C384 324.132 358.03 300.3400000000001 350.723 272H452.446C485.843 272 511.843 244.254 511.999 213.902C512.083 195.964 504.453 176.653 492.56 164.705L492.45 164.595C502.286 141.258 500.687 108.558 483.142 85.126C491.823 59.231 483.073 27.422 466.76 10.369C471.058 -7.229 469.004 -22.206 460.612 -34.263C440.202 -63.587 389.616 -64 346.839 -64L343.994 -63.999C295.707 -63.982 256.188 -46.401 224.434 -32.274C208.477 -25.175 187.613 -16.387 171.783 -16.096C165.243 -15.976 160 -10.639 160 -4.098V209.672C160 212.872 161.282 215.943 163.558 218.193C203.172 257.337 220.206 298.78 252.675 331.304C267.479 346.136 272.863 368.54 278.068 390.206C282.515 408.707 291.817 448 312 448C336 448 384 440 384 366.548z"/>
            </g></svg>