<svg xmlns="http://www.w3.org/2000/svg" viewBox="0 0 576 512">
            <g transform="scale(1,-1) translate(0 -448)">
              <path d=" M128 288H448V96H128V288zM528 192C528 165.49 549.49 144 576 144V48C576 21.49 554.51 0 528 0H48C21.49 0 0 21.49 0 48V144C26.51 144 48 165.49 48 192S26.51 240 0 240V336C0 362.51 21.49 384 48 384H528C554.51 384 576 362.51 576 336V240C549.49 240 528 218.51 528 192zM480 296C480 309.255 469.255 320 456 320H120C106.745 320 96 309.255 96 296V88C96 74.745 106.745 64 120 64H456C469.255 64 480 74.745 480 88V296z"/>
            </g></svg>