<svg xmlns="http://www.w3.org/2000/svg" viewBox="0 0 384 512">
            <g transform="scale(1,-1) translate(0 -448)">
              <path d=" M323.1 7L377 60.9C386.4 70.3 386.4 85.4 377 94.8L279.8 192L377 289.2C386.4 298.6 386.4 313.7 377 323.1L323.1 377C313.7000000000001 386.4 298.6 386.4 289.2000000000001 377L192 279.8L94.8 377C85.4 386.4 70.3 386.4 60.9 377L7 323.1C-2.4 313.7 -2.4 298.6 7 289.2L104.2 192L7 94.8C-2.4 85.4 -2.4 70.3 7 60.9L60.9 7C70.3 -2.4 85.4 -2.4 94.8 7L192 104.2L289.2 7C298.5 -2.3 313.7 -2.3 323.1 7z"/>
            </g></svg>