<svg xmlns="http://www.w3.org/2000/svg" viewBox="0 0 512 512">
            <g transform="scale(1,-1) translate(0 -448)">
              <path d=" M256 440C119 440 8 329 8 192S119 -56 256 -56S504 55 504 192S393 440 256 440zM377.6 126.9C382.3 122.2 382.3 114.6 377.6 109.9L338 70.4C333.3 65.7 325.7 65.7 321 70.4L256 136L190.9 70.4C186.2 65.7 178.6 65.7 173.9 70.4L134.4 110C129.7 114.7 129.7 122.3 134.4 127L200 192L134.4 257.1C129.7 261.8 129.7 269.4 134.4 274.1L174 313.7C178.7 318.4 186.3 318.4 191 313.7L256 248L321.1 313.6C325.8 318.3 333.4000000000001 318.3 338.1 313.6L377.7000000000001 274C382.4000000000001 269.3 382.4000000000001 261.7 377.7000000000001 257L312 192L377.6 126.9z"/>
            </g></svg>