<svg xmlns="http://www.w3.org/2000/svg" viewBox="0 0 576 512">
            <g transform="scale(1,-1) translate(0 -448)">
              <path d=" M384 384H192C85.961 384 0 298.039 0 192S85.961 0 192 0H384C490.039 0 576 85.961 576 192S490.039 384 384 384zM64 192C64 262.741 121.249 320 192 320C262.741 320 320 262.751 320 192C320 121.259 262.751 64 192 64C121.259 64 64 121.249 64 192zM384 64H335.0950000000001C400.312 136.858 400.331 247.12 335.0950000000001 320H384C454.741 320 512 262.751 512 192C512 121.26 454.751 64 384 64z"/>
            </g></svg>