<svg xmlns="http://www.w3.org/2000/svg" viewBox="0 0 448 512">
            <g transform="scale(1,-1) translate(0 -448)">
              <path d=" M448 352V96C448 44.185 386.376 0 317.978 0L380.9580000000001 -49.721C386.905 -54.417 383.562 -64 376 -64H72C64.422 -64 61.108 -54.406 67.043 -49.721L130.022 0C61.82 0 0 44.046 0 96V352C0 405.019 64 448 128 448H320C385 448 448 405.019 448 352zM400 216V328C400 341.255 389.255 352 376 352H72C58.745 352 48 341.255 48 328V216C48 202.745 58.745 192 72 192H376C389.255 192 400 202.745 400 216zM224 152C193.072 152 168 126.928 168 96S193.072 40 224 40S280 65.072 280 96S254.928 152 224 152z"/>
            </g></svg>