<svg xmlns="http://www.w3.org/2000/svg" viewBox="0 0 480 512">
            <g transform="scale(1,-1) translate(0 -448)">
              <path d=" M468 448H389C378.3 448 373 435.1 380.5 427.5L397.4 410.6L316.7 329.9C294.5 343.9 268.2 352 240 352C211.8 352 185.5 343.9 163.3 329.9L146.8 346.4L166.6 366.2C171.3 370.9 171.3 378.5 166.6 383.2L138.3 411.5C133.6 416.2 126 416.2 121.3 411.5L101.5 391.7L82.5 410.7L99.4 427.6C107.1 435.1 101.7 448 91 448H12C5.4 448 0 442.6 0 436V357C0 346.3 12.9 341 20.5 348.5L37.4 365.4L56.4 346.4L36.6 326.6C31.9 321.9 31.9 314.3 36.6 309.6L64.9 281.3C69.6 276.6 77.2 276.6 81.9 281.3L101.7 301.1L118.2 284.6C104.1 262.5 96 236.2 96 208C96 139.5 143.9 82.1 208 67.6V40H172C165.4 40 160 34.6 160 28V-12C160 -18.6 165.4 -24 172 -24H208V-52C208 -58.6 213.4 -64 220 -64H260C266.6 -64 272 -58.6 272 -52V-24H308C314.6 -24 320 -18.6 320 -12V28C320 34.6 314.6 40 308 40H272V67.6C336.1 82.2000000000001 384 139.5 384 208C384 236.2 375.9 262.5 361.9 284.7000000000001L442.6 365.4000000000001L459.4999999999999 348.5000000000001C467.1 340.9000000000001 479.9999999999999 346.3000000000001 479.9999999999999 357.0000000000001V436C479.9999999999999 442.6 474.6 448 467.9999999999999 448zM240 128C195.9 128 160 163.9 160 208S195.9 288 240 288S320 252.1 320 208S284.1 128 240 128z"/>
            </g></svg>