<svg xmlns="http://www.w3.org/2000/svg" viewBox="0 0 448 512">
            <g transform="scale(1,-1) translate(0 -448)">
              <path d=" M0 364V392C0 405.3 10.7 416 24 416H136L145.4 434.7C149.4 442.9 157.7 448 166.8 448H281.1C290.2000000000001 448 298.5 442.9 302.6 434.7L312 416H424C437.3 416 448 405.3 448 392V364C448 357.4 442.6 352 436 352H12C5.4 352 0 357.4 0 364zM415.2 307.3L394.8 -19C393.2 -44.3 372.2 -64 346.9000000000001 -64H101.1C75.8 -64 54.8 -44.3 53.2 -19L32.8 307.3C32.4 314.2000000000001 37.9 320 44.8 320H403.3C410.1 320 415.6 314.2000000000001 415.2 307.3z"/>
            </g></svg>