<svg xmlns="http://www.w3.org/2000/svg" viewBox="0 0 576 512">
            <g transform="scale(1,-1) translate(0 -448)">
              <path d=" M557.011 180.369C505.579 225.586 449.439 224.067 398.444 149.638C393.146 141.7770000000001 383.538 142.473 378.708 149.638C376.225 153.2620000000001 346.49 210.446 288 210.446C242.234 210.446 217.458 179.0680000000001 197.291 149.638C192.462 142.473 182.855 141.7770000000001 177.557 149.638C126.653 223.923 70.944 226.0440000000001 18.99 180.369C8.78 172.105 -1.922 181.478 0.294 189.85C32.146 313.427 158.516 383.3880000000001 288.001 383.3880000000001C416.794 383.3880000000001 544.547 313.427 575.707 189.85C577.913 181.528 567.281 172.057 557.011 180.369zM256 186.999V32C256 14.355 241.645 0 224 0S192 14.355 192 32C192 49.673 177.673 64 160 64S128 49.673 128 32C128 -20.935 171.065 -64 224 -64S320 -20.935 320 32V186.712C298.164 197.518 274.575 196.449 256 186.999zM320 398.0060000000001V416C320 433.673 305.673 448 288 448S256 433.673 256 416V398.0130000000001A372.105 372.105 0 0 0 320 398.0060000000001z"/>
            </g></svg>