<svg xmlns="http://www.w3.org/2000/svg" viewBox="0 0 448 512">
            <g transform="scale(1,-1) translate(0 -448)">
              <path d=" M224.264 59.76C132.595 59.76 67.661 110.925 67.661 211.152V384H39.37C30.533 384 23.37 391.163 23.37 400V432C23.37 440.837 30.533 448 39.37 448H176.76C185.597 448 192.76 440.837 192.76 432V400C192.76 391.163 185.597 384 176.76 384H147.947V211.152C147.947 157.453 176.261 131.708 224.264 131.708C271.23 131.708 300.06 157.142 300.06 211.673V384H271.769C262.932 384 255.769 391.163 255.769 400V432C255.769 440.837 262.932 448 271.769 448H408.637C417.474 448 424.637 440.837 424.637 432V400C424.637 391.163 417.474 384 408.637 384H380.346V211.152C380.346 111.747 315.4650000000001 59.76 224.264 59.76zM16 0H432C440.837 0 448 -7.163 448 -16V-48C448 -56.837 440.837 -64 432 -64H16C7.163 -64 0 -56.837 0 -48V-16C0 -7.163 7.163 0 16 0z"/>
            </g></svg>