<svg xmlns="http://www.w3.org/2000/svg" viewBox="0 0 512 512">
            <g transform="scale(1,-1) translate(0 -448)">
              <path d=" M256 400C370.953 400 464 306.971 464 192C464 77.047 370.971 -16 256 -16C141.047 -16 48 77.029 48 192C48 306.953 141.029 400 256 400M256 440C119.033 440 8 328.967 8 192S119.033 -56 256 -56S504 55.033 504 192S392.967 440 256 440zM256 384C149.961 384 64 298.039 64 192S149.961 0 256 0S448 85.961 448 192S362.039 384 256 384zM256 340C275.882 340 292 323.882 292 304S275.882 268 256 268S220 284.118 220 304S236.118 340 256 340zM373.741 241.977C345.029 235.198 318.23 229.229 291.601 226.17C292.452 125.1470000000001 303.907 103.118 316.638 70.549C320.255 61.289 315.681 50.851 306.421 47.234C297.16 43.617 286.722 48.191 283.105 57.451C274.4000000000001 79.759 266.019 98.087 260.844 136H251.158C245.991 98.149 237.624 79.792 228.896 57.451C225.281 48.196 214.846 43.615 205.581 47.234C196.321 50.8510000000001 191.747 61.29 195.364 70.549C208.077 103.09 219.549 125.09 220.401 226.1700000000001C193.772 229.2280000000001 166.973 235.1970000000001 138.26 241.9770000000001C129.66 244.0080000000001 124.334 252.6250000000001 126.365 261.226S137.012 275.1520000000001 145.614 273.1210000000001C242.3 250.2920000000001 269.897 250.338 366.389 273.1210000000001C374.988 275.1510000000001 383.6070000000001 269.827 385.6380000000001 261.226C387.6670000000001 252.6250000000001 382.341 244.0070000000001 373.7410000000001 241.9770000000001z"/>
            </g></svg>