<svg xmlns="http://www.w3.org/2000/svg" viewBox="0 0 512 512">
            <g transform="scale(1,-1) translate(0 -448)">
              <path d=" M296 64H216C202.7 64 192 74.7 192 88V256H104.3C86.5 256 77.6 277.5 90.2 290.1L242.3 442.3C249.8 449.8 262.1 449.8 269.6 442.3L421.8 290.1C434.4000000000001 277.5 425.5 256 407.7 256H320V88C320 74.7 309.3 64 296 64zM512 72V-40C512 -53.3 501.3 -64 488 -64H24C10.7 -64 0 -53.3 0 -40V72C0 85.3 10.7 96 24 96H160V88C160 57.1 185.1 32 216 32H296C326.9 32 352 57.1 352 88V96H488C501.3 96 512 85.3 512 72zM388 -16C388 -5 379 4 368 4S348 -5 348 -16S357 -36 368 -36S388 -27 388 -16zM452 -16C452 -5 443 4 432 4S412 -5 412 -16S421 -36 432 -36S452 -27 452 -16z"/>
            </g></svg>