<svg xmlns="http://www.w3.org/2000/svg" viewBox="0 0 512 512">
            <g transform="scale(1,-1) translate(0 -448)">
              <path d=" M256 448C344.366 448 416 376.366 416 288S344.366 128 256 128S96 199.634 96 288S167.634 448 256 448zM439.283 114.179L367.9700000000001 132.007C293.0470000000001 78.117 202.232 90.143 144.03 132.007L72.717 114.179C29.981 103.495 0 65.097 0 21.045V-16C0 -42.51 21.49 -64 48 -64H464C490.51 -64 512 -42.51 512 -16V21.045C512 65.097 482.019 103.495 439.283 114.179z"/>
            </g></svg>