<svg xmlns="http://www.w3.org/2000/svg" viewBox="0 0 640 512">
            <g transform="scale(1,-1) translate(0 -448)">
              <path d=" M224 416C301.32 416 364 353.32 364 276S301.32 136 224 136S84 198.68 84 276S146.68 416 224 416zM384.373 123.907L321.974 139.507C256.417 92.353 176.953 102.876 126.026 139.507L63.627 123.907C26.233 114.558 0 80.96 0 42.415V10C0 -13.196 18.804 -32 42 -32H406C429.1960000000001 -32 448 -13.196 448 10V42.415C448 80.96 421.767 114.558 384.373 123.9070000000001zM587.897 192L636.493 240.598C641.168 245.273 641.168 252.854 636.493 257.529L609.529 284.4930000000001C604.854 289.168 597.273 289.168 592.598 284.4930000000001L544 235.895L495.402 284.493C490.727 289.168 483.146 289.168 478.471 284.493L451.507 257.529C446.832 252.854 446.832 245.273 451.507 240.598L500.103 192L451.507 143.402C446.832 138.727 446.832 131.146 451.507 126.471L478.471 99.507C483.146 94.832 490.727 94.832 495.402 99.507L544 148.103L592.598 99.507C597.2729999999999 94.832 604.8539999999999 94.832 609.529 99.507L636.4929999999999 126.471C641.1679999999999 131.146 641.1679999999999 138.727 636.4929999999999 143.402L587.897 192z"/>
            </g></svg>