<svg xmlns="http://www.w3.org/2000/svg" viewBox="0 0 448 512">
            <g transform="scale(1,-1) translate(0 -448)">
              <path d=" M388.829 152.676L409.801 207.728C412.793 215.582 406.992 224 398.587 224H340.39C347.84 240.236 352 258.297 352 277.333C352 280.964 351.84 284.557 351.544 288.111C391.0830000000001 295.926 416 307.3160000000001 416 320C416 333.2630000000001 388.769 345.112 346.053 352.937C336.868 385.742 318.875 418.734 305.339 435.787C295.887 447.695 279.466 451.421 265.868 444.621L238.311 430.842A31.997 31.997 0 0 0 209.689 430.842L182.132 444.622C168.5330000000001 451.421 152.112 447.696 142.661 435.788C129.125 418.735 111.132 385.743 101.947 352.938C59.231 345.112 32 333.2630000000001 32 320C32 307.3160000000001 56.917 295.926 96.456 288.111A129.362 129.362 0 0 1 96 277.333C96 258.296 100.159 240.235 107.608 224H50.198C41.583 224 35.775 215.192 39.169 207.273L62.075 153.826C25.799 140.118 0 105.075 0 64V-16C0 -42.51 21.49 -64 48 -64H400C426.51 -64 448 -42.51 448 -16V64C448 103.97 423.57 138.231 388.829 152.676zM184 -40L136 152L184 128L208 88L184 -40zM264 -40L240 88L264 128L312 152L264 -40zM318.778 263.746C318.7700000000001 263.703 314.4790000000001 260.515 313.653 257.975C309.7920000000001 246.111 306.627 233.403 297.139 224.616C287.068 215.289 249.182 202.211 233.143 249.645C230.306 258.04 217.696 258.043 214.858 249.645C197.895 199.477 158.839 217.228 150.862 224.616C141.374 233.402 138.209 246.111 134.348 257.975C133.522 260.515 129.23 263.703 129.223 263.746C128.669 266.671 128.242 269.63 128.003 272.596C127.694 276.444 138.081 276.254 139.081 276.343C165.384 278.669 191.384 276.922 217.104 270.846C219.667 270.24 228.657 270.317 230.897 270.846C256.617 276.9219999999999 282.617 278.67 308.92 276.343C309.922 276.254 320.307 276.445 319.998 272.596C319.759 269.63 319.332 266.671 318.7779999999999 263.746z"/>
            </g></svg>