<svg xmlns="http://www.w3.org/2000/svg" viewBox="0 0 640 512">
            <g transform="scale(1,-1) translate(0 -448)">
              <path d=" M320 384C377.99 384 425 336.99 425 279S377.99 174 320 174S215 221.01 215 279S262.01 384 320 384zM433.463 166.634L393.481 176.63C344.313 141.265 284.715 149.157 246.52 176.63L206.538 166.634C174.485 158.621 152 129.823 152 96.784V36C152 16.118 168.118 0 188 0H452C471.882 0 488 16.118 488 36V96.784C488 129.823 465.515 158.621 433.463 166.634zM528 148C566.66 148 598 179.34 598 218S566.66 288 528 288S458 256.66 458 218S489.34 148 528 148zM112 148C150.66 148 182 179.34 182 218S150.66 288 112 288S42 256.66 42 218S73.34 148 112 148zM136 36V96.784C136 113.335 140.593 128.988 148.703 142.383C118.715 127.663 85.367 133.675 63.013 149.753L36.358 143.089C14.99 137.748 0 118.548 0 96.523V56C0 42.745 10.745 32 24 32H136.169A52.417 52.417 0 0 0 136 36zM603.642 143.09L576.9870000000001 149.754C549.0620000000001 129.668 516.0970000000001 130.521 491.2010000000001 142.536C499.369 129.107 504 113.399 504 96.784V36C504 34.653 503.932 33.322 503.831 32H616C629.255 32 640 42.745 640 56V96.523C640 118.548 625.01 137.7480000000001 603.642 143.09z"/>
            </g></svg>