<svg xmlns="http://www.w3.org/2000/svg" viewBox="0 0 416 512">
            <g transform="scale(1,-1) translate(0 -448)">
              <path d=" M207.9 432.8C208.7 428.1 224 338.3 224 304C224 251.7 196.2 214.4 155.1 199.4L168 -38.7C168.7 -52.4 157.8 -64 144 -64H80C66.3 -64 55.3 -52.5 56 -38.7L68.9 199.4C27.7 214.4 0 251.8 0 304C0 338.4 15.3 428.1 16.1 432.8C19.3 453.1 61.4 453.4 64 431.7V290.5C65.3 287.1 79.1 287.3 80 290.5C81.4 315.8 87.9 429.7 88 432.3C91.3 453.1 132.7 453.1 135.9 432.3C136.1 429.6 142.5 315.8 143.9 290.5C144.8 287.3 158.7 287.1 159.9 290.5V431.7C162.5 453.3 204.7 453.1 207.9 432.8zM327.1 147.1L312.1 -38C310.9000000000001 -52 322 -64 336 -64H392C405.3 -64 416 -53.3 416 -40V424C416 437.2 405.3 448 392 448C309.5 448 170.6 269.5 327.1 147.1z"/>
            </g></svg>