<svg xmlns="http://www.w3.org/2000/svg" viewBox="0 0 288 512">
            <g transform="scale(1,-1) translate(0 -448)">
              <path d=" M288 272C288 351.5 223.5 416 144 416S0 351.5 0 272C0 203.5 47.9 146.1 112 131.6V80H76C69.4 80 64 74.6 64 68V28C64 21.4 69.4 16 76 16H112V-20C112 -26.6 117.4 -32 124 -32H164C170.6 -32 176 -26.6 176 -20V16H212C218.6 16 224 21.4 224 28V68C224 74.6 218.6 80 212 80H176V131.6C240.1 146.1 288 203.5 288 272zM64 272C64 316.1 99.9 352 144 352S224 316.1 224 272S188.1 192 144 192S64 227.9 64 272z"/>
            </g></svg>