<svg xmlns="http://www.w3.org/2000/svg" viewBox="0 0 495.9 512">
            <g transform="scale(1,-1) translate(0 -448)">
              <path d=" M223.3 204.6C222.4 241.6 214.7 277.4 200.6 310.3C109.8 267.9 43.1 187.9 20.3 93.5C33.7 62.7 53.2 35.2 77.2 12.4C99.9 91.6 151.4 160.2 223.3 204.6zM186.4 339C171.4 365.4 151.9 389.1 129 409.7C38 359.9 -15.8 256.8 4 147.5C37.4 230.6 102.4 299.5 186.4 339zM374 173.9C382.6 273.7 346.7 371.4 276.5 438.3C261.8 440 224.9 443.8 177.6 429.8C234.9 370.5 268.6 291.6 271.1 207.1C303.6 189.4 338.4000000000001 178.1 374 173.9zM249.3 164.4C217.7 145.1 190.6 120.5 169.1 91.8C251.1 34.4999999999999 353.6 16.6999999999999 446.6 43.9999999999999C466.3 70.3999999999999 480.8 100.8 488.8 133.9C462.2 127.3 435.1 123.5 407.9 123.5C353.3 123.6 299 137.6 249.3 164.4zM151 64.7C135.8 38.7 125.3 10.3 118.9 -19.5C156.5 -42.5 200.6 -56 248 -56C309 -56 364.7 -33.9 407.9 2.6C295 -13.5 204.6 27.4 151 64.7zM331.3 425.3C386.6 354.9 413.8 264.1 405.9 171.7C436.2 171.5 466.4 176.5 495.6 185.9C495.6 187.9 495.9 189.9 495.9 191.9C495.9 299.7 427.2 391 331.3 425.3z"/>
            </g></svg>