<svg xmlns="http://www.w3.org/2000/svg" viewBox="0 0 384 512">
            <g transform="scale(1,-1) translate(0 -448)">
              <path d=" M256 359.983V24.019C256 2.581 230.057 -7.979 215.029 7.048L126.059 96H24C10.745 96 0 106.745 0 120V264C0 277.255 10.745 288 24 288H126.059L215.03 376.954C230.04 391.964 256 381.444 256 359.983zM384 192C384 225.717 366.814 256.35 338.028 273.944C322.949 283.158 303.2530000000001 278.4070000000001 294.036 263.3280000000001S289.572 228.5530000000001 304.651 219.3360000000001C314.263 213.462 320 203.243 320 192A32.056 32.056 0 0 0 306.198 165.668C291.674 155.599 288.062 135.662 298.131 121.138C308.201 106.6130000000001 328.139 103.002 342.661 113.071C368.546 131.017 384 160.522 384 192z"/>
            </g></svg>