<svg xmlns="http://www.w3.org/2000/svg" viewBox="0 0 576 512">
            <g transform="scale(1,-1) translate(0 -448)">
              <path d=" M256 359.983V24.019C256 2.581 230.057 -7.979 215.029 7.048L126.059 96H24C10.745 96 0 106.745 0 120V264C0 277.255 10.745 288 24 288H126.059L215.03 376.954C230.04 391.964 256 381.444 256 359.983zM438.0560000000001 437.8590000000001C422.9820000000001 447.08 403.283 442.332 394.061 427.255C384.84 412.178 389.588 392.481 404.665 383.26C468.967 343.937 512 273.017 512 192C512 118.569 475.923 49.708 415.493 7.794C400.971 -2.278 397.364 -22.216 407.436 -36.738C417.512 -51.266 437.452 -54.864 451.967 -44.795C529.633 9.073 576 97.594 576 192C576 295.2440000000001 521.421 386.877 438.0560000000001 437.8590000000001zM480 192C480 260.5470000000001 443.85 321.777 388.043 355.901C372.967 365.121 353.269 360.372 344.049 345.294C334.829 330.216 339.578 310.52 354.656 301.3C393.067 277.812 416 236.952 416 192C416 150.036 395.38 110.681 360.842 86.724C346.321 76.651 342.714 56.714 352.786 42.192C359.002 33.232 368.971 28.427 379.108 28.427A31.861999999999995 31.861999999999995 0 0 1 397.318 34.136C449.091 70.047 480 129.062 480 192zM384 192C384 225.717 366.814 256.35 338.028 273.944C322.949 283.158 303.2530000000001 278.4070000000001 294.036 263.3280000000001S289.572 228.5530000000001 304.651 219.3360000000001C314.263 213.462 320 203.243 320 192A32.056 32.056 0 0 0 306.198 165.668C291.674 155.599 288.062 135.662 298.131 121.138C308.201 106.6130000000001 328.139 103.002 342.661 113.071C368.546 131.017 384 160.522 384 192z"/>
            </g></svg>