<svg xmlns="http://www.w3.org/2000/svg" viewBox="0 0 640 512">
            <g transform="scale(1,-1) translate(0 -448)">
              <path d=" M504 96H136.4C132 96 128.4 92.4 128.4 88L128.3 40C128.3 35.6 131.9 32 136.3 32H504C508.4 32 512 35.6 512 40V88C512 92.4 508.4 96 504 96zM504 0H136.1C131.7 0 128.1 -3.6 128.1 -8L128 -56C128 -60.4 131.6 -64 136 -64H504C508.4 -64 512 -60.4 512 -56V-8C512 -3.6 508.4 0 504 0zM504 192H136.6C132.2 192 128.6 188.4 128.6 184L128.5 136C128.5 131.6 132.1 128 136.5 128H504C508.4 128 512 131.6 512 136V184C512 188.4 508.4 192 504 192zM610.5 331L338.4 444.3A48.15 48.15 0 0 1 301.5 444.3L29.5 331C11.7 323.5 0 306.1 0 286.7V-56C0 -60.4 3.6 -64 8 -64H88C92.4 -64 96 -60.4 96 -56V192C96 209.6 110.6 224 128.6 224H511.4C529.4 224 544 209.6 544 192V-56C544 -60.4 547.6 -64 552 -64H632C636.4 -64 640 -60.4 640 -56V286.7C640 306.1 628.3 323.5 610.5 331z"/>
            </g></svg>