<svg xmlns="http://www.w3.org/2000/svg" viewBox="0 0 512 512">
            <g transform="scale(1,-1) translate(0 -448)">
              <path d=" M496.101 62.331L510.328 33.668C514.257 25.753 511.025 16.152 503.11 12.223L437.645 -20.663C421.596 -28.63 402.089 -21.857 394.456 -5.608L331.679 128H192C176.075 128 162.574 139.71 160.321 155.475C126.433 392.692 128.38 377.956 128 384C128 420.358 158.318 449.635 195.052 447.929C228.3230000000001 446.384 255.1 419.024 255.9770000000001 385.728C256.8450000000001 352.795 232.8250000000001 325.305 201.369 320.689L206.039 287.999H336C344.837 287.999 352 280.836 352 271.999V239.999C352 231.162 344.837 223.999 336 223.999H215.182L219.754 191.999H352A32 32 0 0 0 380.962 173.607L438.477 51.2L474.655 69.549C482.57 73.478 492.172 70.246 496.101 62.331zM311.358 96H286.852C279.064 41.796 232.324 0 176 0C114.243 0 64 50.243 64 112C64 153.505 86.694 189.809 120.324 209.156C116.612 235.121 113.48 257.016 110.836 275.4890000000001C45.956 249.536 0 186.037 0 112C0 14.953 78.953 -64 176 -64C247.87 -64 309.8060000000001 -20.692 337.11 41.192L311.358 96z"/>
            </g></svg>