<svg xmlns="http://www.w3.org/2000/svg" viewBox="0 0 512 512">
            <g transform="scale(1,-1) translate(0 -448)">
              <path d=" M464 416H48C21.5 416 0 394.5 0 368V16C0 -10.5 21.5 -32 48 -32H464C490.5 -32 512 -10.5 512 16V368C512 394.5 490.5 416 464 416zM380.4 125.5C385.2 120.7 385.2 112.9 380.4 108.1L339.9 67.6C335.1 62.8 327.3 62.8 322.5 67.6L256 134.7L189.5 67.6C184.7 62.8 176.9 62.8 172.1 67.6L131.6 108.1C126.8 112.9 126.8 120.7000000000001 131.6 125.5L198.7 192L131.6 258.5C126.8 263.3 126.8 271.1 131.6 275.9L172.1 316.4C176.9 321.2 184.7 321.2 189.5 316.4L256 249.3L322.5 316.4C327.3 321.2 335.1 321.2 339.9 316.4L380.4 275.9C385.2 271.1 385.2 263.3 380.4 258.5L313.3 192L380.4 125.5z"/>
            </g></svg>