<svg xmlns="http://www.w3.org/2000/svg" viewBox="0 0 576 512">
            <g transform="scale(1,-1) translate(0 -448)">
              <path d=" M564 256C570.627 256 576 261.373 576 268V308C576 314.627 570.627 320 564 320H515.972L534.544 400.61C536.276 408.128 530.566 415.304 522.851 415.304H476.744A11.998 11.998 0 0 1 465.008 405.804L450.73 320H340.839L321.114 405.987A12 12 0 0 1 309.418 415.304H265.43A12 12 0 0 1 253.743 406.027L233.696 320H124.975L107.5 405.701A12 12 0 0 1 95.742 415.303H53.628C45.942 415.303 40.238 408.179 41.919 400.679L60 320H12C5.373 320 0 314.627 0 308V268C0 261.373 5.373 256 12 256H74.342L81.513 224H12C5.373 224 0 218.627 0 212V172C0 165.373 5.373 160 12 160H95.856L136.783 -22.624A12 12 0 0 1 148.492 -32H205.259C210.842 -32 215.687 -28.15 216.948 -22.712L259.335 160H314.421L356.807 -22.712A12 12 0 0 1 368.496 -32H425.322A12 12 0 0 1 437.016 -22.694L479.108 160H564C570.627 160 576 165.373 576 172V212C576 218.627 570.627 224 564 224H493.854L501.227 256H564zM138.024 256H218.781L211.324 224H144.548L138.024 256zM183.82 105.971C177.626 80.14 177.062 58.721 176.499 58.721H175.373S173.684 80.771 168.615 105.971L157.599 160H196.411L183.82 105.971zM274.182 224L276.178 232.602C278.034 240.564 279.635 248.57 280.981 256H292.775C294.122 248.57 295.722 240.564 297.578 232.602L299.574 224H274.182zM405.141 105.971C400.0730000000001 80.771 398.3830000000001 58.721 398.3830000000001 58.721H397.2570000000001C396.6940000000001 58.721 396.1310000000001 80.141 389.9360000000001 105.971L377.542 160H416.649L405.141 105.971zM430.281 224H362.861L355.521 256H437.098L430.281 224z"/>
            </g></svg>