<svg xmlns="http://www.w3.org/2000/svg" viewBox="0 0 512 512">
            <g transform="scale(1,-1) translate(0 -448)">
              <path d=" M481.156 248C490.456 248 496.276 237.845 491.481 229.876C466.295 188.008 420.419 160 368 160C288.778 160 224.499 223.974 224.003 303.079C223.505 382.531 288.548 448.001 368.002 448C420.3640000000001 447.999 466.198 420.051 491.402 378.257C496.24 370.234 490.523 360 481.154 360H376L336 304L376 248H481.156zM309.507 154.997L109.255 -45.255C84.261 -70.248 43.74 -70.249 18.745 -45.255C-6.248 -20.261 -6.248 20.261 18.745 45.255L218.991 245.5C235.151 204.303 268.294 171.165 309.507 154.997zM104 16C104 29.255 93.255 40 80 40S56 29.255 56 16S66.745 -8 80 -8S104 2.745 104 16z"/>
            </g></svg>