<svg xmlns="http://www.w3.org/2000/svg" viewBox="0 0 384 512">
            <g transform="scale(1,-1) translate(0 -448)">
              <path d=" M351.2080000000001 416H285.9310000000001A12 12 0 0 1 275.153 409.276L219.763 296.113C205.25 261.409 192.63 224.181 192.63 224.181H191.368S178.748 261.409 164.235 296.113L108.845 409.276A11.997 11.997 0 0 1 98.068 416H32.792C23.735 416 17.942 406.35 22.202 398.357L102.322 248H44C37.373 248 32 242.627 32 236V204C32 197.373 37.373 192 44 192H132.162L152 154.772V128H44C37.373 128 32 122.627 32 116V84C32 77.373 37.373 72 44 72H152V-20C152 -26.627 157.373 -32 164 -32H220C226.627 -32 232 -26.627 232 -20V72H340C346.627 72 352 77.373 352 84V116C352 122.627 346.627 128 340 128H232V154.772L251.838 192H340C346.627 192 352 197.373 352 204V236C352 242.627 346.627 248 340 248H281.678L361.798 398.357C366.058 406.35 360.266 416 351.2080000000001 416z"/>
            </g></svg>