<svg xmlns="http://www.w3.org/2000/svg" viewBox="0 0 512 512">
            <g transform="scale(1,-1) translate(0 -448)">
              <path d=" M464 384H48C21.49 384 0 362.51 0 336V48C0 21.49 21.49 0 48 0H464C490.51 0 512 21.49 512 48V336C512 362.51 490.51 384 464 384zM176 304C214.66 304 246 272.66 246 234S214.66 164 176 164S106 195.34 106 234S137.34 304 176 304zM288 101C288 89.402 278.598 80 267 80H85C73.402 80 64 89.402 64 101V117.207C64 136.479 77.116 153.279 95.813 157.953L127.013 165.753C152.477 147.437 192.208 142.176 224.987 165.753L256.187 157.953C274.884 153.279 288 136.48 288 117.207V101zM448 140C448 133.373 442.627 128 436 128H332C325.373 128 320 133.373 320 140V148C320 154.627 325.373 160 332 160H436C442.627 160 448 154.627 448 148V140zM448 204C448 197.373 442.627 192 436 192H332C325.373 192 320 197.373 320 204V212C320 218.627 325.373 224 332 224H436C442.627 224 448 218.627 448 212V204zM448 268C448 261.373 442.627 256 436 256H332C325.373 256 320 261.373 320 268V276C320 282.627 325.373 288 332 288H436C442.627 288 448 282.627 448 276V268z"/>
            </g></svg>