<svg xmlns="http://www.w3.org/2000/svg" viewBox="0 0 448 512">
            <g transform="scale(1,-1) translate(0 -448)">
              <path d=" M160 364V404C160 412.837 167.163 420 176 420H432C440.837 420 448 412.837 448 404V364C448 355.163 440.837 348 432 348H176C167.163 348 160 355.163 160 364zM16 220H432C440.837 220 448 227.163 448 236V276C448 284.837 440.837 292 432 292H16C7.163 292 0 284.837 0 276V236C0 227.163 7.163 220 16 220zM16 -36H432C440.837 -36 448 -28.837 448 -20V20C448 28.837 440.837 36 432 36H16C7.163 36 0 28.837 0 20V-20C0 -28.837 7.163 -36 16 -36zM176 92H432C440.837 92 448 99.163 448 108V148C448 156.837 440.837 164 432 164H176C167.163 164 160 156.837 160 148V108C160 99.163 167.163 92 176 92z"/>
            </g></svg>