<svg xmlns="http://www.w3.org/2000/svg" viewBox="0 0 512 512">
            <g transform="scale(1,-1) translate(0 -448)">
              <path d=" M256 -56C119 -56 8 55 8 192S119 440 256 440S504 329 504 192S393 -56 256 -56zM284.9 87.6L209.4 160H392C405.3 160 416 170.7 416 184V200C416 213.3 405.3 224 392 224H209.4L284.9 296.4C294.6 305.7000000000001 294.8 321.2 285.3 330.7L274.3 341.6C264.9 351 249.7 351 240.4 341.6L107.7 209C98.3 199.6 98.3 184.4 107.7 175.1L240.4 42.4C249.8 33.0000000000001 265 33.0000000000001 274.3 42.4L285.3 53.3C294.8 62.8 294.6 78.3 284.9 87.6z"/>
            </g></svg>