<svg xmlns="http://www.w3.org/2000/svg" viewBox="0 0 512 512">
            <g transform="scale(1,-1) translate(0 -448)">
              <path d=" M8 192C8 329 119 440 256 440S504 329 504 192S393 -56 256 -56S8 55 8 192zM151.6 163.1L224 238.6V56C224 42.7 234.7 32 248 32H264C277.3 32 288 42.7 288 56V238.6L360.4 163.1C369.7 153.4 385.2 153.2000000000001 394.7 162.7000000000001L405.6 173.7000000000001C415 183.1 415 198.3000000000001 405.6 207.6000000000001L273 340.3C263.6 349.7 248.4 349.7 239.1 340.3L106.3 207.6C96.9 198.2 96.9 183 106.3 173.7L117.2 162.7C126.8 153.2 142.3 153.4 151.6 163.1z"/>
            </g></svg>