<svg xmlns="http://www.w3.org/2000/svg" viewBox="0 0 512 512">
            <g transform="scale(1,-1) translate(0 -448)">
              <path d=" M504 192C504 55 393 -56 256 -56S8 55 8 192S119 440 256 440S504 329 504 192zM360.4 220.9L288 145.4V328C288 341.3 277.3 352 264 352H248C234.7 352 224 341.3 224 328V145.4L151.6 220.9C142.3 230.6 126.8 230.8 117.3 221.3L106.4 210.3C97 200.9 97 185.7 106.4 176.4L239 43.7C248.4 34.3 263.6 34.3 272.9 43.7L405.6 176.4C415 185.8 415 201 405.6 210.3L394.7 221.3C385.2 230.8 369.7 230.6 360.4 220.9z"/>
            </g></svg>