<svg xmlns="http://www.w3.org/2000/svg" viewBox="0 0 448 512">
            <g transform="scale(1,-1) translate(0 -448)">
              <path d=" M413.1 225.5L435.3 203.3C444.7 193.9 444.7 178.7 435.3 169.4L241 -25C231.6 -34.4 216.4 -34.4 207.1 -25L12.7 169.4C3.3 178.8 3.3 194 12.7 203.3L34.9 225.5C44.4 235 59.9 234.8 69.2 225.1L184 104.6V392C184 405.3 194.7 416 208 416H240C253.3 416 264 405.3 264 392V104.6L378.8 225.1C388.1 234.9000000000001 403.6 235.1 413.1 225.5000000000001z"/>
            </g></svg>