<svg xmlns="http://www.w3.org/2000/svg" viewBox="0 0 512 512">
            <g transform="scale(1,-1) translate(0 -448)">
              <path d=" M162.925 209.291L171.747 178.636H146.141L155.182 209.288C156.459 213.709 157.833 219.282 159.054 224.533C160.274 219.282 161.648 213.71 162.9250000000001 209.291zM329.399 241.39H314.876V142.609H329.399C359.175 142.609 375.574 160.287 375.574 192.385C375.574 224.624 358.084 241.39 329.399 241.39zM512 336V48C512 21.49 490.51 0 464 0H48C21.49 0 0 21.49 0 48V336C0 362.51 21.49 384 48 384H464C490.51 384 512 362.51 512 336zM245.459 111.861L188.362 279.861A12.001000000000001 12.001000000000001 0 0 1 177 288H141.106A12.001000000000001 12.001000000000001 0 0 1 129.744 279.861L72.647 111.861C70.003 104.078 75.789 96 84.009 96H113.142A12 12 0 0 1 124.677 104.693L133.251 134.599H184.618L193.411 104.622A12 12 0 0 1 204.926 96H234.098C242.318 96 248.104 104.078 245.459 111.861zM430.16 192.386C430.16 251.363 392.241 288 331.2 288H273.834C267.207 288 261.834 282.627 261.834 276V108C261.834 101.373 267.207 96 273.834 96H331.2C392.241 96 430.16 132.933 430.16 192.386z"/>
            </g></svg>