<svg xmlns="http://www.w3.org/2000/svg" viewBox="0 0 640 512">
            <g transform="scale(1,-1) translate(0 -448)">
              <path d=" M0 288V96C0 60.7 28.7 32 64 32H160V352H64C28.7 352 0 323.3 0 288zM576 352H480V32H576C611.3 32 640 60.7 640 96V288C640 323.3 611.3 352 576 352zM192 32H448V352H192V32zM368 264C381.3 264 392 253.3 392 240S381.3 216 368 216S344 226.7 344 240S354.7 264 368 264zM368 168C381.3 168 392 157.3 392 144S381.3 120 368 120S344 130.7 344 144S354.7 168 368 168zM272 264C285.3 264 296 253.3 296 240S285.3 216 272 216S248 226.7 248 240S258.7 264 272 264zM272 168C285.3 168 296 157.3 296 144S285.3 120 272 120S248 130.7 248 144S258.7 168 272 168z"/>
            </g></svg>