<svg xmlns="http://www.w3.org/2000/svg" viewBox="0 0 512 512">
            <g transform="scale(1,-1) translate(0 -448)">
              <path d=" M0 0V384H18V0H0zM26.857 0.273V384H36V0.273H26.857zM54 0.273V384H62.857V0.273H54zM98.857 0.273V384H107.714V0.273H98.857zM134.857 0.273V384H152.571V0.273H134.857zM179.714 0.273V384H188.571V0.273H179.714zM197.714 0.273V384H206.571V0.273H197.714zM215.714 0.273V384H224.571V0.273H215.714zM251.429 0.273V384H269.429V0.273H251.429zM296.286 0.273V384H314.286V0.273H296.286zM332.2850000000001 0.273V384H350.286V0.273H332.2850000000001zM368.286 0.273V384H386.287V0.273H368.286zM395.1430000000001 0.273V384H413.1430000000001V0.273H395.1430000000001zM440.2860000000001 0.273V384H467.143V0.273H440.2860000000001zM476.0000000000001 0.273V384H485.143V0.273H476zM494.0000000000001 0V384H512V0H494z"/>
            </g></svg>