<svg xmlns="http://www.w3.org/2000/svg" viewBox="0 0 448 512">
            <g transform="scale(1,-1) translate(0 -448)">
              <path d=" M368 352H320V392C320 405.255 309.255 416 296 416H24C10.745 416 0 405.255 0 392V-8C0 -21.255 10.745 -32 24 -32H296C309.255 -32 320 -21.255 320 -8V34.11L400.606 70.087C429.396 82.937 448 111.612 448 143.14V272C448 316.112 412.112 352 368 352zM384 143.14A16.018 16.018 0 0 0 374.521 128.529L320 104.195V288H368C376.822 288 384 280.822 384 272V143.14zM208 64C199.164 64 192 71.164 192 80V304C192 312.836 199.164 320 208 320S224 312.836 224 304V80C224 71.164 216.836 64 208 64zM112 64C103.164 64 96 71.164 96 80V304C96 312.836 103.164 320 112 320S128 312.836 128 304V80C128 71.164 120.836 64 112 64z"/>
            </g></svg>