<svg xmlns="http://www.w3.org/2000/svg" viewBox="0 0 576 512">
            <g transform="scale(1,-1) translate(0 -448)">
              <path d=" M78.107 81.941C47.958 51.792 69.325 0 112.048 0H224C224 -35.346 252.654 -64 288 -64C323.346 -64 352 -35.346 352 0H384.685L127.848 226.621C125.65 129.543 99.409 103.243 78.107 81.941zM264 0C264 -13.234 274.766 -24 288 -24A8 8 0 0 0 288 -40C265.944 -40 248 -22.056 248 0H264zM569.896 -43.733L559.134 -55.819C550.219 -65.831 534.801 -66.7860000000001 524.697 -57.952L8.256 393.607C-1.848 402.442 -2.811 417.7200000000001 6.104 427.733L16.865 439.819C25.781 449.831 41.199 450.786 51.303 441.951L165.113 342.439C189.13 371.217 223.059 391.435 261.663 397.829A31.85 31.85 0 0 0 256 416C256 433.673 270.327 448 288 448S320 433.673 320 416C320 409.25 317.905 402.992 314.337 397.83C390.169 385.269 448 319.394 448 240C448 131.882 475.634 104.191 497.884 81.941C510.033 69.792 513.807 54.165 511.214 39.8200000000001L567.744 -9.607C577.8480000000001 -18.4419999999999 578.811 -33.72 569.8960000000001 -43.7329999999999z"/>
            </g></svg>