<svg xmlns="http://www.w3.org/2000/svg" viewBox="0 0 448 512">
            <g transform="scale(1,-1) translate(0 -448)">
              <path d=" M433.884 81.941C411.634 104.191 384 131.882 384 240C384 319.394 326.169 385.269 250.337 397.8300000000001A31.845000000000002 31.845000000000002 0 0 1 256 416C256 433.673 241.673 448 224 448S192 433.673 192 416C192 409.25 194.095 402.992 197.663 397.83C121.831 385.269 64 319.394 64 240C64 131.882 36.357 104.191 14.107 81.941C-16.042 51.792 5.325 0 48.048 0H160C160 -35.346 188.654 -64 224 -64S288 -35.346 288 0H399.943C442.581 0 464.094 51.731 433.884 81.941zM224 -24A8 8 0 0 0 224 -40C201.944 -40 184 -22.056 184 0H200C200 -13.234 210.766 -24 224 -24z"/>
            </g></svg>