<svg xmlns="http://www.w3.org/2000/svg" viewBox="0 0 640 512">
            <g transform="scale(1,-1) translate(0 -448)">
              <path d=" M512.509 255.999C496.136 256.063 480.479 253.044 466.073 247.504L388.3930000000001 372.657A24 24 0 0 1 368.001 384H304.001C295.164 384 288.001 376.837 288.001 368V352C288.001 343.163 295.164 336 304.001 336H354.65L369.546 312H256.002V328C256.002 336.837 248.839 344 240.002 344H152.543C139.102 344 127.766 333.001 128.007 319.563C128.239 306.519 138.883 296 152.002 296H200.728L171.311 248.48C157.878 253.31 143.407 255.963 128.319 256C58.094 256.17 0.412 198.988 0.002 128.764C-0.413 57.721 57.055 0 128.002 0C187.644 0 237.76 40.793 251.969 96H304.002A24 24 0 0 1 324.408 107.367L410.37 246.23L425.308 222.163C399.853 198.715 383.923 165.082 384.001 127.726C384.146 58.893 441.9 0.675 510.73 0.007C581.336 -0.678 638.911 55.81 639.9849999999999 126.003C641.0709999999999 196.944 583.459 255.723 512.5089999999999 255.999zM186.75 182.228C196.477 171.699 203.423 158.567 206.392 144H163.086L186.75 182.228zM128.002 48C83.89 48 48.002 83.888 48.002 128S83.89 208 128.002 208C133.871 208 139.588 207.347 145.101 206.141L99.596 132.632C89.715 116.673 101.213 96 120.002 96H201.302C188.932 67.775 160.74 48 128.002 48zM290.632 144H255.008C251.048 175.756 235.452 203.894 212.625 224.026L237.371 264H364.918L290.632 144zM507.689 48.114C466.653 50.2790000000001 433.64 83.806 432.062 124.869C431.25 145.99 438.695 165.3870000000001 451.3969999999999 180.132L495.8299999999999 108.546C500.49 101.038 510.3539999999999 98.73 517.862 103.39L531.456 111.827C538.964 116.487 541.273 126.351 536.612 133.859L492.1439999999999 205.502A79.901 79.901 0 0 0 512.002 207.999C556.1139999999999 207.999 592.002 172.111 592.002 127.999C592.001 82.459 553.75 45.683 507.689 48.114z"/>
            </g></svg>