<svg xmlns="http://www.w3.org/2000/svg" viewBox="0 0 384 512">
            <g transform="scale(1,-1) translate(0 -448)">
              <path d=" M380.15 -62.837A8 8 0 0 0 369.161 -60.15L243.831 146.2770000000001A31.923 31.923 0 0 1 256.7890000000001 155.7620000000001L382.8370000000001 -51.8459999999999A8 8 0 0 0 380.1500000000001 -62.8369999999999zM142.803 133.662L110.263 44.177L146.383 -44.1080000000001C153.076 -60.4680000000001 171.76 -68.3000000000001 188.116 -61.609C204.473 -54.917 212.309 -36.2330000000001 205.617 -19.8750000000001L142.803 133.6619999999999zM96 360C120.301 360 140 379.699 140 404S120.301 448 96 448S52 428.301 52 404S71.699 360 96 360zM250.837 190.872L130.837 342.872C126.104 348.867 119.087 351.98 112 351.9840000000001V352H80V351.974C72.854 351.971 65.783 348.813 61.056 342.7340000000001L0 264.2340000000001V168.54C0 155.085 11.011 143.749 24.464 144.004C37.505 144.252 48 154.9 48 168V247.766L64 268.337V127.639L9.927 -21.055C3.887 -37.664 12.455 -56.024 29.065 -62.064C45.667 -68.1030000000001 64.033 -59.54 70.074 -42.926L136 138.362V245.559L104.594 285.375A4 4 0 1 0 110.863 290.346L213.163 161.129C222.308 149.545 237.531 149.79 246.871 157.1640000000001C257.281 165.3800000000001 259.0300000000001 180.4980000000001 250.837 190.8720000000001z"/>
            </g></svg>