<svg xmlns="http://www.w3.org/2000/svg" viewBox="0 0 640 512">
            <g transform="scale(1,-1) translate(0 -448)">
              <path d=" M128 192C128 156.654 99.346 128 64 128S0 156.654 0 192S28.654 256 64 256S128 227.346 128 192zM64 64C46.327 64 32 49.673 32 32S46.327 0 64 0S96 14.327 96 32S81.673 64 64 64zM64 416C28.654 416 0 387.346 0 352S28.654 288 64 288S128 316.654 128 352S99.346 416 64 416zM224 224C206.327 224 192 209.673 192 192S206.327 160 224 160S256 174.327 256 192S241.673 224 224 224zM224 64C206.327 64 192 49.673 192 32S206.327 0 224 0S256 14.327 256 32S241.673 64 224 64zM224 416C188.654 416 160 387.346 160 352S188.654 288 224 288S288 316.654 288 352S259.346 416 224 416zM448 224C430.327 224 416 209.673 416 192S430.327 160 448 160S480 174.327 480 192S465.673 224 448 224zM448 64C430.327 64 416 49.673 416 32S430.327 0 448 0S480 14.327 480 32S465.673 64 448 64zM448 416C412.654 416 384 387.346 384 352S412.654 288 448 288S512 316.654 512 352S483.346 416 448 416zM608 224C590.327 224 576 209.673 576 192S590.327 160 608 160S640 174.327 640 192S625.673 224 608 224zM608 64C590.327 64 576 49.673 576 32S590.327 0 608 0S640 14.327 640 32S625.673 64 608 64zM608 384C590.327 384 576 369.673 576 352S590.327 320 608 320S640 334.327 640 352S625.673 384 608 384z"/>
            </g></svg>