<svg xmlns="http://www.w3.org/2000/svg" viewBox="0 0 512 512">
            <g transform="scale(1,-1) translate(0 -448)">
              <path d=" M511.988 159.1C511.51 141.67 496.771 128 479.335 128H424V112C424 90.136 419.118 69.416 410.4 50.855L470.628 -9.373C483.124 -21.87 483.124 -42.131 470.628 -54.628C458.13 -67.125 437.869 -67.124 425.372 -54.628L370.636 0.108C345.886 -19.965 314.351 -32 280 -32V212C280 218.627 274.627 224 268 224H244C237.373 224 232 218.627 232 212V-32C197.649 -32 166.114 -19.965 141.364 0.108L86.628 -54.628C74.13 -67.125 53.869 -67.124 41.372 -54.628C28.876 -42.131 28.876 -21.87 41.372 -9.373L101.6 50.855C92.882 69.416 88 90.136 88 112V128H32.666C15.23 128 0.491 141.67 0.013 159.1C-0.484 177.184 14.028 192 32 192H88V250.745L41.372 297.373C28.876 309.87 28.876 330.131 41.372 342.628C53.87 355.125 74.13 355.125 86.628 342.628L141.255 288H370.7440000000001L425.3710000000001 342.627C437.8690000000001 355.124 458.129 355.124 470.6270000000001 342.627C483.123 330.13 483.123 309.8690000000001 470.6270000000001 297.372L424 250.745V192H480C497.972 192 512.484 177.184 511.988 159.1zM257 448C195.144 448 145 397.856 145 336H369C369 397.856 318.856 448 257 448z"/>
            </g></svg>