<svg xmlns="http://www.w3.org/2000/svg" viewBox="0 0 512 512">
            <g transform="scale(1,-1) translate(0 -448)">
              <path d=" M256 376C357.689 376 440 293.705 440 192C440 90.311 357.705 8 256 8C154.311 8 72 90.295 72 192C72 293.689 154.295 376 256 376M256 440C119.033 440 8 328.967 8 192S119.033 -56 256 -56S504 55.033 504 192S392.967 440 256 440zM256 256C291.29 256 320 227.29 320 192S291.29 128 256 128S192 156.71 192 192S220.71 256 256 256M256 320C185.308 320 128 262.692 128 192S185.308 64 256 64S384 121.308 384 192S326.692 320 256 320z"/>
            </g></svg>