<svg xmlns="http://www.w3.org/2000/svg" viewBox="0 0 576 512">
            <g transform="scale(1,-1) translate(0 -448)">
              <path d=" M576 224C576 244.896 562.64 262.666 544 269.2580000000001V384C544 419.346 515.346 448 480 448C415.015 392 337.969 320 208 320H48C21.49 320 0 298.51 0 272V176C0 149.49 21.49 128 48 128H91.263C72.521 63.35 93.742 11.621 110.077 -39.44C111.779 -44.76 115.28 -49.333 119.999 -52.32C140.779 -65.475 188.354 -67.977 213.772 -57.471C229.818 -50.838 233.732 -30.048 221.294 -17.934C202.786 0.092 191.158 18.976 201.499 42.924A12.278 12.278 0 0 1 200.454 54.597C184.145 79.276 196.873 116.704 228.971 127.349C346.403 120.113 418.591 52.919 480 0C515.346 0 544 28.654 544 64V178.742C562.64 185.334 576 203.104 576 224zM480 84.145C425.391 129.124 354.967 177.085 256 189.127V258.874C354.967 270.916 425.391 318.876 480 363.856V84.145z"/>
            </g></svg>