<svg xmlns="http://www.w3.org/2000/svg" viewBox="0 0 512 512">
            <g transform="scale(1,-1) translate(0 -448)">
              <path d=" M512 296V216C512 202.745 501.255 192 488 192H480V24C480 10.745 469.255 0 456 0H448V-40C448 -53.255 437.255 -64 424 -64H376C362.745 -64 352 -53.255 352 -40V0H160V-40C160 -53.255 149.255 -64 136 -64H88C74.745 -64 64 -53.255 64 -40V0H56C42.745 0 32 10.745 32 24V192H24C10.745 192 0 202.745 0 216V296C0 309.255 10.745 320 24 320H32V368C32 412.183 132.288 448 256 448S480 412.183 480 368V320H488C501.255 320 512 309.255 512 296zM112 128C89.909 128 72 110.091 72 88S89.909 48 112 48S152 65.909 152 88S134.091 128 112 128zM400 128C377.909 128 360 110.091 360 88S377.909 48 400 48S440 65.909 440 88S422.091 128 400 128zM432 184V328C432 341.255 421.255 352 408 352H104C90.745 352 80 341.255 80 328V184C80 170.745 90.745 160 104 160H408C421.255 160 432 170.745 432 184z"/>
            </g></svg>