<svg xmlns="http://www.w3.org/2000/svg" viewBox="0 0 448 512">
            <g transform="scale(1,-1) translate(0 -448)">
              <path d=" M436 288H12C5.4 288 0 293.4 0 300V336C0 362.5 21.5 384 48 384H96V436C96 442.6 101.4 448 108 448H148C154.6 448 160 442.6 160 436V384H288V436C288 442.6 293.4 448 300 448H340C346.6 448 352 442.6 352 436V384H400C426.5 384 448 362.5 448 336V300C448 293.4 442.6 288 436 288zM12 256H436C442.6 256 448 250.6 448 244V-16C448 -42.5 426.5 -64 400 -64H48C21.5 -64 0 -42.5 0 -16V244C0 250.6 5.4 256 12 256zM128 52C128 58.6 122.6 64 116 64H76C69.4 64 64 58.6 64 52V12C64 5.4 69.4 0 76 0H116C122.6 0 128 5.4 128 12V52zM128 180C128 186.6 122.6 192 116 192H76C69.4 192 64 186.6 64 180V140C64 133.4 69.4 128 76 128H116C122.6 128 128 133.4 128 140V180zM256 52C256 58.6 250.6 64 244 64H204C197.4 64 192 58.6 192 52V12C192 5.4 197.4 0 204 0H244C250.6 0 256 5.4 256 12V52zM256 180C256 186.6 250.6 192 244 192H204C197.4 192 192 186.6 192 180V140C192 133.4 197.4 128 204 128H244C250.6 128 256 133.4 256 140V180zM384 52C384 58.6 378.6 64 372 64H332C325.4 64 320 58.6 320 52V12C320 5.4 325.4 0 332 0H372C378.6 0 384 5.4 384 12V52zM384 180C384 186.6 378.6 192 372 192H332C325.4 192 320 186.6 320 180V140C320 133.4 325.4 128 332 128H372C378.6 128 384 133.4 384 140V180z"/>
            </g></svg>