<svg xmlns="http://www.w3.org/2000/svg" viewBox="0 0 448 512">
            <g transform="scale(1,-1) translate(0 -448)">
              <path d=" M436 288H12C5.4 288 0 293.4 0 300V336C0 362.5 21.5 384 48 384H96V436C96 442.6 101.4 448 108 448H148C154.6 448 160 442.6 160 436V384H288V436C288 442.6 293.4 448 300 448H340C346.6 448 352 442.6 352 436V384H400C426.5 384 448 362.5 448 336V300C448 293.4 442.6 288 436 288zM12 256H436C442.6 256 448 250.6 448 244V-16C448 -42.5 426.5 -64 400 -64H48C21.5 -64 0 -42.5 0 -16V244C0 250.6 5.4 256 12 256zM269.3 96L317.4000000000001 144.1C322.1 148.8 322.1 156.4 317.4000000000001 161.1L289.1 189.4C284.4000000000001 194.1 276.8 194.1 272.1 189.4L224 141.3L175.9 189.4C171.2 194.1 163.6 194.1 158.9 189.4L130.6 161.1C125.9 156.4 125.9 148.8 130.6 144.1L178.7 96L130.6 47.9C125.9 43.2 125.9 35.6 130.6 30.9L158.9 2.6C163.6 -2.1 171.2 -2.1 175.9 2.6L224 50.7L272.1 2.6C276.8 -2.1 284.4000000000001 -2.1 289.1 2.6L317.4000000000001 30.9C322.1 35.6 322.1 43.2 317.4000000000001 47.9L269.3 96z"/>
            </g></svg>