<svg xmlns="http://www.w3.org/2000/svg" viewBox="0 0 512 512">
            <g transform="scale(1,-1) translate(0 -448)">
              <path d=" M512 304V16C512 -10.5 490.5 -32 464 -32H48C21.5 -32 0 -10.5 0 16V304C0 330.5 21.5 352 48 352H136L148.3 384.9C155.3 403.6 173.2 416 193.2 416H318.7000000000001C338.7000000000001 416 356.6 403.6 363.6 384.9L376 352H464C490.5 352 512 330.5 512 304zM376 160C376 226.2 322.2 280 256 280S136 226.2 136 160S189.8 40 256 40S376 93.8 376 160zM344 160C344 111.5 304.5 72 256 72S168 111.5 168 160S207.5 248 256 248S344 208.5 344 160z"/>
            </g></svg>