<svg xmlns="http://www.w3.org/2000/svg" viewBox="0 0 512 512">
            <g transform="scale(1,-1) translate(0 -448)">
              <path d=" M48 416C21.5 416 0 394.5 0 368V16C0 -10.5 21.5 -32 48 -32H464C490.5 -32 512 -10.5 512 16V368C512 394.5 490.5 416 464 416H48zM48 384H154C157.3 384 160 381.3 160 378V358C160 354.7 157.3 352 154 352H38C34.7 352 32 354.7 32 358V368C32 376.8 39.2 384 48 384zM474 288H38C34.7 288 32 290.7 32 294V330C32 333.3 34.7 336 38 336H176L206.2 381.3C207.3 383 209.2 384 211.2 384H464C472.8 384 480 376.8 480 368V294C480 290.7 477.3 288 474 288zM256 24C189.8 24 136 77.8 136 144S189.8 264 256 264S376 210.2 376 144S322.2 24 256 24zM256 232C207.5 232 168 192.5 168 144S207.5 56 256 56S344 95.5 344 144S304.5 232 256 232zM208 128C199.2 128 192 135.2 192 144C192 179.3 220.7 208 256 208C264.8 208 272 200.8 272 192S264.8 176 256 176C238.4 176 224 161.6 224 144C224 135.2 216.8 128 208 128z"/>
            </g></svg>