<svg xmlns="http://www.w3.org/2000/svg" viewBox="0 0 512 512">
            <g transform="scale(1,-1) translate(0 -448)">
              <path d=" M500 64C506.6 64 512 58.6 512 52V12C512 5.4 506.6 0 500 0H12C5.4 0 0 5.4 0 12V372C0 378.6 5.4 384 12 384H52C58.6 384 64 378.6 64 372V64H500zM192 108V180C192 186.6 186.6 192 180 192H140C133.4 192 128 186.6 128 180V108C128 101.4 133.4 96 140 96H180C186.6 96 192 101.4 192 108zM384 108V244C384 250.6 378.6 256 372 256H332C325.4 256 320 250.6 320 244V108C320 101.4 325.4 96 332 96H372C378.6 96 384 101.4 384 108zM288 108V308C288 314.6 282.6 320 276 320H236C229.4 320 224 314.6 224 308V108C224 101.4 229.4 96 236 96H276C282.6 96 288 101.4 288 108zM480 108V340C480 346.6 474.6 352 468 352H428C421.4 352 416 346.6 416 340V108C416 101.4 421.4 96 428 96H468C474.6 96 480 101.4 480 108z"/>
            </g></svg>