<svg xmlns="http://www.w3.org/2000/svg" viewBox="0 0 512 512">
            <g transform="scale(1,-1) translate(0 -448)">
              <path d=" M500 64C506.6 64 512 58.6 512 52V12C512 5.4 506.6 0 500 0H12C5.4 0 0 5.4 0 12V372C0 378.6 5.4 384 12 384H52C58.6 384 64 378.6 64 372V64H500zM456 352H344C322.6 352 311.9 326.1 327 311L359.9 278.1L287.9 205.2L232.3 260.8C227.6 265.5 220.1 265.5 215.4 260.8L96.4 143C91.7 138.4 91.6 130.8 96.2 126.1L124.7 96.7000000000001C129.4 91.9 137.1 91.8000000000001 141.8 96.6L223.9 178.7000000000001L279.4 123.2000000000001C284.1 118.5000000000001 291.7 118.5000000000001 296.4 123.2000000000001L405.6 232.4000000000001L439 199C454.1 183.9 480 194.6 480 216V328C480 341.3 469.3 352 456 352z"/>
            </g></svg>