<svg xmlns="http://www.w3.org/2000/svg" viewBox="0 0 512 512">
            <g transform="scale(1,-1) translate(0 -448)">
              <path d=" M436 -64H76C69.373 -64 64 -58.627 64 -52V-28C64 -21.373 69.373 -16 76 -16H436C442.627 -16 448 -21.373 448 -28V-52C448 -58.627 442.627 -64 436 -64zM255.579 448C224.651 448 199.579 422.928 199.579 392S224.651 336 255.579 336S311.579 361.072 311.579 392S286.507 448 255.579 448zM460.147 293.366C454.3790000000001 296.411 447.2310000000001 294.298 444.0650000000001 288.596C435.4490000000001 273.0800000000001 421.3180000000001 250.795 400.0000000000001 250.795C371.2860000000001 250.795 369.3750000000001 270.5990000000001 368.3140000000001 308.337C368.1310000000001 314.829 362.8130000000001 320.0010000000001 356.3190000000001 320.0010000000001H315.3130000000001C310.1380000000001 320.0010000000001 305.5590000000001 316.673 303.9250000000002 311.7630000000001C295.0350000000002 285.0540000000001 277.8520000000002 270.7710000000001 256.0000000000001 270.7710000000001S216.9660000000001 285.0540000000001 208.0750000000001 311.7630000000001C206.4410000000001 316.673 201.8620000000001 320.0010000000001 196.6870000000001 320.0010000000001H155.6820000000001C149.1870000000001 320.0010000000001 143.8690000000001 314.827 143.6870000000001 308.3340000000001C142.6350000000001 270.692 140.7530000000001 250.795 111.9990000000001 250.795C91.3080000000001 250.795 78.1820000000001 271.019 67.5740000000001 288.8200000000001C64.3080000000001 294.3 57.3160000000001 296.2510000000001 51.6750000000001 293.273L12.4960000000001 272.5940000000001A12 12 0 0 1 6.9860000000001 257.449L112 0H400L505.014 257.448A12 12 0 0 1 499.504 272.593L460.147 293.366z"/>
            </g></svg>