<svg xmlns="http://www.w3.org/2000/svg" viewBox="0 0 320 512">
            <g transform="scale(1,-1) translate(0 -448)">
              <path d=" M264 0H56S116 42.743 116 176H84C77.373 176 72 181.373 72 188V212C72 218.627 77.373 224 84 224H124.209C95.721 237.44 76 266.4120000000001 76 300C76 346.392 113.608 384 160 384S244 346.392 244 300C244 266.4120000000001 224.279 237.44 195.791 224H236C242.627 224 248 218.627 248 212V188C248 181.373 242.627 176 236 176H204C204 42.743 264 0 264 0zM292 -16H28C21.373 -16 16 -21.373 16 -28V-52C16 -58.627 21.373 -64 28 -64H292C298.627 -64 304 -58.627 304 -52V-28C304 -21.373 298.627 -16 292 -16z"/>
            </g></svg>