<svg xmlns="http://www.w3.org/2000/svg" viewBox="0 0 448 512">
            <g transform="scale(1,-1) translate(0 -448)">
              <path d=" M416 -28V-52C416 -58.627 410.627 -64 404 -64H44C37.373 -64 32 -58.627 32 -52V-28C32 -21.373 37.373 -16 44 -16H404C410.627 -16 416 -21.373 416 -28zM407.967 296H248V344H298A6 6 0 0 1 304 350V386A6 6 0 0 1 298 392H248V442A6 6 0 0 1 242 448H206A6 6 0 0 1 200 442V392H150A6 6 0 0 1 144 386V350A6 6 0 0 1 150 344H200V296H40.033C12.459 296 -6.846 268.756 2.295 242.741L87.582 0H360.418L445.7050000000001 242.741C454.846 268.756 435.541 296 407.967 296z"/>
            </g></svg>