<svg xmlns="http://www.w3.org/2000/svg" viewBox="0 0 512 512">
            <g transform="scale(1,-1) translate(0 -448)">
              <path d=" M256 -56C119 -56 8 55 8 192S119 440 256 440S504 329 504 192S393 -56 256 -56zM142.1 175L277.6 39.5C287 30.1 302.2000000000001 30.1 311.5 39.5L328.5 56.5C337.9 65.9 337.9 81.1 328.5 90.4L226.9 192L328.5 293.6C337.9 303 337.9 318.2 328.5 327.5L311.5 344.5C302.1 353.9 286.9 353.9 277.6 344.5L142.1 209C132.7 199.6 132.7 184.4 142.1 175z"/>
            </g></svg>