<svg xmlns="http://www.w3.org/2000/svg" viewBox="0 0 384 512">
            <g transform="scale(1,-1) translate(0 -448)">
              <path d=" M384 336V-16C384 -42.51 362.51 -64 336 -64H48C21.49 -64 0 -42.51 0 -16V336C0 362.51 21.49 384 48 384H128C128 419.29 156.71 448 192 448S256 419.29 256 384H336C362.51 384 384 362.51 384 336zM192 408C178.745 408 168 397.255 168 384S178.745 360 192 360S216 370.745 216 384S205.255 408 192 408M288 294V314A6 6 0 0 1 282 320H102A6 6 0 0 1 96 314V294A6 6 0 0 1 102 288H282A6 6 0 0 1 288 294z"/>
            </g></svg>