<svg xmlns="http://www.w3.org/2000/svg" viewBox="0 0 640 512">
            <g transform="scale(1,-1) translate(0 -448)">
              <path d=" M537.585 221.44C541.725 232.164 544 243.816 544 256C544 309.019 501.019 352 448 352C428.271 352 409.935 346.046 394.684 335.841C367.042 383.752 315.288 416 256 416C167.634 416 96 344.366 96 256C96 253.272 96.07 250.561 96.204 247.867C40.171 228.155 0 174.773 0 112C0 32.471 64.471 -32 144 -32H512C582.692 -32 640 25.308 640 96C640 157.93 596.017 209.586 537.585 221.44z"/>
            </g></svg>