<svg xmlns="http://www.w3.org/2000/svg" viewBox="0 0 640 512">
            <g transform="scale(1,-1) translate(0 -448)">
              <path d=" M278.9 -63.5L217.9 -45.8C211.5 -44 207.9 -37.3 209.7 -30.9L346.2 439.3C348 445.7 354.7 449.3 361.1 447.5L422.1 429.8C428.5 428 432.1 421.3 430.3 414.9L293.8 -55.3C291.9000000000001 -61.7 285.3 -65.4 278.9000000000001 -63.5zM164.9 48.7L208.4 95.1C213 99.9999999999999 212.7 107.8 207.6 112.3L117 192L207.6 271.7C212.7 276.2 213.1 284 208.4 288.9L164.9 335.3C160.4 340.1 152.8 340.4 147.9 335.8L3.8 200.8C-1.3 196.1 -1.3 188 3.8 183.3L147.9 48.2C152.8 43.6 160.4 43.8000000000001 164.9 48.7zM492.1 48.1L636.1999999999999 183.1999999999999C641.3 187.8999999999999 641.3 196 636.1999999999999 200.6999999999999L492.1 335.9C487.3 340.4 479.7 340.2 475.1 335.4L431.6 289C427 284.1 427.3 276.3 432.4000000000001 271.8L523 192L432.4 112.3C427.3 107.8 426.9 100 431.6 95.1L475.1 48.7C479.6 43.8000000000001 487.2 43.6 492.1 48.1z"/>
            </g></svg>