<svg xmlns="http://www.w3.org/2000/svg" viewBox="0 0 640 512">
            <g transform="scale(1,-1) translate(0 -448)">
              <path d=" M512.1 257L503.9 242.7C500.9 237.4 494.5000000000001 235.2 488.8 237.3C477 241.7 466.2 248 456.7 255.9C452.1 259.7 450.9 266.4 453.9 271.6L462.1 285.9C455.2 293.9 449.8 303.2 446.2 313.3H429.7C423.7 313.3 418.5 317.6 417.5 323.6C415.5 335.6 415.4 348.2 417.5 360.7C418.5 366.7 423.7 371.1 429.7 371.1H446.2C449.8 381.2 455.2 390.5 462.1 398.5L453.9 412.8C450.9 418 452 424.7 456.7 428.5C466.2 436.4 477.1 442.7 488.8 447.1C494.5 449.2 500.9 447 503.9 441.7L512.1 427.4C522.6 429.3 533.3000000000001 429.3 543.8000000000001 427.4L552 441.7C555 447 561.4 449.2 567.1 447.1C578.9 442.7 589.7 436.4 599.2 428.5C603.8000000000001 424.7 605 418 602 412.8L593.8 398.5C600.6999999999999 390.5 606.0999999999999 381.2 609.6999999999999 371.1H626.1999999999999C632.1999999999999 371.1 637.4 366.8 638.4 360.8C640.4 348.8 640.5 336.2 638.4 323.7C637.4 317.7 632.1999999999999 313.3 626.1999999999999 313.3H609.6999999999999C606.0999999999999 303.2 600.6999999999999 293.9 593.8 285.9L602 271.6C605 266.4 603.9 259.7 599.2 255.9C589.7 248 578.8000000000001 241.7 567.1 237.3C561.4 235.2 555 237.4 552 242.7L543.8 257C533.4 255.1 522.5999999999999 255.1 512.0999999999999 257zM501.6 315.8C540.1 286.2000000000001 584 330.1 554.4 368.6C515.9 398.3 472 354.3 501.6 315.8zM386.3 161.9L420 145.1C430.1 139.3 434.5 127 430.5 116C421.6 91.8 404.1 69.6 387.9 50.1999999999999C380.5 41.3 367.7 39.0999999999999 357.6 44.8999999999999L328.5 61.6999999999999C312.5 47.9999999999999 293.8999999999999 37.0999999999999 273.6 29.9999999999999V-3.6000000000001C273.6 -15.2000000000001 265.3 -25.2000000000001 253.9 -27.2000000000001C229.3 -31.4000000000001 203.5 -31.6000000000001 178 -27.2000000000001C166.5 -25.2000000000001 158 -15.3000000000001 158 -3.6000000000001V30C137.7 37.2 119.1 48 103.1 61.7L74 45C64 39.2 51.1 41.4 43.7 50.3C27.5 69.7 10.4 91.9 1.5 116C-2.5 126.9 1.9 139.2 12 145.1L45.3 161.9C41.4 182.8 41.4 204.3000000000001 45.3 225.3000000000001L12 242.2C1.9 248 -2.6 260.3 1.5 271.2C10.4 295.4 27.5 317.6 43.7 337C51.1 345.9 63.9 348.1 74 342.3L103.1 325.5C119.1 339.2 137.7 350.1 158 357.2V390.9C158 402.4 166.2 412.4 177.6 414.4C202.2 418.6 228.1 418.8 253.6 414.5C265.1 412.5 273.6 402.6 273.6 390.9V357.3C293.9000000000001 350.1 312.5 339.3 328.5 325.6L357.6 342.4C367.6 348.2 380.5 346 387.9000000000001 337.1C404.1 317.7 421.1 295.5 430.0000000000001 271.3C434.0000000000001 260.4 430.1000000000001 248.1 420.0000000000001 242.2L386.3000000000001 225.4C390.2000000000001 204.4 390.2000000000001 182.9 386.3000000000001 161.9zM268.7000000000001 140.8C327.9000000000001 217.8 240.0000000000001 305.7 163.0000000000001 246.5C103.8000000000001 169.5 191.7000000000001 81.5999999999999 268.7000000000001 140.8zM512.1 -41.9L503.9 -56.2C500.9 -61.5000000000001 494.5000000000001 -63.7 488.8 -61.6C477 -57.2 466.2 -50.9 456.7 -43C452.1 -39.2 450.9 -32.5 453.9 -27.3L462.1 -13C455.2 -5 449.8 4.3 446.2 14.4H429.7C423.7 14.4 418.5 18.7 417.5 24.7C415.5 36.7 415.4 49.3 417.5 61.8C418.5 67.8 423.7 72.2 429.7 72.2H446.2C449.8 82.3 455.2 91.6 462.1 99.6L453.9 113.9C450.9 119.1 452 125.8 456.7 129.6C466.2 137.5 477.1 143.8 488.8 148.2C494.5 150.3 500.9 148.1 503.9 142.8L512.1 128.5C522.6 130.4 533.3000000000001 130.4 543.8000000000001 128.5L552.0000000000001 142.8C555.0000000000001 148.1 561.4000000000001 150.3 567.1000000000001 148.2C578.9000000000001 143.8 589.7000000000002 137.5 599.2000000000002 129.6C603.8000000000002 125.8 605.0000000000001 119.1 602.0000000000001 113.9L593.8000000000001 99.6C600.7 91.6 606.1 82.3 609.7 72.2H626.2C632.2 72.2 637.4000000000001 67.9 638.4000000000001 61.9C640.4000000000001 49.9 640.5000000000001 37.3 638.4000000000001 24.8C637.4000000000001 18.8 632.2 14.4 626.2 14.4H609.7C606.1 4.3 600.7 -5 593.8000000000001 -13L602.0000000000001 -27.3C605.0000000000001 -32.5 603.9000000000001 -39.2 599.2000000000002 -43C589.7000000000002 -50.9 578.8000000000002 -57.2 567.1000000000001 -61.6C561.4000000000001 -63.7 555.0000000000001 -61.5 552.0000000000001 -56.2L543.8000000000001 -41.9C533.4000000000001 -43.8 522.6 -43.8 512.1 -41.9zM501.6 17C540.1 -12.6 584 31.3 554.4 69.8C515.9 99.4 472 55.5 501.6 17z"/>
            </g></svg>