<svg xmlns="http://www.w3.org/2000/svg" viewBox="0 0 576 512">
            <g transform="scale(1,-1) translate(0 -448)">
              <path d=" M576 208C576 93 447 0 288 0C239.7 0 194.1 8.6 154.1 23.8C113.8 -7.4 64.3 -26.5 11.7 -31.9C6.5 -32.5 1.5 -29.1 0.2 -24.2C-1.1 -19.2 2.9 -16.1 6.8 -12.4C26.1 6 49.5 20.4 58.7 82.2000000000001C21.9 117.1 0 160.7 0 208C0 322.9 129 416 288 416S576 322.9 576 208zM160 256C133.5 256 112 234.5 112 208S133.5 160 160 160S208 181.5 208 208S186.5 256 160 256zM288 256C261.5 256 240 234.5 240 208S261.5 160 288 160S336 181.5 336 208S314.5 256 288 256zM416 256C389.5 256 368 234.5 368 208S389.5 160 416 160S464 181.5 464 208S442.5 256 416 256z"/>
            </g></svg>