<svg xmlns="http://www.w3.org/2000/svg" viewBox="0 0 512 512">
            <g transform="scale(1,-1) translate(0 -448)">
              <path d=" M504 192C504 55.033 392.967 -56 256 -56S8 55.033 8 192S119.033 440 256 440S504 328.967 504 192zM307.4460000000001 327.156L204.804 229.377A23.997 23.997 0 0 1 198.0320000000001 217.648L164.673 79.869C158.993 56.41 187.4500000000001 40.551 204.553 56.845L307.1930000000001 154.624A23.99 23.99 0 0 1 313.9650000000001 166.353L347.324 304.132C352.942 327.3300000000001 324.733 343.625 307.4460000000001 327.156zM256 224C238.327 224 224 209.673 224 192S238.327 160 256 160S288 174.327 288 192S273.673 224 256 224z"/>
            </g></svg>