<svg xmlns="http://www.w3.org/2000/svg" viewBox="0 0 512 512">
            <g transform="scale(1,-1) translate(0 -448)">
              <path d=" M488 96H448V338.7L505 395.7C514.4 405.1 514.4 420.3 505 429.6L493.7 441C484.3 450.4 469.1 450.4 459.8 441L402.8 384H160V424C160 437.3 149.3 448 136 448H88C74.7 448 64 437.3 64 424V384H24C10.7 384 0 373.3 0 360V312C0 298.7 10.7 288 24 288H64V24C64 10.7 74.7 0 88 0H352V-40C352 -53.3 362.7 -64 376 -64H424C437.3 -64 448 -53.3 448 -40V0H488C501.3 0 512 10.7 512 24V72C512 85.3 501.3 96 488 96zM306.7 288L160 141.3V288H306.7zM205.3 96L352 242.7V96H205.3z"/>
            </g></svg>