<svg xmlns="http://www.w3.org/2000/svg" viewBox="0 0 448 512">
            <g transform="scale(1,-1) translate(0 -448)">
              <path d=" M447.9 430.1C449 439.6 441.6 447.9 432 447.9L399.6 448C391.5 448 384.7000000000001 442.1 383.6 434.1C382.9000000000001 429.2 381.8 423 380.2000000000001 416H67.9C66.3 422.9 65 429.2 64.4 434.1C63.3 442.1 56.5 448.1 48.4 448L16.1 447.9C6.5 447.9 -1 439.6 0.1 430.1C4.7 392.2 25.7 301.1 119 222.4C136.6 234.8 156.1 246.6 177.5 257.8C171.3 262.4 166.1 267.2000000000001 160.5 272H288.1C266.8 253.9 241.1 236.4 209.4 220.6C37.5 135.1 5.9 1.8 0.1 -46.1C-1 -55.6 6.4 -63.9 16 -63.9L48.3 -64C56.4 -64 63.2 -58.1 64.3 -50.1C65 -45.2 66.1 -39 67.7 -32H380.1C381.7 -39 382.8 -45.1 383.5 -50.1C384.6 -58.1 391.3999999999999 -64.1 399.5 -64L431.8 -63.9C441.4 -63.9 448.9 -55.6 447.7 -46.1C442.7 -3.2 416.5999999999999 107.8000000000001 288 192C416.5 276.2 442.7 387.2 447.9 430.1zM224 155.6C249.1 141.9 270.4 127.2000000000001 288.3 112H159.7C177.6 127.2 198.9 142 224 155.6zM92.9 32C98.7 42.4 105.7 53.1 113.9 64H333.9C342.2 53.1 349.2 42.4 354.9 32H92.9zM355.1 352C349.3 341.6 342.3 330.9 334.1 320H114.6C106.3 330.9 99.2 341.6 93.4 352H355.1z"/>
            </g></svg>