<svg xmlns="http://www.w3.org/2000/svg" viewBox="0 0 320 512">
            <g transform="scale(1,-1) translate(0 -448)">
              <path d=" M113.411 278.625C113.411 301.962 134.947 317.0420000000001 168.276 317.0420000000001C195.002 317.0420000000001 222.392 304.779 244.737 288.709C250.617 284.48 258.867 286.355 262.312 292.726L285.8640000000001 336.275C288.5130000000001 341.173 287.4600000000001 347.266 283.2890000000001 350.9550000000001C259.0080000000001 372.432 224.1540000000001 385.045 192.0000000000001 388.761V436C192.0000000000001 442.627 186.6270000000001 448 180.0000000000001 448H140.0000000000001C133.3730000000001 448 128.0000000000001 442.627 128.0000000000001 436V386.168C69.3730000000001 372.878 30.7010000000001 330.251 30.7010000000001 277.529C30.7010000000001 153.996 215.466 166.719 215.466 108.115C215.466 88.292 199.155 66.957 163.3420000000001 66.957C132.591 66.957 100.41 82.837 75.494 102.844C70.184 107.108 62.412 106.159 58.335 100.704L27.946 60.037C24.319 55.1830000000001 24.871 48.3800000000001 29.248 44.1900000000001C53.297 21.1700000000001 88.497 2.9350000000001 127.9990000000001 -3.783V-52C127.9990000000001 -58.627 133.3720000000001 -64 139.9990000000001 -64H179.9990000000001C186.6260000000001 -64 191.9990000000001 -58.627 191.9990000000001 -52V-4.562C257.7190000000001 5.653 298.1750000000001 54.624 298.1750000000001 111.954C298.1760000000001 231.642 113.4110000000001 215.661 113.4110000000001 278.625z"/>
            </g></svg>