<svg xmlns="http://www.w3.org/2000/svg" viewBox="0 0 576 512">
            <g transform="scale(1,-1) translate(0 -448)">
              <path d=" M294.2 170.3C312.2 165.3 328.9 156.9 343.7 145.6L505.2 199.4C513.6 202.2000000000001 518.1 211.3000000000001 515.3 219.6L454.9 400.8C452.1 409.2 443 413.7 434.7 410.9L373.6 390.5L406.7 291.1L346 271L312.9 370.4L251.3 349.9C242.9 347.1 238.4 338 241.2 329.7L294.2 170.3zM575.2 121.6L565 152C562.2 160.4 553.1 164.9 544.8 162.1L331.3 90.9C314.1 112.9 287.7 127.3 257.8 127.9L158.4 426.1C154 439.2 141.8 448 128 448H16C7.2 448 0 440.8 0 432V400C0 391.2 7.2 384 16 384H104.9L197.1 107.3C171 86.9 155.4 53.7 161.1 16.8C167.2 -22.6 199 -55.5 238.4000000000001 -62.4C298.6 -73.1 350.7000000000001 -27.6 351.8000000000001 30.2L565.1000000000001 101.4C573.4000000000001 104.2000000000001 578.0000000000001 113.2000000000001 575.2000000000002 121.6zM256 -16C229.5 -16 208 5.5 208 32S229.5 80 256 80S304 58.5 304 32S282.5 -16 256 -16z"/>
            </g></svg>