<svg xmlns="http://www.w3.org/2000/svg" viewBox="0 0 640 512">
            <g transform="scale(1,-1) translate(0 -448)">
              <path d=" M208 128H592C600.8 128 608 135.2 608 144V400C608 408.8 600.8 416 592 416H448V288L400 320L352 288V416H208C199.2 416 192 408.8 192 400V144C192 135.2 199.2 128 208 128zM624 64H128V432C128 440.8 120.8 448 112 448H16C7.2 448 0 440.8 0 432V400C0 391.2 7.2 384 16 384H64V16C64 7.2 71.2 0 80 0H162.9C161.1 -5 160 -10.4 160 -16C160 -42.5 181.5 -64 208 -64S256 -42.5 256 -16C256 -10.4 254.8 -5 253.1 0H451C449.2 -5 448.1 -10.4 448.1 -16C448.1 -42.5 469.6 -64 496.1 -64S544.1 -42.5 544.1 -16C544.1 -10.4 542.9 -5 541.2 0H624C632.8 0 640 7.2 640 16V48C640 56.8 632.8 64 624 64z"/>
            </g></svg>