<svg xmlns="http://www.w3.org/2000/svg" viewBox="0 0 320 512">
            <g transform="scale(1,-1) translate(0 -448)">
              <path d=" M310.706 34.235C309.392 40.865 302.8710000000001 45.107 296.2820000000001 43.604C285.5900000000001 41.165 268.86 38.191 250.8560000000001 38.191C194.0930000000001 38.191 148.9270000000001 72.9810000000001 129.3950000000001 123.6400000000001H243.0840000000001A12 12 0 0 1 254.7920000000001 133.009L261.165 161.369C262.851 168.8710000000001 257.146 176 249.457 176H115.22C114.01 190.328 113.806 204.287 115.357 218.245H261.95A12 12 0 0 1 273.673 227.679L280.185 257.434C281.823 264.918 276.124 272 268.462 272H130.184C150.817 316.991 192.874 347.03 247.803 347.03C262.289 347.03 276.367 344.78 285.654 342.885C291.87 341.617 298.001 345.3830000000001 299.656 351.5080000000001L311.647 395.8760000000001C313.469 402.617 309.182 409.492 302.321 410.793C290.217 413.088 270.71 416 249.635 416C152.451 416 74.03 355.748 45.075 272H12C5.373 272 0 266.627 0 260V230.245C0 223.618 5.373 218.245 12 218.245H33.569C32.56 204.638 32.388 188.958 33.388 176H12C5.373 176 0 170.627 0 164V135.64C0 129.013 5.373 123.64 12 123.64H42.114C67.139 33.308 145.264 -32 249.635 -32C275.936 -32 298.197 -27.456 310.736 -24.212C316.903 -22.617 320.763 -16.504 319.524 -10.255L310.706 34.235z"/>
            </g></svg>