<svg xmlns="http://www.w3.org/2000/svg" viewBox="0 0 576 512">
            <g transform="scale(1,-1) translate(0 -448)">
              <path d=" M569.517 7.987C587.975 -24.007 564.806 -64 527.94 -64H48.054C11.117 -64 -11.945 -23.945 6.477 7.987L246.423 424.015C264.89 456.024 311.1430000000001 455.966 329.577 424.015L569.517 7.987zM288 94C262.5950000000001 94 242 73.405 242 48S262.5950000000001 2 288 2S334 22.595 334 48S313.405 94 288 94zM244.327 259.346L251.745 123.346C252.092 116.982 257.354 112 263.727 112H312.273C318.646 112 323.908 116.982 324.255 123.346L331.673 259.346C332.048 266.2200000000001 326.575 272 319.6910000000001 272H256.3080000000001C249.4240000000001 272 243.9520000000001 266.2200000000001 244.3270000000001 259.346z"/>
            </g></svg>