<svg xmlns="http://www.w3.org/2000/svg" viewBox="0 0 448.1 512">
            <g transform="scale(1,-1) translate(0 -448)">
              <path d=" M448.1 104V-8C448.1 -21.3 437.4000000000001 -32 424.1 -32H312.1C290.7000000000001 -32 280 -6.1 295.1 9L331.3 45.2L224 152.4L116.8 45.1L153 9C168.1 -6.1 157.4 -32 136 -32H24C10.7 -32 0 -21.3 0 -8V104C0 125.4 25.9 136.1 41 121L77.2 84.8L184.5 192L77.2 299.3L41 263C25.9 247.9 0 258.6 0 280V392C0 405.3 10.7 416 24 416H136C157.4 416 168.1 390.1 153 375L116.8 338.8L224 231.6L331.3 338.9L295.1 375C280 390.1 290.7000000000001 416 312.1 416H424.1C437.4000000000001 416 448.1 405.3 448.1 392V280C448.1 258.6 422.2000000000001 247.9 407.1 263L370.9000000000001 299.2L263.6 192L370.9000000000001 84.7L407.1 120.9C422.2000000000001 136.1 448.1 125.4 448.1 104z"/>
            </g></svg>