<svg xmlns="http://www.w3.org/2000/svg" viewBox="0 0 448 512">
            <g transform="scale(1,-1) translate(0 -448)">
              <path d=" M0 268V392C0 405.3 10.7 416 24 416H148C154.6 416 160 410.6 160 404V364C160 357.4 154.6 352 148 352H64V268C64 261.4 58.6 256 52 256H12C5.4 256 0 261.4 0 268zM288 404V364C288 357.4 293.4 352 300 352H384V268C384 261.4 389.4 256 396 256H436C442.6 256 448 261.4 448 268V392C448 405.3 437.3 416 424 416H300C293.4 416 288 410.6 288 404zM436 128H396C389.4 128 384 122.6 384 116V32H300C293.4 32 288 26.6 288 20V-20C288 -26.6 293.4 -32 300 -32H424C437.3 -32 448 -21.3 448 -8V116C448 122.6 442.6 128 436 128zM160 -20V20C160 26.6 154.6 32 148 32H64V116C64 122.6 58.6 128 52 128H12C5.4 128 0 122.6 0 116V-8C0 -21.3 10.7 -32 24 -32H148C154.6 -32 160 -26.6 160 -20z"/>
            </g></svg>