<svg xmlns="http://www.w3.org/2000/svg" viewBox="0 0 512 512">
            <g transform="scale(1,-1) translate(0 -448)">
              <path d=" M177.38 241.36L39.03 103.03A24.01 24.01 0 0 1 32 86.06V24L0 -32L32 -64L88 -32H150.06C156.42 -32 162.53 -29.47 167.03 -24.97L305.38 113.36L177.38 241.36zM402.932 210.89L419.884 193.94C429.254 184.5700000000001 429.254 169.37 419.884 160L378.911 119.03C369.6190000000001 109.718 354.405 109.596 344.971 119.03L183.028 280.9700000000001C173.658 290.3400000000001 173.658 305.54 183.028 314.91L224 355.88C233.289 365.189 248.502 365.318 257.94 355.88L274.932 338.89L357.538 421.491C392.728 456.681 450.038 456.991 485.538 421.491C526.028 373.411 515.198 323.151 485.538 293.491L402.932 210.89z"/>
            </g></svg>