<svg xmlns="http://www.w3.org/2000/svg" viewBox="0 0 576 512">
            <g transform="scale(1,-1) translate(0 -448)">
              <path d=" M569.354 216.369C512.969 312.051 407.81 376 288 376C168.14 376 63.004 312.006 6.646 216.369A47.999 47.999 0 0 1 6.646 167.63C63.031 71.949 168.19 8 288 8C407.86 8 512.996 71.994 569.354 167.631A47.997 47.997 0 0 1 569.354 216.369zM288 56C212.838 56 152 116.827 152 192C152 267.1620000000001 212.826 328 288 328C363.1620000000001 328 424 267.174 424 192C424 116.838 363.174 56 288 56zM392 192C392 134.562 345.438 88 288 88S184 134.562 184 192C184 209.708 188.431 226.379 196.236 240.973L196.235 240.941C196.235 217.29 215.408 198.118 239.059 198.118S281.883 217.291 281.883 240.941C281.883 264.592 262.71 283.765 239.059 283.765L239.027 283.764C253.621 291.569 270.292 296 288 296C345.438 296 392 249.438 392 192z"/>
            </g></svg>