<svg xmlns="http://www.w3.org/2000/svg" viewBox="0 0 512 512">
            <g transform="scale(1,-1) translate(0 -448)">
              <path d=" M128 304V-16C128 -42.51 106.51 -64 80 -64H48C21.49 -64 0 -42.51 0 -16V304C0 330.51 21.49 352 48 352H80C106.51 352 128 330.51 128 304zM512 240V-16C512 -42.51 490.51 -64 464 -64H192C165.49 -64 144 -42.51 144 -16V408C144 430.091 161.909 448 184 448H391.432A39.996 39.996 0 0 0 419.716 436.284L468.285 387.715A39.999 39.999 0 0 0 480 359.432V285.258C498.641 278.667 512 260.898 512 240zM192 256H432V352H408C394.7970000000001 352 384 362.7970000000001 384 376V400H192V256zM288 52C288 58.627 282.627 64 276 64H236C229.373 64 224 58.627 224 52V12C224 5.373 229.373 0 236 0H276C282.627 0 288 5.373 288 12V52zM288 180C288 186.627 282.627 192 276 192H236C229.373 192 224 186.627 224 180V140C224 133.373 229.373 128 236 128H276C282.627 128 288 133.373 288 140V180zM416 52C416 58.627 410.627 64 404 64H364C357.373 64 352 58.627 352 52V12C352 5.373 357.373 0 364 0H404C410.627 0 416 5.373 416 12V52zM416 180C416 186.627 410.627 192 404 192H364C357.373 192 352 186.627 352 180V140C352 133.373 357.373 128 364 128H404C410.627 128 416 133.373 416 140V180z"/>
            </g></svg>