<svg xmlns="http://www.w3.org/2000/svg" viewBox="0 0 384 512">
            <g transform="scale(1,-1) translate(0 -448)">
              <path d=" M384 326.059V320H256V448H262.0590000000001C268.4240000000001 448 274.5290000000001 445.471 279.0300000000001 440.971L376.971 343.03A24.005 24.005 0 0 0 384 326.059zM248 288C234.8 288 224 298.8 224 312V448H24C10.745 448 0 437.255 0 424V-40C0 -53.255 10.745 -64 24 -64H360C373.255 -64 384 -53.255 384 -40V288H248zM123.206 47.495A5.4 5.4 0 0 0 115.573 47.249L50.707 108.061A5.4 5.4 0 0 0 50.707 115.9400000000001L115.573 176.7520000000001A5.4 5.4 0 0 0 123.206 176.5060000000001L142.785 155.6210000000001A5.4 5.4 0 0 0 142.413 147.8740000000001L101.65 112L142.413 76.126A5.4 5.4 0 0 0 142.785 68.379L123.206 47.495zM174.501 -2.984L147.048 4.986A5.401999999999999 5.401999999999999 0 0 0 143.367 11.6780000000001L204.807 223.3040000000001A5.401999999999999 5.401999999999999 0 0 0 211.499 226.9850000000001L238.951 219.0150000000001A5.4 5.4 0 0 0 242.631 212.3230000000001L181.191 0.6970000000001A5.396999999999999 5.396999999999999 0 0 0 174.501 -2.9839999999999zM335.293 108.061L270.427 47.249A5.4 5.4 0 0 0 262.7940000000001 47.495L243.2140000000001 68.38A5.4 5.4 0 0 0 243.5860000000001 76.127L284.35 112L243.587 147.874A5.4 5.4 0 0 0 243.215 155.6210000000001L262.795 176.506A5.4 5.4 0 0 0 270.428 176.752L335.294 115.94A5.4 5.4 0 0 0 335.293 108.061z"/>
            </g></svg>