<svg xmlns="http://www.w3.org/2000/svg" viewBox="0 0 384 512">
            <g transform="scale(1,-1) translate(0 -448)">
              <path d=" M224 312V448H160.4V416H128.4V448H24C10.7 448 0 437.3 0 424V-40C0 -53.3 10.7 -64 24 -64H360C373.3 -64 384 -53.3 384 -40V288H248C234.8 288 224 298.8 224 312zM95.9 416H127.9V384H95.9V416zM128.2 32C95 32 70.2 62.4 76.8 94.9L96.4 192V224H128.4V256H96.4V288H128.4V320H96.4V352H128.4V384H160.4V352H128.4V320H160.4V288H128.4V256H160.4V224H128.4V192H150.5C156.2 192 161.2 187.9 162.3 182.3L179.6 94.6C186 62.2000000000001 161.2 32 128.2 32zM160.9 85C160.9 70.1 146.4 58 128.5 58S96 70 96 85C96 99.9 110.5 112 128.4 112S160.9 99.9 160.9 85zM384 326.1V320H256V448H262.1C268.5 448 274.6 445.5 279.1 441L377 343C381.5 338.5 384 332.4 384 326.1z"/>
            </g></svg>