<svg xmlns="http://www.w3.org/2000/svg" viewBox="0 0 384 512">
            <g transform="scale(1,-1) translate(0 -448)">
              <path d=" M193.7 176.8C202.5 176.8 209.2 174.1 214 168.7C223.6 157.8 223.8 136 213.8 124.6C208.9 119 201.9 116.1 192.7 116.1H165.8V176.8H193.7zM377 343L279 441C274.5 445.5 268.4 448 262 448H256V320H384V326.1C384 332.4 381.5 338.5 377 343zM224 312V448H24C10.7 448 0 437.3 0 424V-40C0 -53.3 10.7 -64 24 -64H360C373.3 -64 384 -53.3 384 -40V288H248C234.8 288 224 298.8 224 312zM277 146.8C277 56.5 188.2 69.2000000000001 165.9 69.2000000000001V12C165.9 5.4 160.5 0 153.9 0H123.1C116.5 0 111.1 5.4 111.1 12V211.8C111.1 218.4 116.5 223.8 123.1 223.8H204.1C248.6 223.8 277 191 277 146.8z"/>
            </g></svg>