<svg xmlns="http://www.w3.org/2000/svg" viewBox="0 0 384 512">
            <g transform="scale(1,-1) translate(0 -448)">
              <path d=" M224 312V448H24C10.7 448 0 437.3 0 424V-40C0 -53.3 10.7 -64 24 -64H360C373.3 -64 384 -53.3 384 -40V288H248C234.8 288 224 298.8 224 312zM160 44C160 33.3 147.1 28 139.5 35.5L104 72H76C69.4 72 64 77.4 64 84V140C64 146.6 69.4 152 76 152H104L139.5 188.5C147.1 196.1 160 190.7 160 180V44zM193.2 91.6C202.3 100.9 202.3 115.7000000000001 193.2 125C171.1 147.8 205.4 181.2 227.6 158.5C254.8 130.6 254.8 86.1 227.6 58.1C205.8 35.8 170.7 68.5 193.2 91.6zM279.2 208.7C333.6 152.8 333.6 63.9 279.2 7.9C257.4 -14.5 222.2 18.2 244.8 41.4C281 78.6 281.1 137.9 244.8 175.2C222.7 198 257.1 231.5 279.2 208.7zM384 326.1V320H256V448H262.1C268.5 448 274.6 445.5 279.1 441L377 343C381.5 338.5 384 332.4 384 326.1z"/>
            </g></svg>