<svg xmlns="http://www.w3.org/2000/svg" viewBox="0 0 384 512">
            <g transform="scale(1,-1) translate(0 -448)">
              <path d=" M224 312V448H24C10.7 448 0 437.3 0 424V-40C0 -53.3 10.7 -64 24 -64H360C373.3 -64 384 -53.3 384 -40V288H248C234.8 288 224 298.8 224 312zM288 76C288 69.4 282.6 64 276 64H108C101.4 64 96 69.4 96 76V84C96 90.6 101.4 96 108 96H276C282.6 96 288 90.6 288 84V76zM288 140C288 133.4 282.6 128 276 128H108C101.4 128 96 133.4 96 140V148C96 154.6 101.4 160 108 160H276C282.6 160 288 154.6 288 148V140zM288 212V204C288 197.4 282.6 192 276 192H108C101.4 192 96 197.4 96 204V212C96 218.6 101.4 224 108 224H276C282.6 224 288 218.6 288 212zM384 326.1V320H256V448H262.1C268.5 448 274.6 445.5 279.1 441L377 343C381.5 338.5 384 332.4 384 326.1z"/>
            </g></svg>