<svg xmlns="http://www.w3.org/2000/svg" viewBox="0 0 384 512">
            <g transform="scale(1,-1) translate(0 -448)">
              <path d=" M224 312V448H24C10.7 448 0 437.3 0 424V-40C0 -53.3 10.7 -64 24 -64H360C373.3 -64 384 -53.3 384 -40V288H248C234.8 288 224 298.8 224 312zM284.1 205.5L224 112L284.1 18.5C289.2000000000001 10.5 283.5 0 274 0H239.1C234.7 0 230.6 2.4 228.5 6.3C208.9 42.5 192 75 192 75C185.6 60.2 182 55 155.4 6.2C153.3 2.3 149.3 -0.1 144.9 -0.1H110C100.5 -0.1 94.8 10.4 99.9 18.4L160.2 111.9L99.9 205.4C94.7 213.4 100.5 223.9 110 223.9H144.8C149.2 223.9 153.3 221.5 155.4 217.6C181.5 168.8 175.4 184 192 149.1C192 149.1 198.1 160.8 228.6 217.6C230.7 221.5 234.8 223.9 239.2 223.9H274C283.5 224 289.2 213.5 284.1 205.5zM384 326.1V320H256V448H262.1C268.5 448 274.6 445.5 279.1 441L377 343C381.5 338.5 384 332.4 384 326.1z"/>
            </g></svg>