<svg xmlns="http://www.w3.org/2000/svg" viewBox="0 0 384 512">
            <g transform="scale(1,-1) translate(0 -448)">
              <path d=" M384 326.059V320H256V448H262.0590000000001A24 24 0 0 0 279.029 440.971L376.9700000000001 343.03A24.002000000000002 24.002000000000002 0 0 0 384 326.059zM248 288C234.8 288 224 298.8 224 312V448H24C10.745 448 0 437.255 0 424V-40C0 -53.255 10.745 -64 24 -64H360C373.255 -64 384 -53.255 384 -40V288H248zM112.545 272C139.055 272 160.545 250.51 160.545 224S139.055 176 112.545 176S64.545 197.49 64.545 224S86.036 272 112.545 272zM320.545 32H64.545L65.03 80.485L104.545 120C109.231 124.686 116.344 124.201 121.03 119.515L160.545 80L264.06 183.515C268.746 188.201 276.344 188.201 281.031 183.515L320.545 144V32z"/>
            </g></svg>