<svg xmlns="http://www.w3.org/2000/svg" viewBox="0 0 384 512">
            <g transform="scale(1,-1) translate(0 -448)">
              <path d=" M181.9 191.9C176.9 207.9 177 238.8 179.9 238.8C188.3 238.8 187.5 201.9 181.9 191.9zM180.2 144.7C172.5 124.5 162.9 101.4 151.8 82C170.1 89 190.8 99.2 214.7 103.9C202 113.5 189.8 127.3 180.2 144.7zM86.1 19.9C86.1 19.1 99.3 25.3 121 60.1C114.3 53.8 91.9 35.6 86.1 19.9zM248 288H384V-40C384 -53.3 373.3 -64 360 -64H24C10.7 -64 0 -53.3 0 -40V424C0 437.3 10.7 448 24 448H224V312C224 298.8 234.8 288 248 288zM240 116.2C220 128.4 206.7 145.2 197.3 170C201.8 188.5 208.9 216.6 203.5 234.2C198.8 263.6 161.1 260.7 155.7 241C150.7 222.7 155.3 196.9 163.8 164C152.2 136.4 135.1 99.4 123 78.2C122.9 78.2 122.9 78.1 122.8 78.1C95.7 64.2 49.2 33.6 68.3 10.1C73.9 3.2 84.3 0.1 89.8 0.1C107.7 0.1 125.5 18.1 150.9 61.9C176.7 70.4 205 81 229.9 85.1C251.6 73.3 277 65.6 293.9 65.6C323.1 65.6 325.1 97.6 313.6 108.9999999999999C299.7 122.6 259.3 118.6999999999999 240 116.1999999999999zM377 343L279 441C274.5 445.5 268.4 448 262 448H256V320H384V326.1C384 332.4 381.5 338.5 377 343zM302.9 87.7C307 90.4 300.4 99.6 260.1 96.7C297.2 80.9 302.9 87.7 302.9 87.7z"/>
            </g></svg>