<svg xmlns="http://www.w3.org/2000/svg" viewBox="0 0 512 512">
            <g transform="scale(1,-1) translate(0 -448)">
              <path d=" M349.565 349.217C295.978 349.217 251.721 384 184.348 384C159.393 384 137.039 379.616 116.303 371.987A55.947 55.947 0 0 1 119.889 395.549C118.117 423.985 94.806 446.794 66.338 447.952C34.345 449.254 8 423.704 8 392C8 372.974 17.497 356.175 32 346.055V-40C32 -53.255 42.745 -64 56 -64H72C85.255 -64 96 -53.255 96 -40V54.4C124.311 66.464 159.582 76.522 210.435 76.522C264.023 76.522 308.279 41.739 375.6520000000001 41.739C423.8210000000001 41.739 462.3190000000001 58.033 498.157 82.597C506.84 88.548 512 98.429 512 108.955V352.055C512 375.448 487.731 390.925 466.515 381.071C432.177 365.123 390.061 349.217 349.565 349.217z"/>
            </g></svg>