<svg xmlns="http://www.w3.org/2000/svg" viewBox="0 0 576 512">
            <g transform="scale(1,-1) translate(0 -448)">
              <path d=" M572.694 155.907L500.27 31.752A63.99699999999999 63.99699999999999 0 0 0 444.989 0H45.025C26.502 0 14.961 20.093 24.294 36.093L96.718 160.2480000000001A64 64 0 0 0 152 192H551.9639999999999C570.487 192 582.0279999999999 171.907 572.694 155.907zM152 224H480V272C480 298.51 458.51 320 432 320H272L208 384H48C21.49 384 0 362.51 0 336V57.954L69.077 176.372C86.214 205.75 117.989 224 152 224z"/>
            </g></svg>