<svg xmlns="http://www.w3.org/2000/svg" viewBox="0 0 496 512">
            <g transform="scale(1,-1) translate(0 -448)">
              <path d=" M481.5 387.7C476.7 405.9 462.4 420.2 444.2 425.1C420.3 431.5 383 439.1 339.4 440L496 283.2C495.2 326.7 487.8 363.8 481.5 387.7zM14.5 -3.7C19.3 -21.9 33.6 -36.2 51.8 -41.1C75.7 -47.4999999999999 113 -55.1 156.6 -55.9999999999999L0 100.8C0.8 57.3 8.2 20.2 14.5 -3.7zM4.2 164.6L220.4 -52C352.9 -32.6 469.2 66.7 491.9 219.4L275.6 436C143.1 416.6 26.8 317.3 4.2 164.6zM321.5 288.2000000000001C324.6 291.3 329.7 291.3 332.8 288.2000000000001L344.1 276.9C347.2000000000001 273.8 347.2000000000001 268.7000000000001 344.1 265.6L315.8 237.3L344.1 209C347.2000000000001 205.9 347.2000000000001 200.8 344.1 197.7L332.8 186.4C329.7 183.3 324.6 183.3 321.5 186.4L293.2 214.7L270.6 192L298.9 163.7C302 160.6 302 155.5 298.9 152.4L287.6 141.1C284.5 138 279.4 138 276.3 141.1L248 169.4L225.4 146.8L253.7 118.5C256.8 115.3999999999999 256.8 110.3 253.7 107.1999999999999L242.4 95.8999999999999C239.3 92.7999999999999 234.2 92.7999999999999 231.1 95.8999999999999L202.8 124.1999999999999L174.5 95.8999999999999C171.4 92.7999999999999 166.3 92.7999999999999 163.2 95.8999999999999L151.9 107.1999999999999C148.8 110.3 148.8 115.3999999999999 151.9 118.5L180.2 146.8L151.9 175C148.8 178.1 148.8 183.1999999999999 151.9 186.3L163.2 197.6C166.3 200.7 171.4 200.7 174.5 197.6L202.8 169.3L225.4 191.9L197.1 220.2C194 223.3 194 228.4 197.1 231.5L208.4 242.8C211.5 245.9 216.6 245.9 219.7 242.8L248 214.5L270.6 237.1L242.3 265.4C239.2 268.5 239.2 273.6 242.3 276.7000000000001L253.6 288C256.7000000000001 291.1 261.8 291.1 264.9000000000001 288L293.2000000000001 259.7000000000001L321.5000000000001 288.2000000000001z"/>
            </g></svg>