<svg xmlns="http://www.w3.org/2000/svg" viewBox="0 0 512 512">
            <g transform="scale(1,-1) translate(0 -448)">
              <path d=" M504 192C504 55.033 392.967 -56 256 -56S8 55.033 8 192S119.033 440 256 440S504 328.967 504 192zM456 192L455.997 192.282L429.933 169.541L367.254 228.041L383.7080000000001 312.396L418.011 309.324C393.122 343.54 358.007 369.413 317.302 382.4650000000001L330.9530000000001 350.526L256 309L181.047 350.525L194.698 382.464C154.067 369.436 118.918 343.594 93.989 309.323L128.554 312.396L144.746 228.041L82.068 169.541L56.004 192.282L56.001 192C56.001 148.985 69.498 108.048 94.473 74.009L102.177 107.906L187.315 97.459L223.616 19.633L193.714 1.847C233.916 -11.275 278.004 -11.301 318.286 1.847L288.384 19.633L324.685 97.4590000000001L409.823 107.9060000000001L417.527 74.0090000000001C442.503 108.048 456 148.985 456 192zM207.898 122.429L178.004 213.741L256 270.2680000000001L333.996 213.741L304.374 122.429H207.898z"/>
            </g></svg>