<svg xmlns="http://www.w3.org/2000/svg" viewBox="0 0 640 512">
            <g transform="scale(1,-1) translate(0 -448)">
              <path d=" M480 352H160C71.6 352 0 280.4 0 192S71.6 32 160 32C204.8 32 245.2 50.4 274.2 80H365.7C394.7 50.4 435.2 32 479.9 32C568.3 32 639.9 103.6 639.9 192S568.4 352 480 352zM256 172C256 165.4 250.6 160 244 160H192V108C192 101.4 186.6 96 180 96H140C133.4 96 128 101.4 128 108V160H76C69.4 160 64 165.4 64 172V212C64 218.6 69.4 224 76 224H128V276C128 282.6 133.4 288 140 288H180C186.6 288 192 282.6 192 276V224H244C250.6 224 256 218.6 256 212V172zM440 104C413.5 104 392 125.5 392 152S413.5 200 440 200S488 178.5 488 152S466.5 104 440 104zM520 184C493.5 184 472 205.5 472 232S493.5 280 520 280S568 258.5 568 232S546.5 184 520 184z"/>
            </g></svg>