<svg xmlns="http://www.w3.org/2000/svg" viewBox="0 0 512 512">
            <g transform="scale(1,-1) translate(0 -448)">
              <path d=" M488 256H423.488C438.7200000000001 272.997 448 295.434 448 320C448 372.935 404.935 416 352 416C310.003 416 283.258 395.307 256.008 361.85C226.671 397.808 199.613 416 160 416C107.065 416 64 372.935 64 320C64 295.434 73.28 272.997 88.512 256H24C10.745 256 0 245.255 0 232V152C0 138.745 10.745 128 24 128H32V16C32 -10.51 53.49 -32 80 -32H432C458.51 -32 480 -10.51 480 16V128H488C501.255 128 512 138.745 512 152V232C512 245.255 501.255 256 488 256zM280 288C304 344 335.324 352 352 352C369.645 352 384 337.645 384 320S369.645 288 352 288H280zM160 352C176.676 352 208 344 232 288H160C142.355 288 128 302.355 128 320S142.355 352 160 352zM208 224H304V40C304 26.745 293.255 16 280 16H232C218.745 16 208 26.745 208 40V224z"/>
            </g></svg>