<svg xmlns="http://www.w3.org/2000/svg" viewBox="0 0 384 512">
            <g transform="scale(1,-1) translate(0 -448)">
              <path d=" M135.652 448C159.277 448 179.478 427.35 179.478 403.2V303.349C196.526 319.689 229.244 321.695 250.422 297.05C273.251 311.338 303.439 299.197 312.737 280.6C361.878 289.574 384 258.654 384 208C384 205.254 383.7970000000001 194.724 383.805 192C383.973 130.029 352.74 115.106 345.49 68.269C343.683 56.596 333.599 48 321.786 48H150.261L150.26 48.002C131.894 48.013 114.371 58.609 106.415 76.466C93.421 105.352 57.377 171.878 29.092 184C10.897 191.797 0.008 205.384 0 224C-0.014 258.222 35.098 281.752 66.908 268.1190000000001C75.267 264.536 83.578 259.807 91.826 253.966V403.2C91.826 426.65 112.369 448 135.652 448zM136 32H328C341.255 32 352 21.255 352 8V-40C352 -53.255 341.255 -64 328 -64H136C122.745 -64 112 -53.255 112 -40V8C112 21.255 122.745 32 136 32zM304 4C292.954 4 284 -4.954 284 -16S292.954 -36 304 -36S324 -27.046 324 -16S315.046 4 304 4z"/>
            </g></svg>