<svg xmlns="http://www.w3.org/2000/svg" viewBox="0 0 448 512">
            <g transform="scale(1,-1) translate(0 -448)">
              <path d=" M408 232C385.908 232 368 214.091 368 192H360V224C360 246.091 342.092 264 320 264S280 246.091 280 224V192H272V400C272 426.51 250.51 448 224 448S176 426.51 176 400V192H162.428L92.688 369.551C82.994 394.226 55.134 406.37 30.461 396.676C5.787 386.983 -6.356 359.123 3.337 334.449L78.102 144.107L47.012 119.235C31.631 106.929 27.497 85.257 37.271 68.1539999999999L101.271 -43.8460000000001A39.998 39.998 0 0 1 136 -64H376C394.562 -64 410.686 -51.23 414.937 -33.162L446.937 102.838A39.97 39.97 0 0 1 448 112V192C448 214.091 430.092 232 408 232z"/>
            </g></svg>