<svg xmlns="http://www.w3.org/2000/svg" viewBox="0 0 640 512">
            <g transform="scale(1,-1) translate(0 -448)">
              <path d=" M72 336H24C10.745 336 0 325.255 0 312V104C0 90.745 10.745 80 24 80H72C85.255 80 96 90.745 96 104V312C96 325.255 85.255 336 72 336zM48 108C36.954 108 28 116.954 28 128S36.954 148 48 148S68 139.046 68 128S59.046 108 48 108zM616 336H568C554.745 336 544 325.255 544 312V104C544 90.745 554.745 80 568 80H616C629.255 80 640 90.745 640 104V312C640 325.255 629.255 336 616 336zM592 108C580.954 108 572 116.954 572 128S580.954 148 592 148S612 139.046 612 128S603.046 108 592 108zM485.94 355.33L528 307.26V128H508.83C509.39 142.96 504.45 156.98 494.83 167.71L413.91 266.62C416.84 269.82 416.67 274.78 413.53 277.78C410.71 280.48 406.45 280.7 403.39 278.54C402.97 278.24 343.04 215.61 343.04 215.61L342.84 215.4C318.936 188.495 276.713 189.196 253.69 216.8199999999999C238.21 235.3999999999999 238.4 262.2099999999999 254.14 280.58L320.7099999999999 358.25C334.304 374.12 354.534 384 376.7 384H422.75A83.98 83.98 0 0 0 485.94 355.33zM482.57 157.41C498.03 140.63 495.16 113.5800000000001 480.2 99.66C462.489 83.198 437.767 86.656 434.27 90.46C435.923 74.802 412.881 43.211 377.85 45.78C371.525 24.595 345.552 6.871 318.67 16.17C308.45 5.96 292.85 1.2 278.86 1.2C250.17 1.2 223.94 13.19 206.28 32L112 128V312.48L173.36 363.05A71.52 71.52 0 0 0 223.93 384H261.35C278.0800000000001 384 294.0300000000001 377.16 305.56 365.15L241.99 290.99C221.15 266.68 220.9 231.18 241.4 206.57C270.775 171.323 324.4070000000001 170.717 354.7100000000001 204.65L402.82 255L482.57 157.41z"/>
            </g></svg>