<svg xmlns="http://www.w3.org/2000/svg" viewBox="0 0 512 512">
            <g transform="scale(1,-1) translate(0 -448)">
              <path d=" M512 248.348C512 224.723 491.35 204.522 467.2 204.522H367.349C383.689 187.4740000000001 385.695 154.756 361.05 133.578C375.338 110.749 363.197 80.561 344.6 71.263C353.574 22.122 322.654 0 272 0C269.254 0 258.724 0.203 256 0.195C194.029 0.027 179.106 31.26 132.269 38.51C120.596 40.317 112 50.401 112 62.214V233.739L112.002 233.74C112.013 252.106 122.609 269.629 140.466 277.5850000000001C169.352 290.579 235.879 326.623 248 354.908C255.797 373.102 269.384 383.992 288 384C322.222 384.014 345.752 348.902 332.1190000000001 317.092C328.536 308.733 323.807 300.422 317.966 292.174H467.2C490.65 292.174 512 271.631 512 248.348zM96 248V56C96 42.745 85.255 32 72 32H24C10.745 32 0 42.745 0 56V248C0 261.255 10.745 272 24 272H72C85.255 272 96 261.255 96 248zM68 80C68 91.046 59.046 100 48 100S28 91.046 28 80S36.954 60 48 60S68 68.954 68 80z"/>
            </g></svg>