<svg xmlns="http://www.w3.org/2000/svg" viewBox="0 0 576 512">
            <g transform="scale(1,-1) translate(0 -448)">
              <path d=" M576 144V48C576 21.49 554.51 0 528 0H48C21.49 0 0 21.49 0 48V144C0 170.51 21.49 192 48 192H528C554.51 192 576 170.51 576 144zM528 224A79.557 79.557 0 0 0 558.777 217.835L462.25 362.626A48.003 48.003 0 0 1 422.311 384H153.689A48 48 0 0 1 113.751 362.626L17.223 217.835A79.557 79.557 0 0 0 48 224H528zM480 128C462.327 128 448 113.673 448 96S462.327 64 480 64S512 78.327 512 96S497.673 128 480 128zM384 128C366.327 128 352 113.673 352 96S366.327 64 384 64S416 78.327 416 96S401.673 128 384 128z"/>
            </g></svg>