<svg xmlns="http://www.w3.org/2000/svg" viewBox="0 0 512 512">
            <g transform="scale(1,-1) translate(0 -448)">
              <path d=" M496 368V400C496 408.837 488.837 416 480 416H320C311.163 416 304 408.837 304 400V368C304 359.163 311.163 352 320 352H357.621V224H154.379V352H192C200.837 352 208 359.163 208 368V400C208 408.837 200.837 416 192 416H32C23.163 416 16 408.837 16 400V368C16 359.163 23.163 352 32 352H69.275V32H32C23.163 32 16 24.837 16 16V-16C16 -24.837 23.163 -32 32 -32H192C200.837 -32 208 -24.837 208 -16V16C208 24.837 200.837 32 192 32H154.379V160H357.62V32H320C311.163 32 304 24.837 304 16V-16C304 -24.837 311.163 -32 320 -32H480C488.837 -32 496 -24.837 496 -16V16C496 24.837 488.837 32 480 32H442.725V352H480C488.837 352 496 359.163 496 368z"/>
            </g></svg>