<svg xmlns="http://www.w3.org/2000/svg" viewBox="0 0 512 512">
            <g transform="scale(1,-1) translate(0 -448)">
              <path d=" M320.2 204.2L270.5 104.8C264.5 92.6999999999999 247.1 93.1 241.6 105.4L184.7 231.7L154.7 160H60.6L243.1 -26.5C250.2 -33.8 261.7 -33.8 268.8 -26.5L451.4 160H342.3L320.2 204.2zM473.7 374.1L471.3 376.6C419.8 429.2 335.5 429.2 283.9 376.6L256 348L228.1 376.5C176.6 429.2 92.2 429.2 40.7 376.5L38.3 374.1C-10.4 324.3 -12.5 245 31 192H133.4L169.3 278.2C174.7 291.1 192.9 291.4 198.7 278.6L256.9000000000001 149.3L305.9000000000001 247.2C311.8 259 328.6 259 334.5000000000001 247.2L362.1000000000001 192H481C524.5 245 522.4 324.3 473.7 374.0999999999999z"/>
            </g></svg>