<svg xmlns="http://www.w3.org/2000/svg" viewBox="0 0 512 512">
            <g transform="scale(1,-1) translate(0 -448)">
              <path d=" M504 192.469C504.253 55.829 392.82 -55.903 256.18 -55.999C197.165 -56.041 142.957 -35.469 100.358 -1.088C89.281 7.852 88.453 24.453 98.519 34.519L109.786 45.786C118.395 54.395 132.139 55.337 141.677 47.77C173.062 22.865 212.781 8 256 8C357.705 8 440 90.311 440 192C440 293.705 357.689 376 256 376C207.186 376 162.851 357.031 129.932 326.068L180.686 275.314C190.766 265.234 183.627 248 169.373 248H24C15.163 248 8 255.163 8 264V409.373C8 423.627 25.234 430.766 35.314 420.687L84.686 371.315C129.209 413.864 189.552 440 256 440C392.81 440 503.747 329.2200000000001 504 192.469zM323.088 113.685L332.911 126.315C341.0489999999999 136.778 339.164 151.857 328.701 159.994L288 191.651V296C288 309.255 277.255 320 264 320H248C234.745 320 224 309.255 224 296V160.349L289.409 109.475C299.872 101.338 314.95 103.222 323.088 113.685z"/>
            </g></svg>