<svg xmlns="http://www.w3.org/2000/svg" viewBox="0 0 512 512">
            <g transform="scale(1,-1) translate(0 -448)">
              <path d=" M256 448C114.6 448 0 333.4 0 192S114.6 -64 256 -64S512 50.6 512 192S397.4 448 256 448zM368 72C368 67.6 364.4 64 360 64H312C307.6 64 304 67.6 304 72V160H208V72C208 67.6 204.4 64 200 64H152C147.6 64 144 67.6 144 72V312C144 316.4 147.6 320 152 320H200C204.4 320 208 316.4 208 312V224H304V312C304 316.4 307.6 320 312 320H360C364.4 320 368 316.4 368 312V72z"/>
            </g></svg>