<svg xmlns="http://www.w3.org/2000/svg" viewBox="0 0 384 512">
            <g transform="scale(1,-1) translate(0 -448)">
              <path d=" M360 448H24C10.745 448 0 437.255 0 424V408C0 394.745 10.745 384 24 384C24 293.035 75.016 216.266 144.842 192C75.016 167.734 24 90.965 24 0C10.745 0 0 -10.745 0 -24V-40C0 -53.255 10.745 -64 24 -64H360C373.255 -64 384 -53.255 384 -40V-24C384 -10.745 373.255 0 360 0C360 90.965 308.984 167.734 239.158 192C308.984 216.266 360 293.035 360 384C373.255 384 384 394.745 384 408V424C384 437.255 373.255 448 360 448zM284.9220000000001 64H99.08C116.139 110.797 151.176 144 192 144C232.821 144 267.862 110.804 284.9220000000001 64zM284.9410000000001 320H99.078C91.988 339.452 88 361.252 88 384H296C296 361.195 292.013 339.413 284.941 320z"/>
            </g></svg>