<svg xmlns="http://www.w3.org/2000/svg" viewBox="0 0 512 512">
            <g transform="scale(1,-1) translate(0 -448)">
              <path d=" M464 0H48C21.49 0 0 21.49 0 48V336C0 362.51 21.49 384 48 384H464C490.51 384 512 362.51 512 336V48C512 21.49 490.51 0 464 0zM112 328C81.072 328 56 302.928 56 272S81.072 216 112 216S168 241.072 168 272S142.928 328 112 328zM64 64H448V176L360.485 263.515C355.7990000000001 268.201 348.201 268.201 343.514 263.515L208 128L152.485 183.515C147.799 188.201 140.201 188.201 135.514 183.515L64 112V64z"/>
            </g></svg>