<svg xmlns="http://www.w3.org/2000/svg" viewBox="0 0 576 512">
            <g transform="scale(1,-1) translate(0 -448)">
              <path d=" M480 32V16C480 -10.51 458.51 -32 432 -32H48C21.49 -32 0 -10.51 0 16V272C0 298.51 21.49 320 48 320H64V112C64 67.888 99.888 32 144 32H480zM576 112V368C576 394.51 554.51 416 528 416H144C117.49 416 96 394.51 96 368V112C96 85.49 117.49 64 144 64H528C554.51 64 576 85.49 576 112zM256 320C256 293.49 234.51 272 208 272S160 293.49 160 320S181.49 368 208 368S256 346.51 256 320zM160 176L215.515 231.515C220.201 236.201 227.799 236.201 232.486 231.515L272 192L407.515 327.515C412.201 332.201 419.799 332.201 424.486 327.515L512 240V128H160V176z"/>
            </g></svg>