<svg xmlns="http://www.w3.org/2000/svg" viewBox="0 0 448 512">
            <g transform="scale(1,-1) translate(0 -448)">
              <path d=" M0 364V404C0 412.837 7.163 420 16 420H432C440.837 420 448 412.837 448 404V364C448 355.163 440.837 348 432 348H16C7.163 348 0 355.163 0 364zM176 220H432C440.837 220 448 227.163 448 236V276C448 284.837 440.837 292 432 292H176C167.163 292 160 284.837 160 276V236C160 227.163 167.163 220 176 220zM16 -36H432C440.837 -36 448 -28.837 448 -20V20C448 28.837 440.837 36 432 36H16C7.163 36 0 28.837 0 20V-20C0 -28.837 7.163 -36 16 -36zM176 92H432C440.837 92 448 99.163 448 108V148C448 156.837 440.837 164 432 164H176C167.163 164 160 156.837 160 148V108C160 99.163 167.163 92 176 92zM123.313 203.313L27.313 299.297C17.266 309.348 0 302.224 0 287.9840000000001V96.009C0 81.68 17.325 74.705 27.313 84.696L123.313 180.6880000000001C129.562 186.9350000000001 129.562 197.0650000000001 123.313 203.3130000000001z"/>
            </g></svg>