<svg xmlns="http://www.w3.org/2000/svg" viewBox="0 0 512 512">
            <g transform="scale(1,-1) translate(0 -448)">
              <path d=" M256 440C119.043 440 8 328.9170000000001 8 192C8 55.003 119.043 -56 256 -56S504 55.003 504 192C504 328.9170000000001 392.957 440 256 440zM256 330C279.1960000000001 330 298 311.1960000000001 298 288S279.1960000000001 246 256 246S214 264.804 214 288S232.804 330 256 330zM312 76C312 69.373 306.627 64 300 64H212C205.373 64 200 69.373 200 76V100C200 106.627 205.373 112 212 112H224V176H212C205.373 176 200 181.373 200 188V212C200 218.627 205.373 224 212 224H276C282.627 224 288 218.627 288 212V112H300C306.627 112 312 106.627 312 100V76z"/>
            </g></svg>