<svg xmlns="http://www.w3.org/2000/svg" viewBox="0 0 320 512">
            <g transform="scale(1,-1) translate(0 -448)">
              <path d=" M204.758 32H170.909L233.0010000000001 352H273.7260000000001A16 16 0 0 1 289.4300000000001 364.937L295.6720000000001 396.937C297.599 406.8160000000001 290.034 416 279.968 416H120.235A16 16 0 0 1 104.531 403.063L98.289 371.063C96.362 361.184 103.927 352 113.993 352H147.839L85.749 32H46.278A16 16 0 0 1 30.574 19.065L24.329 -12.935C22.402 -22.815 29.967 -32 40.034 -32H198.513A16 16 0 0 1 214.217 -19.065L220.462 12.935C222.389 22.815 214.824 32 204.758 32z"/>
            </g></svg>