<svg xmlns="http://www.w3.org/2000/svg" viewBox="0 0 512 512">
            <g transform="scale(1,-1) translate(0 -448)">
              <path d=" M512 271.999C512 174.797 433.202 96 336 96C324.78 96 313.81 97.062 303.173 99.069L279.161 72.055A23.999000000000002 23.999000000000002 0 0 0 261.223 64H224V24C224 10.745 213.255 0 200 0H160V-40C160 -53.255 149.255 -64 136 -64H24C10.745 -64 0 -53.255 0 -40V38.059C0 44.424 2.529 50.529 7.029 55.03L168.831 216.832C163.108 234.186 160 252.729 160 272C160 369.202 238.797 447.999 335.999 448C433.488 448.001 512 369.4890000000001 512 271.999zM336 320C336 293.49 357.49 272 384 272S432 293.49 432 320S410.51 368 384 368S336 346.51 336 320z"/>
            </g></svg>