<svg xmlns="http://www.w3.org/2000/svg" viewBox="0 0 576 512">
            <g transform="scale(1,-1) translate(0 -448)">
              <path d=" M528 0H48C21.49 0 0 21.49 0 48V336C0 362.51 21.49 384 48 384H528C554.51 384 576 362.51 576 336V48C576 21.49 554.51 0 528 0zM128 268V308C128 314.627 122.627 320 116 320H76C69.373 320 64 314.627 64 308V268C64 261.373 69.373 256 76 256H116C122.627 256 128 261.373 128 268zM224 268V308C224 314.627 218.627 320 212 320H172C165.373 320 160 314.627 160 308V268C160 261.373 165.373 256 172 256H212C218.627 256 224 261.373 224 268zM320 268V308C320 314.627 314.627 320 308 320H268C261.373 320 256 314.627 256 308V268C256 261.373 261.373 256 268 256H308C314.627 256 320 261.373 320 268zM416 268V308C416 314.627 410.627 320 404 320H364C357.373 320 352 314.627 352 308V268C352 261.373 357.373 256 364 256H404C410.627 256 416 261.373 416 268zM512 268V308C512 314.627 506.627 320 500 320H460C453.373 320 448 314.627 448 308V268C448 261.373 453.373 256 460 256H500C506.627 256 512 261.373 512 268zM176 172V212C176 218.627 170.627 224 164 224H124C117.373 224 112 218.627 112 212V172C112 165.373 117.373 160 124 160H164C170.627 160 176 165.373 176 172zM272 172V212C272 218.627 266.627 224 260 224H220C213.373 224 208 218.627 208 212V172C208 165.373 213.373 160 220 160H260C266.627 160 272 165.373 272 172zM368 172V212C368 218.627 362.627 224 356 224H316C309.373 224 304 218.627 304 212V172C304 165.373 309.373 160 316 160H356C362.627 160 368 165.373 368 172zM464 172V212C464 218.627 458.627 224 452 224H412C405.373 224 400 218.627 400 212V172C400 165.373 405.373 160 412 160H452C458.627 160 464 165.373 464 172zM128 76V116C128 122.627 122.627 128 116 128H76C69.373 128 64 122.627 64 116V76C64 69.373 69.373 64 76 64H116C122.627 64 128 69.373 128 76zM416 76V116C416 122.627 410.627 128 404 128H172C165.373 128 160 122.627 160 116V76C160 69.373 165.373 64 172 64H404C410.627 64 416 69.373 416 76zM512 76V116C512 122.627 506.627 128 500 128H460C453.373 128 448 122.627 448 116V76C448 69.373 453.373 64 460 64H500C506.627 64 512 69.373 512 76z"/>
            </g></svg>