<svg xmlns="http://www.w3.org/2000/svg" viewBox="0 0 576 512">
            <g transform="scale(1,-1) translate(0 -448)">
              <path d=" M395.4 27.2C352 5.6 303.5 -7.2 254.6 -7.2C172.4 -7.2 103.5 32.9 103.5 32.9C87.4 32.9 68.1 -32 40.2 -32C13.2 -32 0 -8 0 6.5C0 39.6 63.6 65.4 63.6 83.8C63.6 83.8 51.1 105 51.1 143C51.1 244.2 132.4 316.4 223.7 346.3C289.6 367.9 429.7 342.8 474.4 384.8C492.1 401 500.8 416 527.8 416C564.0999999999999 416 576 322.8 576 295.7C576 184.8 521.5 89.2 395.4 27.2zM141.1 102.8C204.6 192.7 285.6 231.6 398.8 222.8C407.6 222.1 415.3 228.7 416 237.5C416.7 246.3 410.1 254 401.3 254.7C277.3 264.3 185.4 220.7999999999999 115 121.1999999999999C109.9 114 111.5999999999999 103.9999999999999 118.8 98.8999999999999C126 93.7999999999999 136 95.4999999999999 141.0999999999999 102.7999999999999z"/>
            </g></svg>