<svg xmlns="http://www.w3.org/2000/svg" viewBox="0 0 512 512">
            <g transform="scale(1,-1) translate(0 -448)">
              <path d=" M256 440C119.033 440 8 328.967 8 192S119.033 -56 256 -56S504 55.033 504 192S392.967 440 256 440zM429.6960000000001 320.4410000000001L366.2970000000001 257.0420000000001C355.31 275.601 339.627 291.294 321.0420000000001 302.2970000000001L384.4410000000001 365.6960000000001A218.396 218.396 0 0 0 429.6960000000001 320.4410000000001zM256 96C202.981 96 160 138.981 160 192S202.981 288 256 288S352 245.019 352 192S309.019 96 256 96zM127.559 365.6960000000001L190.958 302.2970000000001C172.399 291.31 156.706 275.627 145.703 257.0420000000001L82.304 320.4410000000001A218.372 218.372 0 0 0 127.559 365.6960000000001zM82.304 63.559L145.703 126.958C156.69 108.399 172.373 92.706 190.958 81.703L127.559 18.304A218.396 218.396 0 0 0 82.304 63.559zM384.4410000000001 18.304L321.0420000000001 81.703C339.6010000000001 92.6900000000001 355.2940000000001 108.3730000000001 366.2970000000001 126.958L429.6960000000001 63.559A218.40299999999996 218.40299999999996 0 0 0 384.4410000000001 18.304z"/>
            </g></svg>