<svg xmlns="http://www.w3.org/2000/svg" viewBox="0 0 384 512">
            <g transform="scale(1,-1) translate(0 -448)">
              <path d=" M272 20V-8C272 -18.449 265.32 -27.334 256 -30.629V-40C256 -53.255 245.255 -64 232 -64H152C138.745 -64 128 -53.255 128 -40V-30.629C118.68 -27.334 112 -18.449 112 -8V20C112 26.627 117.373 32 124 32H260C266.627 32 272 26.627 272 20zM128.893 64C118.986 64 110.067 70.078 106.517 79.327C67.697 180.459 16 170.269 16 272C16 369.197 94.805 448 192 448S368 369.197 368 272C368 170.269 316.303 180.459 277.484 79.327C273.934 70.078 265.014 64 255.108 64H128.893zM112 272C112 316.112 147.888 352 192 352C200.837 352 208 359.164 208 368S200.837 384 192 384C130.243 384 80 333.757 80 272C80 263.164 87.164 256 96 256S112 263.164 112 272z"/>
            </g></svg>