<svg xmlns="http://www.w3.org/2000/svg" viewBox="0 0 512 512">
            <g transform="scale(1,-1) translate(0 -448)">
              <path d=" M326.612 262.6090000000001C386.3590000000001 202.8 385.5390000000001 106.911 326.9720000000001 48.019C326.862 47.899 326.7320000000001 47.769 326.612 47.649L259.4120000000001 -19.551C200.142 -78.821 103.713 -78.813 44.452 -19.551C-14.818 39.709 -14.818 136.149 44.452 195.409L81.558 232.515C91.398 242.355 108.344 235.8150000000001 108.852 221.909C109.5 204.187 112.678 186.382 118.542 169.1880000000001C120.528 163.3660000000001 119.109 156.9260000000001 114.759 152.576L101.672 139.489C73.646 111.463 72.767 65.8290000000001 100.517 37.5290000000001C128.541 8.95 174.603 8.78 202.842 37.0190000000001L270.0420000000001 104.2090000000001C298.233 132.4 298.115 177.9660000000001 270.0420000000001 206.0390000000001C266.341 209.733 262.6130000000001 212.603 259.701 214.608A16.037 16.037 0 0 0 252.754 227.2140000000001C252.3580000000001 237.7810000000001 256.1020000000001 248.67 264.452 257.0200000000001L285.506 278.0750000000001C291.027 283.596 299.688 284.2740000000001 306.09 279.8060000000001A152.482 152.482 0 0 0 326.612 262.6090000000001zM467.547 403.551C408.286 462.813 311.8570000000001 462.821 252.587 403.551L185.387 336.351C185.267 336.231 185.137 336.101 185.027 335.981C126.461 277.089 125.64 181.2 185.387 121.391A152.454 152.454 0 0 1 205.908 104.1949999999999C212.31 99.7269999999999 220.972 100.406 226.492 105.9259999999999L247.546 126.981C255.896 135.331 259.6400000000001 146.2199999999999 259.2440000000001 156.7869999999999A16.037 16.037 0 0 1 252.2970000000001 169.3929999999999C249.385 171.3979999999999 245.6570000000001 174.2679999999999 241.956 177.9619999999999C213.883 206.035 213.765 251.601 241.956 279.7919999999999L309.156 346.9819999999999C337.395 375.2209999999999 383.456 375.051 411.481 346.4719999999999C439.231 318.1719999999999 438.353 272.5379999999999 410.326 244.5119999999999L397.2390000000001 231.425C392.889 227.075 391.4700000000001 220.6349999999999 393.456 214.8129999999999C399.32 197.619 402.498 179.8139999999999 403.146 162.0919999999999C403.6550000000001 148.1859999999999 420.6 141.6459999999999 430.44 151.4859999999999L467.546 188.5919999999999C526.817 247.851 526.817 344.291 467.547 403.551z"/>
            </g></svg>