<svg xmlns="http://www.w3.org/2000/svg" viewBox="0 0 512 512">
            <g transform="scale(1,-1) translate(0 -448)">
              <path d=" M464 -32H48C21.49 -32 0 -10.51 0 16V368C0 394.51 21.49 416 48 416H464C490.51 416 512 394.51 512 368V16C512 -10.51 490.51 -32 464 -32zM128 328C105.909 328 88 310.091 88 288S105.909 248 128 248S168 265.909 168 288S150.091 328 128 328zM128 232C105.909 232 88 214.091 88 192S105.909 152 128 152S168 169.909 168 192S150.091 232 128 232zM128 136C105.909 136 88 118.091 88 96S105.909 56 128 56S168 73.909 168 96S150.091 136 128 136zM416 272V304C416 310.627 410.627 316 404 316H204C197.373 316 192 310.627 192 304V272C192 265.373 197.373 260 204 260H404C410.627 260 416 265.373 416 272zM416 176V208C416 214.627 410.627 220 404 220H204C197.373 220 192 214.627 192 208V176C192 169.373 197.373 164 204 164H404C410.627 164 416 169.373 416 176zM416 80V112C416 118.627 410.627 124 404 124H204C197.373 124 192 118.627 192 112V80C192 73.373 197.373 68 204 68H404C410.627 68 416 73.373 416 80z"/>
            </g></svg>