<svg xmlns="http://www.w3.org/2000/svg" viewBox="0 0 512.1 512">
            <g transform="scale(1,-1) translate(0 -448)">
              <path d=" M164.1 288H12C5.4 288 0 293.4 0 300V380C0 399.9 16.1 416 36 416H140C159.9 416 176 399.9 176 380V300C176.1 293.4 170.7 288 164.1 288zM512.1 300V380.1C512.1 400 496 416.1 476.1 416.1H372.1C352.2000000000001 416.1 336.1 400 336.1 380.1V300.1C336.1 293.5 341.5 288.1 348.1 288.1H500.1C506.7 288 512.1 293.4 512.1 300zM348.1 256C341.5 256 336.1 250.6 336.1 244V192C336.1 63.9 176.1 64.1 176.1 192V244C176.1 250.6 170.7 256 164.1 256H12.1C5.4 256 0.1 250.6 0.1 243.9C0.2 222.5 0.7 203.6 0.1 190.6C0.1 40 136.3 -56 256.9 -56C377.5 -56 512 40 512 190.7C511.4 203.5 511.8 223.7 512 243.9C512 250.6 506.7 256 500 256H348.1z"/>
            </g></svg>