<svg xmlns="http://www.w3.org/2000/svg" viewBox="0 0 192 512">
            <g transform="scale(1,-1) translate(0 -448)">
              <path d=" M96 448C131.346 448 160 419.346 160 384S131.346 320 96 320S32 348.654 32 384S60.654 448 96 448M144 304H132.64C109.929 293.557 83.05 293.106 59.36 304H48C21.49 304 0 282.51 0 256V120C0 106.745 10.745 96 24 96H40V-40C40 -53.255 50.745 -64 64 -64H128C141.255 -64 152 -53.255 152 -40V96H168C181.255 96 192 106.745 192 120V256C192 282.51 170.51 304 144 304z"/>
            </g></svg>