<svg xmlns="http://www.w3.org/2000/svg" viewBox="0 0 320 512">
            <g transform="scale(1,-1) translate(0 -448)">
              <path d=" M192 147.187V-25.633L169.985 -58.656C165.235 -65.7809999999999 154.766 -65.7809999999999 150.016 -58.656L128 -25.633V147.187A162.221 162.221 0 0 1 192 147.187zM160 448C239.529 448 304 383.529 304 304S239.529 160 160 160S16 224.471 16 304S80.471 448 160 448M80 312C80 351.701 112.299 384 152 384A8 8 0 0 1 152 400C103.477 400 64 360.523 64 312A8 8 0 0 1 80 312z"/>
            </g></svg>