<svg xmlns="http://www.w3.org/2000/svg" viewBox="0 0 576 512">
            <g transform="scale(1,-1) translate(0 -448)">
              <path d=" M576 391.985V56.015A23.998000000000005 23.998000000000005 0 0 0 562.733 34.549L434.733 -29.451C418.948 -37.344 400 -25.992 400 -7.985V327.985A23.998000000000005 23.998000000000005 0 0 0 413.267 349.451L541.267 413.451C557.052 421.344 576 409.992 576 391.985zM369.747 349.915L225.747 413.915C209.996 420.915 192 409.454 192 391.983V56.016A24 24 0 0 1 206.253 34.085L350.253 -29.915C366.004 -36.915 384 -25.4539999999999 384 -7.984V327.983A24 24 0 0 1 369.747 349.915zM141.267 413.451L13.267 349.466A23.998000000000005 23.998000000000005 0 0 1 0 328V-7.985C0 -25.992 18.948 -37.344 34.733 -29.451L162.733 34.534A23.998000000000005 23.998000000000005 0 0 1 176 56V391.985C176 409.992 157.052 421.344 141.267 413.451z"/>
            </g></svg>