<svg xmlns="http://www.w3.org/2000/svg" viewBox="0 0 512 512">
            <g transform="scale(1,-1) translate(0 -448)">
              <path d=" M340 448H261C250.3 448 245 435.1 252.5 427.5L269.4 410.6L220.7 361.9C198.5 375.9 172.2 384 144 384C64.5 384 0 319.5 0 240S64.5 96 144 96S288 160.5 288 240C288 268.2 279.9 294.5 265.9 316.7L314.6 365.4L331.5 348.5C333.8999999999999 346.1 337 345 339.8999999999999 345C346.0999999999999 345 352 349.8 352 357V436C352 442.6 346.6 448 340 448zM144 160C99.9 160 64 195.9 64 240S99.9 320 144 320S224 284.1 224 240S188.1 160 144 160zM500 288.1H421C410.3 288.1 405 275.2 412.5 267.6L429.4 250.7L380.7 202C362.5 213.4 341.7 220.9 319.2 223.3C317.1 201.5 311 180 300.8 160C301.9000000000001 160 303 160.1 304 160.1C348.1 160.1 384 124.2000000000001 384 80.1S348.1 0.1 304 0.1S224 36 224 80.1C224 81.2000000000001 224 82.3 224.1 83.3C204.1 73.1 182.6 66.9 160.8 64.9C168.4 -7.6 229.6 -64 304 -64C383.5 -64 448 0.5 448 80C448 108.2 439.9 134.5 425.9 156.7L474.6 205.4L491.4999999999999 188.5C493.8999999999999 186.1 496.8999999999999 185 499.8999999999999 185C506.0999999999999 185 511.9999999999999 189.8 511.9999999999999 197V276C511.9999999999999 282.7 506.6 288.1 499.9999999999999 288.1z"/>
            </g></svg>