<svg xmlns="http://www.w3.org/2000/svg" viewBox="0 0 384 512">
            <g transform="scale(1,-1) translate(0 -448)">
              <path d=" M372 384H293C282.3 384 277 371.1 284.5 363.5L301.4 346.6L283.9 329.1L269.8 343.2C265.1 347.9 257.5 347.9 252.8 343.2L224.5 315C219.8 310.3 219.8 302.7 224.5 298L238.6 283.9L220.6 265.9C198.4 279.9 172.1 288 143.9 288C64.5 288 0 223.5 0 144S64.5 0 144 0S288 64.5 288 144C288 172.2 279.9 198.5 265.9 220.7L283.9 238.7L298 224.6C302.7 219.9 310.3 219.9 315 224.6L343.3 252.9C348 257.6 348 265.2000000000001 343.3 269.9L329.2 284L346.7 301.5L363.6 284.6C371.2 277 384.1 282.4 384.1 293.1V372C384 378.6 378.6 384 372 384zM144 64C99.9 64 64 99.9 64 144S99.9 224 144 224S224 188.1 224 144S188.1 64 144 64z"/>
            </g></svg>