<svg xmlns="http://www.w3.org/2000/svg" viewBox="0 0 288 512">
            <g transform="scale(1,-1) translate(0 -448)">
              <path d=" M245.8 213.8C225.9 233.7 201.6 246.6 176 252.4V277.8H196C202.6 277.8 208 283.2000000000001 208 289.8V329.8C208 336.4 202.6 341.8 196 341.8H176V366.6H199.9C210.6 366.6 215.9 379.5 208.4 387.1L152.5 442.9C147.8 447.6 140.2 447.6 135.5 442.9L79.6 387C72 379.4 77.4 366.5 88.1 366.5H112V341.8H92C85.4 341.8 80 336.4 80 329.8V289.8C80 283.2000000000001 85.4 277.8 92 277.8H112V252.4C86.4 246.6 62.1 233.7 42.2 213.8C-14 157.6 -14 66.4 42.2 10.2C98.4 -45.9999999999999 189.6 -45.9999999999999 245.8 10.2C302.1 66.4 302.1 157.6 245.8 213.8000000000001zM200.6 55.4C169.4 24.2 118.7 24.2 87.5 55.4C56.3 86.6 56.3 137.3 87.5 168.5C118.7 199.7 169.4 199.7 200.6 168.5C231.8 137.4 231.8 86.6 200.6 55.4z"/>
            </g></svg>