<svg xmlns="http://www.w3.org/2000/svg" viewBox="0 0 512 512">
            <g transform="scale(1,-1) translate(0 -448)">
              <path d=" M416 400V-16C416 -42.51 394.51 -64 368 -64H144C117.49 -64 96 -42.51 96 -16V400C96 426.51 117.49 448 144 448H368C394.51 448 416 426.51 416 400zM512 342V330A6 6 0 0 0 506 324H488V318A6 6 0 0 0 482 312H440V360H482A6 6 0 0 0 488 354V348H506A6 6 0 0 0 512 342zM512 246V234A6 6 0 0 0 506 228H488V222A6 6 0 0 0 482 216H440V264H482A6 6 0 0 0 488 258V252H506A6 6 0 0 0 512 246zM512 150V138A6 6 0 0 0 506 132H488V126A6 6 0 0 0 482 120H440V168H482A6 6 0 0 0 488 162V156H506A6 6 0 0 0 512 150zM512 54V42A6 6 0 0 0 506 36H488V30A6 6 0 0 0 482 24H440V72H482A6 6 0 0 0 488 66V60H506A6 6 0 0 0 512 54zM30 72H72V24H30A6 6 0 0 0 24 30V36H6A6 6 0 0 0 0 42V54A6 6 0 0 0 6 60H24V66A6 6 0 0 0 30 72zM30 168H72V120H30A6 6 0 0 0 24 126V132H6A6 6 0 0 0 0 138V150A6 6 0 0 0 6 156H24V162A6 6 0 0 0 30 168zM30 264H72V216H30A6 6 0 0 0 24 222V228H6A6 6 0 0 0 0 234V246A6 6 0 0 0 6 252H24V258A6 6 0 0 0 30 264zM30 360H72V312H30A6 6 0 0 0 24 318V324H6A6 6 0 0 0 0 330V342A6 6 0 0 0 6 348H24V354A6 6 0 0 0 30 360z"/>
            </g></svg>