<svg xmlns="http://www.w3.org/2000/svg" viewBox="0 0 320 512">
            <g transform="scale(1,-1) translate(0 -448)">
              <path d=" M272 448H48C21.5 448 0 426.5 0 400V-16C0 -42.5 21.5 -64 48 -64H272C298.5 -64 320 -42.5 320 -16V400C320 426.5 298.5 448 272 448zM160 -32C142.3 -32 128 -17.7 128 0S142.3 32 160 32S192 17.7 192 0S177.7 -32 160 -32zM272 76C272 69.4 266.6 64 260 64H60C53.4 64 48 69.4 48 76V388C48 394.6 53.4 400 60 400H260C266.6 400 272 394.6 272 388V76z"/>
            </g></svg>