<svg xmlns="http://www.w3.org/2000/svg" viewBox="0 0 640 512">
            <g transform="scale(1,-1) translate(0 -448)">
              <path d=" M512.949 255.997C498.0869999999999 256.105 483.809 253.675 470.515 249.123L437.589 304H520C533.255 304 544 314.745 544 328V360C544 373.255 533.255 384 520 384H474.689A24 24 0 0 1 456.85 376.055L419.3540000000001 334.392L396.5800000000001 372.348A24 24 0 0 1 376 384H296C287.163 384 280 376.837 280 368V352C280 343.163 287.163 336 296 336H362.411L381.611 304H227.904C210.177 327.073 182.98 344 128 344H72.54C59.085 344 47.749 332.9890000000001 48.004 319.536C48.252 306.495 58.9 296 72 296H128C152.504 296 166.686 285.081 175.787 271.231L164.496 250.702C151.49 254.567 137.625 256.438 123.245 255.912C55.857 253.451 1.565 198.395 0.034 130.979C-1.603 58.924 56.317 0 128 0C187.642 0 237.744 40.794 251.953 96H336.189C349.862 96 360.778 107.421 360.165 121.077C358.0470000000001 168.197 377.687 214.742 416.35 246.103L428.8350000000001 225.295C401.189 201.641 383.7380000000001 166.415 384.004 127.116C384.4740000000001 57.56 441.207 0.664 510.762 0.006C582.391 -0.672 640.601 57.493 639.996 129.105C639.408 198.696 582.5409999999999 255.491 512.949 255.997zM128 48C83.888 48 48 83.888 48 128S83.888 208 128 208C132.242 208 136.405 207.659 140.469 207.018L98.97 131.566C90.187 115.593 101.762 96 120 96H201.297C188.927 67.775 160.737 48 128 48zM516.351 48.116C470.272 45.663 432 82.446 432 128C432 149.363 440.4340000000001 168.781 454.125 183.144L503.537 100.792C508.083 93.215 517.912 90.758 525.489 95.304L539.2090000000001 103.5360000000001C546.7860000000001 108.0820000000001 549.243 117.9110000000001 544.6970000000001 125.4880000000001L496.1410000000001 206.4150000000001A80.005 80.005 0 0 0 512 208C557.554 208 594.338 169.727 591.884 123.648C589.724 83.09 556.91 50.276 516.351 48.116z"/>
            </g></svg>