<svg xmlns="http://www.w3.org/2000/svg" viewBox="0 0 576 512">
            <g transform="scale(1,-1) translate(0 -448)">
              <path d=" M552 384H88C74.745 384 64 373.255 64 360V352H24C10.745 352 0 341.255 0 328V56C0 25.072 25.072 0 56 0H528C554.51 0 576 21.49 576 48V360C576 373.255 565.255 384 552 384zM56 48A8 8 0 0 0 48 56V304H64V56A8 8 0 0 0 56 48zM292 64H140C133.373 64 128 69.373 128 76V84C128 90.627 133.373 96 140 96H292C298.627 96 304 90.627 304 84V76C304 69.373 298.627 64 292 64zM500 64H348C341.373 64 336 69.373 336 76V84C336 90.627 341.373 96 348 96H500C506.627 96 512 90.627 512 84V76C512 69.373 506.627 64 500 64zM292 160H140C133.373 160 128 165.373 128 172V180C128 186.627 133.373 192 140 192H292C298.627 192 304 186.627 304 180V172C304 165.373 298.627 160 292 160zM500 160H348C341.373 160 336 165.373 336 172V180C336 186.627 341.373 192 348 192H500C506.627 192 512 186.627 512 180V172C512 165.373 506.627 160 500 160zM500 256H140C133.373 256 128 261.373 128 268V308C128 314.627 133.373 320 140 320H500C506.627 320 512 314.627 512 308V268C512 261.373 506.627 256 500 256z"/>
            </g></svg>