<svg xmlns="http://www.w3.org/2000/svg" viewBox="0 0 576 512">
            <g transform="scale(1,-1) translate(0 -448)">
              <path d=" M64 128V102A6 6 0 0 0 58 96H6A6 6 0 0 0 0 102V154A6 6 0 0 0 6 160H32V352H6A6 6 0 0 0 0 358V410A6 6 0 0 0 6 416H58A6 6 0 0 0 64 410V384H352V410A6 6 0 0 0 358 416H410A6 6 0 0 0 416 410V358A6 6 0 0 0 410 352H384V160H410A6 6 0 0 0 416 154V102A6 6 0 0 0 410 96H358A6 6 0 0 0 352 102V128H64zM544 192V224H570A6 6 0 0 1 576 230V282A6 6 0 0 1 570 288H518A6 6 0 0 1 512 282V256H408V184H416C429.255 184 440 173.255 440 160V96C440 82.745 429.255 72 416 72H352C338.745 72 328 82.745 328 96V104H192V32H166A6 6 0 0 1 160 26V-26A6 6 0 0 1 166 -32H218A6 6 0 0 1 224 -26V0H512V-26A6 6 0 0 1 518 -32H570A6 6 0 0 1 576 -26V26A6 6 0 0 1 570 32H544V192z"/>
            </g></svg>