<svg xmlns="http://www.w3.org/2000/svg" viewBox="0 0 640 512">
            <g transform="scale(1,-1) translate(0 -448)">
              <path d=" M144 192H496C504.8 192 512 199.2 512 208V432C512 440.8 504.8 448 496 448H384V320L320 352L256 320V448H144C135.2 448 128 440.8 128 432V208C128 199.2 135.2 192 144 192zM624 64C632.8 64 640 71.2 640 80V112C640 120.8 632.8 128 624 128H16C7.2 128 0 120.8 0 112V80C0 71.2 7.2 64 16 64H64V0H16C7.2 0 0 -7.2 0 -16V-48C0 -56.8 7.2 -64 16 -64H624C632.8 -64 640 -56.8 640 -48V-16C640 -7.2 632.8 0 624 0H576V64H624zM288 0H128V64H288V0zM512 0H352V64H512V0z"/>
            </g></svg>