<svg xmlns="http://www.w3.org/2000/svg" viewBox="0 0 512 512">
            <g transform="scale(1,-1) translate(0 -448)">
              <path d=" M256 440C119 440 8 329 8 192S119 -56 256 -56S504 55 504 192S393 440 256 440zM240 112C240 103.2 232.8 96 224 96H176C167.2 96 160 103.2 160 112V272C160 280.8 167.2 288 176 288H224C232.8 288 240 280.8 240 272V112zM352 112C352 103.2 344.8 96 336 96H288C279.2 96 272 103.2 272 112V272C272 280.8 279.2 288 288 288H336C344.8 288 352 280.8 352 272V112z"/>
            </g></svg>