<svg xmlns="http://www.w3.org/2000/svg" viewBox="0 0 512 512">
            <g transform="scale(1,-1) translate(0 -448)">
              <path d=" M85.231 117.042C36 117.042 0 174.208 0 216.5C0 244.792 16 274.5420000000001 49.538 274.5420000000001C98.769 274.5420000000001 134.769 217.084 134.769 174.792C134.769 146.5 119.077 117.042 85.231 117.042zM433.231 10.875C433.231 -26.167 401.231 -32 369.846 -32C328.615 -32 295.384 -5.75 256 -5.75C214.769 -5.75 179.692 -31.708 135.077 -31.708C105.23 -31.708 78.769 -22.083 78.769 10.875C78.769 80 180.616 182.667 256 182.667S433.231 79.708 433.231 10.875zM182.462 244.208C132.615 244.208 102.462 303.708 102.462 344.541C102.462 377.208 120.308 416 160 416C210.154 416 240 356.5 240 315.6670000000001C240 283 222.154 244.208 182.462 244.208zM272 315.6670000000001C272 356.5 301.846 416 352 416C391.692 416 409.539 377.208 409.539 344.5420000000001C409.539 303.709 379.385 244.209 329.538 244.209C289.846 244.208 272 283 272 315.6670000000001zM512 216.5C512 174.208 476 117.042 426.769 117.042C392.9220000000001 117.042 377.231 146.5 377.231 174.792C377.231 217.083 413.23 274.5420000000001 462.462 274.5420000000001C496 274.5420000000001 512 244.792 512 216.5z"/>
            </g></svg>