<svg xmlns="http://www.w3.org/2000/svg" viewBox="0 0 448 512">
            <g transform="scale(1,-1) translate(0 -448)">
              <path d=" M400 -32H48C21.5 -32 0 -10.5 0 16V368C0 394.5 21.5 416 48 416H400C426.5 416 448 394.5 448 368V16C448 -10.5 426.5 -32 400 -32zM238.1 270.1L102.4 134.4L96.1 77.3C95.3 69.6999999999999 101.7 63.1999999999999 109.4 63.9999999999999L166.5 70.3L302.2 206C304.5 208.3 304.5 212.1 302.2 214.5L246.7 270C244.2 272.4 240.4 272.4 238.1 270.1zM345 282.9L314.9 313C305.5 322.4 290.3 322.4 281 313L257.9 289.9C255.6 287.6 255.6 283.8 257.9 281.4L313.4 225.9C315.7 223.6 319.5 223.6 321.9 225.9L345 249C354.3 258.3 354.3 273.5 345 282.9z"/>
            </g></svg>