<svg xmlns="http://www.w3.org/2000/svg" viewBox="0 0 512 512">
            <g transform="scale(1,-1) translate(0 -448)">
              <path d=" M497.9 305.9L451.8 259.8C447.1 255.1 439.5 255.1 434.8 259.8L323.8 370.8C319.1 375.5 319.1 383.1 323.8 387.8L369.9 433.9000000000001C388.6 452.6 419 452.6 437.8 433.9000000000001L497.9 373.8C516.6999999999999 355.1 516.6999999999999 324.7000000000001 497.9 305.9zM284.2 348.2L21.6 85.6L0.4 -35.9C-2.5 -52.3 11.8 -66.5 28.2 -63.7L149.7 -42.4L412.3 220.2000000000001C417 224.9 417 232.5000000000001 412.3 237.2000000000001L301.3 348.2000000000001C296.5 352.9000000000001 288.9000000000001 352.9000000000001 284.2 348.2000000000001zM124.1 108.1C118.6 113.6 118.6 122.4 124.1 127.9L278.1 281.9000000000001C283.6 287.4000000000001 292.4000000000001 287.4000000000001 297.9000000000001 281.9000000000001S303.4000000000001 267.6 297.9000000000001 262.1L143.9 108.1C138.4 102.6 129.6 102.6 124.1 108.1zM88 24H136V-12.3L71.5 -23.6L40.4 7.5L51.7 72H88V24z"/>
            </g></svg>