<svg xmlns="http://www.w3.org/2000/svg" viewBox="0 0 512 512">
            <g transform="scale(1,-1) translate(0 -448)">
              <path d=" M493.397 423.385L389.397 447.382C378.083 449.993 366.518 444.13 361.941 433.451L313.941 321.454A24 24 0 0 1 320.803 293.425L381.42 243.829C345.447 167.154 282.4820000000001 103.321 204.171 66.581L154.575 127.197A24 24 0 0 1 126.546 134.059L14.549 86.059C3.873 81.484 -1.994 69.92 0.618 58.603L24.615 -45.397C27.109 -56.204 36.748 -64 48 -64C304.087 -64 512 143.5320000000001 512 400C512 411.176 504.286 420.873 493.397 423.385z"/>
            </g></svg>