<svg xmlns="http://www.w3.org/2000/svg" viewBox="0 0 448 512">
            <g transform="scale(1,-1) translate(0 -448)">
              <path d=" M448 153.8V230.2C448 243.5000000000001 437.3 254.2 424 254.2H286.2V392C286.2 405.3 275.5 416 262.2 416H185.8C172.5 416 161.8 405.3 161.8 392V254.2H24C10.7 254.2 0 243.5 0 230.2V153.8C0 140.5 10.7 129.8 24 129.8H161.8V-8C161.8 -21.3 172.5 -32 185.8 -32H262.2000000000001C275.5000000000001 -32 286.2000000000001 -21.3 286.2000000000001 -8V129.8H424C437.3 129.8 448 140.5 448 153.8z"/>
            </g></svg>