<svg width="17" height="17" viewBox="0 0 17 17" fill="none" xmlns="http://www.w3.org/2000/svg">
<path fill-rule="evenodd" clip-rule="evenodd" d="M16 8.5C16 12.6421 12.6421 16 8.5 16C4.35786 16 1 12.6421 1 8.5C1 4.35786 4.35786 1 8.5 1C12.6421 1 16 4.35786 16 8.5ZM17 8.5C17 13.1944 13.1944 17 8.5 17C3.80558 17 0 13.1944 0 8.5C0 3.80558 3.80558 0 8.5 0C13.1944 0 17 3.80558 17 8.5ZM8.47189 4C8.74803 4 8.97189 4.22386 8.97189 4.5V8H12.5C12.7761 8 13 8.22386 13 8.5C13 8.77614 12.7761 9 12.5 9H8.97189V12.5C8.97189 12.7761 8.74803 13 8.47189 13C8.19575 13 7.97189 12.7761 7.97189 12.5L7.97189 9H4.5C4.22386 9 4 8.77614 4 8.5C4 8.22386 4.22386 8 4.5 8H7.97189V4.5C7.97189 4.22386 8.19575 4 8.47189 4Z" fill="black"/>
</svg>
