<svg width="17" height="17" viewBox="0 0 17 17" fill="none" xmlns="http://www.w3.org/2000/svg">
<path fill-rule="evenodd" clip-rule="evenodd" d="M8.5 16C12.6421 16 16 12.6421 16 8.5C16 4.35786 12.6421 1 8.5 1C4.35786 1 1 4.35786 1 8.5C1 12.6421 4.35786 16 8.5 16ZM8.45642 4C8.73161 4 8.95469 4.22386 8.95469 4.5V8H12.5017C12.7769 8 13 8.22386 13 8.5C13 8.77614 12.7769 9 12.5017 9H8.95469V12.5C8.95469 12.7761 8.73161 13 8.45642 13C8.18123 13 7.95815 12.7761 7.95815 12.5V9H4.49827C4.22308 9 4 8.77614 4 8.5C4 8.22386 4.22308 8 4.49827 8H7.95815V4.5C7.95815 4.22386 8.18123 4 8.45642 4Z" fill="black"/>
</svg>
