<svg xmlns="http://www.w3.org/2000/svg" viewBox="0 0 512 512">
            <g transform="scale(1,-1) translate(0 -448)">
              <path d=" M464 256H448V366.059A24 24 0 0 1 440.971 383.029L383.029 440.971A24 24 0 0 1 366.0590000000001 448H88C74.745 448 64 437.255 64 424V256H48C21.49 256 0 234.51 0 208V76C0 69.373 5.373 64 12 64H64V-40C64 -53.255 74.745 -64 88 -64H424C437.255 -64 448 -53.255 448 -40V64H500C506.627 64 512 69.373 512 76V208C512 234.51 490.51 256 464 256zM384 0H128V96H384V0zM128 224V384H320V344C320 330.8 330.8 320 344 320H384V224H128zM432 152C418.746 152 408 162.746 408 176S418.746 200 432 200S456 189.254 456 176S445.254 152 432 152z"/>
            </g></svg>