<svg xmlns="http://www.w3.org/2000/svg" viewBox="0 0 576 512">
            <g transform="scale(1,-1) translate(0 -448)">
              <path d=" M519.442 159.349C477.923 159.349 459.942 127.756 437.384 127.756C377.409 127.756 432 304 432 304S235.712 224 235.712 307.2970000000001C235.712 343.124 272 353.5470000000001 272 393.282C272 428.784 243.885 448 210.539 448C175.885 448 144.173 429.109 144.173 391.654C144.173 350.29 175.884 332.377 175.884 309.904C175.885 240.281 0 281.242 0 281.242V-51.995S178.635 -93.042 178.635 -23.333C178.635 -0.86 138.635 16.774 138.635 58.138C138.635 95.594 167.885 114.484 202.212 114.484C235.885 114.484 264 95.268 264 59.767C264 20.032 227.712 9.609 227.712 -26.218C227.712 -87.021 357.387 -51.948 408.942 -51.948C408.942 -51.948 374.217 68.153 434.769 68.153C470.731 68.153 481.192 32.001 521.077 32.001C556.712 32 576 60.01 576 93.557C576 127.756 557.038 159.3490000000001 519.442 159.3490000000001z"/>
            </g></svg>