<svg xmlns="http://www.w3.org/2000/svg" viewBox="0 0 384 512">
            <g transform="scale(1,-1) translate(0 -448)">
              <path d=" M202.021 448C122.202 448 70.503 415.2970000000001 29.914 356.974C22.551 346.394 24.821 331.8880000000001 35.092 324.1L78.23 291.391C88.603 283.526 103.362 285.365 111.483 295.539C136.532 326.92 155.113 344.988 194.24 344.988C225.004 344.988 263.0560000000001 325.189 263.0560000000001 295.357C263.0560000000001 272.805 244.4390000000001 261.223 214.0630000000001 244.193C178.6400000000001 224.333 131.7640000000001 199.617 131.7640000000001 137.788V128C131.7640000000001 114.745 142.5090000000001 104 155.7640000000001 104H228.2350000000001C241.4900000000001 104 252.2350000000001 114.745 252.2350000000001 128V133.773C252.2350000000001 176.6330000000001 377.5030000000001 178.418 377.5030000000001 294.4000000000001C377.504 381.7440000000001 286.902 448 202.021 448zM192 74.541C153.804 74.541 122.729 43.466 122.729 5.27C122.729 -32.925 153.804 -64 192 -64S261.271 -32.925 261.271 5.271S230.1960000000001 74.541 192 74.541z"/>
            </g></svg>