<svg xmlns="http://www.w3.org/2000/svg" viewBox="0 0 512 512">
            <g transform="scale(1,-1) translate(0 -448)">
              <path d=" M512 368V240C512 102.982 448.228 3.676 318.173 -31.172C302.948 -35.252 288 -23.735 288 -7.973V25.922C288 35.979 294.228 45.055 303.687 48.472C369.6840000000001 72.312 408 117.946 408 192H336C309.49 192 288 213.49 288 240V368C288 394.51 309.49 416 336 416H464C490.51 416 512 394.51 512 368zM176 416H48C21.49 416 0 394.51 0 368V240C0 213.49 21.49 192 48 192H120C120 117.946 81.684 72.312 15.687 48.472C6.228 45.055 0 35.979 0 25.922V-7.973C0 -23.735 14.948 -35.2519999999999 30.173 -31.172C160.228 3.676 224 102.982 224 240V368C224 394.51 202.51 416 176 416z"/>
            </g></svg>