<svg xmlns="http://www.w3.org/2000/svg" viewBox="0 0 512 512">
            <g transform="scale(1,-1) translate(0 -448)">
              <path d=" M504.971 88.971C514.344 79.598 514.344 64.402 504.971 55.03L424.971 -24.954C409.961 -39.964 384 -29.444 384 -7.983V32H325.2150000000001A12.004 12.004 0 0 0 316.442 35.812L245.886 111.408L299.2190000000001 168.5510000000001L352 112H384V151.981C384 173.419 409.943 183.979 424.971 168.952L504.971 88.971zM12 272H96L148.781 215.449L202.114 272.592L131.558 348.188A11.999000000000002 11.999000000000002 0 0 1 122.785 352H12C5.373 352 0 346.627 0 340V284C0 277.373 5.373 272 12 272zM384 272V232.016C384 210.556 409.961 200.036 424.971 215.045L504.971 295.029C514.344 304.402 514.344 319.598 504.971 328.9700000000001L424.971 408.951C409.943 423.979 384 413.418 384 391.981V352H325.2150000000001A12.004 12.004 0 0 1 316.442 348.188L96 112H12C5.373 112 0 106.627 0 100V44C0 37.373 5.373 32 12 32H122.785C126.111 32 129.288 33.381 131.558 35.812L352 272H384z"/>
            </g></svg>