<svg xmlns="http://www.w3.org/2000/svg" viewBox="0 0 512 512">
            <g transform="scale(1,-1) translate(0 -448)">
              <path d=" M184.561 186.097C187.793 172.1 172.438 161.462 160.493 168.929L119.757 194.384L68.89 112.982C55.606 91.727 70.96 64 96.012 64H148C154.627 64 160 58.627 160 52V12C160 5.373 154.627 0 148 0H96.115C20.781 0 -25.187 83.048 14.707 146.88L65.529 228.268L24.804 253.716C12.723 261.2630000000001 15.838 279.677 29.683 282.874L139.92 308.324C148.531 310.312 157.121 304.943 159.109 296.334L184.561 186.097zM283.122 369.012L324.411 302.936L283.671 277.479C271.62 269.951 274.671 251.526 288.55 248.321L398.7870000000001 222.871C407.4590000000001 220.872 416.002 226.309 417.9760000000001 234.861L443.4260000000001 345.098C446.6230000000001 358.942 431.4360000000001 369.817 419.3580000000001 362.266L378.6710000000001 336.842L337.4080000000001 402.924C299.8870000000001 462.957 212.1990000000001 463.095 174.5920000000001 402.924L156.6290000000001 374.158C153.1190000000001 368.538 154.8290000000001 361.137 160.4490000000001 357.625L194.3680000000001 336.43C199.9880000000001 332.918 207.3920000000001 334.627 210.9040000000001 340.247L228.8650000000001 368.99C241.5770000000001 389.331 270.8380000000001 388.666 283.1220000000001 369.012zM497.288 146.88L469.773 190.945C466.262 196.568 458.857 198.279 453.235 194.766L419.374 173.607C413.754 170.095 412.0440000000001 162.692 415.5560000000001 157.071L443.1200000000001 112.959C456.3770000000001 91.7479999999999 441.0630000000001 63.999 415.9840000000001 63.999H320V111.98C320 126.1930000000001 302.758 133.363 292.687 123.293L212.687 43.312C206.438 37.064 206.438 26.933 212.687 20.685L292.687 -59.304C302.689 -69.308 320 -62.3 320 -47.989V0H415.88C491.154 0 537.215 82.997 497.288 146.88z"/>
            </g></svg>