<svg xmlns="http://www.w3.org/2000/svg" viewBox="0 0 512 512">
            <g transform="scale(1,-1) translate(0 -448)">
              <path d=" M256.455 440C322.724 439.881 382.892 413.767 427.314 371.315L463.029 407.03C478.149 422.149 504 411.4410000000001 504 390.059V256C504 242.745 493.255 232 480 232H345.941C324.559 232 313.851 257.851 328.97 272.971L370.72 314.721C339.856 343.62 299.919 359.628 257.49 359.9940000000001C165.092 360.7920000000001 87.207 286.017 88.0059999999999 190.552C88.764 99.991 162.184 24 256 24C297.127 24 335.997 38.678 366.629 65.556C371.372 69.717 378.5350000000001 69.464 382.997 65.003L422.659 25.341C427.531 20.469 427.29 12.526 422.177 7.908C378.202 -31.813 319.926 -56 256 -56C119.034 -56 8.001 55.033 8 191.998C7.999 328.807 119.646 440.245 256.455 440z"/>
            </g></svg>