<svg xmlns="http://www.w3.org/2000/svg" viewBox="0 0 384 512">
            <g transform="scale(1,-1) translate(0 -448)">
              <path d=" M239.36 128C324.48 128 384 187.458 384 272.929S324.48 416 239.36 416H76C69.373 416 64 410.627 64 404V197.368H12C5.373 197.368 0 191.995 0 185.368V140C0 133.373 5.373 128 12 128H64V96H12C5.373 96 0 90.627 0 84V44C0 37.373 5.373 32 12 32H64V-20C64 -26.627 69.373 -32 76 -32H134.56C141.187 -32 146.56 -26.627 146.56 -20V32H308C314.627 32 320 37.373 320 44V84C320 90.627 314.627 96 308 96H146.56V128H239.36zM146.56 347.252H225.28C272 347.252 300.16 318.142 300.16 272.9290000000001C300.16 227.0970000000001 272 197.368 224 197.368H146.56V347.252z"/>
            </g></svg>