<svg xmlns="http://www.w3.org/2000/svg" viewBox="0 0 512 512">
            <g transform="scale(1,-1) translate(0 -448)">
              <path d=" M480 288H32C14.327 288 0 302.327 0 320V384C0 401.673 14.327 416 32 416H480C497.673 416 512 401.673 512 384V320C512 302.327 497.673 288 480 288zM432 376C418.745 376 408 365.255 408 352S418.745 328 432 328S456 338.745 456 352S445.255 376 432 376zM368 376C354.745 376 344 365.255 344 352S354.745 328 368 328S392 338.745 392 352S381.255 376 368 376zM480 128H32C14.327 128 0 142.327 0 160V224C0 241.673 14.327 256 32 256H480C497.673 256 512 241.673 512 224V160C512 142.327 497.673 128 480 128zM432 216C418.745 216 408 205.255 408 192S418.745 168 432 168S456 178.745 456 192S445.255 216 432 216zM368 216C354.745 216 344 205.255 344 192S354.745 168 368 168S392 178.745 392 192S381.255 216 368 216zM480 -32H32C14.327 -32 0 -17.673 0 0V64C0 81.673 14.327 96 32 96H480C497.673 96 512 81.673 512 64V0C512 -17.673 497.673 -32 480 -32zM432 56C418.745 56 408 45.255 408 32S418.745 8 432 8S456 18.745 456 32S445.255 56 432 56zM368 56C354.745 56 344 45.255 344 32S354.745 8 368 8S392 18.745 392 32S381.255 56 368 56z"/>
            </g></svg>