<svg xmlns="http://www.w3.org/2000/svg" viewBox="0 0 448 512">
            <g transform="scale(1,-1) translate(0 -448)">
              <path d=" M448 368V16C448 -10.51 426.51 -32 400 -32H48C21.49 -32 0 -10.51 0 16V368C0 394.51 21.49 416 48 416H400C426.51 416 448 394.51 448 368zM304 152C289.438 152 276.177 146.439 266.217 137.329L198.259 178.104A56.33899999999999 56.33899999999999 0 0 1 198.259 205.897L266.217 246.672C276.177 237.561 289.438 232 304 232C334.928 232 360 257.072 360 288S334.928 344 304 344S248 318.928 248 288C248 283.203 248.605 278.5470000000001 249.74 274.103L181.782 233.328C171.823 242.439 158.562 248 144 248C113.072 248 88 222.928 88 192S113.072 136 144 136C158.562 136 171.823 141.561 181.783 150.671L249.741 109.896A56.08800000000001 56.08800000000001 0 0 1 248.001 95.999C248.001 65.071 273.073 39.999 304.001 39.999S360.001 65.071 360.001 95.999C360 126.928 334.928 152 304 152z"/>
            </g></svg>