<svg xmlns="http://www.w3.org/2000/svg" viewBox="0 0 576 512">
            <g transform="scale(1,-1) translate(0 -448)">
              <path d=" M568.482 270.552L424.479 134.567C409.3 120.232 384 130.86 384 152.015V223.978C239.425 223.008 178.434 188.865 219.225 52.625C223.708 37.652 206.379 26.058 194.219 35.295C155.252 64.895 120 121.512 120 178.661C120 322.598 237.599 351.161 384 351.973V423.988C384 445.162 409.317 455.756 424.479 441.436L568.482 305.448C578.502 295.985 578.51 280.023 568.482 270.552zM384 68.872V0H64V320H114.916A11.989999999999998 11.989999999999998 0 0 1 123.564 323.693C138.517 339.261 155.801 351.583 174.578 361.3690000000001C185.708 367.17 181.584 384 169.033 384H48C21.49 384 0 362.51 0 336V-16C0 -42.51 21.49 -64 48 -64H400C426.51 -64 448 -42.51 448 -16V72.806C448 81.094 439.803 86.872 431.989 84.108A71.83 71.83 0 0 0 397.8 80.731C390.53 81.777 384 76.217 384 68.872z"/>
            </g></svg>