<svg xmlns="http://www.w3.org/2000/svg" viewBox="0 0 448 512">
            <g transform="scale(1,-1) translate(0 -448)">
              <path d=" M170.12 352H80V-20C80 -26.627 74.627 -32 68 -32H12C5.373 -32 0 -26.627 0 -20V404C0 410.627 5.373 416 12 416H180.36C265.48 416 325 358.4 325 272.929V89C325 82.373 319.627 77 313 77H269C255.745 77 245 87.745 245 101V277.677C245 322.89 216.839 352 170.12 352zM436 416H380C373.373 416 368 410.627 368 404V32H277.88C231.16 32 203 61.11 203 106.323V283C203 296.255 192.255 307 179 307H135C128.373 307 123 301.627 123 295V111.071C123 25.6 182.52 -32 267.64 -32H436C442.627 -32 448 -26.627 448 -20V404C448 410.627 442.627 416 436 416z"/>
            </g></svg>