<svg xmlns="http://www.w3.org/2000/svg" viewBox="0 0 640 512">
            <g transform="scale(1,-1) translate(0 -448)">
              <path d=" M496.616 75.361L566.6279999999999 145.373C583.5269999999999 162.273 576.5699999999999 191.144 553.7919999999999 198.465L512 211.898V352C512 369.673 497.673 384 480 384H416V424C416 437.255 405.255 448 392 448H248C234.745 448 224 437.255 224 424V384H160C142.327 384 128 369.673 128 352V211.898L86.208 198.465C63.455 191.152 56.454 162.292 73.372 145.373L143.384 75.361C125.828 31.713 85.587 0 24 0C10.745 0 0 -10.745 0 -24V-40C0 -53.255 10.745 -64 24 -64C85.023 -64 131.499 -43.39 167.258 -4.604C181.677 -39.432 216.021 -64 256 -64H384C423.979 -64 458.323 -39.432 472.742 -4.604C508.495 -43.384 554.968 -64 616 -64C629.255 -64 640 -53.255 640 -40V-24C640 -10.745 629.255 0 616 0C555.183 0 514.458 31.001 496.616 75.361zM192 320H448V232.469L329.7920000000001 270.464A31.995 31.995 0 0 1 310.2080000000001 270.464L192 232.469V320z"/>
            </g></svg>