<svg xmlns="http://www.w3.org/2000/svg" viewBox="0 0 448 512">
            <g transform="scale(1,-1) translate(0 -448)">
              <path d=" M352 288V320C352 390.58 294.579 448 224 448C153.42 448 96 390.58 96 320V288H0V16C0 -28.183 35.817 -64 80 -64H368C412.183 -64 448 -28.183 448 16V288H352zM160 320C160 355.29 188.71 384 224 384S288 355.29 288 320V288H160V320zM320 200C306.745 200 296 210.745 296 224S306.745 248 320 248S344 237.255 344 224S333.255 200 320 200zM128 200C114.745 200 104 210.745 104 224S114.745 248 128 248S152 237.255 152 224S141.255 200 128 200z"/>
            </g></svg>