<svg xmlns="http://www.w3.org/2000/svg" viewBox="0 0 512 512">
            <g transform="scale(1,-1) translate(0 -448)">
              <path d=" M389.6600000000001 312.4L231.6 154.34C222.23 144.97 207.03 144.97 197.66 154.34L186.34 165.66C176.97 175.03 176.97 190.23 186.34 199.6L186.45 199.71C152.42 239.92 151.29 298.65 183.06 340.09C171.09 347.64 156.92 352 141.7600000000001 352C98.88 352 64 317.12 64 274.24V-32H0V274.24C0 352.41 63.59 416 141.76 416C178.69 416 212.37 401.8 237.62 378.58C273.52 390.09 314.12 383.08 344.29 357.55L344.4000000000001 357.66C353.7700000000001 367.03 368.9700000000001 367.03 378.3400000000001 357.66L389.6600000000001 346.3400000000001C399.0300000000001 336.9700000000001 399.0300000000001 321.77 389.6600000000001 312.4zM384 240C384 231.163 376.837 224 368 224S352 231.163 352 240S359.163 256 368 256S384 248.837 384 240zM416 240C416 248.837 423.163 256 432 256S448 248.837 448 240S440.837 224 432 224S416 231.163 416 240zM512 240C512 231.163 504.837 224 496 224S480 231.163 480 240S487.163 256 496 256S512 248.837 512 240zM352 208C352 199.163 344.837 192 336 192S320 199.163 320 208S327.163 224 336 224S352 216.837 352 208zM400 224C408.837 224 416 216.837 416 208S408.837 192 400 192S384 199.163 384 208S391.163 224 400 224zM480 208C480 199.163 472.837 192 464 192S448 199.163 448 208S455.163 224 464 224S480 216.837 480 208zM320 176C320 167.163 312.837 160 304 160S288 167.163 288 176S295.163 192 304 192S320 184.837 320 176zM352 176C352 184.837 359.163 192 368 192S384 184.837 384 176S376.837 160 368 160S352 167.163 352 176zM448 176C448 167.163 440.837 160 432 160S416 167.163 416 176S423.163 192 432 192S448 184.837 448 176zM320 144C320 152.837 327.163 160 336 160S352 152.837 352 144S344.837 128 336 128S320 135.163 320 144zM416 144C416 135.163 408.837 128 400 128S384 135.163 384 144S391.163 160 400 160S416 152.837 416 144zM320 112C320 103.163 312.837 96 304 96S288 103.163 288 112S295.163 128 304 128S320 120.837 320 112zM384 112C384 103.163 376.837 96 368 96S352 103.163 352 112S359.163 128 368 128S384 120.837 384 112zM352 80C352 71.163 344.837 64 336 64S320 71.163 320 80S327.163 96 336 96S352 88.837 352 80zM320 48C320 39.163 312.837 32 304 32S288 39.163 288 48S295.163 64 304 64S320 56.837 320 48z"/>
            </g></svg>