<svg xmlns="http://www.w3.org/2000/svg" viewBox="0 0 512 512">
            <g transform="scale(1,-1) translate(0 -448)">
              <path d=" M416 0H332C325.4 0 320 5.4 320 12V52C320 58.6 325.4 64 332 64H416C433.7 64 448 78.3 448 96V288C448 305.7 433.7 320 416 320H332C325.4 320 320 325.4 320 332V372C320 378.6 325.4 384 332 384H416C469 384 512 341 512 288V96C512 43 469 0 416 0zM369 201L201 369C186 384 160 373.5 160 352V256H24C10.7 256 0 245.3 0 232V136C0 122.7 10.7 112 24 112H160V16C160 -5.5 186 -16 201 -1L369 167C378.3 176.4 378.3 191.6 369 201z"/>
            </g></svg>