<svg xmlns="http://www.w3.org/2000/svg" viewBox="0 0 640 512">
            <g transform="scale(1,-1) translate(0 -448)">
              <path d=" M36 64H92C98.6 64 104 58.6 104 52V-52C104 -58.6 98.6 -64 92 -64H36C29.4 -64 24 -58.6 24 -52V52C24 58.6 29.4 64 36 64zM152 100V-52C152 -58.6 157.4 -64 164 -64H220C226.6 -64 232 -58.6 232 -52V100C232 106.6 226.6 112 220 112H164C157.4 112 152 106.6 152 100zM280 180V-52C280 -58.6 285.4 -64 292 -64H348C354.6 -64 360 -58.6 360 -52V180C360 186.6 354.6 192 348 192H292C285.4 192 280 186.6 280 180zM408 292V-52C408 -58.6 413.4 -64 420 -64H476C482.6 -64 488 -58.6 488 -52V292C488 298.6 482.6 304 476 304H420C413.4 304 408 298.6 408 292zM536 436V-52C536 -58.6 541.4 -64 548 -64H604C610.6 -64 616 -58.6 616 -52V436C616 442.6 610.6 448 604 448H548C541.4 448 536 442.6 536 436z"/>
            </g></svg>