<svg xmlns="http://www.w3.org/2000/svg" viewBox="0 0 576 512">
            <g transform="scale(1,-1) translate(0 -448)">
              <path d=" M576 368V328C576 321.4 570.6 316 564 316H160V308C160 294.7 149.3 284 136 284H120C106.7 284 96 294.7 96 308V316H12C5.4 316 0 321.4 0 328V368C0 374.6 5.4 380 12 380H96V388C96 401.3 106.7 412 120 412H136C149.3 412 160 401.3 160 388V380H564C570.6 380 576 374.6 576 368zM564 220H480V228C480 241.3 469.3 252 456 252H440C426.7 252 416 241.3 416 228V220H12C5.4 220 0 214.6 0 208V168C0 161.4 5.4 156 12 156H416V148C416 134.7 426.7 124 440 124H456C469.3 124 480 134.7 480 148V156H564C570.6 156 576 161.4 576 168V208C576 214.6 570.6 220 564 220zM564 60H288V68C288 81.3 277.3 92 264 92H248C234.7 92 224 81.3 224 68V60H12C5.4 60 0 54.6 0 48V8C0 1.4 5.4 -4 12 -4H224V-12C224 -25.3 234.7 -36 248 -36H264C277.3 -36 288 -25.3 288 -12V-4H564C570.6 -4 576 1.4 576 8V48C576 54.6 570.6 60 564 60z"/>
            </g></svg>