<svg xmlns="http://www.w3.org/2000/svg" viewBox="0 0 448 512">
            <g transform="scale(1,-1) translate(0 -448)">
              <path d=" M444.816 146.361A24.12 24.12 0 0 1 447.477 163.339C444.752 176.305 432.138 184.584 419.303 181.831L331.896 156.785L264 192L331.896 227.215L419.303 202.169C432.138 199.416 444.752 207.695 447.477 220.661C450.202 233.627 442.006 246.369 429.172 249.122L381.695 256.259L434.772 287.2150000000001C446.135 293.842 450.029 308.521 443.468 320C436.9070000000001 331.479 422.377 335.4120000000001 411.014 328.785L357.937 297.829L375.558 342.933C379.615 355.539 372.79 369.079 360.311 373.178C347.833 377.2770000000001 334.428 370.3810000000001 330.371 357.776L308.139 268.786L247.759 233.571V304L312.9340000000001 367.945C321.7120000000001 377.7970000000001 320.9210000000001 392.972 311.168 401.839C301.415 410.706 286.3930000000001 409.907 277.616 400.055L247.759 362.088V424C247.759 437.255 237.122 448 224.001 448S200.243 437.255 200.243 424V362.088L170.386 400.055C161.607 409.907 146.587 410.707 136.834 401.839C127.081 392.972 126.291 377.7970000000001 135.068 367.945L200.242 304V233.569L139.862 268.784L117.63 357.774C113.573 370.379 100.168 377.2750000000001 87.69 373.1760000000001C75.212 369.077 68.386 355.536 72.443 342.9310000000001L90.063 297.827L36.986 328.783C25.623 335.41 11.093 331.477 4.532 319.998S1.865 293.841 13.228 287.213L66.305 256.257L18.828 249.12C5.993 246.366 -2.203 233.625 0.523 220.659C3.248 207.694 15.862 199.414 28.697 202.167L116.104 227.213L184 192L116.104 156.785L28.698 181.83C15.863 184.583 3.249 176.304 0.524 163.338C-2.201 150.371 5.994 137.63 18.829 134.877L66.306 127.74L13.229 96.7839999999999C1.866 90.157 -2.027 75.479 4.533 64S25.624 48.588 36.987 55.215L90.064 86.171L72.444 41.067A24.157 24.157 0 0 1 74.466 21.639C77.297 16.686 81.882 12.73 87.69 10.823C100.168 6.724 113.573 13.6200000000001 117.63 26.225L139.862 115.215L200.242 150.4300000000001V80L135.067 16.055C126.289 6.203 127.08 -8.972 136.833 -17.839C146.587 -26.707 161.607 -25.907 170.385 -16.055L200.242 21.912V-40C200.242 -53.255 210.879 -64 224 -64S247.758 -53.255 247.758 -40V21.912L277.615 -16.055A23.59 23.59 0 0 1 295.282 -24A23.534 23.534 0 0 1 311.167 -17.839C320.92 -8.972 321.711 6.203 312.933 16.055L247.758 80V150.431L308.1380000000001 115.216L330.37 26.226C334.427 13.621 347.832 6.725 360.31 10.824C372.789 14.923 379.614 28.464 375.557 41.069L357.9360000000001 86.173L411.0130000000001 55.217C422.3760000000001 48.59 436.9060000000001 52.523 443.4670000000001 64.002S446.134 90.159 434.771 96.787L381.694 127.7430000000001L429.171 134.8800000000001C436.031 136.3490000000001 441.565 140.6730000000001 444.816 146.3610000000001z"/>
            </g></svg>