<svg xmlns="http://www.w3.org/2000/svg" viewBox="0 0 448 512">
            <g transform="scale(1,-1) translate(0 -448)">
              <path d=" M308.811 334.213L289.363 355.008C284.841 359.844 285.089 367.429 289.919 371.958L333.362 412.699A11.999000000000002 11.999000000000002 0 0 0 341.571 415.9460000000001H373.162C379.789 415.9460000000001 385.162 410.573 385.162 403.9460000000001V276.876H410.822C417.449 276.876 422.822 271.5030000000001 422.822 264.876V235.946C422.822 229.319 417.449 223.946 410.822 223.946H301.649C295.022 223.946 289.649 229.319 289.649 235.946V264.876C289.649 271.5030000000001 295.022 276.876 301.649 276.876H327.063V334.814C319.809 328.2340000000001 312.852 329.8930000000001 308.811 334.213zM278.241 95.644C278.241 128.297 302.106 163 346.335 163C384.588 163 425.759 134.139 425.759 70.772C425.759 19.496 393.522 -35 333.776 -35C315.94 -35 303.23 -31.443 295.228 -28.219C289.438 -25.886 286.439 -19.473 288.306 -13.516L297.543 15.964C299.5780000000001 22.46 306.592 25.947 313.01 23.68C326.039 19.078 340.888 18.405 351.113 27.818C312.371 22.746 278.241 53.178 278.241 95.644zM370.514 76.306C370.514 98.591 355.212 112.811 344.6790000000001 112.811C336.0370000000001 112.811 331.5150000000001 104.846 331.5150000000001 96.979C331.5150000000001 91.31 333.3300000000001 72.811 356.6830000000001 72.811C366.6560000000001 72.811 370.0600000000001 74.965 370.427 75.542C370.4480000000001 75.588 370.514 75.833 370.514 76.306zM175.984 80H128V400C128 408.837 120.837 416 112 416H80C71.163 416 64 408.837 64 400V80H16.019C1.807 80 -5.365 62.756 4.705 52.686L84.686 -27.316C90.931 -33.561 101.066 -33.563 107.313 -27.316L187.297 52.686C197.347 62.736 190.225 80 175.984 80z"/>
            </g></svg>