<svg xmlns="http://www.w3.org/2000/svg" viewBox="0 0 448 512">
            <g transform="scale(1,-1) translate(0 -448)">
              <path d=" M4.702 331.314L84.686 411.316C90.934 417.563 101.069 417.561 107.313 411.316L187.294 331.314C197.364 321.2440000000001 190.193 304 175.98 304H128V-16C128 -24.837 120.837 -32 112 -32H80C71.163 -32 64 -24.837 64 -16V304H16.016C1.775 304 -5.347 321.264 4.702 331.314zM306.373 232.693A12 12 0 0 0 294.838 224H259.1210000000001C250.9010000000001 224 245.1140000000001 232.078 247.7590000000001 239.861L304.855 407.861A12 12 0 0 0 316.217 416H355.783C360.9220000000001 416 365.4910000000001 412.727 367.1450000000001 407.861L424.2410000000001 239.861C426.886 232.078 421.1 224 412.879 224H377.144A12 12 0 0 0 365.629 232.622L357.3280000000001 260.9210000000001H314.4650000000001L306.3730000000001 232.693zM329.23 311.39H342.5970000000001L335.997 334.327L329.23 311.39zM341.805 24.067L409.256 119.765A12 12 0 0 1 411.448 126.678V148C411.448 154.627 406.075 160 399.448 160H274.522C267.895 160 262.522 154.627 262.522 148V119.07C262.522 112.443 267.895 107.07 274.522 107.07H330.991C330.252 106.079 329.494 105.034 328.721 103.937L261.5180000000001 8.732A12.001000000000001 12.001000000000001 0 0 1 259.322 1.812V-20C259.322 -26.627 264.695 -32 271.322 -32H400.677C407.3040000000001 -32 412.677 -26.627 412.677 -20V8.93C412.677 15.557 407.3040000000001 20.93 400.677 20.93H339.531C340.271 21.923 341.031 22.969 341.805 24.067z"/>
            </g></svg>