<svg xmlns="http://www.w3.org/2000/svg" viewBox="0 0 512 512">
            <g transform="scale(1,-1) translate(0 -448)">
              <path d=" M447.1 336C412.9000000000001 335.5 384.8 307.6 384.1 273.4C383.6 249.1 396.6 227.8 416.1 216.6V104C416.1 46.7 365.9000000000001 0 304.1 0C244.1 0 194.9 44.1 192.2 99.2C265 114.2 320 178.8 320 256V411.4C320 422.8 311.9 432.7 300.7 434.9L237.8 447.5C224.8 450.1 212.2 441.7 209.6 428.7L206.4 413C203.8 400 212.2 387.4 225.2 384.8L255.9 378.7V257.3C255.9 204.4 213.7 160.6 160.8 160.1C107.4 159.6 63.9 202.8 63.9 256.1V378.6L94.6 384.7C107.6 387.3 116 399.9 113.4 412.9L110.3 428.6C107.7 441.6 95.1 450 82.1 447.4L19.3 435C8.1 432.7 0 422.9 0 411.4V256C0 178.7 55.1 114 128.1 99.2C130.7 8.8 208.6 -64 304 -64C401 -64 480 11.4 480 104V216.6C499.1 227.7 512 248.3 512 272C512 307.7 482.8 336.5 447.1 336zM448 256C439.2 256 432 263.2 432 272S439.2 288 448 288S464 280.8 464 272S456.8 256 448 256z"/>
            </g></svg>