<svg xmlns="http://www.w3.org/2000/svg" viewBox="0 0 448 512">
            <g transform="scale(1,-1) translate(0 -448)">
              <path d=" M432 144C432 29.1 338.9 -64 224 -64S16 29.1 16 144C16 248 92.3 334.2 192 349.5V384H164C157.4 384 152 389.4 152 396V436C152 442.6 157.4 448 164 448H284C290.6 448 296 442.6 296 436V396C296 389.4 290.6 384 284 384H256V349.5C293.5 343.7 327.7 327.9 355.7 304.9L383.2 332.4C387.9 337.1 395.5 337.1 400.2 332.4L428.5 304.1C433.2 299.4 433.2 291.8 428.5 287.1L399.1 257.7L398.5 257.1C419.7 224.7 432 185.8 432 144zM256 108V259.5C256 266.1 250.6 271.5 244 271.5H204C197.4 271.5 192 266.1 192 259.5V108C192 101.4 197.4 96 204 96H244C250.6 96 256 101.4 256 108z"/>
            </g></svg>