<svg xmlns="http://www.w3.org/2000/svg" viewBox="0 0 512 512">
            <g transform="scale(1,-1) translate(0 -448)">
              <path d=" M274.835 435.354L300.351 372.961C304.564 362.66 317.022 358.612 326.485 364.469L383.8010000000001 399.948C399.2910000000001 409.536 418.6090000000001 395.501 414.2760000000001 377.806L398.2460000000001 312.331C395.5990000000001 301.521 403.2990000000001 290.923 414.3980000000001 290.1L481.6220000000001 285.1130000000001C499.7890000000001 283.765 507.1680000000001 261.0560000000001 493.2630000000001 249.2870000000001L441.81 205.74C433.315 198.55 433.315 185.451 441.81 178.261L493.264 134.713C507.17 122.944 499.791 100.235 481.623 98.887L414.399 93.9C403.3 93.077 395.6 82.479 398.247 71.669L414.2770000000001 6.194C418.6090000000001 -11.501 399.2910000000001 -25.5360000000001 383.802 -15.948L326.486 19.531C317.023 25.389 304.564 21.341 300.352 11.0389999999999L274.836 -51.354C267.94 -68.216 244.062 -68.216 237.166 -51.354L211.65 11.039C207.437 21.34 194.979 25.388 185.516 19.531L128.199 -15.948C112.709 -25.536 93.391 -11.501 97.724 6.194L113.754 71.669C116.401 82.479 108.701 93.077 97.602 93.9L30.378 98.887C12.211 100.235 4.832 122.944 18.737 134.713L70.19 178.26C78.685 185.45 78.685 198.549 70.19 205.739L18.736 249.287C4.83 261.056 12.209 283.765 30.377 285.113L97.601 290.1C108.7 290.923 116.4 301.521 113.753 312.331L97.723 377.806C93.391 395.501 112.709 409.536 128.198 399.948L185.515 364.469C194.978 358.611 207.436 362.659 211.649 372.961L237.165 435.354C244.061 452.215 267.939 452.215 274.835 435.354zM392 192C392 266.991 330.99 328 256 328C181.009 328 120 266.991 120 192S181.009 56 256 56C330.99 56 392 117.009 392 192zM360 192C360 134.654 313.346 88 256 88S152 134.654 152 192S198.654 296 256 296S360 249.346 360 192z"/>
            </g></svg>