<svg xmlns="http://www.w3.org/2000/svg" viewBox="0 0 512 512">
            <g transform="scale(1,-1) translate(0 -448)">
              <path d=" M395.198 192C398.659 202.526 413.994 213.28 431.463 224.425C448.088 235.03 466.9299999999999 247.051 481.804 263.2870000000001C499.2619999999999 282.341 507.748 303.462 507.748 327.854C507.748 388.416 457.046 416 409.938 416C367.447 416 333.56 393.984 315.506 365.553C310.852 358.224 312.914 348.517 320.129 343.688L350.457 323.392C357.4889999999999 318.6860000000001 366.9169999999999 320.308 372.087 327.006C380.1089999999999 337.4 390.9049999999999 345.231 403.7539999999999 345.231C423.1409999999999 345.231 430.0199999999999 332.33 430.0199999999999 321.283C430.0199999999999 285.124 310.5829999999999 264.26 310.5829999999999 161.259C310.5829999999999 154.605 311.1439999999999 148.245 311.998 141.928C313.074 133.964 319.832 128 327.868 128H496C504.837 128 512 135.163 512 144V176C512 184.837 504.837 192 496 192H395.198zM272 32C280.837 32 288 24.837 288 16V-16C288 -24.837 280.837 -32 272 -32H209.601A16 16 0 0 0 196.06 -24.522L150.359 48.093C148.062 51.445 145.937 55.062 144.164 58.302C142.514 55.058 140.517 51.365 138.29 47.72L93.578 -24.427A15.999 15.999 0 0 0 79.978 -31.999H16C7.163 -31.999 0 -24.836 0 -15.999V16.001C0 24.838 7.163 32.001 16 32.001H42.325L98.877 114.71L46.111 192H16C7.163 192 0 199.163 0 208V240C0 248.837 7.163 256 16 256H84.806A16 16 0 0 0 98.451 248.356L138.333 183.23C140.405 179.707 142.386 176.059 144.06 172.86C145.837 176.1040000000001 147.98 179.814 150.297 183.397L190.629 248.432A16 16 0 0 0 204.227 255.999H272C280.837 255.999 288 248.836 288 239.999V207.999C288 199.162 280.837 191.999 272 191.999H244.021L191.331 116.328L249.974 32H272z"/>
            </g></svg>