<svg xmlns="http://www.w3.org/2000/svg" viewBox="0 0 512 512">
            <g transform="scale(1,-1) translate(0 -448)">
              <path d=" M370.7200000000001 314.7200000000001C339.4580000000001 343.992 298.888 360.038 255.848 360C178.39 359.932 111.52 306.822 93.057 233.15C91.713 227.787 86.935 224 81.406 224H24.103C16.605 224 10.909 230.807 12.296 238.176C33.933 353.076 134.813 440 256 440C322.448 440 382.791 413.8640000000001 427.315 371.315L463.03 407.03C478.149 422.149 504 411.4410000000001 504 390.059V256C504 242.745 493.255 232 480 232H345.941C324.559 232 313.851 257.851 328.97 272.971L370.72 314.7200000000001zM32 152H166.059C187.441 152 198.149 126.149 183.03 111.029L141.28 69.279C172.542 40.006 213.115 23.96 256.156 23.999C333.574 24.069 400.471 77.143 418.943 150.848C420.287 156.211 425.065 159.998 430.594 159.998H487.898C495.396 159.998 501.092 153.191 499.705 145.822C478.067 30.924 377.187 -56 256 -56C189.552 -56 129.209 -29.864 84.685 12.685L48.97 -23.03C33.851 -38.149 8 -27.441 8 -6.059V128C8 141.255 18.745 152 32 152z"/>
            </g></svg>