<svg xmlns="http://www.w3.org/2000/svg" viewBox="0 0 512 512">
            <g transform="scale(1,-1) translate(0 -448)">
              <path d=" M496.2 151.5C527.7 229.3 512 321.8 449 384.9C365.1 469 229 469 145.1 384.9L89.1 328.8L300.6 117.3C346.7000000000001 179.4 432.1 194.7 496.2 151.5zM278.3 71.8L57.9 292.1C30.6 246.8 36.2 187.1 75.2 148L109.7 113.4L6.7 24C-1.9 16.5 -2.4 3.3 5.7 -4.8L59.1 -58.3C67.1 -66.4 80.3 -65.9 87.8 -57.3L177.1 46L212.8 10.3C232.5 -9.4 257.4000000000001 -20.2 283.1 -23C276 -6 272.1 12.6 272.1 32.1C272 45.9 274.6 59.1 278.3 71.8zM416 128C363 128 320 85 320 32S363 -64 416 -64S512 -21 512 32S469 128 416 128z"/>
            </g></svg>