<svg xmlns="http://www.w3.org/2000/svg" viewBox="0 0 512 512">
            <g transform="scale(1,-1) translate(0 -448)">
              <path d=" M0 195.882V400C0 426.51 21.49 448 48 448H252.118A48 48 0 0 0 286.059 433.941L497.941 222.059C516.6859999999999 203.314 516.6859999999999 172.922 497.941 154.177L293.823 -49.941C275.078 -68.6859999999999 244.686 -68.6859999999999 225.941 -49.941L14.059 161.941A48 48 0 0 0 0 195.882zM112 384C85.49 384 64 362.51 64 336S85.49 288 112 288S160 309.49 160 336S138.51 384 112 384z"/>
            </g></svg>