<svg xmlns="http://www.w3.org/2000/svg" viewBox="0 0 576 512">
            <g transform="scale(1,-1) translate(0 -448)">
              <path d=" M16 416H304C312.837 416 320 408.837 320 400V304C320 295.163 312.837 288 304 288H268.504C259.6670000000001 288 252.504 295.163 252.504 304V352H197.743V32H232C240.837 32 248 24.837 248 16V-16C248 -24.837 240.837 -32 232 -32H88C79.163 -32 72 -24.837 72 -16V16C72 24.837 79.163 32 88 32H122.257V352H67.496V304C67.496 295.163 60.333 288 51.496 288H16C7.163 288 0 295.163 0 304V400C0 408.837 7.163 416 16 416zM491.308 411.315L571.303 331.314C581.309 321.307 574.297 304 559.99 304H512V80H560C575.639 80 580.635 62.009 571.313 52.686L491.318 -27.3150000000001C485.071 -33.5620000000001 474.937 -33.5600000000001 468.692 -27.3150000000001L388.697 52.6859999999999C378.691 62.693 385.703 80 400.01 80H448V304H400C384.361 304 379.365 321.991 388.687 331.314L468.682 411.315C474.929 417.563 485.063 417.56 491.308 411.315z"/>
            </g></svg>