<svg xmlns="http://www.w3.org/2000/svg" viewBox="0 0 512 512">
            <g transform="scale(1,-1) translate(0 -448)">
              <path d=" M149.333 232V152C149.333 138.745 138.588 128 125.333 128H24C10.745 128 0 138.745 0 152V232C0 245.255 10.745 256 24 256H125.333C138.588 256 149.333 245.255 149.333 232zM0 72V-8C0 -21.255 10.745 -32 24 -32H125.333C138.588 -32 149.333 -21.255 149.333 -8V72C149.333 85.255 138.588 96 125.333 96H24C10.745 96 0 85.255 0 72zM125.333 416H24C10.745 416 0 405.255 0 392V312C0 298.745 10.745 288 24 288H125.333C138.588 288 149.333 298.745 149.333 312V392C149.333 405.255 138.588 416 125.333 416zM205.333 -32H488C501.255 -32 512 -21.255 512 -8V72C512 85.255 501.255 96 488 96H205.333C192.078 96 181.333 85.255 181.333 72V-8C181.333 -21.255 192.078 -32 205.333 -32zM181.333 392V312C181.333 298.745 192.078 288 205.333 288H488C501.255 288 512 298.745 512 312V392C512 405.255 501.255 416 488 416H205.333C192.078 416 181.333 405.255 181.333 392zM205.333 128H488C501.255 128 512 138.745 512 152V232C512 245.255 501.255 256 488 256H205.333C192.078 256 181.333 245.255 181.333 232V152C181.333 138.745 192.078 128 205.333 128z"/>
            </g></svg>