<svg xmlns="http://www.w3.org/2000/svg" viewBox="0 0 512 512">
            <g transform="scale(1,-1) translate(0 -448)">
              <path d=" M296 416H488C501.255 416 512 405.255 512 392V232C512 218.745 501.255 208 488 208H296C282.745 208 272 218.745 272 232V392C272 405.255 282.745 416 296 416zM216 416H24C10.745 416 0 405.255 0 392V232C0 218.745 10.745 208 24 208H216C229.255 208 240 218.745 240 232V392C240 405.255 229.255 416 216 416zM0 152V-8C0 -21.255 10.745 -32 24 -32H216C229.255 -32 240 -21.255 240 -8V152C240 165.255 229.255 176 216 176H24C10.745 176 0 165.255 0 152zM296 -32H488C501.255 -32 512 -21.255 512 -8V152C512 165.255 501.255 176 488 176H296C282.745 176 272 165.255 272 152V-8C272 -21.255 282.745 -32 296 -32z"/>
            </g></svg>