<svg xmlns="http://www.w3.org/2000/svg" viewBox="0 0 256 512">
            <g transform="scale(1,-1) translate(0 -448)">
              <path d=" M224 352C224 405.019 181.019 448 128 448S32 405.019 32 352V148.653C12.225 126.244 0.166 96.864 0.002 64.667C-0.357 -5.636 56.789 -63.509 127.091 -63.997C127.39 -63.999 127.701 -64 128 -64C198.698 -64 256 -6.696 256 64C256 96.459 243.912 126.09 224 148.653V352zM128 -16L127.424 -15.998C83.564 -15.694 47.777 20.546 48.001 64.422C48.174 98.402 67.267 116.074 80 130.502V352C80 378.467 101.533 400 128 400S176 378.467 176 352V130.502C188.63 116.19 208 98.338 208 64C208 19.888 172.112 -16 128 -16zM192 64C192 28.654 163.346 0 128 0S64 28.654 64 64C64 87.685 76.876 108.349 96 119.417V352C96 369.673 110.327 384 128 384S160 369.673 160 352V119.417C179.124 108.3490000000001 192 87.6850000000001 192 64z"/>
            </g></svg>