<svg xmlns="http://www.w3.org/2000/svg" viewBox="0 0 256 512">
            <g transform="scale(1,-1) translate(0 -448)">
              <path d=" M192 64C192 28.654 163.346 0 128 0S64 28.654 64 64C64 87.685 76.876 108.349 96 119.417V160C96 177.673 110.327 192 128 192S160 177.673 160 160V119.417C179.124 108.3490000000001 192 87.6850000000001 192 64zM224 148.653C243.912 126.09 256 96.459 256 64C256 -6.696 198.697 -64 128 -64C127.701 -64 127.391 -63.999 127.091 -63.997C56.789 -63.509 -0.357 -5.636 0.002 64.667C0.166 96.865 12.225 126.245 32 148.653V352C32 405.019 74.981 448 128 448S224 405.019 224 352V148.653zM208 64C208 98.339 188.63 116.19 176 130.502V352C176 378.467 154.467 400 128 400S80 378.467 80 352V130.502C67.268 116.074 48.175 98.402 48.001 64.422C47.777 20.5460000000001 83.564 -15.694 127.424 -15.998L128 -16C172.112 -16 208 19.888 208 64z"/>
            </g></svg>