<svg xmlns="http://www.w3.org/2000/svg" viewBox="0 0 512 512">
            <g transform="scale(1,-1) translate(0 -448)">
              <path d=" M476.8 427.6C439.3 458.3 381.3 453.9 344.9 417.4L299.2 371.4L349.7 320.9C352.8 317.8 352.8 312.7000000000001 349.7 309.6L338.4 298.3C335.3 295.2 330.2 295.2 327.1 298.3L276.7 348.8L231.6 303.4L281.9 253C285 249.9 285 244.8 281.9 241.7L270.6 230.4C267.5 227.3 262.4 227.3 259.3 230.4L209 280.6L163.9 235.2L214 185C217.1 181.9 217.1 176.8 214 173.7L202.7 162.4C199.6 159.3 194.5 159.3 191.4 162.4L141.3 212.6L96 166.9V66L7 -23C-2.4 -32.4 -2.4 -47.6 7 -56.9C16.4 -66.2999999999999 31.6 -66.2999999999999 40.9 -56.9L129.9 32.1H229.8L484 285.4C518.9 320.3 526.2 386.9 476.8 427.6z"/>
            </g></svg>