<svg xmlns="http://www.w3.org/2000/svg" viewBox="0 0 512 512">
            <g transform="scale(1,-1) translate(0 -448)">
              <path d=" M0 392V152C0 138.745 10.745 128 24 128H104C117.255 128 128 138.745 128 152V392C128 405.255 117.255 416 104 416H24C10.745 416 0 405.255 0 392zM40 192C40 205.255 50.745 216 64 216S88 205.255 88 192S77.255 168 64 168S40 178.745 40 192zM312 -64C291.817 -64 282.515 -24.707 278.069 -6.205C272.863 15.461 267.48 37.865 252.676 52.697C220.207 85.221 203.173 126.664 163.559 165.808A11.98 11.98 0 0 0 160.001 174.329V388.099C160.001 394.64 165.244 399.977 171.784 400.097C187.615 400.387 208.478 409.176 224.435 416.275C256.189 430.402 295.709 447.983 343.995 448H346.839C389.616 448 440.202 447.587 460.613 418.263C469.005 406.206 471.059 391.229 466.761 373.631C483.073 356.578 491.824 324.7680000000001 483.143 298.874C500.687 275.442 502.2860000000001 242.742 492.451 219.405L492.561 219.295C504.4540000000001 207.346 512.0840000000001 188.036 512 170.098C511.844 139.746 485.843 111.9999999999999 452.447 111.9999999999999H350.723C358.03 83.66 384 59.868 384 17.452C384 -56 336 -64 312 -64z"/>
            </g></svg>