<svg xmlns="http://www.w3.org/2000/svg" viewBox="0 0 640 512">
            <g transform="scale(1,-1) translate(0 -448)">
              <path d=" M97.119 284.867H12C5.373 284.867 0 290.24 0 296.867V340C0 346.627 5.373 352 12 352H260.559C267.186 352 272.559 346.627 272.559 340V296.867C272.559 290.24 267.186 284.867 260.559 284.867H175.44V44C175.44 37.373 170.067 32 163.44 32H109.118C102.491 32 97.118 37.373 97.118 44V284.867zM329.825 352H395.25A12 12 0 0 0 406.596 343.907L450.355 216.839C457.516 196.251 466.466 164.027 466.466 164.027H467.362S476.312 196.251 483.473 216.839L527.231 343.907A12 12 0 0 0 538.577 352H603.987A12 12 0 0 0 615.948 340.9700000000001L639.96 44.97C640.527 37.983 635.009 32 627.999 32H573.898A12 12 0 0 0 561.926 43.182L552.844 176.112C551.0540000000001 200.28 552.844 229.8180000000001 552.844 229.8180000000001H551.9480000000001S541.2070000000001 196.2520000000001 534.046 176.112L503.3460000000001 91.381A12 12 0 0 0 492.0640000000001 83.4690000000001H441.7620000000001A12 12 0 0 0 430.4800000000001 91.381L399.7800000000001 176.112C392.6190000000001 196.252 381.8770000000001 229.8180000000001 381.8770000000001 229.8180000000001H380.9820000000001S382.7720000000001 200.28 380.9820000000001 176.112L371.9000000000001 43.182C371.4720000000001 36.887 366.2400000000001 32 359.9300000000001 32H305.4C298.383 32 292.864 37.994 293.441 44.987L317.866 340.987A11.999000000000002 11.999000000000002 0 0 0 329.825 352z"/>
            </g></svg>