<svg xmlns="http://www.w3.org/2000/svg" viewBox="0 0 384 512">
            <g transform="scale(1,-1) translate(0 -448)">
              <path d=" M372 448H293C282.3 448 277 435.1 284.5 427.5L301.4 410.6L220.7 329.9C198.5 343.9 172.2 352 144 352C64.5 352 0 287.5 0 208C0 139.5 47.9 82.1 112 67.6V40H76C69.4 40 64 34.6 64 28V-12C64 -18.6 69.4 -24 76 -24H112V-52C112 -58.6 117.4 -64 124 -64H164C170.6 -64 176 -58.6 176 -52V-24H212C218.6 -24 224 -18.6 224 -12V28C224 34.6 218.6 40 212 40H176V67.6C240.1 82.2000000000001 288 139.5 288 208C288 236.2 279.9 262.5 265.9 284.7000000000001L346.6 365.4000000000001L363.5 348.5000000000001C371.1 340.9000000000001 384 346.3000000000001 384 357.0000000000001V436C384 442.6 378.6 448 372 448zM144 128C99.9 128 64 163.9 64 208S99.9 288 144 288S224 252.1 224 208S188.1 128 144 128z"/>
            </g></svg>