<svg xmlns="http://www.w3.org/2000/svg" viewBox="0 0 448 512">
            <g transform="scale(1,-1) translate(0 -448)">
              <path d=" M0 364V392C0 405.3 10.7 416 24 416H136L145.4 434.7C149.4 442.9 157.7 448 166.8 448H281.1C290.2000000000001 448 298.5 442.9 302.6 434.7L312 416H424C437.3 416 448 405.3 448 392V364C448 357.4 442.6 352 436 352H12C5.4 352 0 357.4 0 364zM416 308V-16C416 -42.5 394.5 -64 368 -64H80C53.5 -64 32 -42.5 32 -16V308C32 314.6 37.4 320 44 320H404C410.6 320 416 314.6 416 308zM144 240C144 248.8 136.8 256 128 256S112 248.8 112 240V16C112 7.2 119.2 0 128 0S144 7.2 144 16V240zM240 240C240 248.8 232.8 256 224 256S208 248.8 208 240V16C208 7.2 215.2 0 224 0S240 7.2 240 16V240zM336 240C336 248.8 328.8 256 320 256S304 248.8 304 240V16C304 7.2 311.2 0 320 0S336 7.2 336 16V240z"/>
            </g></svg>