<svg xmlns="http://www.w3.org/2000/svg" viewBox="0 0 384 512">
            <g transform="scale(1,-1) translate(0 -448)">
              <path d=" M377.33 72.571L293.906 160H328C349.017 160 359.872 185.207 345.448 200.479L262.79 288H296C316.878 288 327.851 312.969 313.587 328.331L209.587 440.334C200.102 450.548 183.911 450.563 174.413 440.334L70.413 328.331C56.206 313.031 67.037 288 88 288H121.21L38.551 200.479C24.121 185.199 34.993 160 56 160H90.094L6.665 72.571C-7.869 57.345 2.925 32 24.025 32H144C144 -0.781 132.812 -17.26 110.005 -35.506C98.225 -44.93 104.914 -64 120 -64H264C279.086 -64 285.776 -44.931 273.995 -35.506C254.227 -19.6919999999999 240.003 -3.841 240 31.99V32H359.9700000000001C381.0200000000001 32 391.899 57.309 377.3300000000001 72.571z"/>
            </g></svg>