<svg xmlns="http://www.w3.org/2000/svg" viewBox="0 0 640 512">
            <g transform="scale(1,-1) translate(0 -448)">
              <path d=" M624 96H608V204.1C608 216.8 602.9 229 593.9 238L494 337.9C485 346.9 472.8 352 460.1 352H416V400C416 426.5 394.5 448 368 448H48C21.5 448 0 426.5 0 400V80C0 53.5 21.5 32 48 32H64C64 -21 107 -64 160 -64S256 -21 256 32H384C384 -21 427 -64 480 -64S576 -21 576 32H624C632.8 32 640 39.2 640 48V80C640 88.8 632.8 96 624 96zM160 -16C133.5 -16 112 5.5 112 32S133.5 80 160 80S208 58.5 208 32S186.5 -16 160 -16zM480 -16C453.5 -16 432 5.5 432 32S453.5 80 480 80S528 58.5 528 32S506.5 -16 480 -16zM560 192H416V304H460.1L560 204.1V192z"/>
            </g></svg>