<svg xmlns="http://www.w3.org/2000/svg" viewBox="0 0 512 512">
            <g transform="scale(1,-1) translate(0 -448)">
              <path d=" M5.37 344.178C143.902 482.71 368.306 482.504 506.632 344.178C512.71 338.1 513.706 328.682 509.215 321.497L466.001 252.359A18.332 18.332 0 0 0 443.6450000000001 245.054L357.2230000000001 279.623A18.335 18.335 0 0 0 345.7890000000001 298.469L351.741 358C289.596 380.454 221.105 379.986 160.258 358L166.211 298.468A18.331 18.331 0 0 0 154.777 279.622L68.354 245.0540000000001A18.334 18.334 0 0 0 45.998 252.3590000000001L2.787 321.498A18.333 18.333 0 0 0 5.37 344.178zM96 140V180C96 186.627 90.627 192 84 192H44C37.373 192 32 186.627 32 180V140C32 133.373 37.373 128 44 128H84C90.627 128 96 133.373 96 140zM192 140V180C192 186.627 186.627 192 180 192H140C133.373 192 128 186.627 128 180V140C128 133.373 133.373 128 140 128H180C186.627 128 192 133.373 192 140zM288 140V180C288 186.627 282.627 192 276 192H236C229.373 192 224 186.627 224 180V140C224 133.373 229.373 128 236 128H276C282.627 128 288 133.373 288 140zM384 140V180C384 186.627 378.627 192 372 192H332C325.373 192 320 186.627 320 180V140C320 133.373 325.373 128 332 128H372C378.627 128 384 133.373 384 140zM480 140V180C480 186.627 474.627 192 468 192H428C421.373 192 416 186.627 416 180V140C416 133.373 421.373 128 428 128H468C474.627 128 480 133.373 480 140zM144 44V84C144 90.627 138.627 96 132 96H92C85.373 96 80 90.627 80 84V44C80 37.373 85.373 32 92 32H132C138.627 32 144 37.373 144 44zM240 44V84C240 90.627 234.627 96 228 96H188C181.373 96 176 90.627 176 84V44C176 37.373 181.373 32 188 32H228C234.627 32 240 37.373 240 44zM336 44V84C336 90.627 330.627 96 324 96H284C277.373 96 272 90.627 272 84V44C272 37.373 277.373 32 284 32H324C330.627 32 336 37.373 336 44zM432 44V84C432 90.627 426.627 96 420 96H380C373.373 96 368 90.627 368 84V44C368 37.373 373.373 32 380 32H420C426.627 32 432 37.373 432 44zM96 -52V-12C96 -5.373 90.627 0 84 0H44C37.373 0 32 -5.373 32 -12V-52C32 -58.627 37.373 -64 44 -64H84C90.627 -64 96 -58.627 96 -52zM384 -52V-12C384 -5.373 378.627 0 372 0H140C133.373 0 128 -5.373 128 -12V-52C128 -58.627 133.373 -64 140 -64H372C378.627 -64 384 -58.627 384 -52zM480 -52V-12C480 -5.373 474.627 0 468 0H428C421.373 0 416 -5.373 416 -12V-52C416 -58.627 421.373 -64 428 -64H468C474.627 -64 480 -58.627 480 -52z"/>
            </g></svg>