<svg xmlns="http://www.w3.org/2000/svg" viewBox="0 0 512 512">
            <g transform="scale(1,-1) translate(0 -448)">
              <path d=" M212.333 223.667H12C5.373 223.667 0 229.04 0 235.667V436C0 442.627 5.373 448 12 448H60C66.627 448 72 442.627 72 436V357.8880000000001C117.773 408.721 184.26 440.53 258.175 439.993C395.081 438.999 504.623 328.37 504.332 191.461C504.041 54.742 393.12 -56 256.3330000000001 -56C192.244 -56 133.8370000000001 -31.687 89.823 8.215C84.724 12.837 84.489 20.769 89.356 25.635L123.323 59.602C127.7970000000001 64.076 134.9850000000001 64.319 139.7240000000001 60.127C170.76 32.664 211.58 16 256.3330000000001 16C353.601 16 432.3330000000001 94.716 432.3330000000001 192C432.3330000000001 289.267 353.617 368 256.3330000000001 368C197.837 368 146.053 339.524 114.059 295.6670000000001H212.333C218.96 295.6670000000001 224.333 290.294 224.333 283.6670000000001V235.667C224.333 229.04 218.96 223.667 212.333 223.667z"/>
            </g></svg>