<svg xmlns="http://www.w3.org/2000/svg" viewBox="0 0 512 512">
            <g transform="scale(1,-1) translate(0 -448)">
              <path d=" M255.545 440C189.276 439.881 129.107 413.767 84.685 371.315L48.971 407.029C33.851 422.149 8 411.4410000000001 8 390.059V256C8 242.745 18.745 232 32 232H166.059C187.441 232 198.149 257.851 183.03 272.971L141.28 314.721C172.144 343.62 212.081 359.628 254.51 359.9940000000001C346.908 360.7920000000001 424.793 286.017 423.9940000000001 190.552C423.236 99.991 349.816 24 256 24C214.873 24 176.003 38.678 145.37 65.556C140.627 69.717 133.464 69.464 129.002 65.003L89.34 25.341C84.468 20.469 84.709 12.526 89.822 7.908C133.798 -31.813 192.074 -56 256 -56C392.966 -56 503.999 55.033 504 191.998C504.001 328.807 392.354 440.245 255.545 440z"/>
            </g></svg>