<svg xmlns="http://www.w3.org/2000/svg" viewBox="0 0 512 512">
            <g transform="scale(1,-1) translate(0 -448)">
              <path d=" M496 320V304A8 8 0 0 0 488 296H464V284C464 277.373 458.627 272 452 272H60C53.373 272 48 277.373 48 284V296H24A8 8 0 0 0 16 304V320A8 8 0 0 0 20.941 327.392L252.941 415.392A7.996000000000001 7.996000000000001 0 0 0 259.0590000000001 415.392L491.059 327.392A8 8 0 0 0 496 320zM472 16H40C26.745 16 16 5.255 16 -8V-24A8 8 0 0 1 24 -32H488A8 8 0 0 1 496 -24V-8C496 5.255 485.255 16 472 16zM96 256V64H60C53.373 64 48 58.627 48 52V32H464V52C464 58.627 458.627 64 452 64H416V256H352V64H288V256H224V64H160V256H96z"/>
            </g></svg>