<svg xmlns="http://www.w3.org/2000/svg" viewBox="0 0 512 512">
            <g transform="scale(1,-1) translate(0 -448)">
              <path d=" M304.0830000000001 42.093C308.769 37.407 308.769 29.809 304.0830000000001 25.122L259.4090000000001 -19.552C200.1460000000001 -78.814 103.716 -78.818 44.448 -19.552C-14.816 39.713 -14.816 136.144 44.448 195.4080000000001L89.123 240.0830000000001C93.809 244.7690000000001 101.407 244.7690000000001 106.094 240.0830000000001L145.692 200.485C150.3780000000001 195.799 150.3780000000001 188.201 145.692 183.514L101.017 138.84C72.945 110.7670000000001 72.945 65.09 101.017 37.0170000000001C129.089 8.9450000000001 174.7670000000001 8.9440000000001 202.841 37.0170000000001L247.5150000000001 81.691C252.2010000000001 86.377 259.7990000000001 86.377 264.4860000000001 81.691L304.0830000000001 42.093zM247.5150000000001 302.3090000000001C252.2010000000001 297.6230000000001 259.7990000000001 297.6230000000001 264.4860000000001 302.3090000000001L309.1600000000001 346.9830000000001C337.2320000000001 375.0580000000001 382.9100000000001 375.0560000000001 410.9840000000001 346.9830000000001C439.0560000000001 318.9100000000001 439.0560000000001 273.2330000000001 410.9840000000001 245.1600000000001L366.3090000000001 200.486C361.6230000000001 195.8 361.6230000000001 188.202 366.3090000000001 183.5150000000001L405.9070000000001 143.917C410.593 139.2310000000001 418.1910000000001 139.2310000000001 422.8780000000001 143.917L467.5530000000001 188.5920000000001C526.8180000000001 247.8570000000001 526.8180000000001 344.2870000000001 467.5530000000001 403.552C408.2870000000001 462.816 311.8580000000001 462.816 252.5920000000001 403.552L207.918 358.8780000000001C203.232 354.192 203.232 346.5940000000001 207.918 341.9070000000001L247.5150000000001 302.3090000000001zM482.3430000000001 -56.9709999999999L504.9700000000001 -34.3439999999999C514.3430000000001 -24.9709999999999 514.3430000000001 -9.7749999999999 504.9700000000001 -0.4029999999999L63.598 440.971C54.225 450.344 39.029 450.344 29.657 440.971L7.029 418.343C-2.344 408.9700000000001 -2.344 393.774 7.029 384.402L448.402 -56.971C457.775 -66.343 472.971 -66.343 482.343 -56.971z"/>
            </g></svg>