<svg xmlns="http://www.w3.org/2000/svg" viewBox="0 0 448 512">
            <g transform="scale(1,-1) translate(0 -448)">
              <path d=" M400 192H152V295.1C152 334.7 183.7 367.6 223.3 368C263.3 368.4 296 335.9 296 296V280C296 266.7 306.7 256 320 256H352C365.3 256 376 266.7 376 280V296C376 380 307.5 448.3 223.5 448C139.5 447.7 72 378.5 72 294.5V192H48C21.5 192 0 170.5 0 144V-16C0 -42.5 21.5 -64 48 -64H400C426.5 -64 448 -42.5 448 -16V144C448 170.5 426.5 192 400 192zM264 40C264 17.9 246.1 0 224 0S184 17.9 184 40V88C184 110.1 201.9 128 224 128S264 110.1 264 88V40z"/>
            </g></svg>