<svg xmlns="http://www.w3.org/2000/svg" viewBox="0 0 448 512">
            <g transform="scale(1,-1) translate(0 -448)">
              <path d=" M224 192C294.7 192 352 249.3 352 320S294.7 448 224 448S96 390.7 96 320S153.3 192 224 192zM104 24C104 10.7 114.7 0 128 0S152 10.7 152 24S141.3 48 128 48S104 37.3 104 24zM354.4 175.6L320 181.3V126.3C356.5 118.9 384 86.5 384 47.9V-8.1C384 -15.7 378.6 -22.3 371.1 -23.8L338.9000000000001 -30.2C334.6 -31.1 330.4000000000001 -28.3 329.5000000000001 -23.9L326.4000000000001 -8.2C325.5000000000001 -3.9 328.3 0.4 332.7000000000001 1.2L352.0000000000001 5.1V48C352.0000000000001 77.6 325.1000000000001 101 294.4000000000001 95.1C271.6 90.7000000000001 256.0000000000001 69.3 256.0000000000001 46.1V5.1L275.3000000000001 1.2C279.6000000000001 0.3000000000001 282.4000000000001 -3.9 281.6000000000001 -8.1999999999999L278.5000000000001 -23.8999999999999C277.6000000000001 -28.1999999999999 273.4000000000001 -30.9999999999999 269.1000000000001 -30.1999999999999L237.9000000000001 -25.9999999999999C230.0000000000001 -24.8999999999999 224.1000000000001 -18.1999999999999 224.1000000000001 -10.1V47.9C224.1000000000001 86.5000000000001 251.6000000000001 118.8000000000001 288.1000000000001 126.3000000000001V173.5000000000001C268.5000000000001 164.9 246.9000000000001 159.9 224.1000000000001 159.9C194.8000000000001 159.9 167.7000000000001 168.4 144.1000000000001 182.2000000000001V77.3000000000001C167.2000000000001 70.4000000000001 184.1000000000001 49.2 184.1000000000001 23.9000000000001C184.1000000000001 -6.9999999999999 159.0000000000001 -32.0999999999999 128.1000000000001 -32.0999999999999S72.1000000000001 -6.9999999999999 72.1000000000001 23.9000000000001C72.1000000000001 49.2000000000001 89.0000000000001 70.4000000000001 112.1000000000001 77.3000000000001V178.7L93.7000000000001 175.6C39.7000000000001 166.6 0.1000000000001 119.9 0.1000000000001 65.1V-32C0.1000000000001 -49.7 14.4000000000001 -64 32.1000000000001 -64H416.1000000000001C433.8000000000001 -64 448.1000000000001 -49.7 448.1000000000001 -32V65.1C448.0000000000001 119.9 408.4000000000001 166.6 354.4000000000001 175.6z"/>
            </g></svg>