<svg xmlns="http://www.w3.org/2000/svg" viewBox="0 0 512 512">
            <g transform="scale(1,-1) translate(0 -448)">
              <path d=" M8 192C8 328.967 119.033 440 256 440S504 328.967 504 192S392.967 -56 256 -56S8 55.033 8 192zM80.455 66.132C119.657 11.554 183.673 -24 256 -24S392.343 11.554 431.545 66.132C428.404 93.122 408.878 115.78 382.007 122.498L349.6329999999999 130.591C323.565 108.21 290.722 96 256 96S188.435 108.21 162.366 130.591L129.992 122.498C103.122 115.78 83.596 93.122 80.455 66.132zM144 240C144 178.144 194.144 128 256 128S368 178.144 368 240S317.856 352 256 352S144 301.856 144 240z"/>
            </g></svg>