<svg xmlns="http://www.w3.org/2000/svg" viewBox="0 0 640 512">
            <g transform="scale(1,-1) translate(0 -448)">
              <path d=" M224 416C301.32 416 364 353.32 364 276S301.32 136 224 136S84 198.68 84 276S146.68 416 224 416zM384.373 123.907L321.974 139.507C256.417 92.353 176.953 102.876 126.026 139.507L63.627 123.907C26.233 114.558 0 80.96 0 42.415V10C0 -13.196 18.804 -32 42 -32H406C429.1960000000001 -32 448 -13.196 448 10V42.415C448 80.96 421.767 114.558 384.373 123.9070000000001zM628 223.111H559.111V292C559.111 298.627 553.7379999999999 304 547.111 304H508.889C502.262 304 496.889 298.627 496.889 292L496.887 223.113L428 223.111C421.373 223.111 416 217.738 416 211.111V172.889C416 166.262 421.373 160.889 428 160.889L496.887 160.887L496.889 92C496.889 85.373 502.262 80 508.889 80H547.111C553.7379999999999 80 559.111 85.373 559.111 92L559.1129999999999 160.887L628 160.889C634.627 160.889 640 166.262 640 172.889V211.111C640 217.738 634.627 223.111 628 223.111z"/>
            </g></svg>