<svg xmlns="http://www.w3.org/2000/svg" viewBox="0 0 576 512">
            <g transform="scale(1,-1) translate(0 -448)">
              <path d=" M564 448H485C474.3 448 469 435.1 476.5 427.5L493.4 410.6L444.7 361.9C422.5 375.9 396.2 384 368 384C334.3 384 303.4 372.4 278.8 353.1C292.8 336.4 303.8 317.1 310.9000000000001 296C325.4000000000001 310.8 345.6 320 368.0000000000001 320C412.1000000000001 320 448.0000000000001 284.1 448.0000000000001 240S412.1000000000001 160 368.0000000000001 160C345.7000000000001 160 325.4000000000001 169.2 310.9000000000001 184C303.8 162.9 292.9000000000001 143.6 278.8 126.9C303.3 107.5 334.3 96 368 96C447.5 96 512 160.5 512 240C512 268.2 503.9 294.5 489.9 316.7L538.6 365.4L555.5 348.5C557.9 346.1 560.9 345 563.9 345C570.1 345 576 349.8 576 357V436C576 442.6 570.6 448 564 448zM144 384C64.5 384 0 319.5 0 240C0 171.5 47.9 114.1 112 99.6V48H76C69.4 48 64 42.6 64 36V-4C64 -10.6 69.4 -16 76 -16H112V-52C112 -58.6 117.4 -64 124 -64H164C170.6 -64 176 -58.6 176 -52V-16H212C218.6 -16 224 -10.6 224 -4V36C224 42.6 218.6 48 212 48H176V99.6C240.1 114.2000000000001 288 171.5 288 240.0000000000001C288 319.5 223.5 384 144 384zM144 160C99.9 160 64 195.9 64 240S99.9 320 144 320S224 284.1 224 240S188.1 160 144 160z"/>
            </g></svg>