<svg xmlns="http://www.w3.org/2000/svg" viewBox="0 0 512 512">
            <g transform="scale(1,-1) translate(0 -448)">
              <path d=" M288 272C288 351.5 223.5 416 144 416S0 351.5 0 272C0 203.5 47.9 146.1 112 131.6V80H76C69.4 80 64 74.6 64 68V28C64 21.4 69.4 16 76 16H112V-20C112 -26.6 117.4 -32 124 -32H164C170.6 -32 176 -26.6 176 -20V16H212C218.6 16 224 21.4 224 28V68C224 74.6 218.6 80 212 80H176V131.6C240.1 146.1 288 203.5 288 272zM64 272C64 316.1 99.9 352 144 352S224 316.1 224 272S188.1 192 144 192S64 227.9 64 272zM400 131.6V80H436C442.6 80 448 74.6 448 68V28C448 21.4 442.6 16 436 16H400V-20C400 -26.6 394.6 -32 388 -32H348C341.4 -32 336 -26.6 336 -20V16H300C293.4 16 288 21.4 288 28V68C288 74.6 293.4 80 300 80H336V131.6C314.8 136.4 295.4 145.9 278.8 158.9C292.8 175.6 303.8 194.9 310.9000000000001 216C325.4000000000001 201.2 345.6 192 368.0000000000001 192C412.1000000000001 192 448.0000000000001 227.9000000000001 448.0000000000001 272S412.1000000000001 352 368.0000000000001 352C345.7000000000001 352 325.4000000000001 342.8 310.9000000000001 328C303.8 349.1 292.9000000000001 368.4000000000001 278.8 385.1C303.4 404.4 334.3 416 368 416C447.5 416 512 351.5 512 272C512 203.5 464.1 146.1 400 131.6z"/>
            </g></svg>