<svg xmlns="http://www.w3.org/2000/svg" viewBox="0 0 512 512">
            <g transform="scale(1,-1) translate(0 -448)">
              <path d=" M448 384H422C438.4 355.7 448 323 448 288C448 182.1 361.9 96 256 96S64 182.1 64 288C64 323 73.6 355.7 90 384H64C28.7 384 0 355.3 0 320V0C0 -35.3 28.7 -64 64 -64H448C483.3 -64 512 -35.3 512 0V320C512 355.3 483.3 384 448 384zM256 128C344.4 128 416 199.6 416 288S344.4 448 256 448S96 376.4 96 288S167.6 128 256 128zM255.7 279.9L289.3 358.3C292.8 366.5 302.2 370.2000000000001 310.3 366.7000000000001S322.2 353.8 318.7 345.7000000000001L285 267.1C291.7 260 295.9 250.5 295.9 240C295.9 217.9 278 200 255.9 200S215.9 217.9 215.9 240C216 262 233.8 279.8 255.7 279.9z"/>
            </g></svg>