<svg xmlns="http://www.w3.org/2000/svg" viewBox="0 0 640 512">
            <g transform="scale(1,-1) translate(0 -448)">
              <path d=" M384 32C384 -3.346 355.346 -32 320 -32S256 -3.346 256 32C256 67.346 284.654 96 320 96S384 67.346 384 32zM520.659 156.443C527.124 162.908 526.904 173.508 520.095 179.61C406.302 281.5950000000001 233.569 281.4790000000001 119.905 179.61C113.096 173.5080000000001 112.876 162.908 119.341 156.443L153.347 122.437C159.274 116.51 168.811 116.117 175.1160000000001 121.641C257.9960000000001 194.25 382.1900000000001 194.088 464.884 121.641C471.189 116.117 480.726 116.509 486.653 122.437L520.659 156.443zM632.769 270.161C639.154 276.546 639.023 286.977 632.419 293.134C456.651 456.994 183.285 456.934 7.582 293.134C0.978 286.977 0.847 276.545 7.232 270.161L41.198 236.195C47.293 230.1 57.089 229.964 63.422 235.812C208.185 369.48 431.778 369.514 576.578 235.812C582.911 229.964 592.707 230.1 598.802 236.195L632.769 270.161z"/>
            </g></svg>