<svg xmlns="http://www.w3.org/2000/svg" viewBox="0 0 512 512">
            <g transform="scale(1,-1) translate(0 -448)">
              <path d=" M512 400V112C512 85.5 490.5 64 464 64H416V272C416 316.1 380.1 352 336 352H128V400C128 426.5 149.5 448 176 448H464C490.5 448 512 426.5 512 400zM384 272V-16C384 -42.5 362.5 -64 336 -64H48C21.5 -64 0 -42.5 0 -16V272C0 298.5 21.5 320 48 320H336C362.5 320 384 298.5 384 272zM316 244C316 250.6 310.6 256 304 256H76C69.4 256 64 250.6 64 244V192H316V244z"/>
            </g></svg>